<svg width="15" height="19" viewBox="0 0 15 19" fill="none" xmlns="http://www.w3.org/2000/svg">
<path d="M7.29152 18.7039C7.09311 18.7039 6.94431 18.6047 6.7955 18.5055C6.49789 18.2079 0 11.1644 0 7.29543C0 3.27765 3.27375 0.00390625 7.29152 0.00390625C11.3093 0.00390625 14.583 3.27765 14.583 7.29543C14.583 11.1644 8.08515 18.2079 7.78754 18.5055C7.63874 18.6543 7.48993 18.7039 7.29152 18.7039ZM7.29152 1.29356C4.01778 1.29356 1.33926 3.97208 1.33926 7.24582C1.33926 9.82513 5.30743 14.7853 7.29152 17.067C9.32521 14.7853 13.2438 9.82513 13.2438 7.24582C13.2934 3.97208 10.6149 1.29356 7.29152 1.29356Z" fill="white"/>
<path d="M7.2972 10.2233C5.51152 10.2233 4.02344 8.7352 4.02344 6.94953C4.02344 5.16385 5.51152 3.67578 7.2972 3.67578C9.08287 3.67578 10.5709 5.16385 10.5709 6.94953C10.5709 8.7848 9.13248 10.2233 7.2972 10.2233ZM7.2972 5.01505C6.20595 5.01505 5.31311 5.90788 5.31311 6.99913C5.31311 8.09038 6.20595 8.98322 7.2972 8.98322C8.38844 8.98322 9.28128 8.09038 9.28128 6.99913C9.28128 5.85828 8.38844 5.01505 7.2972 5.01505Z" fill="white"/>
</svg>
