<svg width="8" height="14" viewBox="0 0 8 14" fill="none" xmlns="http://www.w3.org/2000/svg">
<path d="M5.54677 11.7117L5.5468 9.00755C5.5468 8.81531 5.70264 8.65948 5.89488 8.65948C6.57961 8.65948 7.15558 8.14615 7.23407 7.46593L7.27578 7.10441C7.36958 6.29153 6.73405 5.57845 5.91578 5.57845C5.71198 5.57845 5.54676 5.41323 5.54676 5.20942V4.7498C5.54676 4.46352 5.58876 4.35648 5.61761 4.3182C5.61768 4.3181 5.61778 4.31796 5.61791 4.31777C5.62291 4.3106 5.67436 4.23672 5.96966 4.23672V3.73672L5.96992 4.23672C6.79519 4.23629 7.45577 3.55936 7.45577 2.74319C7.45577 2.00845 6.9083 1.34094 6.11865 1.30635C5.93397 1.29826 5.73112 1.29297 5.51885 1.29297C4.68957 1.29297 3.94761 1.57932 3.41742 2.1649C2.89195 2.74528 2.62365 3.56483 2.62365 4.54377V5.27443C2.62365 5.44234 2.48754 5.57845 2.31964 5.57845C1.59945 5.57845 1.01562 6.16228 1.01562 6.88246V7.35546C1.01562 8.07565 1.59945 8.65948 2.31964 8.65948C2.48754 8.65948 2.62365 8.79559 2.62365 8.96349V11.7117C2.62365 12.5189 3.27802 13.1733 4.08521 13.1733C4.8924 13.1733 5.54676 12.5189 5.54677 11.7117Z" stroke="white"/>
</svg>
