<svg width="425" height="356" viewBox="0 0 425 356" fill="none" xmlns="http://www.w3.org/2000/svg">
<circle cx="175" cy="180" r="150" transform="rotate(-180 175 180)" stroke="#DD264E" stroke-width="50"/>
<rect x="425" y="355" width="261" height="350" transform="rotate(-180 425 355)" fill="white"/>
<path d="M95.3482 175.15C102.337 177.147 110.34 178.333 119.362 178.705M254.887 222.928C253.94 216.859 253.042 210.208 252.239 203.686C253.114 201.936 256.141 201.805 257.073 203.76C259.005 211.175 259.759 217.627 260.609 223.01C270.345 219.692 279.028 223.282 278.113 231.24C272.77 229.021 266.858 232.339 259.833 234.44C252.807 236.538 243.649 237.724 237.101 232.662C226.452 237.773 227.638 254.298 241.884 257.244C269.909 261.508 293.904 259.551 313.56 251.243M249.188 223.029C248.396 217.011 247.218 210.183 246.668 203.762C247.542 202.012 251.002 201.841 252.239 203.644M242.725 223.434C241.933 217.416 241.06 210.487 240.512 204.066C241.386 202.316 245.151 201.816 246.769 203.899M236.999 232.764C235.576 223.552 234.692 214.071 234.355 204.319C235.228 202.569 238.995 202.069 240.613 204.152M220.33 156.829C214.635 186.95 216.364 212.882 225.31 235.44M184.999 182.988C191.682 196.058 196.669 206.284 199.959 213.666M223.602 99.4416C223.941 91.3321 224.541 84.2885 224.933 77.0042M189.96 119.365C183.283 118.688 179.565 118.544 173.568 117.974M254.097 118.466C260.575 117.636 266.782 116.703 272.72 115.671M216.845 99.982C215.296 90.5321 214.676 85.2615 213.669 78.0997M190.896 124.741C182.811 125.303 178.565 125.596 172.621 126.179M254.198 123.952C262.303 123.884 268.919 124.019 274.042 124.357M218.378 146.06C222.55 147.008 225.876 146.856 229.42 145.604M201.145 119.137C203.217 116.67 206.265 116.115 208.907 115.963C214.718 115.623 220.133 119.561 219.925 125.843C219.859 129.598 219.925 134.012 219.817 138.873C220.728 140.272 222.8 141.969 224.38 142.556C225.873 141.507 227.028 140.424 227.841 139.002C227.163 134.261 226.483 130.062 225.907 126.405C224.687 112.725 239.986 111.268 246.261 121.022M307.114 253.69C303.756 264.727 299.753 272.989 294.904 278.882M285.032 258.45C282.115 266.745 278.247 273.552 273.431 278.867M182.736 225.627C172.797 243.166 159.398 254.79 141.726 260.953M226.416 156.88C243.479 171.644 254.775 184.782 259.389 189.59M287.737 244.354C304.409 241.855 309.696 221.526 296.683 209.708C268.553 182.492 239.395 160.517 231.805 155.383M193.854 228.802C186.425 249.793 171.695 266.606 150.833 278.932M260.71 259.072C257.963 266.658 253.247 273.295 246.566 278.983M240.715 256.824C239.171 263.41 235.084 270.774 228.451 278.92M194.623 165.316C183.08 157.794 172.441 143.645 172.441 127.652C172.441 99.6844 195.207 77 223.276 77C251.347 77 274.111 99.6844 274.111 127.652C274.111 140.656 269.087 153.173 260.086 162.585M210.517 232.907C208.28 252.088 200.154 267.258 188.429 278.873M115.903 189.59C104.676 187.931 96.5006 185.985 89.548 183.581C86.9869 184.191 85.8175 185.884 86.023 188.638C111.982 198.7 135.195 205.117 155.462 207.884M106.213 182.743C100.657 181.886 95.81 180.691 91.48 179.06C91.2767 177.012 93.2616 175.21 95.5516 175.302C95.1279 173.405 96.382 171.653 98.8076 171.265C108.51 173.065 117.159 173.759 123.841 173.895M105.98 187.796C105.184 185.611 106.084 181.702 107.66 180.533C111.156 180.619 114.768 180.89 118.549 181.295M160.781 183.699C151.486 176.723 142.192 172.185 132.999 170.289C127.334 171.746 122.959 173.947 119.873 176.791C118.718 180.786 117.973 184.917 117.634 189.183C123.976 189.455 127.3 186.882 127.503 181.464C129.37 180.719 131.304 179.568 133.306 178.008C135.373 181.599 138.324 184.104 142.158 185.527M169.431 179.532C181.845 203.675 196.192 218.879 210.235 225.549C211.21 206.974 200.065 193.383 201.609 179.473C202.849 168.324 209.087 161.04 214.534 155.005M160.576 186.135C168.378 196.26 177.027 207.468 186.73 220.167M232.021 236.453L225.92 192.286L264.759 189.246L269.334 221.667M234.258 154.142C307.188 201.284 312.137 198.903 314.984 278.595M207.416 150.953C195.69 161.893 187.422 175.469 185.05 183.167C181.315 181.24 176.612 179.355 170.844 178.021C170.397 178.435 169.973 179.026 169.583 179.72C166.497 178.587 163.614 177.842 160.934 177.436C161.394 187.152 159.021 199.173 153.532 213.355C175.424 224.768 201.791 232.536 232.631 236.656M238.272 151.409C264.352 166.298 293.647 177.223 304.502 188.898C318.46 203.912 319.102 224.371 322 279L141.79 278.949C138.621 260.495 144.991 240.506 160.851 217.005M206.107 123.553C206.24 123.405 206.384 123.27 206.535 123.145C208.32 121.681 211.193 121.877 212.536 123.511C210.987 125.503 207.441 125.461 206.107 123.553ZM239.029 122.472C237.45 120.737 234.461 120.822 233.131 122.451C234.557 124.275 237.811 124.226 239.029 122.472ZM202.605 123.468C202.878 123.093 203.173 122.744 203.48 122.43C207.128 118.702 213.002 119.205 215.75 123.369C212.589 128.441 205.338 128.332 202.605 123.468ZM242.24 122.384C239.012 117.968 232.902 118.179 230.182 122.331C233.095 126.974 239.749 126.852 242.24 122.384ZM223.912 157.059C210.583 156.455 200.982 147.014 198.779 128.88C198.165 131.135 195 131.177 193.828 129.915C190.382 126.033 188.318 117.301 191.651 114.892C191.932 114.69 192.572 114.557 193.182 114.686C202.402 95.9779 238.73 93.6159 250.932 112.457C255.08 113.571 255.69 124.712 252.264 129.045C251.188 130.35 248.619 130.206 247.888 128.03C246.79 145.391 238.435 155.081 226.041 156.859C225.348 156.958 224.634 157.059 223.912 157.059Z" stroke="#292526" stroke-width="1.62" stroke-miterlimit="22.926"/>
<path fill-rule="evenodd" clip-rule="evenodd" d="M389.499 0L384.179 5.31827L380.208 1.18965L379.976 0.948836H379.642L359.004 0.948835H358.219L358.219 1.73384L358.219 22.0032L358.219 22.3284L358.449 22.5583L362.6 26.7085L358.449 30.8587L358.219 31.0887L358.219 31.4139L358.219 52.0452L358.219 52.8302H359.004L379.28 52.8302H379.605L379.835 52.6004L383.987 48.4498L389.756 54.2169L384.09 59.8808L380.208 55.8445L379.976 55.6036H379.642L359.004 55.6036H358.219L358.219 56.3886L358.219 76.658L358.219 76.9855L358.452 77.2159L362.621 81.3429L358.449 85.5135L358.219 85.7435L358.219 86.0687L358.219 106.7L358.219 107.485H359.004H379.28H379.605L379.835 107.255L384.077 103.014L389.756 108.691L384.09 114.355L380.208 110.318L379.976 110.077H379.642H359.004H358.219L358.219 110.862L358.219 131.132L358.219 131.459L358.452 131.69L362.621 135.817L358.449 139.987L358.219 140.217L358.219 140.543L358.219 161.174L358.219 161.959H359.004H379.28H379.605L379.835 161.729L383.987 157.578L389.756 163.346L384.179 168.921L380.208 164.792L379.976 164.551H379.642H359.004H358.219L358.219 165.336L358.219 185.606L358.219 185.933L358.452 186.164L362.621 190.291L358.449 194.461L358.219 194.691L358.219 195.016L358.219 215.648L358.219 216.433H359.004H379.28H379.605L379.835 216.203L383.987 212.052L389.756 217.819L384.179 223.395L380.208 219.266L379.976 219.025H379.642H359.004H358.219L358.219 219.81L358.219 240.079L358.219 240.407L358.452 240.637L362.621 244.764L358.449 248.935L358.219 249.165L358.219 249.49L358.219 269.941L358.219 270.726H359.004H379.28H379.605L379.835 270.496L383.896 266.436L389.756 272.293L384.09 277.957L380.208 273.921L379.976 273.68H379.642H359.004H358.219L358.219 274.465L358.219 294.734L358.219 295.062L358.452 295.292L362.621 299.419L358.449 303.59L358.219 303.82L358.219 304.145L358.219 324.776V325.561H359.004H379.28H379.605L379.835 325.332L384.077 321.09L389.756 326.767L384.179 332.342L380.208 328.214L379.976 327.973H379.642H359.004H358.219V328.758V349.027V349.352L358.449 349.582L363.88 355.012L364.99 353.901L359.789 348.702L359.789 329.543H379.308L383.068 333.452L377.379 339.14L376.214 337.975L375.976 337.737L375.639 337.746L368.579 337.927L367.814 337.946V338.712V345.227V345.552L368.044 345.782L377.458 355.193L378.568 354.082L378.489 354.004L384.157 348.338L388.128 352.467L388.36 352.708H388.694H409.332H410.117V351.923V331.653V331.326L409.884 331.096L405.26 326.518L409.706 322.074L409.936 321.844V321.519V301.249V300.464H409.151H388.875H388.55L388.32 300.694L383.987 305.026L378.489 299.53L384.157 293.865L388.128 297.993L388.36 298.234H388.694H409.332H410.117V297.449V277.18V276.852L409.884 276.622L405.26 272.044L409.706 267.6L409.936 267.37V267.045V246.776V245.991H409.151H388.875H388.55L388.32 246.22L384.077 250.461L378.489 244.875L384.157 239.21L388.128 243.338L388.36 243.579H388.694H409.332H410.117V242.794L410.117 222.525V222.197L409.884 221.967L405.351 217.48L409.706 213.126L409.936 212.896V212.571V192.302V191.517H409.151H388.875H388.55L388.32 191.747L384.077 195.988L378.489 190.401L384.157 184.736L388.128 188.864L388.36 189.105H388.694H409.332H410.117V188.32V168.051V167.723L409.884 167.493L405.26 162.916L409.706 158.471L409.936 158.242V157.916V137.647V136.862H409.151H388.875H388.55L388.32 137.092L383.987 141.423L378.489 135.928L384.157 130.262L388.128 134.391L388.36 134.631H388.694H409.332H410.117V133.846V113.577V113.25L409.884 113.019L405.26 108.442L409.706 103.998L409.936 103.768V103.442L409.936 83.1731V82.3881H409.151H388.875H388.55L388.32 82.618L383.987 86.9495L378.489 81.4538L384.157 75.7882L388.128 79.9168L388.36 80.1576H388.694H409.332H410.117V79.3726V59.1033V58.7758L409.884 58.5454L405.351 54.0582L409.706 49.7048L409.936 49.4748V49.1496V28.6993V27.9143H409.151H388.875H388.55L388.32 28.1441L384.077 32.3852L378.489 26.799L384.157 21.1334L388.128 25.262L388.36 25.5028H388.694H409.332H410.117V24.7178V4.44849V4.12097L409.884 3.89058L405.954 0H403.722L408.547 4.77599V23.9328H389.028L385.267 20.0232L390.776 14.5168L392.122 15.8622L392.36 16.1004L392.697 16.0918L399.757 15.9108L400.522 15.8912V15.1261L400.522 8.61093V8.28569L400.292 8.05576L392.234 0H389.499ZM392.993 14.5137L391.886 13.4068L397.655 7.63966L398.952 8.93616V14.3609L392.993 14.5137ZM390.866 0.853072L396.545 6.52969L377.379 25.6891L371.7 20.0124L390.866 0.853072ZM376.359 13.1353L370.59 18.9024L369.384 17.6965V12.2717L375.342 12.1189L376.359 13.1353ZM383.068 6.42844L377.469 12.0254L376.214 10.7704L375.976 10.5322L375.639 10.5408L368.579 10.7218L367.814 10.7414V11.5065V18.0217V18.3469L368.044 18.5769L382.967 33.4951L377.288 39.1718L359.789 21.6779L359.789 2.51884L379.308 2.51884L383.068 6.42844ZM370.478 34.5836L376.178 40.2818L374.972 41.4875H369.203V35.7428L370.478 34.5836ZM363.711 27.8185L369.366 33.4724L367.89 34.8145L367.633 35.0481V35.3954V42.2725V43.0575H368.418H375.297H375.622L375.852 42.8277L389.2 29.4843H408.366V48.8244L404.235 52.9537L398.62 47.395L400.473 45.5423L400.703 45.3124V44.9871V38.472V37.687H399.918H392.858H392.532L392.303 37.9168L378.955 51.2602L359.789 51.2602L359.789 31.7391L363.711 27.8185ZM399.133 44.6619L397.504 46.2905L391.797 40.6419L393.183 39.257H399.133V44.6619ZM385.097 47.3398L390.687 41.7518L408.547 59.4308V78.5876H389.028L385.267 74.678L390.866 69.0811L392.122 70.336L392.36 70.5742L392.697 70.5656L399.757 70.3846L400.522 70.3651V69.5999V63.0847V62.7595L400.292 62.5296L385.097 47.3398ZM392.993 68.9875L391.977 67.9711L397.746 62.204L398.952 63.41V68.8348L392.993 68.9875ZM390.866 55.3269L396.635 61.094L377.379 80.3439L371.61 74.5767L390.866 55.3269ZM376.269 67.6996L370.5 73.4668L369.384 72.3513V66.9265L375.342 66.7738L376.269 67.6996ZM382.98 60.991L377.379 66.5897L376.214 65.4252L375.976 65.187L375.639 65.1956L368.579 65.3766L367.814 65.3962V66.1613V72.6765V73.0017L368.044 73.2317L382.876 88.0595L377.285 93.6492L359.789 76.3305L359.789 57.1736L379.308 57.1736L382.98 60.991ZM370.445 89.0877L376.174 94.7592L374.972 95.9613H369.203V90.2166L370.445 89.0877ZM363.737 82.4474L369.327 87.9816L367.89 89.2883L367.633 89.5219V89.8692V96.7463V97.5313H368.418H375.297H375.622L375.852 97.3015L389.2 83.9581H408.366L408.366 103.117L404.144 107.337L398.711 101.959L400.473 100.197L400.703 99.9672V99.6419V93.1268V92.3418H399.918H392.858H392.532L392.303 92.5717L378.955 105.915H359.789L359.789 86.394L363.737 82.4474ZM399.133 99.3167L397.595 100.854L391.888 95.2057L393.183 93.9118H399.133V99.3167ZM385.188 101.904L390.778 96.3157L408.547 113.905V133.061H389.028L385.267 129.152L390.866 123.555L392.122 124.81L392.36 125.048L392.697 125.039L399.757 124.858L400.522 124.839V124.074V117.559V117.233L400.292 117.003L385.188 101.904ZM392.993 123.461L391.976 122.445L397.746 116.678L398.952 117.884V123.309L392.993 123.461ZM390.866 109.801L396.635 115.568L377.379 134.818L371.61 129.051L390.866 109.801ZM376.269 122.173L370.5 127.941L369.384 126.825V121.4L375.342 121.248L376.269 122.173ZM382.98 115.465L377.379 121.064L376.214 119.899L375.976 119.661L375.639 119.669L368.579 119.85L367.814 119.87V120.635V127.15V127.476L368.044 127.706L382.876 142.533L377.285 148.123L359.789 130.804L359.789 111.647H379.308L382.98 115.465ZM370.445 143.562L376.174 149.233L374.972 150.435H369.203V144.69L370.445 143.562ZM363.737 136.921L369.328 142.455L367.89 143.762L367.633 143.996V144.343V151.22V152.005H368.418H375.297H375.622L375.852 151.775L389.2 138.432H408.366V157.591L404.144 161.811L398.711 156.433L400.473 154.671L400.703 154.441V154.116V147.601V146.816H399.918H392.858H392.532L392.303 147.045L378.955 160.389H359.789L359.789 140.868L363.737 136.921ZM399.133 153.791L397.595 155.328L391.888 149.68L393.183 148.386H399.133V153.791ZM385.097 156.468L390.778 150.79L408.547 168.378V187.535H389.028L385.267 183.626L390.776 178.119L392.122 179.465L392.36 179.703L392.697 179.694L399.757 179.513L400.522 179.494V178.729V172.213V171.888L400.292 171.658L385.097 156.468ZM392.993 178.116L391.886 177.009L397.655 171.242L398.952 172.539V177.963L392.993 178.116ZM390.866 164.456L396.545 170.132L377.379 189.292L371.7 183.615L390.866 164.456ZM376.359 176.738L370.59 182.505L369.384 181.299V175.874L375.342 175.721L376.359 176.738ZM383.068 170.031L377.469 175.628L376.214 174.373L375.976 174.135L375.639 174.143L368.579 174.324L367.814 174.344V175.109V181.624V181.949L368.044 182.179L382.967 197.098L377.376 202.687L359.789 185.278L359.789 166.121H379.308L383.068 170.031ZM370.54 198.13L376.265 203.797L374.972 205.09H369.203V199.345L370.54 198.13ZM363.737 191.395L369.423 197.024L367.89 198.417L367.633 198.651V198.998V205.875V206.66H368.418H375.297H375.622L375.852 206.43L389.2 193.087H408.366V212.246L404.235 216.375L398.711 210.907L400.473 209.145L400.703 208.915V208.59V202.074V201.289H399.918H392.858H392.532L392.303 201.519L378.955 214.863H359.789L359.789 195.342L363.737 191.395ZM399.133 208.264L397.595 209.802L391.888 204.153L393.183 202.859H399.133V208.264ZM385.097 210.942L390.778 205.263L408.547 222.852L408.547 242.009H389.028L385.267 238.1L390.776 232.593L392.122 233.939L392.36 234.177L392.697 234.168L399.757 233.987L400.522 233.967V233.202V226.687V226.362L400.292 226.132L385.097 210.942ZM392.993 232.59L391.886 231.483L397.655 225.716L398.952 227.012V232.437L392.993 232.59ZM390.866 218.929L396.545 224.606L377.379 243.765L371.7 238.089L390.866 218.929ZM376.359 231.212L370.59 236.979L369.384 235.773V230.348L375.342 230.195L376.359 231.212ZM383.068 224.505L377.469 230.102L376.214 228.847L375.976 228.609L375.639 228.617L368.579 228.798L367.814 228.818V229.583V236.098V236.423L368.044 236.653L382.967 251.571L377.376 257.161L359.789 239.752L359.789 220.595H379.308L383.068 224.505ZM370.54 252.604L376.265 258.271L374.972 259.564H369.203V253.819L370.54 252.604ZM363.737 245.869L369.423 251.497L367.89 252.891L367.633 253.124V253.472V260.349V261.134H368.418H375.297H375.622L375.852 260.904L389.2 247.561H408.366V266.72L404.144 270.94L398.529 265.381L400.473 263.438L400.703 263.208V262.882V256.367V255.582H399.918H392.858H392.532L392.303 255.812L378.955 269.156H359.789L359.789 249.815L363.737 245.869ZM399.133 262.557L397.413 264.277L391.706 258.628L393.183 257.152H399.133V262.557ZM385.007 265.326L390.596 259.738L408.547 277.507V296.664H389.028L385.267 292.754L390.866 287.157L392.122 288.412L392.36 288.651L392.697 288.642L399.757 288.461L400.522 288.441V287.676V281.161V280.836L400.292 280.606L385.007 265.326ZM392.993 287.064L391.977 286.047L397.746 280.28L398.952 281.486V286.911L392.993 287.064ZM390.866 273.403L396.635 279.17L377.379 298.42L371.61 292.653L390.866 273.403ZM376.269 285.776L370.5 291.543L369.384 290.428V285.003L375.342 284.85L376.269 285.776ZM382.98 279.067L377.379 284.666L376.214 283.502L375.976 283.263L375.639 283.272L368.579 283.453L367.814 283.473V284.238V290.753V291.078L368.044 291.308L382.876 306.136L377.285 311.726L359.789 294.407L359.789 275.25H379.308L382.98 279.067ZM370.445 307.164L376.174 312.836L374.972 314.038H369.203V308.293L370.445 307.164ZM363.737 300.524L369.328 306.058L367.89 307.365L367.633 307.598V307.946V314.823V315.608H368.418H375.297H375.622L375.852 315.378L389.2 302.034H408.366V321.194L404.144 325.414L398.711 320.035L400.473 318.273L400.703 318.044V317.718L400.703 311.203V310.418H399.918H392.858H392.532L392.303 310.648L378.955 323.991H359.789L359.789 304.47L363.737 300.524ZM399.133 317.393L397.595 318.931L391.888 313.282L393.183 311.988H399.133L399.133 317.393ZM385.188 319.98L390.778 314.392L408.547 331.981V351.138H389.028L385.267 347.228L390.866 341.631L392.122 342.886L392.36 343.124L392.697 343.116L399.757 342.935L400.522 342.915V342.15V335.635V335.31L400.292 335.08L385.188 319.98ZM392.993 341.538L391.977 340.521L397.746 334.754L398.952 335.96L398.952 341.385L392.993 341.538ZM390.866 327.877L396.635 333.644L377.379 352.894L371.61 347.127L390.866 327.877ZM376.269 340.25L370.5 346.017L369.384 344.901V339.477L375.342 339.324L376.269 340.25Z" fill="#DD264E"/>
</svg>
