<svg width="443" height="397" viewBox="0 0 443 397" fill="none" xmlns="http://www.w3.org/2000/svg">
<circle cx="268" cy="216" r="150" transform="rotate(-180 268 216)" stroke="#6442EE" stroke-width="50"/>
<rect x="261" y="391" width="261" height="391" transform="rotate(-180 261 391)" fill="white"/>
<path d="M172.906 139.351C173.627 137.908 177.956 137.007 181.382 137.548M171.103 151.975C170.562 145.483 169.84 138.089 169.66 137.187C171.824 132.318 179.579 131.236 184.989 134.843M151.806 138.81C155.593 134.482 162.987 133.941 166.775 137.728C166.955 140.613 167.496 149.27 167.676 154.86C167.676 156.123 169.66 156.303 171.463 155.041M154.872 140.613C157.577 137.908 163.168 137.908 166.414 140.253M173.447 144.401C175.611 146.745 180.841 146.024 182.825 143.499M155.413 145.843C157.577 148.188 162.807 147.466 164.791 144.942M171.824 143.679C173.988 139.892 179.398 138.99 183.366 141.335M165.332 142.777C161.364 140.433 155.954 141.335 153.79 145.122C152.888 149.45 157.397 160.631 162.446 167.484C166.234 173.075 174.349 173.796 178.857 168.927M209.876 227.718C220.335 221.225 231.336 214.733 231.697 214.913M222.68 199.765C215.466 203.191 205.548 209.323 202.843 211.667C204.646 215.274 208.613 220.865 210.777 222.848C213.302 221.045 222.86 215.454 230.074 211.667M199.055 247.375C198.875 239.981 201.4 226.816 203.925 220.865M229.533 311.395C232.058 308.87 234.222 312.117 237.287 311.035M202.121 268.835C203.023 273.704 221.598 296.066 239.452 313.379C237.648 316.445 233.861 312.297 231.517 313.74M193.104 266.491C193.104 267.212 193.465 268.294 193.645 268.835M191.842 253.326C189.678 248.998 191.301 244.85 195.088 245.03C198.695 245.211 201.039 249.178 199.777 254.228M201.4 263.425C195.449 261.982 187.694 263.064 185.891 265.589C185.35 266.491 185.891 267.573 186.973 267.753C188.956 266.851 194.547 266.31 198.334 266.671C203.564 270.278 212.761 272.803 216.729 271.901M184.809 264.507C184.087 264.146 183.907 263.064 184.448 262.343C186.612 259.277 195.268 258.195 201.76 260.179M184.087 261.08C183.185 260.72 183.005 259.457 183.907 258.375C187.514 255.49 196.17 254.949 201.4 257.113M212.581 255.31C217.811 255.67 223.582 260.72 224.123 265.409M212.22 256.572C216.368 258.195 220.696 264.507 220.516 269.015M184.087 256.211C186.612 253.326 194.727 252.424 200.498 254.408C201.76 254.047 207.531 255.67 212.22 257.834C215.827 260.539 217.991 267.753 216.548 272.081C221.237 270.999 233.14 254.949 240.714 240.341C238.55 218.881 214.204 182.633 192.022 168.205M216.548 213.831C217.089 214.192 217.811 214.012 217.991 213.29C218.171 211.848 216.368 210.946 215.106 212.208C213.663 214.012 214.745 216.176 217.089 216.356C219.434 216.536 221.418 213.831 220.155 211.126C219.253 209.143 215.647 206.978 211.499 207.88M225.024 209.143C225.205 209.864 224.664 210.405 223.942 210.405C222.5 210.044 222.319 208.061 223.942 207.339C226.106 206.618 227.729 208.421 227.188 210.766C226.467 212.93 223.401 213.831 221.237 211.667C219.794 210.044 219.073 205.896 221.418 202.47M150.544 228.619C150.905 227.357 150.003 226.455 148.56 226.455C146.216 226.996 145.675 230.603 148.56 232.046C152.528 233.308 155.233 230.062 154.151 226.094C152.888 222.127 147.298 220.684 143.511 224.471C142.248 225.734 140.986 228.078 140.806 230.783M212.581 216.176C212.761 216.897 212.22 217.438 211.499 217.438C210.056 217.078 209.876 215.094 211.499 214.372C213.663 213.651 215.286 215.454 214.745 217.799C214.024 219.963 210.958 220.865 208.794 218.701C207.351 217.078 206.63 212.93 208.974 209.503M168.398 160.451C168.939 160.811 170.562 160.811 171.463 160.27M167.316 164.599C168.217 165.32 171.283 165.14 173.627 164.238M165.332 162.074C166.594 163.517 171.463 163.156 174.89 161.172M168.217 183.534C173.447 185.157 183.185 184.977 187.514 183.174M164.791 179.206C173.447 181.37 184.809 181.37 187.514 179.206M186.973 170.189C187.874 177.583 187.514 191.469 186.251 197.961C188.956 197.06 194.186 196.699 196.35 197.06M183.005 166.582C184.809 172.353 193.104 170.55 192.563 165.5M184.989 180.108C185.169 178.304 184.268 173.616 183.185 170.73C182.644 168.386 182.825 165.14 183.546 162.615C185.169 159.729 186.612 153.057 186.792 150.893C189.858 152.155 192.202 142.056 188.055 142.958C189.678 138.63 189.317 131.957 187.333 129.432M179.759 316.805C183.185 322.035 190.038 316.445 187.153 312.658M129.083 269.556C134.674 268.474 142.789 269.737 145.314 271.72M221.237 318.248C225.205 320.052 229.894 317.346 230.795 312.658M223.582 322.216C227.91 323.839 232.599 320.412 232.779 315.363C217.089 296.968 208.072 285.426 205.187 280.557M110.328 365.678C121.69 370.547 140.986 369.645 148.921 363.874M108.885 361.71C120.608 366.579 141.347 365.858 149.462 359.907M108.525 345.299C119.886 350.168 139.183 349.267 146.937 343.496M111.951 335.561C118.443 340.61 134.133 340.43 143.691 335.2M114.476 331.954C119.345 336.463 132.69 336.282 141.166 331.413M152.528 378.662C148.921 380.285 145.134 382.449 142.97 383.892C141.888 384.433 137.74 386.777 134.854 388.04C143.33 387.859 150.905 388.941 153.97 386.958C157.577 385.154 162.987 385.695 166.955 387.138C171.463 388.22 174.168 385.335 171.824 382.269C170.381 379.383 171.283 374.514 172.545 373.432M198.154 375.055C193.645 376.318 185.35 379.924 181.743 382.449C180.661 382.99 176.693 384.974 173.627 386.236C182.103 387.318 191.481 386.958 192.563 385.695C195.088 384.433 201.58 384.433 205.548 385.876C210.056 386.958 212.22 384.974 209.876 381.908C208.433 379.023 208.072 374.875 209.335 373.793M188.956 364.596C184.087 363.153 182.825 358.644 184.087 354.857C185.35 350.89 190.038 348.185 194.727 350.89M153.79 372.711C166.775 367.301 179.939 365.858 180.12 369.825C179.759 372.35 183.907 372.35 188.235 369.465C190.94 366.76 198.154 366.76 197.973 368.924C197.793 371.268 202.662 370.547 209.335 367.481C214.024 365.317 221.418 363.513 224.123 363.874M163.709 269.556C157.036 279.475 152.528 317.346 154.692 345.48C156.134 357.202 154.872 373.973 151.987 379.023C163.709 373.071 175.792 371.268 176.152 375.236C176.874 377.941 183.366 377.4 188.596 373.793C192.743 371.629 196.711 371.629 196.531 374.154C196.35 376.137 204.466 375.596 212.401 372.711C218.171 370.006 225.385 368.563 227.008 369.645C220.696 356.661 213.663 333.577 212.04 320.773C211.86 319.691 211.86 318.068 211.679 317.166M133.231 234.21C137.559 233.308 147.117 236.194 152.347 239.8M134.133 230.242C139.904 230.062 149.642 233.128 153.61 236.374M137.559 214.553C144.953 215.274 155.233 220.324 158.118 224.652M138.281 211.126C145.134 210.946 156.134 215.815 160.282 220.684M160.282 175.239C160.643 175.419 161.184 175.78 161.364 176.14C169.119 181.911 177.595 198.863 178.497 211.307M209.515 183.354C193.645 190.207 183.005 225.553 188.055 253.867M191.842 168.025C192.563 170.55 192.383 182.452 191.661 191.469C194.547 191.289 198.875 191.289 199.957 191.289M155.774 172.353C157.577 173.075 159.02 171.271 157.938 169.287C156.315 166.763 152.528 167.664 151.806 170.55C150.905 173.796 153.429 176.681 156.676 176.501C159.02 176.501 161.364 174.698 162.086 172.714C162.987 170.73 162.627 169.107 162.627 167.664M191.481 161.533C189.497 162.074 188.415 160.27 189.137 158.287C190.76 155.762 194.547 156.664 195.449 159.729C196.35 163.156 194.006 165.861 190.399 165.861C186.973 165.861 184.628 164.238 184.268 160.451M152.347 163.517C154.151 164.418 155.413 162.254 154.511 160.451C152.888 158.106 149.282 158.828 148.56 161.893C147.659 165.14 150.544 168.025 153.429 167.845C155.774 167.664 157.938 166.222 158.479 164.058M169.66 47.1973C170.562 54.0502 172.004 83.085 172.185 105.267M166.955 47.1973C166.234 53.8699 166.053 82.544 166.414 104.545M190.038 118.792C192.924 115.005 194.547 108.513 194.547 104.545C194.547 101.299 191.661 101.119 188.415 104.365C187.514 105.267 186.432 106.529 185.71 107.611C183.726 110.316 180.841 112.841 178.497 114.825C175.611 117.169 172.545 118.071 170.742 117.891M151.446 120.235C148.56 116.448 145.675 108.693 145.855 104.726C145.855 102.742 147.298 101.84 148.741 102.201C149.823 102.381 150.905 103.283 152.167 104.545C152.888 105.627 153.79 106.529 154.692 107.611C156.856 110.316 159.02 113.021 161.184 114.825C164.069 117.169 166.414 117.891 168.578 117.71M194.006 119.514C200.859 109.956 205.548 96.6105 201.76 91.0199C198.154 84.5277 188.776 89.0362 183.366 96.9711C179.398 102.562 174.349 105.808 169.84 105.627M147.839 122.219C140.986 112.661 136.477 97.3318 140.265 91.7413C143.871 85.249 153.069 87.7738 157.938 96.0694C161.364 102.021 165.151 105.086 169.66 105.627M186.071 127.99C180.12 120.956 163.709 121.858 153.429 129.613C150.724 131.236 149.823 135.925 151.626 138.99C151.987 140.253 153.069 143.499 153.61 145.302M151.806 151.975C150.905 156.123 153.249 160.451 156.315 160.451M148.921 140.433C146.576 144.761 148.741 150.893 153.249 152.516M150.364 142.056C142.429 134.843 142.068 124.022 150.183 120.776C157.217 117.71 178.136 116.809 192.202 118.973C199.236 120.776 195.268 130.875 189.317 127.629M149.101 88.4952C157.217 32.0488 179.579 33.3112 190.219 90.1182M212.04 257.834C212.942 251.342 216.548 239.8 219.253 234.57C211.319 230.964 200.678 218.701 197.973 210.225C203.203 206.077 214.384 199.404 220.155 196.699M146.576 186.78C161.545 187.321 173.267 228.259 169.84 268.655M128.903 274.245C131.428 227.718 144.593 178.845 155.052 176.501M144.773 276.409C145.855 259.457 154.331 230.062 161.905 217.619M129.985 275.327C128.362 274.606 128.723 273.704 130.707 273.524C135.395 273.163 141.707 274.065 143.15 275.147C145.134 276.049 145.134 277.311 143.15 277.672M141.707 290.837C142.068 292.279 141.888 294.984 141.166 296.247M129.625 299.493C125.477 294.443 124.755 284.164 128.182 278.934C129.444 276.95 130.707 274.426 130.526 273.704M131.608 302.018C128.542 300.575 127.641 292.099 129.625 285.967M134.494 306.346C130.526 303.28 130.346 293.542 134.133 287.23M136.117 309.772C132.69 305.985 133.592 295.345 137.74 288.492M141.888 299.312C145.314 297.509 147.298 288.492 145.134 282.902C143.511 279.655 142.429 275.688 142.789 274.967M142.429 286.148C142.97 289.033 141.347 291.558 140.625 292.46C139.002 294.443 137.199 298.23 137.199 300.575C137.199 307.067 135.576 315.543 133.412 317.887C132.149 311.756 130.346 307.788 129.444 305.264C128.362 303.1 128.001 300.575 129.264 299.312M216.368 328.347C220.696 326.724 223.762 322.757 222.5 320.593M194.727 273.163C161.004 280.737 153.069 264.327 154.872 233.308C154.692 262.884 167.316 276.229 193.465 268.474C193.826 270.819 204.646 302.018 218.532 333.216C222.139 331.052 225.385 326.544 224.844 324.199C214.565 307.788 201.039 282.721 197.793 273.885M126.919 293.722C126.378 293.902 125.837 294.263 125.116 295.345C122.411 290.295 115.017 284.525 110.508 283.803C109.787 285.607 108.164 287.23 106 289.394C122.411 292.82 126.559 313.92 114.296 331.593C102.934 349.267 106.541 371.809 121.69 376.498C120.968 378.301 119.345 380.285 117.902 381.728C121.87 383.712 133.051 383.892 139.363 381.187C137.74 379.564 136.297 376.859 136.477 375.957C151.265 374.154 153.79 352.332 141.527 332.315C139.543 329.61 137.199 325.281 137.018 323.658C142.248 314.641 143.691 298.952 139.363 293.542M168.398 47.017C170.922 47.017 172.906 45.0333 172.906 42.5085C172.906 39.9837 170.922 38 168.398 38C165.873 38 163.889 39.9837 163.889 42.5085C163.889 45.0333 166.053 47.017 168.398 47.017Z" stroke="#292526" stroke-width="1.62" stroke-miterlimit="22.926"/>
<path fill-rule="evenodd" clip-rule="evenodd" d="M160.464 141.695C161.907 145.482 156.316 146.204 156.496 142.597C157.398 142.236 159.021 141.876 160.464 141.695Z" fill="#292526"/>
<path d="M160.464 141.695C161.907 145.482 156.316 146.204 156.496 142.597C157.398 142.236 159.021 141.876 160.464 141.695Z" stroke="#292526" stroke-width="1.62" stroke-miterlimit="22.926"/>
<path fill-rule="evenodd" clip-rule="evenodd" d="M178.503 140.25C179.946 144.037 174.355 144.758 174.536 141.152C175.437 140.791 177.06 140.25 178.503 140.25Z" fill="#292526"/>
<path d="M178.503 140.25C179.946 144.037 174.355 144.758 174.536 141.152C175.437 140.791 177.06 140.25 178.503 140.25Z" stroke="#292526" stroke-width="1.62" stroke-miterlimit="22.926"/>
<path d="M202.663 317.705C203.384 320.41 207.171 321.673 210.237 320.41C206.27 319.509 204.286 314.82 203.565 311.033M168.579 313.918C170.562 316.623 174.169 316.263 176.153 312.836M177.596 300.032C164.431 302.557 166.234 317.705 162.627 320.05C167.136 320.05 170.202 316.984 168.759 313.918M177.055 285.965C177.055 291.015 170.743 293.54 168.038 289.753C170.021 293.9 165.873 298.048 159.742 298.048C164.791 294.802 161.004 279.473 175.251 279.473M178.317 314.098C175.071 319.869 183.727 326.181 189.137 319.509M201.941 321.673C193.826 324.378 194.187 339.707 204.286 338.264M202.663 325.46C213.844 326.001 216.549 339.346 207.352 344.215M213.844 348.002C220.336 351.97 219.074 361.347 212.762 363.512M156.676 345.297C161.545 351.97 172.005 345.117 166.956 337.903M181.022 336.461C188.596 335.739 192.203 345.117 186.613 349.265M114.296 367.299C114.477 368.561 115.559 370.905 116.28 371.807M118.805 368.2C118.985 369.823 119.706 371.807 120.067 372.168M123.133 368.741C123.133 370.004 123.674 371.807 123.854 372.348M144.593 366.036C144.233 367.84 143.511 370.004 143.151 370.364M140.265 367.659C140.265 368.741 139.724 370.545 139.364 371.447M136.298 368.2C136.478 369.282 136.117 371.086 135.757 371.807M131.97 368.922C132.15 369.823 132.15 371.447 131.97 372.168M127.461 368.922C127.461 369.643 127.461 371.266 127.822 372.168M107.984 348.543C120.789 353.954 140.806 353.232 148.02 346.92M120.969 344.576C121.51 346.199 123.133 347.461 125.117 347.461C128.002 347.642 130.166 345.478 129.625 342.772C128.723 339.887 124.756 339.707 124.215 342.231C123.674 344.215 125.658 345.478 127.1 344.396C127.641 343.855 127.641 342.953 127.1 342.592M157.939 312.295C154.692 309.77 153.971 304.54 157.398 301.655C161.365 298.77 166.415 302.917 164.611 306.704C163.168 309.77 159.381 309.41 158.66 306.524C158.48 305.262 159.381 303.999 160.644 304.36M188.777 283.08C190.941 281.457 191.301 277.85 189.137 276.047C186.432 274.243 183.186 276.948 184.268 279.473C185.17 281.457 187.695 281.277 188.236 279.293C188.416 278.391 187.695 277.67 186.973 277.85M198.515 283.982C197.794 283.26 196.531 282.719 195.63 282.359C192.383 281.277 188.416 282.178 186.613 285.424C184.448 290.294 189.859 294.802 193.465 292.277C196.351 290.113 195.269 286.146 192.023 285.965C190.58 286.146 189.498 287.228 190.039 288.49M198.335 306.344C195.089 309.229 189.137 308.869 186.793 304.721C184.629 299.852 190.039 295.343 193.646 297.868C196.531 300.032 195.449 303.999 192.203 304.18C190.76 303.999 189.678 302.917 190.219 301.655M166.595 364.413C164.07 366.577 159.742 366.397 158.119 363.151C156.496 359.544 160.463 356.118 163.168 358.101C165.332 359.724 164.431 362.61 162.086 362.79C161.004 362.79 160.283 361.708 160.644 360.987M167.316 352.871C165.693 355.036 165.693 361.347 168.579 363.512C170.382 365.135 173.628 364.954 174.89 362.61C176.153 359.905 173.087 357.38 171.103 358.823C169.48 360.085 170.021 362.249 171.825 362.249C172.546 362.249 173.267 361.528 172.907 360.806M172.185 344.756C170.562 346.92 170.562 353.232 173.448 355.396C175.251 357.019 178.497 356.839 179.76 354.495C181.022 351.789 177.956 349.265 175.973 350.707C174.349 351.97 174.89 354.134 176.694 354.134C177.415 354.134 178.137 353.413 177.776 352.691M157.758 337.002C160.463 337.002 165.332 332.854 165.152 329.247C165.152 326.722 162.988 324.378 160.283 324.919C157.398 325.64 157.397 329.608 159.922 330.329C161.906 330.87 163.168 328.886 162.086 327.444C161.545 326.903 160.644 326.903 160.283 327.444M168.038 323.656C166.414 325.821 166.775 332.132 169.841 334.297C171.825 335.739 174.89 335.559 176.153 333.034C177.235 330.329 174.169 327.985 172.185 329.427C170.562 330.69 171.284 332.854 173.087 332.854C173.808 332.673 174.349 331.952 174.169 331.411M167.677 299.311C172.726 300.393 181.924 295.704 182.284 287.408C182.645 282.359 178.858 279.293 174.349 279.654C169.48 280.375 168.759 287.047 172.726 288.49C175.973 289.572 178.317 286.687 176.874 284.162C175.973 283.08 174.53 282.9 173.989 283.982M192.023 324.017C189.678 328.706 191.662 338.625 199.597 341.33C204.466 342.953 208.434 340.248 209.335 335.739C209.876 330.87 203.745 328.345 201.22 331.772C199.236 334.477 201.4 337.723 204.286 336.821C205.548 336.28 206.089 334.838 205.188 333.936M200.859 305.803C203.925 308.147 205.368 316.443 201.04 319.689C198.695 321.673 194.908 321.853 192.924 318.968C190.941 315.721 194.367 312.115 197.072 313.738C199.236 315 198.876 317.705 196.531 318.246C195.449 318.246 194.728 317.525 194.908 316.623M184.268 300.393C180.842 298.409 172.726 300.393 171.464 305.622C170.562 308.508 172.005 312.115 175.251 312.836C178.858 313.377 181.022 308.869 178.497 306.885C176.514 305.442 174.169 306.885 174.53 309.049C174.89 309.951 175.973 310.492 176.514 309.77M176.694 322.033C175.612 324.738 177.776 331.231 181.563 332.673C184.088 333.755 187.334 332.493 187.875 329.608C188.236 326.362 184.268 324.738 182.645 327.083C181.383 328.886 182.825 330.87 184.629 330.329C185.531 329.968 185.711 329.067 185.35 328.526M204.106 341.51C201.22 344.396 200.138 354.495 204.106 358.462C206.63 361.167 211.68 361.528 214.024 358.101C216.369 354.134 212.04 349.806 208.794 351.789C206.089 353.413 206.811 356.839 209.516 357.2C210.778 357.2 211.68 356.298 211.319 355.216M199.056 348.002C201.22 350.347 202.122 357.921 198.876 360.987C196.892 363.151 193.105 363.331 191.121 360.626C189.318 357.56 192.564 354.134 195.269 355.757C197.253 357.019 196.892 359.724 194.728 360.085C193.826 360.085 192.924 359.364 193.285 358.462M175.792 335.739C174.169 337.903 174.169 344.215 177.055 346.379C178.858 348.002 182.104 347.822 183.366 345.478C184.629 342.772 181.563 340.248 179.579 341.69C177.956 342.953 178.497 345.117 180.301 345.117C181.022 345.117 181.743 344.396 181.383 343.674M129.625 342.953C130.166 341.33 131.789 340.067 133.773 340.067C136.658 339.887 138.642 341.871 138.101 344.576C137.199 347.281 133.412 347.461 132.871 345.117C132.33 343.133 134.314 341.871 135.757 342.953C136.298 343.494 136.298 344.396 135.757 344.756M137.019 340.608C137.56 339.166 139.003 338.264 140.626 338.264C143.331 338.084 145.134 340.067 144.774 342.412C143.872 344.937 140.446 345.117 139.724 342.772C139.364 340.969 140.987 339.707 142.429 340.789C142.97 341.33 142.97 342.051 142.429 342.412M111.952 340.608C111.05 343.674 113.214 346.56 116.46 346.56C119.526 346.74 121.871 344.576 121.33 341.51C120.247 338.444 116.1 338.264 115.378 340.969C114.837 343.133 116.821 344.576 118.444 343.314C119.165 342.772 119.165 341.69 118.444 341.33M139.544 214.911C142.97 216.535 144.954 221.404 143.331 224.83M138.281 218.158C141.347 220.141 141.888 225.011 139.364 227.896M144.413 231.863C144.052 225.912 149.282 223.568 151.627 226.634M176.153 184.434C176.333 186.778 176.153 194.172 175.973 199.402M180.12 184.434C180.12 186.959 180.301 193.631 180.481 197.96M177.956 206.977C179.038 199.402 183.727 188.582 187.334 185.155M194.007 136.644C196.531 146.022 192.203 150.53 189.318 158.465M194.367 127.086C198.154 129.25 196.531 137.906 191.121 137.005M165.152 275.506C166.054 275.506 166.775 276.227 166.775 277.129C166.775 278.03 166.054 278.752 165.152 278.752C164.25 278.752 163.529 278.03 163.529 277.129C163.529 276.227 164.25 275.506 165.152 275.506ZM211.139 344.215C212.04 344.215 212.762 344.937 212.762 345.838C212.762 346.74 212.04 347.461 211.139 347.461C210.237 347.461 209.516 346.74 209.516 345.838C209.335 345.117 210.237 344.215 211.139 344.215ZM161.545 338.625C162.808 338.625 163.89 339.707 163.89 340.969C163.89 342.231 162.808 343.314 161.545 343.314C160.283 343.314 159.201 342.231 159.201 340.969C159.201 339.707 160.283 338.625 161.545 338.625ZM144.233 353.954C144.954 353.954 145.675 354.675 145.675 355.577C145.675 356.478 145.134 357.2 144.233 357.2C143.511 357.2 142.79 356.478 142.79 355.577C142.97 354.675 143.511 353.954 144.233 353.954ZM134.134 356.659C135.035 356.659 135.757 357.38 135.757 358.282C135.757 359.183 135.035 359.905 134.134 359.905C133.232 359.905 132.511 359.183 132.511 358.282C132.511 357.38 133.232 356.659 134.134 356.659ZM112.673 354.675C113.395 354.675 114.116 355.396 114.116 356.298C114.116 357.2 113.575 357.921 112.673 357.921C111.772 357.921 111.23 357.2 111.23 356.298C111.23 355.396 111.772 354.675 112.673 354.675ZM122.772 356.839C123.674 356.839 124.395 357.56 124.395 358.462C124.395 359.364 123.674 360.085 122.772 360.085C121.871 360.085 121.149 359.364 121.149 358.462C121.149 357.38 121.871 356.839 122.772 356.839ZM144.233 350.707C146.577 350.707 148.561 352.872 148.561 355.757C148.561 358.462 146.577 360.806 144.233 360.806C141.888 360.806 139.905 358.642 139.905 355.757C139.905 352.872 141.888 350.707 144.233 350.707ZM134.134 353.413C136.839 353.413 139.183 355.577 139.183 358.462C139.183 361.167 137.019 363.512 134.134 363.512C131.429 363.512 129.084 361.347 129.084 358.462C129.084 355.577 131.248 353.413 134.134 353.413ZM112.673 351.429C115.018 351.429 117.001 353.593 117.001 356.478C117.001 359.183 115.018 361.528 112.673 361.528C110.329 361.528 108.345 359.364 108.345 356.478C108.165 353.593 110.148 351.429 112.673 351.429ZM122.772 353.413C125.477 353.413 127.822 355.577 127.822 358.462C127.822 361.167 125.658 363.512 122.772 363.512C120.067 363.512 117.723 361.347 117.723 358.462C117.723 355.757 120.067 353.413 122.772 353.413Z" stroke="#292526" stroke-width="1.62" stroke-miterlimit="22.926"/>
<path fill-rule="evenodd" clip-rule="evenodd" d="M46.2801 41L40.9601 46.3183L36.9889 42.1897L36.7573 41.9488H36.4232L15.785 41.9488H15L15 42.7338L15 63.0032L15 63.3284L15.23 63.5583L19.3816 67.7085L15.23 71.8587L15 72.0887L15 72.4139L15 93.0452L15 93.8302H15.785L36.0611 93.8302H36.3862L36.6161 93.6004L40.768 89.4498L46.5371 95.2169L40.8713 100.881L36.9889 96.8445L36.7573 96.6036H36.4232L15.785 96.6036H15L15 97.3886L15 117.658L15 117.985L15.2328 118.216L19.4021 122.343L15.23 126.514L15 126.743L15 127.069L15 147.7L15 148.485H15.785H36.0611H36.3862L36.6161 148.255L40.8585 144.014L46.5371 149.691L40.8713 155.355L36.9889 151.318L36.7573 151.077H36.4231H15.785H15L15 151.862L15 172.132L15 172.459L15.2328 172.69L19.4021 176.817L15.23 180.987L15 181.217L15 181.543L15 202.174L15 202.959H15.785H36.0611H36.3862L36.6161 202.729L40.768 198.578L46.5371 204.346L40.9601 209.921L36.9889 205.792L36.7573 205.551H36.4231H15.785H15L15 206.336L15 226.606L15 226.933L15.2328 227.164L19.4021 231.291L15.23 235.461L15 235.691L15 236.016L15 256.648L15 257.433H15.785H36.0611H36.3862L36.6161 257.203L40.768 253.052L46.5371 258.819L40.9601 264.395L36.9889 260.266L36.7573 260.025H36.4231H15.785H15L15 260.81L15 281.079L15 281.407L15.2328 281.637L19.4021 285.764L15.23 289.935L15 290.165L15 290.49L15 310.941L15 311.726H15.785H36.0611H36.3862L36.6161 311.496L40.6775 307.436L46.5371 313.293L40.8713 318.957L36.9889 314.921L36.7573 314.68H36.4231H15.785H15L15 315.465L15 335.734L15 336.062L15.2328 336.292L19.402 340.419L15.23 344.59L15 344.82L15 345.145L15 365.776V366.561H15.785H36.0611H36.3862L36.6161 366.332L40.8585 362.09L46.5371 367.767L40.96 373.342L36.9889 369.214L36.7573 368.973H36.4231H15.785H15V369.758V390.027V390.352L15.23 390.582L20.6611 396.012L21.7711 394.901L16.57 389.702L16.57 370.543H36.089L39.8495 374.452L34.1602 380.14L32.9953 378.975L32.757 378.737L32.4202 378.746L25.3598 378.927L24.5949 378.946V379.712V386.227V386.552L24.8249 386.782L34.2388 396.193L35.3488 395.082L35.2706 395.004L40.9381 389.338L44.9092 393.467L45.1408 393.708H45.475H66.1131H66.8981V392.923V372.653V372.326L66.6654 372.096L62.0412 367.518L66.4871 363.074L66.7171 362.844V362.519V342.249V341.464H65.9321H45.656H45.3309L45.101 341.694L40.768 346.026L35.2705 340.53L40.938 334.865L44.9092 338.993L45.1408 339.234H45.475H66.1131H66.8981V338.449V318.18V317.852L66.6654 317.622L62.0412 313.044L66.4871 308.6L66.7171 308.37V308.045V287.776V286.991H65.9321H45.656H45.3309L45.101 287.22L40.8586 291.461L35.2705 285.875L40.9381 280.21L44.9092 284.338L45.1408 284.579H45.475H66.1131H66.8981V283.794L66.8981 263.525V263.197L66.6654 262.967L62.1322 258.48L66.4871 254.126L66.7171 253.896V253.571V233.302V232.517H65.9321H45.656H45.3309L45.101 232.747L40.8586 236.988L35.2705 231.401L40.9381 225.736L44.9092 229.864L45.1408 230.105H45.475H66.1131H66.8981V229.32V209.051V208.723L66.6654 208.493L62.0413 203.916L66.4871 199.471L66.7171 199.242V198.916V178.647V177.862H65.9321H45.656H45.3309L45.101 178.092L40.768 182.423L35.2705 176.928L40.9381 171.262L44.9092 175.391L45.1408 175.631H45.475H66.1131H66.8981V174.846V154.577V154.25L66.6654 154.019L62.0413 149.442L66.4871 144.998L66.7171 144.768V144.442L66.7171 124.173V123.388H65.9321H45.656H45.3309L45.101 123.618L40.768 127.95L35.2705 122.454L40.9381 116.788L44.9092 120.917L45.1408 121.158H45.475H66.1131H66.8981V120.373V100.103V99.7758L66.6654 99.5454L62.1322 95.0582L66.4871 90.7048L66.7171 90.4748V90.1496V69.6993V68.9143H65.9321H45.656H45.3309L45.101 69.1441L40.8585 73.3852L35.2705 67.799L40.9381 62.1334L44.9092 66.262L45.1408 66.5028H45.475H66.1131H66.8981V65.7178V45.4485V45.121L66.6654 44.8906L62.735 41H60.5033L65.3281 45.776V64.9328H45.8091L42.0486 61.0232L47.5569 55.5168L48.9028 56.8622L49.1411 57.1004L49.4779 57.0918L56.5383 56.9108L57.3032 56.8912V56.1261L57.3032 49.6109V49.2857L57.0732 49.0558L49.0148 41H46.2801ZM49.7745 55.5137L48.6672 54.4068L54.4363 48.6397L55.7332 49.9362V55.3609L49.7745 55.5137ZM47.6474 41.8531L53.3259 47.5297L34.1602 66.6891L28.4817 61.0124L47.6474 41.8531ZM33.1404 54.1353L27.3713 59.9024L26.165 58.6965V53.2717L32.1237 53.1189L33.1404 54.1353ZM39.8495 47.4284L34.2507 53.0254L32.9953 51.7704L32.7571 51.5322L32.4202 51.5408L25.3598 51.7218L24.595 51.7414V52.5065V59.0217V59.3469L24.825 59.5769L39.7482 74.4951L34.0697 80.1718L16.57 62.6779L16.57 43.5188L36.089 43.5188L39.8495 47.4284ZM27.2593 75.5836L32.9593 81.2818L31.7532 82.4875H25.9839V76.7428L27.2593 75.5836ZM20.492 68.8185L26.1477 74.4724L24.671 75.8145L24.4139 76.0481V76.3954V83.2725V84.0575H25.1989H32.0783H32.4034L32.6333 83.8277L45.9811 70.4843H65.1471V89.8244L61.0164 93.9537L55.4009 88.395L57.2542 86.5423L57.4843 86.3124V85.9871V79.472V78.687H56.6993H49.6388H49.3137L49.0838 78.9168L35.736 92.2602L16.57 92.2602L16.57 72.7391L20.492 68.8185ZM55.9143 85.6619L54.2851 87.2905L48.5786 81.6419L49.9639 80.257H55.9143V85.6619ZM41.8784 88.3398L47.4682 82.7518L65.3281 100.431V119.588H45.8091L42.0486 115.678L47.6474 110.081L48.9028 111.336L49.1411 111.574L49.4779 111.566L56.5383 111.385L57.3032 111.365V110.6V104.085V103.76L57.0732 103.53L41.8784 88.3398ZM49.7745 109.987L48.7578 108.971L54.5268 103.204L55.7332 104.41V109.835L49.7745 109.987ZM47.6474 96.3269L53.4165 102.094L34.1602 121.344L28.3912 115.577L47.6474 96.3269ZM33.0499 108.7L27.2808 114.467L26.1649 113.351V107.926L32.1237 107.774L33.0499 108.7ZM39.7608 101.991L34.1602 107.59L32.9953 106.425L32.7571 106.187L32.4202 106.196L25.3598 106.377L24.5949 106.396V107.161V113.676V114.002L24.825 114.232L39.6577 129.059L34.0661 134.649L16.57 117.33L16.57 98.1736L36.089 98.1736L39.7608 101.991ZM27.2261 130.088L32.9557 135.759L31.7532 136.961H25.9839V131.217L27.2261 130.088ZM20.5179 123.447L26.1087 128.982L24.6709 130.288L24.4139 130.522V130.869V137.746V138.531H25.1989H32.0783H32.4034L32.6333 138.302L45.9811 124.958H65.1471L65.1471 144.117L60.9254 148.337L55.4918 142.959L57.2542 141.197L57.4842 140.967V140.642V134.127V133.342H56.6992H49.6388H49.3137L49.0838 133.572L35.736 146.915H16.57L16.57 127.394L20.5179 123.447ZM55.9142 140.317L54.376 141.854L48.6695 136.206L49.9639 134.912H55.9142V140.317ZM41.9689 142.904L47.5592 137.316L65.3281 154.905V174.061H45.8091L42.0486 170.152L47.6474 164.555L48.9028 165.81L49.1411 166.048L49.4779 166.039L56.5383 165.858L57.3032 165.839V165.074V158.559V158.233L57.0732 158.003L41.9689 142.904ZM49.7745 164.461L48.7577 163.445L54.5268 157.678L55.7332 158.884V164.309L49.7745 164.461ZM47.6474 150.801L53.4164 156.568L34.1602 175.818L28.3912 170.051L47.6474 150.801ZM33.0499 163.173L27.2808 168.941L26.1649 167.825V162.4L32.1237 162.248L33.0499 163.173ZM39.7608 156.465L34.1602 162.064L32.9953 160.899L32.7571 160.661L32.4202 160.669L25.3598 160.85L24.5949 160.87V161.635V168.15V168.476L24.825 168.706L39.6577 183.533L34.0661 189.123L16.57 171.804L16.57 152.647H36.089L39.7608 156.465ZM27.2261 184.562L32.9557 190.233L31.7532 191.435H25.9839V185.69L27.2261 184.562ZM20.5179 177.921L26.1088 183.455L24.6709 184.762L24.4139 184.996V185.343V192.22V193.005H25.1989H32.0783H32.4034L32.6333 192.775L45.9811 179.432H65.1471V198.591L60.9254 202.811L55.4919 197.433L57.2542 195.671L57.4842 195.441V195.116V188.601V187.816H56.6992H49.6388H49.3137L49.0838 188.045L35.736 201.389H16.57L16.57 181.868L20.5179 177.921ZM55.9142 194.791L54.376 196.328L48.6695 190.68L49.9639 189.386H55.9142V194.791ZM41.8784 197.468L47.5592 191.79L65.3281 209.378V228.535H45.8091L42.0486 224.626L47.5569 219.119L48.9028 220.465L49.1411 220.703L49.4779 220.694L56.5383 220.513L57.3032 220.494V219.729V213.213V212.888L57.0732 212.658L41.8784 197.468ZM49.7745 219.116L48.6672 218.009L54.4363 212.242L55.7332 213.539V218.963L49.7745 219.116ZM47.6474 205.456L53.3259 211.132L34.1602 230.292L28.4817 224.615L47.6474 205.456ZM33.1404 217.738L27.3713 223.505L26.1649 222.299V216.874L32.1237 216.721L33.1404 217.738ZM39.8495 211.031L34.2507 216.628L32.9953 215.373L32.7571 215.135L32.4202 215.143L25.3598 215.324L24.5949 215.344V216.109V222.624V222.949L24.825 223.179L39.7482 238.098L34.157 243.687L16.57 226.278L16.57 207.121H36.089L39.8495 211.031ZM27.3214 239.13L33.0467 244.797L31.7532 246.09H25.9839V240.345L27.3214 239.13ZM20.5179 232.395L26.2041 238.024L24.6709 239.417L24.4139 239.651V239.998V246.875V247.66H25.1989H32.0783H32.4034L32.6333 247.43L45.9811 234.087H65.1471V253.246L61.0164 257.375L55.4918 251.907L57.2542 250.145L57.4842 249.915V249.59V243.074V242.289H56.6992H49.6388H49.3137L49.0838 242.519L35.736 255.863H16.57L16.57 236.342L20.5179 232.395ZM55.9142 249.264L54.376 250.802L48.6695 245.153L49.9639 243.859H55.9142V249.264ZM41.8784 251.942L47.5592 246.263L65.3281 263.852L65.3281 283.009H45.8091L42.0486 279.1L47.5569 273.593L48.9028 274.939L49.1411 275.177L49.4779 275.168L56.5383 274.987L57.3032 274.967V274.202V267.687V267.362L57.0732 267.132L41.8784 251.942ZM49.7745 273.59L48.6672 272.483L54.4363 266.716L55.7332 268.012V273.437L49.7745 273.59ZM47.6474 259.929L53.3259 265.606L34.1602 284.765L28.4817 279.089L47.6474 259.929ZM33.1404 272.212L27.3713 277.979L26.1649 276.773V271.348L32.1236 271.195L33.1404 272.212ZM39.8495 265.505L34.2507 271.102L32.9953 269.847L32.757 269.609L32.4202 269.617L25.3598 269.798L24.5949 269.818V270.583V277.098V277.423L24.825 277.653L39.7482 292.571L34.157 298.161L16.57 280.752L16.57 261.595H36.089L39.8495 265.505ZM27.3214 293.604L33.0467 299.271L31.7532 300.564H25.9839V294.819L27.3214 293.604ZM20.5179 286.869L26.204 292.497L24.6709 293.891L24.4139 294.124V294.472V301.349V302.134H25.1989H32.0783H32.4034L32.6333 301.904L45.9811 288.561H65.1471V307.72L60.9254 311.94L55.3099 306.381L57.2542 304.438L57.4842 304.208V303.882V297.367V296.582H56.6992H49.6388H49.3137L49.0838 296.812L35.736 310.156H16.57L16.57 290.815L20.5179 286.869ZM55.9142 303.557L54.1941 305.277L48.4876 299.628L49.9639 298.152H55.9142V303.557ZM41.7878 306.326L47.3772 300.738L65.3281 318.507V337.664H45.8091L42.0486 333.754L47.6474 328.157L48.9028 329.412L49.1411 329.651L49.4779 329.642L56.5383 329.461L57.3032 329.441V328.676V322.161V321.836L57.0732 321.606L41.7878 306.326ZM49.7745 328.064L48.7578 327.047L54.5268 321.28L55.7332 322.486V327.911L49.7745 328.064ZM47.6474 314.403L53.4164 320.17L34.1602 339.42L28.3912 333.653L47.6474 314.403ZM33.0499 326.776L27.2808 332.543L26.1649 331.428V326.003L32.1236 325.85L33.0499 326.776ZM39.7608 320.067L34.1602 325.666L32.9953 324.502L32.757 324.263L32.4202 324.272L25.3598 324.453L24.5949 324.473V325.238V331.753V332.078L24.825 332.308L39.6577 347.136L34.0661 352.726L16.57 335.407L16.57 316.25H36.089L39.7608 320.067ZM27.2261 348.164L32.9557 353.836L31.7532 355.038H25.9839V349.293L27.2261 348.164ZM20.5179 341.524L26.1088 347.058L24.6709 348.365L24.4139 348.598V348.946V355.823V356.608H25.1989H32.0783H32.4034L32.6333 356.378L45.9811 343.034H65.1471V362.194L60.9254 366.414L55.4919 361.035L57.2542 359.273L57.4842 359.044V358.718L57.4842 352.203V351.418H56.6992H49.6388H49.3137L49.0838 351.648L35.736 364.991H16.57L16.57 345.47L20.5179 341.524ZM55.9142 358.393L54.376 359.931L48.6695 354.282L49.9639 352.988H55.9142L55.9142 358.393ZM41.9689 360.98L47.5592 355.392L65.3281 372.981V392.138H45.8091L42.0486 388.228L47.6474 382.631L48.9028 383.886L49.1411 384.124L49.4779 384.116L56.5383 383.935L57.3032 383.915V383.15V376.635V376.31L57.0732 376.08L41.9689 360.98ZM49.7745 382.538L48.7578 381.521L54.5268 375.754L55.7332 376.96L55.7332 382.385L49.7745 382.538ZM47.6474 368.877L53.4165 374.644L34.1602 393.894L28.3912 388.127L47.6474 368.877ZM33.0499 381.25L27.2808 387.017L26.1649 385.901V380.477L32.1237 380.324L33.0499 381.25Z" fill="#6442EE"/>
</svg>
