<svg width="444" height="356" viewBox="0 0 444 356" fill="none" xmlns="http://www.w3.org/2000/svg">
<circle cx="175" cy="175" r="150" stroke="#C12DD9" stroke-width="50"/>
<rect x="183" width="261" height="350" fill="white"/>
<path d="M294.04 227.141C294.44 227.141 295.039 226.942 295.438 226.942C299.032 226.942 301.827 229.737 301.827 233.331C301.827 236.725 299.032 239.521 295.638 239.72M283.857 199.388C287.052 200.387 289.049 203.382 289.049 206.776C289.049 210.969 285.654 214.563 281.462 214.563M282.26 221.351C283.658 219.954 282.66 215.561 280.064 212.366C276.27 207.575 278.467 201.185 284.057 199.189C287.451 198.39 291.045 195.595 291.245 193.598M274.274 232.133C278.067 229.338 278.267 221.551 274.473 216.559C269.282 209.571 272.077 198.989 280.064 195.196C283.258 193.798 288.45 187.209 290.646 182.018C292.243 177.226 301.228 179.822 295.837 185.212C291.644 191.202 298.632 191.602 298.034 184.414C296.436 175.03 307.418 176.427 303.824 185.612C296.037 195.196 302.626 198.789 302.825 187.209M304.223 183.815C308.216 184.014 307.817 188.407 302.426 200.986C298.233 210.769 291.844 223.548 282.859 235.927C273.675 247.507 275.671 262.282 286.852 265.477C287.052 264.478 287.851 261.483 288.649 259.487C289.847 256.093 288.45 250.702 285.654 248.905C283.658 247.108 283.259 243.514 284.856 241.517M268.284 192.6C276.071 225.345 274.274 257.29 280.663 279.653C278.267 281.849 272.077 281.849 268.483 279.852C264.69 277.656 257.702 278.654 254.507 281.849C250.514 286.042 243.725 287.44 240.73 284.644C235.539 279.852 225.356 284.445 214.375 295.426C216.172 279.852 218.169 262.082 217.969 260.086M248.118 199.788C249.116 202.184 251.912 224.346 253.908 244.512M242.328 199.588C241.928 206.377 238.334 228.938 235.14 244.712M224.358 183.415C220.365 184.414 219.167 189.605 221.962 193.998C237.935 203.182 262.294 201.585 270.28 190.803C272.277 188.207 272.277 183.016 269.881 180.021M248.917 241.118C248.917 241.916 249.116 246.908 249.116 251.101M243.725 252.099C243.526 245.51 243.526 245.91 243.725 241.118M277.269 261.084C277.468 260.086 274.274 259.287 270.879 259.087C267.685 259.287 267.086 257.49 269.282 255.693C272.277 252.698 266.886 251.5 258.5 253.297C249.516 254.495 246.321 251.5 252.111 247.108C255.306 244.712 254.307 241.916 250.514 241.318C247.319 240.319 241.13 240.918 238.334 242.116C234.142 243.913 234.541 246.309 239.333 247.307C247.12 250.901 244.923 255.094 235.14 256.093C225.157 256.093 217.769 258.488 214.974 263.879C215.972 235.927 219.766 200.786 222.361 193.199" stroke="#292526" stroke-width="1.62" stroke-miterlimit="22.926"/>
<path d="M281.259 208.58C282.472 208.58 283.455 207.597 283.455 206.384C283.455 205.171 282.472 204.188 281.259 204.188C280.046 204.188 279.062 205.171 279.062 206.384C279.062 207.597 280.046 208.58 281.259 208.58Z" fill="#292526"/>
<path d="M281.259 208.58C282.472 208.58 283.455 207.597 283.455 206.384C283.455 205.171 282.472 204.188 281.259 204.188C280.046 204.188 279.062 205.171 279.062 206.384C279.062 207.597 280.046 208.58 281.259 208.58Z" stroke="#292526" stroke-width="1.62" stroke-miterlimit="22.926"/>
<path fill-rule="evenodd" clip-rule="evenodd" d="M295.233 231.141C296.431 231.141 297.429 232.139 297.429 233.137C297.429 234.335 296.431 235.134 295.233 235.134C294.035 235.134 293.237 234.136 293.237 233.137C293.037 232.139 294.035 231.141 295.233 231.141Z" fill="#292526"/>
<path d="M295.233 231.141C296.431 231.141 297.429 232.139 297.429 233.137C297.429 234.335 296.431 235.134 295.233 235.134C294.035 235.134 293.237 234.136 293.237 233.137C293.037 232.139 294.035 231.141 295.233 231.141Z" stroke="#292526" stroke-width="1.62" stroke-miterlimit="22.926"/>
<path d="M269.084 70.8136C271.28 73.4092 275.672 73.2096 277.669 70.2146M268.884 67.619C272.079 64.6241 276.471 65.0234 277.669 68.0183M251.314 71.2129C254.508 74.6072 259.899 74.4075 262.095 71.0133M246.721 70.2146C248.319 70.015 249.916 69.2163 251.114 68.0183C254.508 64.6241 260.099 64.8237 262.095 68.218M234.542 97.768C231.148 100.563 230.948 105.555 234.342 107.751M234.742 90.9795C232.545 95.1724 234.742 100.164 239.134 100.963M232.146 78.6004C229.151 85.5886 232.945 92.3771 239.733 92.1775M232.146 78.6004C227.155 76.4042 227.753 70.6139 232.745 69.0167C231.946 68.0183 231.946 65.8221 232.745 63.2264M232.146 78.6004C236.339 79.9981 240.732 77.2028 240.931 73.0099C240.931 70.8136 240.732 69.0167 240.931 67.2197C241.331 63.2264 242.329 59.8322 242.928 59.6325M238.136 77.8018C238.535 81.5954 241.331 84.79 243.726 84.3906C245.124 91.3788 243.527 102.56 240.532 106.952M276.671 100.963C277.869 103.558 274.874 106.154 272.877 104.157M280.065 95.3721C281.862 99.3653 277.07 102.959 274.075 99.9643M282.86 88.5836C285.057 93.5751 279.067 98.1673 275.073 94.3738M284.857 79.1994C288.052 83.1927 284.258 89.9812 280.065 88.9829M285.256 67.02C289.05 71.6123 287.652 78.2011 282.86 80.1977M285.057 57.4362C287.852 61.2298 286.854 67.02 282.86 69.2163M265.889 302.821C269.084 304.219 272.278 303.62 272.278 301.623M265.689 298.628C267.287 299.227 270.282 299.227 271.679 298.429M235.94 305.417C239.334 307.014 243.926 305.816 245.124 303.221M235.54 299.427C239.134 301.224 243.527 300.825 244.325 298.429M273.676 281.258C273.676 284.053 272.877 291.84 272.079 296.632C270.881 300.226 273.676 306.615 278.667 309.809C286.854 314.801 290.647 326.581 287.652 336.764C278.867 335.965 270.282 328.977 270.481 322.787C270.481 320.99 270.481 318.395 269.483 316.398C268.485 313.803 266.488 311.606 264.491 311.007C259.699 309.41 259.3 305.017 261.896 301.224C263.293 298.029 262.295 293.637 260.698 291.241C257.703 286.05 256.705 280.259 257.503 279.66M230.748 284.053C233.544 296.831 232.945 309.41 229.351 312.405C222.163 318.395 220.366 327.18 224.559 337.562C232.745 334.967 238.535 329.376 239.134 323.586C239.534 319.194 241.93 315.4 244.725 314.202C248.319 312.804 248.918 308.012 245.723 304.618C243.726 302.023 244.126 292.638 246.322 285.65M257.903 253.505C258.102 256.899 258.501 262.889 258.701 265.484M251.913 253.305C251.713 258.696 251.513 270.875 251.513 277.664M239.334 255.701C239.334 258.297 239.334 262.489 239.134 264.087M234.143 256.3C233.943 257.298 233.344 263.488 232.745 268.479M227.354 256.899C226.356 260.093 224.359 271.874 223.361 280.659M247.32 176.435C255.906 174.638 266.488 159.863 268.485 147.085M236.139 176.235C249.517 175.237 262.894 179.63 262.694 185.02M258.901 190.411C259.699 189.812 260.099 189.413 260.698 188.415C265.09 182.425 269.683 170.046 270.681 160.462C271.08 150.479 276.671 138.898 281.662 137.301M272.678 135.105C274.474 154.871 266.089 176.235 254.908 178.232M233.943 165.853C234.542 176.036 240.732 187.816 244.525 185.22C246.322 183.623 244.325 181.826 240.133 183.024M228.752 169.646C231.148 188.015 243.527 195.802 249.517 187.816C253.31 181.626 245.923 176.635 237.537 179.031M298.035 157.667C282.86 156.469 284.657 140.895 304.424 116.337M241.53 157.467C243.527 161.66 245.324 165.653 245.523 165.653C247.919 164.855 251.314 162.858 252.312 161.86C250.515 158.665 248.518 154.272 248.319 153.074M223.76 161.86C220.566 155.67 224.559 147.484 231.747 145.288C232.545 158.266 241.131 161.86 248.518 152.475M210.583 123.524C217.97 126.719 223.561 139.098 221.764 148.283M203.994 128.915C212.18 129.714 218.968 138.898 217.77 147.484M199.601 134.107C206.39 130.912 212.978 137.501 212.579 147.085M211.781 166.053C207.588 154.472 218.769 146.086 225.757 149.281M204.193 159.064C205.99 150.279 214.775 144.888 222.163 148.482M213.178 148.283C208.187 138.1 193.611 146.486 198.203 161.66C196.207 166.652 199.601 171.843 204.792 172.042C213.777 179.43 231.547 172.242 240.332 157.667M224.958 116.736C204.792 122.726 191.814 138.898 199.002 148.882M231.946 113.541C233.144 113.142 234.742 112.144 235.141 111.345M246.721 124.523C242.329 120.33 235.94 112.743 233.743 109.348C233.943 107.551 236.139 104.956 238.336 104.157C241.53 109.348 249.317 118.134 253.909 121.528M253.31 135.105C259.1 129.315 270.481 121.927 275.672 120.13M244.924 131.511C244.525 130.712 243.527 128.117 243.127 126.32C252.911 121.728 266.688 116.137 270.282 115.139M267.686 101.362C267.686 106.354 268.884 113.342 270.082 115.139C271.679 114.14 280.065 125.321 287.053 137.501M271.48 98.7663C272.079 104.956 277.27 113.342 282.261 119.332C286.854 124.722 292.045 134.306 291.046 135.704M279.466 55.6393C280.265 58.8339 280.464 61.8288 279.466 63.6258C279.067 66.2214 279.466 68.6173 279.865 70.2146C281.063 73.6089 279.865 81.5954 277.07 86.5869C276.072 88.3839 274.075 93.1758 273.077 96.3704C270.082 103.758 259.699 103.558 252.312 95.5717M260.698 36.0724C261.496 38.2687 262.295 42.4616 262.295 44.4582M280.065 61.2298C275.672 58.4345 268.684 60.0318 268.085 65.2231C268.485 66.8204 269.483 74.8069 269.882 80.7967C263.693 81.795 260.698 81.795 262.694 79.3991M246.921 63.8254C251.114 60.2315 259.3 59.4329 263.293 62.2281M245.523 47.0538C246.921 26.6882 271.28 27.0876 273.476 44.2585M238.735 48.8508C240.732 22.096 275.473 21.497 278.068 44.4582M233.943 141.294C222.163 111.345 204.992 55.6393 199.801 30.2822C196.407 3.32775 228.153 -3.06144 237.737 15.9065C242.529 27.2872 231.148 30.4818 229.75 24.492C230.349 6.72201 203.794 8.51897 207.388 29.6832C212.579 54.4413 228.552 106.553 239.534 133.508M265.29 195.004C268.485 208.381 270.881 237.931 270.082 254.104M255.307 198.797C257.304 205.785 260.099 221.159 260.897 229.745M234.542 198.398C234.143 203.389 229.55 227.549 225.158 246.716M225.358 171.244C225.557 173.839 225.158 180.029 224.359 183.423C231.547 195.203 248.918 197.2 261.496 189.014C269.084 184.022 272.877 176.235 277.669 167.849M228.552 52.844C246.122 44.4582 275.672 41.4633 287.652 47.0538C287.852 52.0454 286.854 57.2366 285.256 57.4362C276.471 52.6443 250.116 55.6393 232.545 63.4261C230.149 62.0285 228.153 56.8372 228.552 52.844Z" stroke="#292526" stroke-width="1.62" stroke-miterlimit="22.926"/>
<path fill-rule="evenodd" clip-rule="evenodd" d="M259.893 66.2162C259.893 68.2128 258.495 69.4108 256.898 69.4108C255.5 69.4108 253.903 68.4125 253.703 66.4158C254.502 66.0165 255.7 65.8168 256.898 65.6172C257.896 65.6172 259.094 65.8168 259.893 66.2162Z" fill="#292526"/>
<path d="M259.893 66.2162C259.893 68.2128 258.495 69.4108 256.898 69.4108C255.5 69.4108 253.903 68.4125 253.703 66.4158C254.502 66.0165 255.7 65.8168 256.898 65.6172C257.896 65.6172 259.094 65.8168 259.893 66.2162Z" stroke="#292526" stroke-width="1.62" stroke-miterlimit="22.926"/>
<path fill-rule="evenodd" clip-rule="evenodd" d="M276.271 66.4177C276.271 68.4143 274.873 69.4127 273.476 69.6123C272.078 69.6123 270.681 68.8137 270.281 66.6174C271.08 66.2181 272.478 65.8187 273.476 65.8187C274.674 65.6191 275.672 66.0184 276.271 66.4177Z" fill="#292526"/>
<path d="M276.271 66.4177C276.271 68.4143 274.873 69.4127 273.476 69.6123C272.078 69.6123 270.681 68.8137 270.281 66.6174C271.08 66.2181 272.478 65.8187 273.476 65.8187C274.674 65.6191 275.672 66.0184 276.271 66.4177Z" stroke="#292526" stroke-width="1.62" stroke-miterlimit="22.926"/>
<path d="M297.224 247.905C297.823 245.509 296.425 241.716 294.029 238.122C291.433 234.528 291.433 228.139 297.024 223.147M339.153 288.237C342.148 293.029 343.545 300.816 342.747 302.014C334.361 303.012 328.171 301.015 330.168 296.224C331.765 292.43 332.564 288.836 331.965 287.039C331.566 286.24 330.767 285.841 329.968 285.841C327.173 286.041 325.376 283.844 325.576 280.85C325.775 276.058 325.176 273.662 324.178 271.266C321.383 263.878 314.594 262.88 306.408 270.667M303.213 257.09C306.807 257.289 314.395 256.491 318.388 255.492C324.777 253.695 330.368 257.689 329.569 263.679C330.168 271.865 335.758 283.445 340.95 286.839C343.545 288.636 346.94 294.427 347.539 298.62C345.941 299.418 343.745 299.618 342.946 299.218M326.973 315.591C327.972 320.982 327.572 328.968 325.975 331.364C319.785 330.565 314.195 325.973 314.794 321.98C315.593 318.985 316.192 316.789 319.186 314.193C320.584 312.596 319.985 309.601 317.789 308.603C314.994 307.604 314.594 304.809 315.992 302.213C319.785 289.235 314.794 279.652 306.009 282.846C298.022 286.64 288.838 286.44 286.242 281.249C285.044 278.653 281.251 275.858 279.454 275.259M301.017 204.978C304.012 205.377 304.611 209.171 301.816 210.968M303.014 199.986C308.604 200.985 310.202 208.372 306.408 214.761C304.411 218.954 309.004 219.354 308.405 215.36C307.806 209.57 309.603 206.176 311.4 208.771C312.398 209.37 312.797 214.961 310.601 220.951C309.004 227.54 310.002 234.528 311 237.323C314.794 246.108 311 255.892 303.413 256.89C297.024 258.487 295.227 268.47 303.812 270.667C307.007 271.465 312.997 271.865 315.393 271.865C319.386 271.865 322.581 274.46 323.779 278.054C324.178 279.652 324.178 281.449 323.978 283.046C322.581 294.826 325.775 307.604 329.17 314.193C332.165 319.185 333.362 326.972 331.366 329.567C330.168 329.767 327.772 328.769 326.374 327.571M248.306 152.467C250.103 150.47 252.499 148.473 253.098 148.473M248.706 144.081C254.696 140.886 257.89 143.083 255.295 148.473C253.897 150.071 250.902 151.868 249.105 152.067M246.11 140.287C252.899 135.895 257.291 137.292 255.095 142.883M242.915 136.893C249.105 132.7 254.496 133.099 253.697 137.692M231.734 145.079C231.734 145.279 233.931 141.286 235.927 137.093C240.919 130.903 248.107 129.306 250.103 133.698M291.234 135.695C281.45 142.284 277.657 162.25 288.438 164.846M334.96 104.548C338.753 100.754 342.148 101.752 337.156 107.143C326.774 116.727 314.594 124.714 311.2 124.913C310.202 130.105 309.203 134.896 308.405 139.289C301.217 183.614 264.479 178.023 278.056 146.876C280.252 141.885 287.44 136.693 291.034 135.895M323.978 106.544C324.977 104.348 328.77 101.952 331.765 101.553C336.158 95.9623 340.55 93.5663 340.55 96.9606C338.953 98.7575 335.958 102.551 334.56 104.747C332.564 105.346 328.571 107.942 326.374 109.939M320.584 103.15C322.581 100.754 326.774 98.7575 328.77 99.1568C333.362 93.766 338.554 91.7693 338.953 95.1636M333.961 93.9656C333.163 91.969 328.77 92.9673 325.376 96.3616C322.78 96.7609 318.587 99.3565 318.388 100.355C316.591 99.9555 312.797 101.353 310.601 103.15M312.797 90.9707C314.794 92.7677 314.195 97.1602 311.599 99.5562C310.401 101.353 310.202 103.949 311 104.747C312.598 106.145 313.596 110.338 312.598 112.934M305.609 118.724C302.215 113.732 300.019 106.944 305.21 98.5579C308.804 95.3633 312.598 91.5697 312.598 90.9707M293.43 132.101C292.631 137.492 298.621 141.086 305.21 139.289M296.425 127.309C295.826 130.304 299.021 133.299 302.814 133.499M300.219 121.719C300.019 126.91 305.41 129.506 310.801 127.11M264.279 89.3734C265.877 90.172 268.273 89.9724 268.872 89.1737M260.885 86.9774C262.482 87.1771 264.479 87.1771 265.278 86.9774C266.076 86.7778 268.073 86.7778 268.672 86.9774C269.87 87.1771 271.268 87.1771 271.866 86.5781" stroke="#292526" stroke-width="1.62" stroke-miterlimit="22.926"/>
<path fill-rule="evenodd" clip-rule="evenodd" d="M388.28 0L382.96 5.31827L378.989 1.18965L378.757 0.948836H378.423L357.785 0.948835H357L357 1.73384L357 22.0032L357 22.3284L357.23 22.5583L361.382 26.7085L357.23 30.8587L357 31.0887L357 31.4139L357 52.0452L357 52.8302H357.785L378.061 52.8302H378.386L378.616 52.6004L382.768 48.4498L388.537 54.2169L382.871 59.8808L378.989 55.8445L378.757 55.6036H378.423L357.785 55.6036H357L357 56.3886L357 76.658L357 76.9855L357.233 77.2159L361.402 81.3429L357.23 85.5135L357 85.7435L357 86.0687L357 106.7L357 107.485H357.785H378.061H378.386L378.616 107.255L382.859 103.014L388.537 108.691L382.871 114.355L378.989 110.318L378.757 110.077H378.423H357.785H357L357 110.862L357 131.132L357 131.459L357.233 131.69L361.402 135.817L357.23 139.987L357 140.217L357 140.543L357 161.174L357 161.959H357.785H378.061H378.386L378.616 161.729L382.768 157.578L388.537 163.346L382.96 168.921L378.989 164.792L378.757 164.551H378.423H357.785H357L357 165.336L357 185.606L357 185.933L357.233 186.164L361.402 190.291L357.23 194.461L357 194.691L357 195.016L357 215.648L357 216.433H357.785H378.061H378.386L378.616 216.203L382.768 212.052L388.537 217.819L382.96 223.395L378.989 219.266L378.757 219.025H378.423H357.785H357L357 219.81L357 240.079L357 240.407L357.233 240.637L361.402 244.764L357.23 248.935L357 249.165L357 249.49L357 269.941L357 270.726H357.785H378.061H378.386L378.616 270.496L382.678 266.436L388.537 272.293L382.871 277.957L378.989 273.921L378.757 273.68H378.423H357.785H357L357 274.465L357 294.734L357 295.062L357.233 295.292L361.402 299.419L357.23 303.59L357 303.82L357 304.145L357 324.776V325.561H357.785H378.061H378.386L378.616 325.332L382.859 321.09L388.537 326.767L382.96 332.342L378.989 328.214L378.757 327.973H378.423H357.785H357V328.758V349.027V349.352L357.23 349.582L362.661 355.012L363.771 353.901L358.57 348.702L358.57 329.543H378.089L381.849 333.452L376.16 339.14L374.995 337.975L374.757 337.737L374.42 337.746L367.36 337.927L366.595 337.946V338.712V345.227V345.552L366.825 345.782L376.239 355.193L377.349 354.082L377.271 354.004L382.938 348.338L386.909 352.467L387.141 352.708H387.475H408.113H408.898V351.923V331.653V331.326L408.665 331.096L404.041 326.518L408.487 322.074L408.717 321.844V321.519V301.249V300.464H407.932H387.656H387.331L387.101 300.694L382.768 305.026L377.271 299.53L382.938 293.865L386.909 297.993L387.141 298.234H387.475H408.113H408.898V297.449V277.18V276.852L408.665 276.622L404.041 272.044L408.487 267.6L408.717 267.37V267.045V246.776V245.991H407.932H387.656H387.331L387.101 246.22L382.859 250.461L377.271 244.875L382.938 239.21L386.909 243.338L387.141 243.579H387.475H408.113H408.898V242.794L408.898 222.525V222.197L408.665 221.967L404.132 217.48L408.487 213.126L408.717 212.896V212.571V192.302V191.517H407.932H387.656H387.331L387.101 191.747L382.859 195.988L377.271 190.401L382.938 184.736L386.909 188.864L387.141 189.105H387.475H408.113H408.898V188.32V168.051V167.723L408.665 167.493L404.041 162.916L408.487 158.471L408.717 158.242V157.916V137.647V136.862H407.932H387.656H387.331L387.101 137.092L382.768 141.423L377.271 135.928L382.938 130.262L386.909 134.391L387.141 134.631H387.475H408.113H408.898V133.846V113.577V113.25L408.665 113.019L404.041 108.442L408.487 103.998L408.717 103.768V103.442L408.717 83.1731V82.3881H407.932H387.656H387.331L387.101 82.618L382.768 86.9495L377.271 81.4538L382.938 75.7882L386.909 79.9168L387.141 80.1576H387.475H408.113H408.898V79.3726V59.1033V58.7758L408.665 58.5454L404.132 54.0582L408.487 49.7048L408.717 49.4748V49.1496V28.6993V27.9143H407.932H387.656H387.331L387.101 28.1441L382.859 32.3852L377.271 26.799L382.938 21.1334L386.909 25.262L387.141 25.5028H387.475H408.113H408.898V24.7178V4.44849V4.12097L408.665 3.89058L404.735 0H402.503L407.328 4.77599V23.9328H387.809L384.049 20.0232L389.557 14.5168L390.903 15.8622L391.141 16.1004L391.478 16.0918L398.538 15.9108L399.303 15.8912V15.1261L399.303 8.61093V8.28569L399.073 8.05576L391.015 0H388.28ZM391.775 14.5137L390.667 13.4068L396.436 7.63966L397.733 8.93616V14.3609L391.775 14.5137ZM389.647 0.853072L395.326 6.52969L376.16 25.6891L370.482 20.0124L389.647 0.853072ZM375.14 13.1353L369.371 18.9024L368.165 17.6965V12.2717L374.124 12.1189L375.14 13.1353ZM381.85 6.42844L376.251 12.0254L374.995 10.7704L374.757 10.5322L374.42 10.5408L367.36 10.7218L366.595 10.7414V11.5065V18.0217V18.3469L366.825 18.5769L381.748 33.4951L376.07 39.1718L358.57 21.6779L358.57 2.51884L378.089 2.51884L381.85 6.42844ZM369.259 34.5836L374.959 40.2818L373.753 41.4875H367.984V35.7428L369.259 34.5836ZM362.492 27.8185L368.148 33.4724L366.671 34.8145L366.414 35.0481V35.3954V42.2725V43.0575H367.199H374.078H374.403L374.633 42.8277L387.981 29.4843H407.147V48.8244L403.016 52.9537L397.401 47.395L399.254 45.5423L399.484 45.3124V44.9871V38.472V37.687H398.699H391.639H391.314L391.084 37.9168L377.736 51.2602L358.57 51.2602L358.57 31.7391L362.492 27.8185ZM397.914 44.6619L396.285 46.2905L390.579 40.6419L391.964 39.257H397.914V44.6619ZM383.878 47.3398L389.468 41.7518L407.328 59.4308V78.5876H387.809L384.049 74.678L389.647 69.0811L390.903 70.336L391.141 70.5742L391.478 70.5656L398.538 70.3846L399.303 70.3651V69.5999V63.0847V62.7595L399.073 62.5296L383.878 47.3398ZM391.774 68.9875L390.758 67.9711L396.527 62.204L397.733 63.41V68.8348L391.774 68.9875ZM389.647 55.3269L395.416 61.094L376.16 80.3439L370.391 74.5767L389.647 55.3269ZM375.05 67.6996L369.281 73.4668L368.165 72.3513V66.9265L374.124 66.7738L375.05 67.6996ZM381.761 60.991L376.16 66.5897L374.995 65.4252L374.757 65.187L374.42 65.1956L367.36 65.3766L366.595 65.3962V66.1613V72.6765V73.0017L366.825 73.2317L381.658 88.0595L376.066 93.6492L358.57 76.3305L358.57 57.1736L378.089 57.1736L381.761 60.991ZM369.226 89.0877L374.956 94.7592L373.753 95.9613H367.984V90.2166L369.226 89.0877ZM362.518 82.4474L368.109 87.9816L366.671 89.2883L366.414 89.5219V89.8692V96.7463V97.5313H367.199H374.078H374.403L374.633 97.3015L387.981 83.9581H407.147L407.147 103.117L402.925 107.337L397.492 101.959L399.254 100.197L399.484 99.9672V99.6419V93.1268V92.3418H398.699H391.639H391.314L391.084 92.5717L377.736 105.915H358.57L358.57 86.394L362.518 82.4474ZM397.914 99.3167L396.376 100.854L390.67 95.2057L391.964 93.9118H397.914V99.3167ZM383.969 101.904L389.559 96.3157L407.328 113.905V133.061H387.809L384.049 129.152L389.647 123.555L390.903 124.81L391.141 125.048L391.478 125.039L398.538 124.858L399.303 124.839V124.074V117.559V117.233L399.073 117.003L383.969 101.904ZM391.774 123.461L390.758 122.445L396.527 116.678L397.733 117.884V123.309L391.774 123.461ZM389.647 109.801L395.416 115.568L376.16 134.818L370.391 129.051L389.647 109.801ZM375.05 122.173L369.281 127.941L368.165 126.825V121.4L374.124 121.248L375.05 122.173ZM381.761 115.465L376.16 121.064L374.995 119.899L374.757 119.661L374.42 119.669L367.36 119.85L366.595 119.87V120.635V127.15V127.476L366.825 127.706L381.658 142.533L376.066 148.123L358.57 130.804L358.57 111.647H378.089L381.761 115.465ZM369.226 143.562L374.956 149.233L373.753 150.435H367.984V144.69L369.226 143.562ZM362.518 136.921L368.109 142.455L366.671 143.762L366.414 143.996V144.343V151.22V152.005H367.199H374.078H374.403L374.633 151.775L387.981 138.432H407.147V157.591L402.925 161.811L397.492 156.433L399.254 154.671L399.484 154.441V154.116V147.601V146.816H398.699H391.639H391.314L391.084 147.045L377.736 160.389H358.57L358.57 140.868L362.518 136.921ZM397.914 153.791L396.376 155.328L390.67 149.68L391.964 148.386H397.914V153.791ZM383.878 156.468L389.559 150.79L407.328 168.378V187.535H387.809L384.049 183.626L389.557 178.119L390.903 179.465L391.141 179.703L391.478 179.694L398.538 179.513L399.303 179.494V178.729V172.213V171.888L399.073 171.658L383.878 156.468ZM391.775 178.116L390.667 177.009L396.436 171.242L397.733 172.539V177.963L391.775 178.116ZM389.647 164.456L395.326 170.132L376.16 189.292L370.482 183.615L389.647 164.456ZM375.14 176.738L369.371 182.505L368.165 181.299V175.874L374.124 175.721L375.14 176.738ZM381.85 170.031L376.251 175.628L374.995 174.373L374.757 174.135L374.42 174.143L367.36 174.324L366.595 174.344V175.109V181.624V181.949L366.825 182.179L381.748 197.098L376.157 202.687L358.57 185.278L358.57 166.121H378.089L381.85 170.031ZM369.321 198.13L375.047 203.797L373.753 205.09H367.984V199.345L369.321 198.13ZM362.518 191.395L368.204 197.024L366.671 198.417L366.414 198.651V198.998V205.875V206.66H367.199H374.078H374.403L374.633 206.43L387.981 193.087H407.147V212.246L403.016 216.375L397.492 210.907L399.254 209.145L399.484 208.915V208.59V202.074V201.289H398.699H391.639H391.314L391.084 201.519L377.736 214.863H358.57L358.57 195.342L362.518 191.395ZM397.914 208.264L396.376 209.802L390.67 204.153L391.964 202.859H397.914V208.264ZM383.878 210.942L389.559 205.263L407.328 222.852L407.328 242.009H387.809L384.049 238.1L389.557 232.593L390.903 233.939L391.141 234.177L391.478 234.168L398.538 233.987L399.303 233.967V233.202V226.687V226.362L399.073 226.132L383.878 210.942ZM391.774 232.59L390.667 231.483L396.436 225.716L397.733 227.012V232.437L391.774 232.59ZM389.647 218.929L395.326 224.606L376.16 243.765L370.482 238.089L389.647 218.929ZM375.14 231.212L369.371 236.979L368.165 235.773V230.348L374.124 230.195L375.14 231.212ZM381.85 224.505L376.251 230.102L374.995 228.847L374.757 228.609L374.42 228.617L367.36 228.798L366.595 228.818V229.583V236.098V236.423L366.825 236.653L381.748 251.571L376.157 257.161L358.57 239.752L358.57 220.595H378.089L381.85 224.505ZM369.321 252.604L375.047 258.271L373.753 259.564H367.984V253.819L369.321 252.604ZM362.518 245.869L368.204 251.497L366.671 252.891L366.414 253.124V253.472V260.349V261.134H367.199H374.078H374.403L374.633 260.904L387.981 247.561H407.147V266.72L402.925 270.94L397.31 265.381L399.254 263.438L399.484 263.208V262.882V256.367V255.582H398.699H391.639H391.314L391.084 255.812L377.736 269.156H358.57L358.57 249.815L362.518 245.869ZM397.914 262.557L396.194 264.277L390.488 258.628L391.964 257.152H397.914V262.557ZM383.788 265.326L389.377 259.738L407.328 277.507V296.664H387.809L384.049 292.754L389.647 287.157L390.903 288.412L391.141 288.651L391.478 288.642L398.538 288.461L399.303 288.441V287.676V281.161V280.836L399.073 280.606L383.788 265.326ZM391.774 287.064L390.758 286.047L396.527 280.28L397.733 281.486V286.911L391.774 287.064ZM389.647 273.403L395.416 279.17L376.16 298.42L370.391 292.653L389.647 273.403ZM375.05 285.776L369.281 291.543L368.165 290.428V285.003L374.124 284.85L375.05 285.776ZM381.761 279.067L376.16 284.666L374.995 283.502L374.757 283.263L374.42 283.272L367.36 283.453L366.595 283.473V284.238V290.753V291.078L366.825 291.308L381.658 306.136L376.066 311.726L358.57 294.407L358.57 275.25H378.089L381.761 279.067ZM369.226 307.164L374.956 312.836L373.753 314.038H367.984V308.293L369.226 307.164ZM362.518 300.524L368.109 306.058L366.671 307.365L366.414 307.598V307.946V314.823V315.608H367.199H374.078H374.403L374.633 315.378L387.981 302.034H407.147V321.194L402.925 325.414L397.492 320.035L399.254 318.273L399.484 318.044V317.718L399.484 311.203V310.418H398.699H391.639H391.314L391.084 310.648L377.736 323.991H358.57L358.57 304.47L362.518 300.524ZM397.914 317.393L396.376 318.931L390.67 313.282L391.964 311.988H397.914L397.914 317.393ZM383.969 319.98L389.559 314.392L407.328 331.981V351.138H387.809L384.049 347.228L389.647 341.631L390.903 342.886L391.141 343.124L391.478 343.116L398.538 342.935L399.303 342.915V342.15V335.635V335.31L399.073 335.08L383.969 319.98ZM391.774 341.538L390.758 340.521L396.527 334.754L397.733 335.96L397.733 341.385L391.774 341.538ZM389.647 327.877L395.416 333.644L376.16 352.894L370.391 347.127L389.647 327.877ZM375.05 340.25L369.281 346.017L368.165 344.901V339.477L374.124 339.324L375.05 340.25Z" fill="#C12DD9"/>
</svg>
