<svg width="1920" height="25" viewBox="0 0 1920 25" fill="none" xmlns="http://www.w3.org/2000/svg">
<path d="M-60.1 11.1L-69.9 20.9C-72 22.8 -74.8 24 -77.7 24C-81.3 24 -84.9 22.1 -87 19.1M82.9 20.9L92.7 11.1M16.3 11.1L6.5 20.9C4.4 22.8 1.6 24 -1.3 24C-4.9 24 -8.50001 22.1 -10.6 19.1M-108 20.9L-98.2 11.1M44.7 20.9L54.5 11.1M-21.9 11.1L-31.7 20.9C-33.8 22.8 -36.6 24 -39.5 24C-43.1 24 -46.7 22.1 -48.8 19.1M121.1 20.9L130.9 11.1M-79.2 11.1L-89 20.9C-91.1 22.8 -93.9 24 -96.8 24C-100.4 24 -104 22.1 -106.1 19.1M63.8 20.9L73.6 11.1M-2.8 11.1L-12.6 20.9C-14.7 22.8 -17.5 24 -20.4 24C-24 24 -27.6 22.1 -29.7 19.1M140.1 20.9L149.9 11.1M-117.3 11.1L-127.1 20.9C-129.2 22.8 -132 24 -134.9 24M25.6 20.9L35.4 11.1M-41 11.1L-50.8 20.9C-52.9 22.8 -55.7 24 -58.6 24C-62.2 24 -65.8 22.1 -67.9 19.1M101.9 20.9L111.7 11.1M-72.5 17.6L-62.9 8C-61.8 6.9 -60.2 6.3 -58.6 6.3C-56.2 6.3 -53.9 7.69999 -52.9 9.89999M80.2 17.5L89.8 7.89999C90.9 6.79999 92.5 6.2 94.1 6.2C96.5 6.2 98.8 7.6 99.8 9.8M-110.7 17.6L-101.1 8C-100 6.9 -98.4 6.3 -96.8 6.3C-94.4 6.3 -92.1 7.69999 -91.1 9.89999M42.1 17.5L51.7 7.89999C52.8 6.79999 54.4 6.2 56 6.2C58.4 6.2 60.7 7.6 61.7 9.8M118.4 17.5L128 7.89999C129.1 6.79999 130.7 6.2 132.3 6.2C134.7 6.2 137 7.6 138 9.8M-91.6 17.6L-82 7.89999M61.1 17.5L70.7 7.8M-5.60001 7.89999L-15.2 17.6C-16.6 19 -18.5 19.8 -20.4 19.8C-23 19.8 -25.5 18.3 -26.7 16M137.5 17.5L147.1 7.8M-129.8 17.6L-120.1 7.89999M22.9 17.6L32.6 7.89999C33.7 6.79999 35.3 6.2 36.9 6.2C39.3 6.2 41.6 7.6 42.6 9.8M99.3 17.5L108.9 7.89999C110 6.79999 111.6 6.2 113.2 6.2C115.6 6.2 117.9 7.6 118.9 9.8M-73.2 17L-63.6 7.39999C-62.2 6.09999 -60.4 5.3 -58.5 5.3C-55.9 5.3 -53.4 6.80001 -52.2 9.10001M79.5 17L89.1 7.39999C90.5 6.09999 92.3 5.3 94.2 5.3C96.8 5.3 99.3 6.80001 100.5 9.10001M3.09999 17L12.7 7.39999C14.1 6.09999 15.9 5.3 17.8 5.3C20.4 5.3 22.9 6.80001 24.1 9.10001M-111.4 17L-101.8 7.39999C-100.4 6.09999 -98.6 5.3 -96.7 5.3C-94.1 5.3 -91.6 6.80001 -90.4 9.10001M41.3 17L50.9 7.39999C52.3 6.09999 54.1 5.3 56 5.3C58.6 5.3 61.1 6.80001 62.3 9.10001M-35.1 17L-25.5 7.39999C-24.1 6.09999 -22.3 5.3 -20.4 5.3C-17.8 5.3 -15.3 6.80001 -14.1 9.10001M117.7 17L127.3 7.39999C128.7 6.09999 130.5 5.3 132.4 5.3C135 5.3 137.5 6.80001 138.7 9.10001M-92.3 17L-82.7 7.39999C-81.3 6.09999 -79.5 5.3 -77.6 5.3C-75 5.3 -72.5 6.80001 -71.3 9.10001M60.4 17L70 7.39999C71.4 6.09999 73.2 5.3 75.1 5.3C77.7 5.3 80.2 6.80001 81.4 9.10001M-16 17L-6.40001 7.39999C-5.00001 6.09999 -3.2 5.3 -1.3 5.3C1.3 5.3 3.8 6.80001 5 9.10001M136.8 17L146.4 7.39999M-130.5 17L-120.9 7.39999C-119.5 6.09999 -117.7 5.3 -115.8 5.3C-113.2 5.3 -110.7 6.80001 -109.5 9.10001M22.2 17L31.9 7.39999M-54.1 17L-44.5 7.39999C-43.1 6.09999 -41.3 5.3 -39.4 5.3C-36.8 5.3 -34.3 6.80001 -33.1 9.10001M98.6 17L108.2 7.39999C109.6 6.09999 111.4 5.3 113.3 5.3C115.9 5.3 118.4 6.80001 119.6 9.10001M-76.3 14.1L-66.4 4.3M76.5 14.1L86.4 4.3M0.0999908 14.1L10 4.3M-114.4 14.1L-104.5 4.3M38.3 14.1L48.2 4.3M-38.1 14.1L-28.2 4.3M114.6 14.1L124.5 4.3M-95.3 14.1L-85.5 4.3M57.5 14L67.3 4.2M-18.9 14.1L-9.10001 4.3M133.8 14L143.6 4.2M-133.4 14.1L-123.6 4.3M19.3 14L29.1 4.2M-57.1 14.1L-47.3 4.3M95.6 14L105.4 4.2M-134.9 14.6C-133.7 14.6 -132.8 13.7 -132.8 12.5C-132.8 11.3 -133.7 10.4 -134.9 10.4M151.4 10.4C150.2 10.4 149.3 11.3 149.3 12.5C149.3 13.7 150.2 14.6 151.4 14.6M-129.2 9.89999C-130.2 7.69999 -132.5 6.3 -134.9 6.3M23.5 9.89999C22.5 7.69999 20.2 6.3 17.8 6.3C16.2 6.3 14.6 6.9 13.5 8L3.89999 17.6C2.49999 19 0.599997 19.8 -1.3 19.8C-3.9 19.8 -6.40001 18.3 -7.60001 16M-14.7 9.89999C-15.7 7.69999 -18 6.3 -20.4 6.3C-22 6.3 -23.6 6.9 -24.7 8L-34.3 17.6C-35.7 19 -37.6 19.8 -39.5 19.8C-42.1 19.8 -44.6 18.3 -45.8 16M-72 9.89999C-73 7.69999 -75.3 6.3 -77.7 6.3C-79.3 6.3 -80.9 6.9 -82 8M80.8 9.8C79.8 7.6 77.5 6.2 75.1 6.2C73.5 6.2 71.9 6.79999 70.8 7.89999M4.39999 9.89999C3.39999 7.69999 1.1 6.3 -1.3 6.3C-2.9 6.3 -4.50001 6.9 -5.60001 8M151.4 6.2C149.8 6.2 148.2 6.79999 147.1 7.89999M-110.1 9.89999C-111.1 7.69999 -113.4 6.3 -115.8 6.3C-117.4 6.3 -119 6.9 -120.1 8M-33.8 9.89999C-34.8 7.69999 -37.1 6.3 -39.5 6.3C-41.1 6.3 -42.7 6.9 -43.8 8L-53.4 17.6C-54.8 19 -56.7 19.8 -58.6 19.8C-61.2 19.8 -63.7 18.3 -64.9 16M-134.9 18.8C-133.2 18.8 -131.6 18.1 -130.4 16.9M-64.3 15.3C-63.3 17.4 -61 18.8 -58.6 18.8C-56.9 18.8 -55.3 18.1 -54.1 16.9M88.5 15.3C89.5 17.4 91.8 18.8 94.2 18.8C95.9 18.8 97.5 18.1 98.7 16.9M12.1 15.3C13.1 17.4 15.4 18.8 17.8 18.8C19.5 18.8 21.1 18.1 22.3 16.9M-102.4 15.3C-101.4 17.4 -99.1 18.8 -96.7 18.8C-95 18.8 -93.4 18.1 -92.2 16.9M50.3 15.3C51.3 17.4 53.6 18.8 56 18.8C57.7 18.8 59.3 18.1 60.5 16.9M-26.1 15.3C-25.1 17.4 -22.8 18.8 -20.4 18.8C-18.7 18.8 -17.1 18.1 -15.9 16.9M126.6 15.3C127.6 17.4 129.9 18.8 132.3 18.8C134 18.8 135.6 18.1 136.8 16.9M-83.3 15.3C-82.3 17.4 -80 18.8 -77.6 18.8C-75.9 18.8 -74.3 18.1 -73.1 16.9M69.4 15.3C70.4 17.4 72.7 18.8 75.1 18.8C76.8 18.8 78.4 18.1 79.6 16.9M-7 15.3C-6 17.4 -3.7 18.8 -1.3 18.8C0.399997 18.8 2 18.1 3.2 16.9M145.7 15.3C146.7 17.4 149 18.8 151.4 18.8M-121.5 15.3C-120.5 17.4 -118.2 18.8 -115.8 18.8C-114.1 18.8 -112.5 18.1 -111.3 16.9M31.2 15.3C32.2 17.4 34.5 18.8 36.9 18.8C38.6 18.8 40.2 18.1 41.4 16.9M-45.2 15.3C-44.2 17.4 -41.9 18.8 -39.5 18.8C-37.8 18.8 -36.2 18.1 -35 16.9M107.6 15.3C108.6 17.4 110.9 18.8 113.3 18.8C115 18.8 116.6 18.1 117.8 16.9M-128.6 9.10001C-129.8 6.80001 -132.3 5.3 -134.9 5.3M151.4 5.39999C149.5 5.39999 147.7 6.1 146.3 7.5M43.2 9.10001C42 6.80001 39.5 5.3 36.9 5.3C35 5.3 33.2 6.09999 31.8 7.39999M-134.9 19.7C-133 19.7 -131.1 18.9 -129.7 17.5M87.9 16C89.1 18.3 91.6 19.8 94.2 19.8C96.1 19.8 98 19 99.4 17.6M11.5 16C12.7 18.3 15.2 19.8 17.8 19.8C19.7 19.8 21.6 19 23 17.6M-103 16C-101.8 18.3 -99.3 19.8 -96.7 19.8C-94.8 19.8 -92.9 19 -91.5 17.6M49.7 16C50.9 18.3 53.4 19.8 56 19.8C57.9 19.8 59.8 19 61.2 17.6M126 16C127.2 18.3 129.7 19.8 132.3 19.8C134.2 19.8 136.1 19 137.5 17.6M-83.9 16C-82.7 18.3 -80.2 19.8 -77.6 19.8C-75.7 19.8 -73.8 19 -72.4 17.6M68.8 16C70 18.3 72.5 19.8 75.1 19.8C77 19.8 78.9 19 80.3 17.6M145.1 16C146.3 18.3 148.8 19.8 151.4 19.8M-122.1 16C-120.9 18.3 -118.4 19.8 -115.8 19.8C-113.9 19.8 -112 19 -110.6 17.6M30.6 16C31.8 18.3 34.3 19.8 36.9 19.8C38.8 19.8 40.7 19 42.1 17.6M107 16C108.2 18.3 110.7 19.8 113.3 19.8C115.2 19.8 117.1 19 118.5 17.6M84.8 19C86.9 22 90.5 23.9 94.1 23.9C97 23.9 99.8 22.7 101.9 20.8M8.39999 19.1C10.5 22.1 14.1 24 17.7 24C20.6 24 23.4 22.8 25.5 20.9M46.7 19C48.8 22 52.4 23.9 56 23.9C58.9 23.9 61.7 22.7 63.8 20.8M123 19C125.1 22 128.7 23.9 132.3 23.9C135.2 23.9 138 22.7 140.1 20.8M65.7 19C67.8 22 71.4 23.9 75 23.9C77.9 23.9 80.7 22.7 82.8 20.8M142.1 19C144.2 22 147.8 23.9 151.4 23.9M-125.2 19.1C-123.1 22.1 -119.5 24 -115.9 24C-113 24 -110.2 22.8 -108.1 20.9M27.6 19C29.7 22 33.3 23.9 36.9 23.9C39.8 23.9 42.6 22.7 44.7 20.8M103.9 19C106 22 109.6 23.9 113.2 23.9C116.1 23.9 118.9 22.7 121 20.8M-125.5 6.10001C-127.6 3.00001 -131.2 1.2 -134.9 1.2M-49.2 6.10001C-51.3 3.00001 -54.9 1.2 -58.6 1.2C-61.5 1.2 -64.4 2.39999 -66.5 4.39999M103.6 6C101.5 2.9 97.9 1.10001 94.2 1.10001C91.3 1.10001 88.4 2.3 86.3 4.3M27.2 6.10001C25.1 3.00001 21.5 1.2 17.8 1.2C14.9 1.2 12 2.39999 9.89999 4.39999M-87.3 6.10001C-89.4 3.00001 -93 1.2 -96.7 1.2C-99.6 1.2 -102.5 2.39999 -104.6 4.39999M65.4 6C63.3 2.9 59.7 1.10001 56 1.10001C53.1 1.10001 50.2 2.3 48.1 4.3M-11 6.10001C-13.1 3.00001 -16.7 1.2 -20.4 1.2C-23.3 1.2 -26.2 2.39999 -28.3 4.39999M141.7 6C139.6 2.9 136 1.10001 132.3 1.10001C129.4 1.10001 126.5 2.3 124.4 4.3M-68.2 6.10001C-70.3 3.00001 -73.9 1.2 -77.6 1.2C-80.5 1.2 -83.4 2.39999 -85.5 4.39999M84.5 6C82.4 2.9 78.8 1.10001 75.1 1.10001C72.2 1.10001 69.3 2.3 67.2 4.3M8.09999 6.10001C5.99999 3.00001 2.4 1.2 -1.3 1.2C-4.2 1.2 -7.1 2.39999 -9.2 4.39999M151.4 1.2C148.5 1.2 145.6 2.4 143.5 4.3M-106.4 6.10001C-108.5 3.00001 -112.1 1.2 -115.8 1.2C-118.7 1.2 -121.6 2.39999 -123.7 4.39999M46.3 6C44.2 2.9 40.6 1.10001 36.9 1.10001C34 1.10001 31.1 2.3 29 4.3M-30.1 6.10001C-32.2 3.00001 -35.8 1.2 -39.5 1.2C-42.4 1.2 -45.3 2.39999 -47.4 4.39999M122.7 6C120.6 2.9 117 1.10001 113.3 1.10001C110.4 1.10001 107.5 2.3 105.4 4.3M-135 24H151.4M-135 1H151.4M-58.6 14.6C-57.4 14.6 -56.5 13.7 -56.5 12.5C-56.5 11.3 -57.4 10.4 -58.6 10.4C-59.8 10.4 -60.7 11.3 -60.7 12.5C-60.7 13.7 -59.7 14.6 -58.6 14.6ZM94.2 14.6C95.4 14.6 96.3 13.7 96.3 12.5C96.3 11.3 95.4 10.4 94.2 10.4C93 10.4 92.1 11.3 92.1 12.5C92.1 13.7 93 14.6 94.2 14.6ZM17.8 14.6C19 14.6 19.9 13.7 19.9 12.5C19.9 11.3 19 10.4 17.8 10.4C16.6 10.4 15.7 11.3 15.7 12.5C15.7 13.7 16.6 14.6 17.8 14.6ZM-96.7 14.6C-95.5 14.6 -94.6 13.7 -94.6 12.5C-94.6 11.3 -95.5 10.4 -96.7 10.4C-97.9 10.4 -98.8 11.3 -98.8 12.5C-98.8 13.7 -97.9 14.6 -96.7 14.6ZM56 14.6C57.2 14.6 58.1 13.7 58.1 12.5C58.1 11.3 57.2 10.4 56 10.4C54.8 10.4 53.9 11.3 53.9 12.5C53.9 13.7 54.8 14.6 56 14.6ZM-20.4 14.6C-19.2 14.6 -18.3 13.7 -18.3 12.5C-18.3 11.3 -19.2 10.4 -20.4 10.4C-21.6 10.4 -22.5 11.3 -22.5 12.5C-22.5 13.7 -21.5 14.6 -20.4 14.6ZM132.3 14.6C133.5 14.6 134.4 13.7 134.4 12.5C134.4 11.3 133.5 10.4 132.3 10.4C131.1 10.4 130.2 11.3 130.2 12.5C130.2 13.7 131.2 14.6 132.3 14.6ZM-77.6 14.6C-76.4 14.6 -75.5 13.7 -75.5 12.5C-75.5 11.3 -76.4 10.4 -77.6 10.4C-78.8 10.4 -79.7 11.3 -79.7 12.5C-79.7 13.7 -78.8 14.6 -77.6 14.6ZM75.1 14.6C76.3 14.6 77.2 13.7 77.2 12.5C77.2 11.3 76.3 10.4 75.1 10.4C73.9 10.4 73 11.3 73 12.5C73 13.7 73.9 14.6 75.1 14.6ZM-1.3 14.6C-0.100003 14.6 0.800003 13.7 0.800003 12.5C0.800003 11.3 -0.100003 10.4 -1.3 10.4C-2.5 10.4 -3.40001 11.3 -3.40001 12.5C-3.40001 13.7 -2.4 14.6 -1.3 14.6ZM-115.8 14.6C-114.6 14.6 -113.7 13.7 -113.7 12.5C-113.7 11.3 -114.6 10.4 -115.8 10.4C-117 10.4 -117.9 11.3 -117.9 12.5C-117.9 13.7 -117 14.6 -115.8 14.6ZM36.9 14.6C38.1 14.6 39 13.7 39 12.5C39 11.3 38.1 10.4 36.9 10.4C35.7 10.4 34.8 11.3 34.8 12.5C34.8 13.7 35.8 14.6 36.9 14.6ZM-39.5 14.6C-38.3 14.6 -37.4 13.7 -37.4 12.5C-37.4 11.3 -38.3 10.4 -39.5 10.4C-40.7 10.4 -41.6 11.3 -41.6 12.5C-41.6 13.7 -40.6 14.6 -39.5 14.6ZM113.3 14.6C114.5 14.6 115.4 13.7 115.4 12.5C115.4 11.3 114.5 10.4 113.3 10.4C112.1 10.4 111.2 11.3 111.2 12.5C111.2 13.7 112.1 14.6 113.3 14.6Z" stroke="#151C26" stroke-opacity="0.17" stroke-width="1.57" stroke-miterlimit="22.926"/>
<path d="M225.9 11.1L216.1 20.9C214 22.8 211.2 24 208.3 24C204.7 24 201.1 22.1 199 19.1M368.9 20.9L378.7 11.1M302.3 11.1L292.5 20.9C290.4 22.8 287.6 24 284.7 24C281.1 24 277.5 22.1 275.4 19.1M178 20.9L187.8 11.1M330.7 20.9L340.5 11.1M264.1 11.1L254.3 20.9C252.2 22.8 249.4 24 246.5 24C242.9 24 239.3 22.1 237.2 19.1M407.1 20.9L416.9 11.1M206.8 11.1L197 20.9C194.9 22.8 192.1 24 189.2 24C185.6 24 182 22.1 179.9 19.1M349.8 20.9L359.6 11.1M283.2 11.1L273.4 20.9C271.3 22.8 268.5 24 265.6 24C262 24 258.4 22.1 256.3 19.1M426.1 20.9L435.9 11.1M168.7 11.1L158.9 20.9C156.8 22.8 154 24 151.1 24M311.6 20.9L321.4 11.1M245 11.1L235.2 20.9C233.1 22.8 230.3 24 227.4 24C223.8 24 220.2 22.1 218.1 19.1M387.9 20.9L397.7 11.1M213.5 17.6L223.1 8C224.2 6.9 225.8 6.3 227.4 6.3C229.8 6.3 232.1 7.69999 233.1 9.89999M366.2 17.5L375.8 7.89999C376.9 6.79999 378.5 6.2 380.1 6.2C382.5 6.2 384.8 7.6 385.8 9.8M175.3 17.6L184.9 8C186 6.9 187.6 6.3 189.2 6.3C191.6 6.3 193.9 7.69999 194.9 9.89999M328.1 17.5L337.7 7.89999C338.8 6.79999 340.4 6.2 342 6.2C344.4 6.2 346.7 7.6 347.7 9.8M404.4 17.5L414 7.89999C415.1 6.79999 416.7 6.2 418.3 6.2C420.7 6.2 423 7.6 424 9.8M194.4 17.6L204 7.89999M347.1 17.5L356.7 7.8M280.4 7.89999L270.8 17.6C269.4 19 267.5 19.8 265.6 19.8C263 19.8 260.5 18.3 259.3 16M423.5 17.5L433.1 7.8M156.2 17.6L165.9 7.89999M308.9 17.6L318.6 7.89999C319.7 6.79999 321.3 6.2 322.9 6.2C325.3 6.2 327.6 7.6 328.6 9.8M385.3 17.5L394.9 7.89999C396 6.79999 397.6 6.2 399.2 6.2C401.6 6.2 403.9 7.6 404.9 9.8M212.8 17L222.4 7.39999C223.8 6.09999 225.6 5.3 227.5 5.3C230.1 5.3 232.6 6.80001 233.8 9.10001M365.5 17L375.1 7.39999C376.5 6.09999 378.3 5.3 380.2 5.3C382.8 5.3 385.3 6.80001 386.5 9.10001M289.1 17L298.7 7.39999C300.1 6.09999 301.9 5.3 303.8 5.3C306.4 5.3 308.9 6.80001 310.1 9.10001M174.6 17L184.2 7.39999C185.6 6.09999 187.4 5.3 189.3 5.3C191.9 5.3 194.4 6.80001 195.6 9.10001M327.3 17L336.9 7.39999C338.3 6.09999 340.1 5.3 342 5.3C344.6 5.3 347.1 6.80001 348.3 9.10001M250.9 17L260.5 7.39999C261.9 6.09999 263.7 5.3 265.6 5.3C268.2 5.3 270.7 6.80001 271.9 9.10001M403.7 17L413.3 7.39999C414.7 6.09999 416.5 5.3 418.4 5.3C421 5.3 423.5 6.80001 424.7 9.10001M193.7 17L203.3 7.39999C204.7 6.09999 206.5 5.3 208.4 5.3C211 5.3 213.5 6.80001 214.7 9.10001M346.4 17L356 7.39999C357.4 6.09999 359.2 5.3 361.1 5.3C363.7 5.3 366.2 6.80001 367.4 9.10001M270 17L279.6 7.39999C281 6.09999 282.8 5.3 284.7 5.3C287.3 5.3 289.8 6.80001 291 9.10001M422.8 17L432.4 7.39999M155.5 17L165.1 7.39999C166.5 6.09999 168.3 5.3 170.2 5.3C172.8 5.3 175.3 6.80001 176.5 9.10001M308.2 17L317.9 7.39999M231.9 17L241.5 7.39999C242.9 6.09999 244.7 5.3 246.6 5.3C249.2 5.3 251.7 6.80001 252.9 9.10001M384.6 17L394.2 7.39999C395.6 6.09999 397.4 5.3 399.3 5.3C401.9 5.3 404.4 6.80001 405.6 9.10001M209.7 14.1L219.6 4.3M362.5 14.1L372.4 4.3M286.1 14.1L296 4.3M171.6 14.1L181.5 4.3M324.3 14.1L334.2 4.3M247.9 14.1L257.8 4.3M400.6 14.1L410.5 4.3M190.7 14.1L200.5 4.3M343.5 14L353.3 4.2M267.1 14.1L276.9 4.3M419.8 14L429.6 4.2M152.6 14.1L162.4 4.3M305.3 14L315.1 4.2M228.9 14.1L238.7 4.3M381.6 14L391.4 4.2M151.1 14.6C152.3 14.6 153.2 13.7 153.2 12.5C153.2 11.3 152.3 10.4 151.1 10.4M437.4 10.4C436.2 10.4 435.3 11.3 435.3 12.5C435.3 13.7 436.2 14.6 437.4 14.6M156.8 9.89999C155.8 7.69999 153.5 6.3 151.1 6.3M309.5 9.89999C308.5 7.69999 306.2 6.3 303.8 6.3C302.2 6.3 300.6 6.9 299.5 8L289.9 17.6C288.5 19 286.6 19.8 284.7 19.8C282.1 19.8 279.6 18.3 278.4 16M271.3 9.89999C270.3 7.69999 268 6.3 265.6 6.3C264 6.3 262.4 6.9 261.3 8L251.7 17.6C250.3 19 248.4 19.8 246.5 19.8C243.9 19.8 241.4 18.3 240.2 16M214 9.89999C213 7.69999 210.7 6.3 208.3 6.3C206.7 6.3 205.1 6.9 204 8M366.8 9.8C365.8 7.6 363.5 6.2 361.1 6.2C359.5 6.2 357.9 6.79999 356.8 7.89999M290.4 9.89999C289.4 7.69999 287.1 6.3 284.7 6.3C283.1 6.3 281.5 6.9 280.4 8M437.4 6.2C435.8 6.2 434.2 6.79999 433.1 7.89999M175.9 9.89999C174.9 7.69999 172.6 6.3 170.2 6.3C168.6 6.3 167 6.9 165.9 8M252.2 9.89999C251.2 7.69999 248.9 6.3 246.5 6.3C244.9 6.3 243.3 6.9 242.2 8L232.6 17.6C231.2 19 229.3 19.8 227.4 19.8C224.8 19.8 222.3 18.3 221.1 16M151.1 18.8C152.8 18.8 154.4 18.1 155.6 16.9M221.7 15.3C222.7 17.4 225 18.8 227.4 18.8C229.1 18.8 230.7 18.1 231.9 16.9M374.5 15.3C375.5 17.4 377.8 18.8 380.2 18.8C381.9 18.8 383.5 18.1 384.7 16.9M298.1 15.3C299.1 17.4 301.4 18.8 303.8 18.8C305.5 18.8 307.1 18.1 308.3 16.9M183.6 15.3C184.6 17.4 186.9 18.8 189.3 18.8C191 18.8 192.6 18.1 193.8 16.9M336.3 15.3C337.3 17.4 339.6 18.8 342 18.8C343.7 18.8 345.3 18.1 346.5 16.9M259.9 15.3C260.9 17.4 263.2 18.8 265.6 18.8C267.3 18.8 268.9 18.1 270.1 16.9M412.6 15.3C413.6 17.4 415.9 18.8 418.3 18.8C420 18.8 421.6 18.1 422.8 16.9M202.7 15.3C203.7 17.4 206 18.8 208.4 18.8C210.1 18.8 211.7 18.1 212.9 16.9M355.4 15.3C356.4 17.4 358.7 18.8 361.1 18.8C362.8 18.8 364.4 18.1 365.6 16.9M279 15.3C280 17.4 282.3 18.8 284.7 18.8C286.4 18.8 288 18.1 289.2 16.9M431.7 15.3C432.7 17.4 435 18.8 437.4 18.8M164.5 15.3C165.5 17.4 167.8 18.8 170.2 18.8C171.9 18.8 173.5 18.1 174.7 16.9M317.2 15.3C318.2 17.4 320.5 18.8 322.9 18.8C324.6 18.8 326.2 18.1 327.4 16.9M240.8 15.3C241.8 17.4 244.1 18.8 246.5 18.8C248.2 18.8 249.8 18.1 251 16.9M393.6 15.3C394.6 17.4 396.9 18.8 399.3 18.8C401 18.8 402.6 18.1 403.8 16.9M157.4 9.10001C156.2 6.80001 153.7 5.3 151.1 5.3M437.4 5.39999C435.5 5.39999 433.7 6.1 432.3 7.5M329.2 9.10001C328 6.80001 325.5 5.3 322.9 5.3C321 5.3 319.2 6.09999 317.8 7.39999M151.1 19.7C153 19.7 154.9 18.9 156.3 17.5M373.9 16C375.1 18.3 377.6 19.8 380.2 19.8C382.1 19.8 384 19 385.4 17.6M297.5 16C298.7 18.3 301.2 19.8 303.8 19.8C305.7 19.8 307.6 19 309 17.6M183 16C184.2 18.3 186.7 19.8 189.3 19.8C191.2 19.8 193.1 19 194.5 17.6M335.7 16C336.9 18.3 339.4 19.8 342 19.8C343.9 19.8 345.8 19 347.2 17.6M412 16C413.2 18.3 415.7 19.8 418.3 19.8C420.2 19.8 422.1 19 423.5 17.6M202.1 16C203.3 18.3 205.8 19.8 208.4 19.8C210.3 19.8 212.2 19 213.6 17.6M354.8 16C356 18.3 358.5 19.8 361.1 19.8C363 19.8 364.9 19 366.3 17.6M431.1 16C432.3 18.3 434.8 19.8 437.4 19.8M163.9 16C165.1 18.3 167.6 19.8 170.2 19.8C172.1 19.8 174 19 175.4 17.6M316.6 16C317.8 18.3 320.3 19.8 322.9 19.8C324.8 19.8 326.7 19 328.1 17.6M393 16C394.2 18.3 396.7 19.8 399.3 19.8C401.2 19.8 403.1 19 404.5 17.6M370.8 19C372.9 22 376.5 23.9 380.1 23.9C383 23.9 385.8 22.7 387.9 20.8M294.4 19.1C296.5 22.1 300.1 24 303.7 24C306.6 24 309.4 22.8 311.5 20.9M332.7 19C334.8 22 338.4 23.9 342 23.9C344.9 23.9 347.7 22.7 349.8 20.8M409 19C411.1 22 414.7 23.9 418.3 23.9C421.2 23.9 424 22.7 426.1 20.8M351.7 19C353.8 22 357.4 23.9 361 23.9C363.9 23.9 366.7 22.7 368.8 20.8M428.1 19C430.2 22 433.8 23.9 437.4 23.9M160.8 19.1C162.9 22.1 166.5 24 170.1 24C173 24 175.8 22.8 177.9 20.9M313.6 19C315.7 22 319.3 23.9 322.9 23.9C325.8 23.9 328.6 22.7 330.7 20.8M389.9 19C392 22 395.6 23.9 399.2 23.9C402.1 23.9 404.9 22.7 407 20.8M160.5 6.10001C158.4 3.00001 154.8 1.2 151.1 1.2M236.8 6.10001C234.7 3.00001 231.1 1.2 227.4 1.2C224.5 1.2 221.6 2.39999 219.5 4.39999M389.6 6C387.5 2.9 383.9 1.10001 380.2 1.10001C377.3 1.10001 374.4 2.3 372.3 4.3M313.2 6.10001C311.1 3.00001 307.5 1.2 303.8 1.2C300.9 1.2 298 2.39999 295.9 4.39999M198.7 6.10001C196.6 3.00001 193 1.2 189.3 1.2C186.4 1.2 183.5 2.39999 181.4 4.39999M351.4 6C349.3 2.9 345.7 1.10001 342 1.10001C339.1 1.10001 336.2 2.3 334.1 4.3M275 6.10001C272.9 3.00001 269.3 1.2 265.6 1.2C262.7 1.2 259.8 2.39999 257.7 4.39999M427.7 6C425.6 2.9 422 1.10001 418.3 1.10001C415.4 1.10001 412.5 2.3 410.4 4.3M217.8 6.10001C215.7 3.00001 212.1 1.2 208.4 1.2C205.5 1.2 202.6 2.39999 200.5 4.39999M370.5 6C368.4 2.9 364.8 1.10001 361.1 1.10001C358.2 1.10001 355.3 2.3 353.2 4.3M294.1 6.10001C292 3.00001 288.4 1.2 284.7 1.2C281.8 1.2 278.9 2.39999 276.8 4.39999M437.4 1.2C434.5 1.2 431.6 2.4 429.5 4.3M179.6 6.10001C177.5 3.00001 173.9 1.2 170.2 1.2C167.3 1.2 164.4 2.39999 162.3 4.39999M332.3 6C330.2 2.9 326.6 1.10001 322.9 1.10001C320 1.10001 317.1 2.3 315 4.3M255.9 6.10001C253.8 3.00001 250.2 1.2 246.5 1.2C243.6 1.2 240.7 2.39999 238.6 4.39999M408.7 6C406.6 2.9 403 1.10001 399.3 1.10001C396.4 1.10001 393.5 2.3 391.4 4.3M151 24H437.4M151 1H437.4M227.4 14.6C228.6 14.6 229.5 13.7 229.5 12.5C229.5 11.3 228.6 10.4 227.4 10.4C226.2 10.4 225.3 11.3 225.3 12.5C225.3 13.7 226.3 14.6 227.4 14.6ZM380.2 14.6C381.4 14.6 382.3 13.7 382.3 12.5C382.3 11.3 381.4 10.4 380.2 10.4C379 10.4 378.1 11.3 378.1 12.5C378.1 13.7 379 14.6 380.2 14.6ZM303.8 14.6C305 14.6 305.9 13.7 305.9 12.5C305.9 11.3 305 10.4 303.8 10.4C302.6 10.4 301.7 11.3 301.7 12.5C301.7 13.7 302.6 14.6 303.8 14.6ZM189.3 14.6C190.5 14.6 191.4 13.7 191.4 12.5C191.4 11.3 190.5 10.4 189.3 10.4C188.1 10.4 187.2 11.3 187.2 12.5C187.2 13.7 188.1 14.6 189.3 14.6ZM342 14.6C343.2 14.6 344.1 13.7 344.1 12.5C344.1 11.3 343.2 10.4 342 10.4C340.8 10.4 339.9 11.3 339.9 12.5C339.9 13.7 340.8 14.6 342 14.6ZM265.6 14.6C266.8 14.6 267.7 13.7 267.7 12.5C267.7 11.3 266.8 10.4 265.6 10.4C264.4 10.4 263.5 11.3 263.5 12.5C263.5 13.7 264.5 14.6 265.6 14.6ZM418.3 14.6C419.5 14.6 420.4 13.7 420.4 12.5C420.4 11.3 419.5 10.4 418.3 10.4C417.1 10.4 416.2 11.3 416.2 12.5C416.2 13.7 417.2 14.6 418.3 14.6ZM208.4 14.6C209.6 14.6 210.5 13.7 210.5 12.5C210.5 11.3 209.6 10.4 208.4 10.4C207.2 10.4 206.3 11.3 206.3 12.5C206.3 13.7 207.2 14.6 208.4 14.6ZM361.1 14.6C362.3 14.6 363.2 13.7 363.2 12.5C363.2 11.3 362.3 10.4 361.1 10.4C359.9 10.4 359 11.3 359 12.5C359 13.7 359.9 14.6 361.1 14.6ZM284.7 14.6C285.9 14.6 286.8 13.7 286.8 12.5C286.8 11.3 285.9 10.4 284.7 10.4C283.5 10.4 282.6 11.3 282.6 12.5C282.6 13.7 283.6 14.6 284.7 14.6ZM170.2 14.6C171.4 14.6 172.3 13.7 172.3 12.5C172.3 11.3 171.4 10.4 170.2 10.4C169 10.4 168.1 11.3 168.1 12.5C168.1 13.7 169 14.6 170.2 14.6ZM322.9 14.6C324.1 14.6 325 13.7 325 12.5C325 11.3 324.1 10.4 322.9 10.4C321.7 10.4 320.8 11.3 320.8 12.5C320.8 13.7 321.8 14.6 322.9 14.6ZM246.5 14.6C247.7 14.6 248.6 13.7 248.6 12.5C248.6 11.3 247.7 10.4 246.5 10.4C245.3 10.4 244.4 11.3 244.4 12.5C244.4 13.7 245.4 14.6 246.5 14.6ZM399.3 14.6C400.5 14.6 401.4 13.7 401.4 12.5C401.4 11.3 400.5 10.4 399.3 10.4C398.1 10.4 397.2 11.3 397.2 12.5C397.2 13.7 398.1 14.6 399.3 14.6Z" stroke="#151C26" stroke-opacity="0.17" stroke-width="1.57" stroke-miterlimit="22.926"/>
<path d="M511.9 11.1L502.1 20.9C500 22.8 497.2 24 494.3 24C490.7 24 487.1 22.1 485 19.1M654.9 20.9L664.7 11.1M588.3 11.1L578.5 20.9C576.4 22.8 573.6 24 570.7 24C567.1 24 563.5 22.1 561.4 19.1M464 20.9L473.8 11.1M616.7 20.9L626.5 11.1M550.1 11.1L540.3 20.9C538.2 22.8 535.4 24 532.5 24C528.9 24 525.3 22.1 523.2 19.1M693.1 20.9L702.9 11.1M492.8 11.1L483 20.9C480.9 22.8 478.1 24 475.2 24C471.6 24 468 22.1 465.9 19.1M635.8 20.9L645.6 11.1M569.2 11.1L559.4 20.9C557.3 22.8 554.5 24 551.6 24C548 24 544.4 22.1 542.3 19.1M712.1 20.9L721.9 11.1M454.7 11.1L444.9 20.9C442.8 22.8 440 24 437.1 24M597.6 20.9L607.4 11.1M531 11.1L521.2 20.9C519.1 22.8 516.3 24 513.4 24C509.8 24 506.2 22.1 504.1 19.1M673.9 20.9L683.7 11.1M499.5 17.6L509.1 8C510.2 6.9 511.8 6.3 513.4 6.3C515.8 6.3 518.1 7.69999 519.1 9.89999M652.2 17.5L661.8 7.89999C662.9 6.79999 664.5 6.2 666.1 6.2C668.5 6.2 670.8 7.6 671.8 9.8M461.3 17.6L470.9 8C472 6.9 473.6 6.3 475.2 6.3C477.6 6.3 479.9 7.69999 480.9 9.89999M614.1 17.5L623.7 7.89999C624.8 6.79999 626.4 6.2 628 6.2C630.4 6.2 632.7 7.6 633.7 9.8M690.4 17.5L700 7.89999C701.1 6.79999 702.7 6.2 704.3 6.2C706.7 6.2 709 7.6 710 9.8M480.4 17.6L490 7.89999M633.1 17.5L642.7 7.8M566.4 7.89999L556.8 17.6C555.4 19 553.5 19.8 551.6 19.8C549 19.8 546.5 18.3 545.3 16M709.5 17.5L719.1 7.8M442.2 17.6L451.9 7.89999M594.9 17.6L604.6 7.89999C605.7 6.79999 607.3 6.2 608.9 6.2C611.3 6.2 613.6 7.6 614.6 9.8M671.3 17.5L680.9 7.89999C682 6.79999 683.6 6.2 685.2 6.2C687.6 6.2 689.9 7.6 690.9 9.8M498.8 17L508.4 7.39999C509.8 6.09999 511.6 5.3 513.5 5.3C516.1 5.3 518.6 6.80001 519.8 9.10001M651.5 17L661.1 7.39999C662.5 6.09999 664.3 5.3 666.2 5.3C668.8 5.3 671.3 6.80001 672.5 9.10001M575.1 17L584.7 7.39999C586.1 6.09999 587.9 5.3 589.8 5.3C592.4 5.3 594.9 6.80001 596.1 9.10001M460.6 17L470.2 7.39999C471.6 6.09999 473.4 5.3 475.3 5.3C477.9 5.3 480.4 6.80001 481.6 9.10001M613.3 17L622.9 7.39999C624.3 6.09999 626.1 5.3 628 5.3C630.6 5.3 633.1 6.80001 634.3 9.10001M536.9 17L546.5 7.39999C547.9 6.09999 549.7 5.3 551.6 5.3C554.2 5.3 556.7 6.80001 557.9 9.10001M689.7 17L699.3 7.39999C700.7 6.09999 702.5 5.3 704.4 5.3C707 5.3 709.5 6.80001 710.7 9.10001M479.7 17L489.3 7.39999C490.7 6.09999 492.5 5.3 494.4 5.3C497 5.3 499.5 6.80001 500.7 9.10001M632.4 17L642 7.39999C643.4 6.09999 645.2 5.3 647.1 5.3C649.7 5.3 652.2 6.80001 653.4 9.10001M556 17L565.6 7.39999C567 6.09999 568.8 5.3 570.7 5.3C573.3 5.3 575.8 6.80001 577 9.10001M708.8 17L718.4 7.39999M441.5 17L451.1 7.39999C452.5 6.09999 454.3 5.3 456.2 5.3C458.8 5.3 461.3 6.80001 462.5 9.10001M594.2 17L603.9 7.39999M517.9 17L527.5 7.39999C528.9 6.09999 530.7 5.3 532.6 5.3C535.2 5.3 537.7 6.80001 538.9 9.10001M670.6 17L680.2 7.39999C681.6 6.09999 683.4 5.3 685.3 5.3C687.9 5.3 690.4 6.80001 691.6 9.10001M495.7 14.1L505.6 4.3M648.5 14.1L658.4 4.3M572.1 14.1L582 4.3M457.6 14.1L467.5 4.3M610.3 14.1L620.2 4.3M533.9 14.1L543.8 4.3M686.6 14.1L696.5 4.3M476.7 14.1L486.5 4.3M629.5 14L639.3 4.2M553.1 14.1L562.9 4.3M705.8 14L715.6 4.2M438.6 14.1L448.4 4.3M591.3 14L601.1 4.2M514.9 14.1L524.7 4.3M667.6 14L677.4 4.2M437.1 14.6C438.3 14.6 439.2 13.7 439.2 12.5C439.2 11.3 438.3 10.4 437.1 10.4M723.4 10.4C722.2 10.4 721.3 11.3 721.3 12.5C721.3 13.7 722.2 14.6 723.4 14.6M442.8 9.89999C441.8 7.69999 439.5 6.3 437.1 6.3M595.5 9.89999C594.5 7.69999 592.2 6.3 589.8 6.3C588.2 6.3 586.6 6.9 585.5 8L575.9 17.6C574.5 19 572.6 19.8 570.7 19.8C568.1 19.8 565.6 18.3 564.4 16M557.3 9.89999C556.3 7.69999 554 6.3 551.6 6.3C550 6.3 548.4 6.9 547.3 8L537.7 17.6C536.3 19 534.4 19.8 532.5 19.8C529.9 19.8 527.4 18.3 526.2 16M500 9.89999C499 7.69999 496.7 6.3 494.3 6.3C492.7 6.3 491.1 6.9 490 8M652.8 9.8C651.8 7.6 649.5 6.2 647.1 6.2C645.5 6.2 643.9 6.79999 642.8 7.89999M576.4 9.89999C575.4 7.69999 573.1 6.3 570.7 6.3C569.1 6.3 567.5 6.9 566.4 8M723.4 6.2C721.8 6.2 720.2 6.79999 719.1 7.89999M461.9 9.89999C460.9 7.69999 458.6 6.3 456.2 6.3C454.6 6.3 453 6.9 451.9 8M538.2 9.89999C537.2 7.69999 534.9 6.3 532.5 6.3C530.9 6.3 529.3 6.9 528.2 8L518.6 17.6C517.2 19 515.3 19.8 513.4 19.8C510.8 19.8 508.3 18.3 507.1 16M437.1 18.8C438.8 18.8 440.4 18.1 441.6 16.9M507.7 15.3C508.7 17.4 511 18.8 513.4 18.8C515.1 18.8 516.7 18.1 517.9 16.9M660.5 15.3C661.5 17.4 663.8 18.8 666.2 18.8C667.9 18.8 669.5 18.1 670.7 16.9M584.1 15.3C585.1 17.4 587.4 18.8 589.8 18.8C591.5 18.8 593.1 18.1 594.3 16.9M469.6 15.3C470.6 17.4 472.9 18.8 475.3 18.8C477 18.8 478.6 18.1 479.8 16.9M622.3 15.3C623.3 17.4 625.6 18.8 628 18.8C629.7 18.8 631.3 18.1 632.5 16.9M545.9 15.3C546.9 17.4 549.2 18.8 551.6 18.8C553.3 18.8 554.9 18.1 556.1 16.9M698.6 15.3C699.6 17.4 701.9 18.8 704.3 18.8C706 18.8 707.6 18.1 708.8 16.9M488.7 15.3C489.7 17.4 492 18.8 494.4 18.8C496.1 18.8 497.7 18.1 498.9 16.9M641.4 15.3C642.4 17.4 644.7 18.8 647.1 18.8C648.8 18.8 650.4 18.1 651.6 16.9M565 15.3C566 17.4 568.3 18.8 570.7 18.8C572.4 18.8 574 18.1 575.2 16.9M717.7 15.3C718.7 17.4 721 18.8 723.4 18.8M450.5 15.3C451.5 17.4 453.8 18.8 456.2 18.8C457.9 18.8 459.5 18.1 460.7 16.9M603.2 15.3C604.2 17.4 606.5 18.8 608.9 18.8C610.6 18.8 612.2 18.1 613.4 16.9M526.8 15.3C527.8 17.4 530.1 18.8 532.5 18.8C534.2 18.8 535.8 18.1 537 16.9M679.6 15.3C680.6 17.4 682.9 18.8 685.3 18.8C687 18.8 688.6 18.1 689.8 16.9M443.4 9.10001C442.2 6.80001 439.7 5.3 437.1 5.3M723.4 5.39999C721.5 5.39999 719.7 6.1 718.3 7.5M615.2 9.10001C614 6.80001 611.5 5.3 608.9 5.3C607 5.3 605.2 6.09999 603.8 7.39999M437.1 19.7C439 19.7 440.9 18.9 442.3 17.5M659.9 16C661.1 18.3 663.6 19.8 666.2 19.8C668.1 19.8 670 19 671.4 17.6M583.5 16C584.7 18.3 587.2 19.8 589.8 19.8C591.7 19.8 593.6 19 595 17.6M469 16C470.2 18.3 472.7 19.8 475.3 19.8C477.2 19.8 479.1 19 480.5 17.6M621.7 16C622.9 18.3 625.4 19.8 628 19.8C629.9 19.8 631.8 19 633.2 17.6M698 16C699.2 18.3 701.7 19.8 704.3 19.8C706.2 19.8 708.1 19 709.5 17.6M488.1 16C489.3 18.3 491.8 19.8 494.4 19.8C496.3 19.8 498.2 19 499.6 17.6M640.8 16C642 18.3 644.5 19.8 647.1 19.8C649 19.8 650.9 19 652.3 17.6M717.1 16C718.3 18.3 720.8 19.8 723.4 19.8M449.9 16C451.1 18.3 453.6 19.8 456.2 19.8C458.1 19.8 460 19 461.4 17.6M602.6 16C603.8 18.3 606.3 19.8 608.9 19.8C610.8 19.8 612.7 19 614.1 17.6M679 16C680.2 18.3 682.7 19.8 685.3 19.8C687.2 19.8 689.1 19 690.5 17.6M656.8 19C658.9 22 662.5 23.9 666.1 23.9C669 23.9 671.8 22.7 673.9 20.8M580.4 19.1C582.5 22.1 586.1 24 589.7 24C592.6 24 595.4 22.8 597.5 20.9M618.7 19C620.8 22 624.4 23.9 628 23.9C630.9 23.9 633.7 22.7 635.8 20.8M695 19C697.1 22 700.7 23.9 704.3 23.9C707.2 23.9 710 22.7 712.1 20.8M637.7 19C639.8 22 643.4 23.9 647 23.9C649.9 23.9 652.7 22.7 654.8 20.8M714.1 19C716.2 22 719.8 23.9 723.4 23.9M446.8 19.1C448.9 22.1 452.5 24 456.1 24C459 24 461.8 22.8 463.9 20.9M599.6 19C601.7 22 605.3 23.9 608.9 23.9C611.8 23.9 614.6 22.7 616.7 20.8M675.9 19C678 22 681.6 23.9 685.2 23.9C688.1 23.9 690.9 22.7 693 20.8M446.5 6.10001C444.4 3.00001 440.8 1.2 437.1 1.2M522.8 6.10001C520.7 3.00001 517.1 1.2 513.4 1.2C510.5 1.2 507.6 2.39999 505.5 4.39999M675.6 6C673.5 2.9 669.9 1.10001 666.2 1.10001C663.3 1.10001 660.4 2.3 658.3 4.3M599.2 6.10001C597.1 3.00001 593.5 1.2 589.8 1.2C586.9 1.2 584 2.39999 581.9 4.39999M484.7 6.10001C482.6 3.00001 479 1.2 475.3 1.2C472.4 1.2 469.5 2.39999 467.4 4.39999M637.4 6C635.3 2.9 631.7 1.10001 628 1.10001C625.1 1.10001 622.2 2.3 620.1 4.3M561 6.10001C558.9 3.00001 555.3 1.2 551.6 1.2C548.7 1.2 545.8 2.39999 543.7 4.39999M713.7 6C711.6 2.9 708 1.10001 704.3 1.10001C701.4 1.10001 698.5 2.3 696.4 4.3M503.8 6.10001C501.7 3.00001 498.1 1.2 494.4 1.2C491.5 1.2 488.6 2.39999 486.5 4.39999M656.5 6C654.4 2.9 650.8 1.10001 647.1 1.10001C644.2 1.10001 641.3 2.3 639.2 4.3M580.1 6.10001C578 3.00001 574.4 1.2 570.7 1.2C567.8 1.2 564.9 2.39999 562.8 4.39999M723.4 1.2C720.5 1.2 717.6 2.4 715.5 4.3M465.6 6.10001C463.5 3.00001 459.9 1.2 456.2 1.2C453.3 1.2 450.4 2.39999 448.3 4.39999M618.3 6C616.2 2.9 612.6 1.10001 608.9 1.10001C606 1.10001 603.1 2.3 601 4.3M541.9 6.10001C539.8 3.00001 536.2 1.2 532.5 1.2C529.6 1.2 526.7 2.39999 524.6 4.39999M694.7 6C692.6 2.9 689 1.10001 685.3 1.10001C682.4 1.10001 679.5 2.3 677.4 4.3M437 24H723.4M437 1H723.4M513.4 14.6C514.6 14.6 515.5 13.7 515.5 12.5C515.5 11.3 514.6 10.4 513.4 10.4C512.2 10.4 511.3 11.3 511.3 12.5C511.3 13.7 512.3 14.6 513.4 14.6ZM666.2 14.6C667.4 14.6 668.3 13.7 668.3 12.5C668.3 11.3 667.4 10.4 666.2 10.4C665 10.4 664.1 11.3 664.1 12.5C664.1 13.7 665 14.6 666.2 14.6ZM589.8 14.6C591 14.6 591.9 13.7 591.9 12.5C591.9 11.3 591 10.4 589.8 10.4C588.6 10.4 587.7 11.3 587.7 12.5C587.7 13.7 588.6 14.6 589.8 14.6ZM475.3 14.6C476.5 14.6 477.4 13.7 477.4 12.5C477.4 11.3 476.5 10.4 475.3 10.4C474.1 10.4 473.2 11.3 473.2 12.5C473.2 13.7 474.1 14.6 475.3 14.6ZM628 14.6C629.2 14.6 630.1 13.7 630.1 12.5C630.1 11.3 629.2 10.4 628 10.4C626.8 10.4 625.9 11.3 625.9 12.5C625.9 13.7 626.8 14.6 628 14.6ZM551.6 14.6C552.8 14.6 553.7 13.7 553.7 12.5C553.7 11.3 552.8 10.4 551.6 10.4C550.4 10.4 549.5 11.3 549.5 12.5C549.5 13.7 550.5 14.6 551.6 14.6ZM704.3 14.6C705.5 14.6 706.4 13.7 706.4 12.5C706.4 11.3 705.5 10.4 704.3 10.4C703.1 10.4 702.2 11.3 702.2 12.5C702.2 13.7 703.2 14.6 704.3 14.6ZM494.4 14.6C495.6 14.6 496.5 13.7 496.5 12.5C496.5 11.3 495.6 10.4 494.4 10.4C493.2 10.4 492.3 11.3 492.3 12.5C492.3 13.7 493.2 14.6 494.4 14.6ZM647.1 14.6C648.3 14.6 649.2 13.7 649.2 12.5C649.2 11.3 648.3 10.4 647.1 10.4C645.9 10.4 645 11.3 645 12.5C645 13.7 645.9 14.6 647.1 14.6ZM570.7 14.6C571.9 14.6 572.8 13.7 572.8 12.5C572.8 11.3 571.9 10.4 570.7 10.4C569.5 10.4 568.6 11.3 568.6 12.5C568.6 13.7 569.6 14.6 570.7 14.6ZM456.2 14.6C457.4 14.6 458.3 13.7 458.3 12.5C458.3 11.3 457.4 10.4 456.2 10.4C455 10.4 454.1 11.3 454.1 12.5C454.1 13.7 455 14.6 456.2 14.6ZM608.9 14.6C610.1 14.6 611 13.7 611 12.5C611 11.3 610.1 10.4 608.9 10.4C607.7 10.4 606.8 11.3 606.8 12.5C606.8 13.7 607.8 14.6 608.9 14.6ZM532.5 14.6C533.7 14.6 534.6 13.7 534.6 12.5C534.6 11.3 533.7 10.4 532.5 10.4C531.3 10.4 530.4 11.3 530.4 12.5C530.4 13.7 531.4 14.6 532.5 14.6ZM685.3 14.6C686.5 14.6 687.4 13.7 687.4 12.5C687.4 11.3 686.5 10.4 685.3 10.4C684.1 10.4 683.2 11.3 683.2 12.5C683.2 13.7 684.1 14.6 685.3 14.6Z" stroke="#151C26" stroke-opacity="0.17" stroke-width="1.57" stroke-miterlimit="22.926"/>
<path d="M797.9 11.1L788.1 20.9C786 22.8 783.2 24 780.3 24C776.7 24 773.1 22.1 771 19.1M940.9 20.9L950.7 11.1M874.3 11.1L864.5 20.9C862.4 22.8 859.6 24 856.7 24C853.1 24 849.5 22.1 847.4 19.1M750 20.9L759.8 11.1M902.7 20.9L912.5 11.1M836.1 11.1L826.3 20.9C824.2 22.8 821.4 24 818.5 24C814.9 24 811.3 22.1 809.2 19.1M979.1 20.9L988.9 11.1M778.8 11.1L769 20.9C766.9 22.8 764.1 24 761.2 24C757.6 24 754 22.1 751.9 19.1M921.8 20.9L931.6 11.1M855.2 11.1L845.4 20.9C843.3 22.8 840.5 24 837.6 24C834 24 830.4 22.1 828.3 19.1M998.1 20.9L1007.9 11.1M740.7 11.1L730.9 20.9C728.8 22.8 726 24 723.1 24M883.6 20.9L893.4 11.1M817 11.1L807.2 20.9C805.1 22.8 802.3 24 799.4 24C795.8 24 792.2 22.1 790.1 19.1M959.9 20.9L969.7 11.1M785.5 17.6L795.1 8C796.2 6.9 797.8 6.3 799.4 6.3C801.8 6.3 804.1 7.69999 805.1 9.89999M938.2 17.5L947.8 7.89999C948.9 6.79999 950.5 6.2 952.1 6.2C954.5 6.2 956.8 7.6 957.8 9.8M747.3 17.6L756.9 8C758 6.9 759.6 6.3 761.2 6.3C763.6 6.3 765.9 7.69999 766.9 9.89999M900.1 17.5L909.7 7.89999C910.8 6.79999 912.4 6.2 914 6.2C916.4 6.2 918.7 7.6 919.7 9.8M976.4 17.5L986 7.89999C987.1 6.79999 988.7 6.2 990.3 6.2C992.7 6.2 995 7.6 996 9.8M766.4 17.6L776 7.89999M919.1 17.5L928.7 7.8M852.4 7.89999L842.8 17.6C841.4 19 839.5 19.8 837.6 19.8C835 19.8 832.5 18.3 831.3 16M995.5 17.5L1005.1 7.8M728.2 17.6L737.9 7.89999M880.9 17.6L890.6 7.89999C891.7 6.79999 893.3 6.2 894.9 6.2C897.3 6.2 899.6 7.6 900.6 9.8M957.3 17.5L966.9 7.89999C968 6.79999 969.6 6.2 971.2 6.2C973.6 6.2 975.9 7.6 976.9 9.8M784.8 17L794.4 7.39999C795.8 6.09999 797.6 5.3 799.5 5.3C802.1 5.3 804.6 6.80001 805.8 9.10001M937.5 17L947.1 7.39999C948.5 6.09999 950.3 5.3 952.2 5.3C954.8 5.3 957.3 6.80001 958.5 9.10001M861.1 17L870.7 7.39999C872.1 6.09999 873.9 5.3 875.8 5.3C878.4 5.3 880.9 6.80001 882.1 9.10001M746.6 17L756.2 7.39999C757.6 6.09999 759.4 5.3 761.3 5.3C763.9 5.3 766.4 6.80001 767.6 9.10001M899.3 17L908.9 7.39999C910.3 6.09999 912.1 5.3 914 5.3C916.6 5.3 919.1 6.80001 920.3 9.10001M822.9 17L832.5 7.39999C833.9 6.09999 835.7 5.3 837.6 5.3C840.2 5.3 842.7 6.80001 843.9 9.10001M975.7 17L985.3 7.39999C986.7 6.09999 988.5 5.3 990.4 5.3C993 5.3 995.5 6.80001 996.7 9.10001M765.7 17L775.3 7.39999C776.7 6.09999 778.5 5.3 780.4 5.3C783 5.3 785.5 6.80001 786.7 9.10001M918.4 17L928 7.39999C929.4 6.09999 931.2 5.3 933.1 5.3C935.7 5.3 938.2 6.80001 939.4 9.10001M842 17L851.6 7.39999C853 6.09999 854.8 5.3 856.7 5.3C859.3 5.3 861.8 6.80001 863 9.10001M994.8 17L1004.4 7.39999M727.5 17L737.1 7.39999C738.5 6.09999 740.3 5.3 742.2 5.3C744.8 5.3 747.3 6.80001 748.5 9.10001M880.2 17L889.9 7.39999M803.9 17L813.5 7.39999C814.9 6.09999 816.7 5.3 818.6 5.3C821.2 5.3 823.7 6.80001 824.9 9.10001M956.6 17L966.2 7.39999C967.6 6.09999 969.4 5.3 971.3 5.3C973.9 5.3 976.4 6.80001 977.6 9.10001M781.7 14.1L791.6 4.3M934.5 14.1L944.4 4.3M858.1 14.1L868 4.3M743.6 14.1L753.5 4.3M896.3 14.1L906.2 4.3M819.9 14.1L829.8 4.3M972.6 14.1L982.5 4.3M762.7 14.1L772.5 4.3M915.5 14L925.3 4.2M839.1 14.1L848.9 4.3M991.8 14L1001.6 4.2M724.6 14.1L734.4 4.3M877.3 14L887.1 4.2M800.9 14.1L810.7 4.3M953.6 14L963.4 4.2M723.1 14.6C724.3 14.6 725.2 13.7 725.2 12.5C725.2 11.3 724.3 10.4 723.1 10.4M1009.4 10.4C1008.2 10.4 1007.3 11.3 1007.3 12.5C1007.3 13.7 1008.2 14.6 1009.4 14.6M728.8 9.89999C727.8 7.69999 725.5 6.3 723.1 6.3M881.5 9.89999C880.5 7.69999 878.2 6.3 875.8 6.3C874.2 6.3 872.6 6.9 871.5 8L861.9 17.6C860.5 19 858.6 19.8 856.7 19.8C854.1 19.8 851.6 18.3 850.4 16M843.3 9.89999C842.3 7.69999 840 6.3 837.6 6.3C836 6.3 834.4 6.9 833.3 8L823.7 17.6C822.3 19 820.4 19.8 818.5 19.8C815.9 19.8 813.4 18.3 812.2 16M786 9.89999C785 7.69999 782.7 6.3 780.3 6.3C778.7 6.3 777.1 6.9 776 8M938.8 9.8C937.8 7.6 935.5 6.2 933.1 6.2C931.5 6.2 929.9 6.79999 928.8 7.89999M862.4 9.89999C861.4 7.69999 859.1 6.3 856.7 6.3C855.1 6.3 853.5 6.9 852.4 8M1009.4 6.2C1007.8 6.2 1006.2 6.79999 1005.1 7.89999M747.9 9.89999C746.9 7.69999 744.6 6.3 742.2 6.3C740.6 6.3 739 6.9 737.9 8M824.2 9.89999C823.2 7.69999 820.9 6.3 818.5 6.3C816.9 6.3 815.3 6.9 814.2 8L804.6 17.6C803.2 19 801.3 19.8 799.4 19.8C796.8 19.8 794.3 18.3 793.1 16M723.1 18.8C724.8 18.8 726.4 18.1 727.6 16.9M793.7 15.3C794.7 17.4 797 18.8 799.4 18.8C801.1 18.8 802.7 18.1 803.9 16.9M946.5 15.3C947.5 17.4 949.8 18.8 952.2 18.8C953.9 18.8 955.5 18.1 956.7 16.9M870.1 15.3C871.1 17.4 873.4 18.8 875.8 18.8C877.5 18.8 879.1 18.1 880.3 16.9M755.6 15.3C756.6 17.4 758.9 18.8 761.3 18.8C763 18.8 764.6 18.1 765.8 16.9M908.3 15.3C909.3 17.4 911.6 18.8 914 18.8C915.7 18.8 917.3 18.1 918.5 16.9M831.9 15.3C832.9 17.4 835.2 18.8 837.6 18.8C839.3 18.8 840.9 18.1 842.1 16.9M984.6 15.3C985.6 17.4 987.9 18.8 990.3 18.8C992 18.8 993.6 18.1 994.8 16.9M774.7 15.3C775.7 17.4 778 18.8 780.4 18.8C782.1 18.8 783.7 18.1 784.9 16.9M927.4 15.3C928.4 17.4 930.7 18.8 933.1 18.8C934.8 18.8 936.4 18.1 937.6 16.9M851 15.3C852 17.4 854.3 18.8 856.7 18.8C858.4 18.8 860 18.1 861.2 16.9M1003.7 15.3C1004.7 17.4 1007 18.8 1009.4 18.8M736.5 15.3C737.5 17.4 739.8 18.8 742.2 18.8C743.9 18.8 745.5 18.1 746.7 16.9M889.2 15.3C890.2 17.4 892.5 18.8 894.9 18.8C896.6 18.8 898.2 18.1 899.4 16.9M812.8 15.3C813.8 17.4 816.1 18.8 818.5 18.8C820.2 18.8 821.8 18.1 823 16.9M965.6 15.3C966.6 17.4 968.9 18.8 971.3 18.8C973 18.8 974.6 18.1 975.8 16.9M729.4 9.10001C728.2 6.80001 725.7 5.3 723.1 5.3M1009.4 5.39999C1007.5 5.39999 1005.7 6.1 1004.3 7.5M901.2 9.10001C900 6.80001 897.5 5.3 894.9 5.3C893 5.3 891.2 6.09999 889.8 7.39999M723.1 19.7C725 19.7 726.9 18.9 728.3 17.5M945.9 16C947.1 18.3 949.6 19.8 952.2 19.8C954.1 19.8 956 19 957.4 17.6M869.5 16C870.7 18.3 873.2 19.8 875.8 19.8C877.7 19.8 879.6 19 881 17.6M755 16C756.2 18.3 758.7 19.8 761.3 19.8C763.2 19.8 765.1 19 766.5 17.6M907.7 16C908.9 18.3 911.4 19.8 914 19.8C915.9 19.8 917.8 19 919.2 17.6M984 16C985.2 18.3 987.7 19.8 990.3 19.8C992.2 19.8 994.1 19 995.5 17.6M774.1 16C775.3 18.3 777.8 19.8 780.4 19.8C782.3 19.8 784.2 19 785.6 17.6M926.8 16C928 18.3 930.5 19.8 933.1 19.8C935 19.8 936.9 19 938.3 17.6M1003.1 16C1004.3 18.3 1006.8 19.8 1009.4 19.8M735.9 16C737.1 18.3 739.6 19.8 742.2 19.8C744.1 19.8 746 19 747.4 17.6M888.6 16C889.8 18.3 892.3 19.8 894.9 19.8C896.8 19.8 898.7 19 900.1 17.6M965 16C966.2 18.3 968.7 19.8 971.3 19.8C973.2 19.8 975.1 19 976.5 17.6M942.8 19C944.9 22 948.5 23.9 952.1 23.9C955 23.9 957.8 22.7 959.9 20.8M866.4 19.1C868.5 22.1 872.1 24 875.7 24C878.6 24 881.4 22.8 883.5 20.9M904.7 19C906.8 22 910.4 23.9 914 23.9C916.9 23.9 919.7 22.7 921.8 20.8M981 19C983.1 22 986.7 23.9 990.3 23.9C993.2 23.9 996 22.7 998.1 20.8M923.7 19C925.8 22 929.4 23.9 933 23.9C935.9 23.9 938.7 22.7 940.8 20.8M1000.1 19C1002.2 22 1005.8 23.9 1009.4 23.9M732.8 19.1C734.9 22.1 738.5 24 742.1 24C745 24 747.8 22.8 749.9 20.9M885.6 19C887.7 22 891.3 23.9 894.9 23.9C897.8 23.9 900.6 22.7 902.7 20.8M961.9 19C964 22 967.6 23.9 971.2 23.9C974.1 23.9 976.9 22.7 979 20.8M732.5 6.10001C730.4 3.00001 726.8 1.2 723.1 1.2M808.8 6.10001C806.7 3.00001 803.1 1.2 799.4 1.2C796.5 1.2 793.6 2.39999 791.5 4.39999M961.6 6C959.5 2.9 955.9 1.10001 952.2 1.10001C949.3 1.10001 946.4 2.3 944.3 4.3M885.2 6.10001C883.1 3.00001 879.5 1.2 875.8 1.2C872.9 1.2 870 2.39999 867.9 4.39999M770.7 6.10001C768.6 3.00001 765 1.2 761.3 1.2C758.4 1.2 755.5 2.39999 753.4 4.39999M923.4 6C921.3 2.9 917.7 1.10001 914 1.10001C911.1 1.10001 908.2 2.3 906.1 4.3M847 6.10001C844.9 3.00001 841.3 1.2 837.6 1.2C834.7 1.2 831.8 2.39999 829.7 4.39999M999.7 6C997.6 2.9 994 1.10001 990.3 1.10001C987.4 1.10001 984.5 2.3 982.4 4.3M789.8 6.10001C787.7 3.00001 784.1 1.2 780.4 1.2C777.5 1.2 774.6 2.39999 772.5 4.39999M942.5 6C940.4 2.9 936.8 1.10001 933.1 1.10001C930.2 1.10001 927.3 2.3 925.2 4.3M866.1 6.10001C864 3.00001 860.4 1.2 856.7 1.2C853.8 1.2 850.9 2.39999 848.8 4.39999M1009.4 1.2C1006.5 1.2 1003.6 2.4 1001.5 4.3M751.6 6.10001C749.5 3.00001 745.9 1.2 742.2 1.2C739.3 1.2 736.4 2.39999 734.3 4.39999M904.3 6C902.2 2.9 898.6 1.10001 894.9 1.10001C892 1.10001 889.1 2.3 887 4.3M827.9 6.10001C825.8 3.00001 822.2 1.2 818.5 1.2C815.6 1.2 812.7 2.39999 810.6 4.39999M980.7 6C978.6 2.9 975 1.10001 971.3 1.10001C968.4 1.10001 965.5 2.3 963.4 4.3M723 24H1009.4M723 1H1009.4M799.4 14.6C800.6 14.6 801.5 13.7 801.5 12.5C801.5 11.3 800.6 10.4 799.4 10.4C798.2 10.4 797.3 11.3 797.3 12.5C797.3 13.7 798.3 14.6 799.4 14.6ZM952.2 14.6C953.4 14.6 954.3 13.7 954.3 12.5C954.3 11.3 953.4 10.4 952.2 10.4C951 10.4 950.1 11.3 950.1 12.5C950.1 13.7 951 14.6 952.2 14.6ZM875.8 14.6C877 14.6 877.9 13.7 877.9 12.5C877.9 11.3 877 10.4 875.8 10.4C874.6 10.4 873.7 11.3 873.7 12.5C873.7 13.7 874.6 14.6 875.8 14.6ZM761.3 14.6C762.5 14.6 763.4 13.7 763.4 12.5C763.4 11.3 762.5 10.4 761.3 10.4C760.1 10.4 759.2 11.3 759.2 12.5C759.2 13.7 760.1 14.6 761.3 14.6ZM914 14.6C915.2 14.6 916.1 13.7 916.1 12.5C916.1 11.3 915.2 10.4 914 10.4C912.8 10.4 911.9 11.3 911.9 12.5C911.9 13.7 912.8 14.6 914 14.6ZM837.6 14.6C838.8 14.6 839.7 13.7 839.7 12.5C839.7 11.3 838.8 10.4 837.6 10.4C836.4 10.4 835.5 11.3 835.5 12.5C835.5 13.7 836.5 14.6 837.6 14.6ZM990.3 14.6C991.5 14.6 992.4 13.7 992.4 12.5C992.4 11.3 991.5 10.4 990.3 10.4C989.1 10.4 988.2 11.3 988.2 12.5C988.2 13.7 989.2 14.6 990.3 14.6ZM780.4 14.6C781.6 14.6 782.5 13.7 782.5 12.5C782.5 11.3 781.6 10.4 780.4 10.4C779.2 10.4 778.3 11.3 778.3 12.5C778.3 13.7 779.2 14.6 780.4 14.6ZM933.1 14.6C934.3 14.6 935.2 13.7 935.2 12.5C935.2 11.3 934.3 10.4 933.1 10.4C931.9 10.4 931 11.3 931 12.5C931 13.7 931.9 14.6 933.1 14.6ZM856.7 14.6C857.9 14.6 858.8 13.7 858.8 12.5C858.8 11.3 857.9 10.4 856.7 10.4C855.5 10.4 854.6 11.3 854.6 12.5C854.6 13.7 855.6 14.6 856.7 14.6ZM742.2 14.6C743.4 14.6 744.3 13.7 744.3 12.5C744.3 11.3 743.4 10.4 742.2 10.4C741 10.4 740.1 11.3 740.1 12.5C740.1 13.7 741 14.6 742.2 14.6ZM894.9 14.6C896.1 14.6 897 13.7 897 12.5C897 11.3 896.1 10.4 894.9 10.4C893.7 10.4 892.8 11.3 892.8 12.5C892.8 13.7 893.8 14.6 894.9 14.6ZM818.5 14.6C819.7 14.6 820.6 13.7 820.6 12.5C820.6 11.3 819.7 10.4 818.5 10.4C817.3 10.4 816.4 11.3 816.4 12.5C816.4 13.7 817.4 14.6 818.5 14.6ZM971.3 14.6C972.5 14.6 973.4 13.7 973.4 12.5C973.4 11.3 972.5 10.4 971.3 10.4C970.1 10.4 969.2 11.3 969.2 12.5C969.2 13.7 970.1 14.6 971.3 14.6Z" stroke="#151C26" stroke-opacity="0.17" stroke-width="1.57" stroke-miterlimit="22.926"/>
<path d="M1083.9 11.1L1074.1 20.9C1072 22.8 1069.2 24 1066.3 24C1062.7 24 1059.1 22.1 1057 19.1M1226.9 20.9L1236.7 11.1M1160.3 11.1L1150.5 20.9C1148.4 22.8 1145.6 24 1142.7 24C1139.1 24 1135.5 22.1 1133.4 19.1M1036 20.9L1045.8 11.1M1188.7 20.9L1198.5 11.1M1122.1 11.1L1112.3 20.9C1110.2 22.8 1107.4 24 1104.5 24C1100.9 24 1097.3 22.1 1095.2 19.1M1265.1 20.9L1274.9 11.1M1064.8 11.1L1055 20.9C1052.9 22.8 1050.1 24 1047.2 24C1043.6 24 1040 22.1 1037.9 19.1M1207.8 20.9L1217.6 11.1M1141.2 11.1L1131.4 20.9C1129.3 22.8 1126.5 24 1123.6 24C1120 24 1116.4 22.1 1114.3 19.1M1284.1 20.9L1293.9 11.1M1026.7 11.1L1016.9 20.9C1014.8 22.8 1012 24 1009.1 24M1169.6 20.9L1179.4 11.1M1103 11.1L1093.2 20.9C1091.1 22.8 1088.3 24 1085.4 24C1081.8 24 1078.2 22.1 1076.1 19.1M1245.9 20.9L1255.7 11.1M1071.5 17.6L1081.1 8C1082.2 6.9 1083.8 6.3 1085.4 6.3C1087.8 6.3 1090.1 7.69999 1091.1 9.89999M1224.2 17.5L1233.8 7.89999C1234.9 6.79999 1236.5 6.2 1238.1 6.2C1240.5 6.2 1242.8 7.6 1243.8 9.8M1033.3 17.6L1042.9 8C1044 6.9 1045.6 6.3 1047.2 6.3C1049.6 6.3 1051.9 7.69999 1052.9 9.89999M1186.1 17.5L1195.7 7.89999C1196.8 6.79999 1198.4 6.2 1200 6.2C1202.4 6.2 1204.7 7.6 1205.7 9.8M1262.4 17.5L1272 7.89999C1273.1 6.79999 1274.7 6.2 1276.3 6.2C1278.7 6.2 1281 7.6 1282 9.8M1052.4 17.6L1062 7.89999M1205.1 17.5L1214.7 7.8M1138.4 7.89999L1128.8 17.6C1127.4 19 1125.5 19.8 1123.6 19.8C1121 19.8 1118.5 18.3 1117.3 16M1281.5 17.5L1291.1 7.8M1014.2 17.6L1023.9 7.89999M1166.9 17.6L1176.6 7.89999C1177.7 6.79999 1179.3 6.2 1180.9 6.2C1183.3 6.2 1185.6 7.6 1186.6 9.8M1243.3 17.5L1252.9 7.89999C1254 6.79999 1255.6 6.2 1257.2 6.2C1259.6 6.2 1261.9 7.6 1262.9 9.8M1070.8 17L1080.4 7.39999C1081.8 6.09999 1083.6 5.3 1085.5 5.3C1088.1 5.3 1090.6 6.80001 1091.8 9.10001M1223.5 17L1233.1 7.39999C1234.5 6.09999 1236.3 5.3 1238.2 5.3C1240.8 5.3 1243.3 6.80001 1244.5 9.10001M1147.1 17L1156.7 7.39999C1158.1 6.09999 1159.9 5.3 1161.8 5.3C1164.4 5.3 1166.9 6.80001 1168.1 9.10001M1032.6 17L1042.2 7.39999C1043.6 6.09999 1045.4 5.3 1047.3 5.3C1049.9 5.3 1052.4 6.80001 1053.6 9.10001M1185.3 17L1194.9 7.39999C1196.3 6.09999 1198.1 5.3 1200 5.3C1202.6 5.3 1205.1 6.80001 1206.3 9.10001M1108.9 17L1118.5 7.39999C1119.9 6.09999 1121.7 5.3 1123.6 5.3C1126.2 5.3 1128.7 6.80001 1129.9 9.10001M1261.7 17L1271.3 7.39999C1272.7 6.09999 1274.5 5.3 1276.4 5.3C1279 5.3 1281.5 6.80001 1282.7 9.10001M1051.7 17L1061.3 7.39999C1062.7 6.09999 1064.5 5.3 1066.4 5.3C1069 5.3 1071.5 6.80001 1072.7 9.10001M1204.4 17L1214 7.39999C1215.4 6.09999 1217.2 5.3 1219.1 5.3C1221.7 5.3 1224.2 6.80001 1225.4 9.10001M1128 17L1137.6 7.39999C1139 6.09999 1140.8 5.3 1142.7 5.3C1145.3 5.3 1147.8 6.80001 1149 9.10001M1280.8 17L1290.4 7.39999M1013.5 17L1023.1 7.39999C1024.5 6.09999 1026.3 5.3 1028.2 5.3C1030.8 5.3 1033.3 6.80001 1034.5 9.10001M1166.2 17L1175.9 7.39999M1089.9 17L1099.5 7.39999C1100.9 6.09999 1102.7 5.3 1104.6 5.3C1107.2 5.3 1109.7 6.80001 1110.9 9.10001M1242.6 17L1252.2 7.39999C1253.6 6.09999 1255.4 5.3 1257.3 5.3C1259.9 5.3 1262.4 6.80001 1263.6 9.10001M1067.7 14.1L1077.6 4.3M1220.5 14.1L1230.4 4.3M1144.1 14.1L1154 4.3M1029.6 14.1L1039.5 4.3M1182.3 14.1L1192.2 4.3M1105.9 14.1L1115.8 4.3M1258.6 14.1L1268.5 4.3M1048.7 14.1L1058.5 4.3M1201.5 14L1211.3 4.2M1125.1 14.1L1134.9 4.3M1277.8 14L1287.6 4.2M1010.6 14.1L1020.4 4.3M1163.3 14L1173.1 4.2M1086.9 14.1L1096.7 4.3M1239.6 14L1249.4 4.2M1009.1 14.6C1010.3 14.6 1011.2 13.7 1011.2 12.5C1011.2 11.3 1010.3 10.4 1009.1 10.4M1295.4 10.4C1294.2 10.4 1293.3 11.3 1293.3 12.5C1293.3 13.7 1294.2 14.6 1295.4 14.6M1014.8 9.89999C1013.8 7.69999 1011.5 6.3 1009.1 6.3M1167.5 9.89999C1166.5 7.69999 1164.2 6.3 1161.8 6.3C1160.2 6.3 1158.6 6.9 1157.5 8L1147.9 17.6C1146.5 19 1144.6 19.8 1142.7 19.8C1140.1 19.8 1137.6 18.3 1136.4 16M1129.3 9.89999C1128.3 7.69999 1126 6.3 1123.6 6.3C1122 6.3 1120.4 6.9 1119.3 8L1109.7 17.6C1108.3 19 1106.4 19.8 1104.5 19.8C1101.9 19.8 1099.4 18.3 1098.2 16M1072 9.89999C1071 7.69999 1068.7 6.3 1066.3 6.3C1064.7 6.3 1063.1 6.9 1062 8M1224.8 9.8C1223.8 7.6 1221.5 6.2 1219.1 6.2C1217.5 6.2 1215.9 6.79999 1214.8 7.89999M1148.4 9.89999C1147.4 7.69999 1145.1 6.3 1142.7 6.3C1141.1 6.3 1139.5 6.9 1138.4 8M1295.4 6.2C1293.8 6.2 1292.2 6.79999 1291.1 7.89999M1033.9 9.89999C1032.9 7.69999 1030.6 6.3 1028.2 6.3C1026.6 6.3 1025 6.9 1023.9 8M1110.2 9.89999C1109.2 7.69999 1106.9 6.3 1104.5 6.3C1102.9 6.3 1101.3 6.9 1100.2 8L1090.6 17.6C1089.2 19 1087.3 19.8 1085.4 19.8C1082.8 19.8 1080.3 18.3 1079.1 16M1009.1 18.8C1010.8 18.8 1012.4 18.1 1013.6 16.9M1079.7 15.3C1080.7 17.4 1083 18.8 1085.4 18.8C1087.1 18.8 1088.7 18.1 1089.9 16.9M1232.5 15.3C1233.5 17.4 1235.8 18.8 1238.2 18.8C1239.9 18.8 1241.5 18.1 1242.7 16.9M1156.1 15.3C1157.1 17.4 1159.4 18.8 1161.8 18.8C1163.5 18.8 1165.1 18.1 1166.3 16.9M1041.6 15.3C1042.6 17.4 1044.9 18.8 1047.3 18.8C1049 18.8 1050.6 18.1 1051.8 16.9M1194.3 15.3C1195.3 17.4 1197.6 18.8 1200 18.8C1201.7 18.8 1203.3 18.1 1204.5 16.9M1117.9 15.3C1118.9 17.4 1121.2 18.8 1123.6 18.8C1125.3 18.8 1126.9 18.1 1128.1 16.9M1270.6 15.3C1271.6 17.4 1273.9 18.8 1276.3 18.8C1278 18.8 1279.6 18.1 1280.8 16.9M1060.7 15.3C1061.7 17.4 1064 18.8 1066.4 18.8C1068.1 18.8 1069.7 18.1 1070.9 16.9M1213.4 15.3C1214.4 17.4 1216.7 18.8 1219.1 18.8C1220.8 18.8 1222.4 18.1 1223.6 16.9M1137 15.3C1138 17.4 1140.3 18.8 1142.7 18.8C1144.4 18.8 1146 18.1 1147.2 16.9M1289.7 15.3C1290.7 17.4 1293 18.8 1295.4 18.8M1022.5 15.3C1023.5 17.4 1025.8 18.8 1028.2 18.8C1029.9 18.8 1031.5 18.1 1032.7 16.9M1175.2 15.3C1176.2 17.4 1178.5 18.8 1180.9 18.8C1182.6 18.8 1184.2 18.1 1185.4 16.9M1098.8 15.3C1099.8 17.4 1102.1 18.8 1104.5 18.8C1106.2 18.8 1107.8 18.1 1109 16.9M1251.6 15.3C1252.6 17.4 1254.9 18.8 1257.3 18.8C1259 18.8 1260.6 18.1 1261.8 16.9M1015.4 9.10001C1014.2 6.80001 1011.7 5.3 1009.1 5.3M1295.4 5.39999C1293.5 5.39999 1291.7 6.1 1290.3 7.5M1187.2 9.10001C1186 6.80001 1183.5 5.3 1180.9 5.3C1179 5.3 1177.2 6.09999 1175.8 7.39999M1009.1 19.7C1011 19.7 1012.9 18.9 1014.3 17.5M1231.9 16C1233.1 18.3 1235.6 19.8 1238.2 19.8C1240.1 19.8 1242 19 1243.4 17.6M1155.5 16C1156.7 18.3 1159.2 19.8 1161.8 19.8C1163.7 19.8 1165.6 19 1167 17.6M1041 16C1042.2 18.3 1044.7 19.8 1047.3 19.8C1049.2 19.8 1051.1 19 1052.5 17.6M1193.7 16C1194.9 18.3 1197.4 19.8 1200 19.8C1201.9 19.8 1203.8 19 1205.2 17.6M1270 16C1271.2 18.3 1273.7 19.8 1276.3 19.8C1278.2 19.8 1280.1 19 1281.5 17.6M1060.1 16C1061.3 18.3 1063.8 19.8 1066.4 19.8C1068.3 19.8 1070.2 19 1071.6 17.6M1212.8 16C1214 18.3 1216.5 19.8 1219.1 19.8C1221 19.8 1222.9 19 1224.3 17.6M1289.1 16C1290.3 18.3 1292.8 19.8 1295.4 19.8M1021.9 16C1023.1 18.3 1025.6 19.8 1028.2 19.8C1030.1 19.8 1032 19 1033.4 17.6M1174.6 16C1175.8 18.3 1178.3 19.8 1180.9 19.8C1182.8 19.8 1184.7 19 1186.1 17.6M1251 16C1252.2 18.3 1254.7 19.8 1257.3 19.8C1259.2 19.8 1261.1 19 1262.5 17.6M1228.8 19C1230.9 22 1234.5 23.9 1238.1 23.9C1241 23.9 1243.8 22.7 1245.9 20.8M1152.4 19.1C1154.5 22.1 1158.1 24 1161.7 24C1164.6 24 1167.4 22.8 1169.5 20.9M1190.7 19C1192.8 22 1196.4 23.9 1200 23.9C1202.9 23.9 1205.7 22.7 1207.8 20.8M1267 19C1269.1 22 1272.7 23.9 1276.3 23.9C1279.2 23.9 1282 22.7 1284.1 20.8M1209.7 19C1211.8 22 1215.4 23.9 1219 23.9C1221.9 23.9 1224.7 22.7 1226.8 20.8M1286.1 19C1288.2 22 1291.8 23.9 1295.4 23.9M1018.8 19.1C1020.9 22.1 1024.5 24 1028.1 24C1031 24 1033.8 22.8 1035.9 20.9M1171.6 19C1173.7 22 1177.3 23.9 1180.9 23.9C1183.8 23.9 1186.6 22.7 1188.7 20.8M1247.9 19C1250 22 1253.6 23.9 1257.2 23.9C1260.1 23.9 1262.9 22.7 1265 20.8M1018.5 6.10001C1016.4 3.00001 1012.8 1.2 1009.1 1.2M1094.8 6.10001C1092.7 3.00001 1089.1 1.2 1085.4 1.2C1082.5 1.2 1079.6 2.39999 1077.5 4.39999M1247.6 6C1245.5 2.9 1241.9 1.10001 1238.2 1.10001C1235.3 1.10001 1232.4 2.3 1230.3 4.3M1171.2 6.10001C1169.1 3.00001 1165.5 1.2 1161.8 1.2C1158.9 1.2 1156 2.39999 1153.9 4.39999M1056.7 6.10001C1054.6 3.00001 1051 1.2 1047.3 1.2C1044.4 1.2 1041.5 2.39999 1039.4 4.39999M1209.4 6C1207.3 2.9 1203.7 1.10001 1200 1.10001C1197.1 1.10001 1194.2 2.3 1192.1 4.3M1133 6.10001C1130.9 3.00001 1127.3 1.2 1123.6 1.2C1120.7 1.2 1117.8 2.39999 1115.7 4.39999M1285.7 6C1283.6 2.9 1280 1.10001 1276.3 1.10001C1273.4 1.10001 1270.5 2.3 1268.4 4.3M1075.8 6.10001C1073.7 3.00001 1070.1 1.2 1066.4 1.2C1063.5 1.2 1060.6 2.39999 1058.5 4.39999M1228.5 6C1226.4 2.9 1222.8 1.10001 1219.1 1.10001C1216.2 1.10001 1213.3 2.3 1211.2 4.3M1152.1 6.10001C1150 3.00001 1146.4 1.2 1142.7 1.2C1139.8 1.2 1136.9 2.39999 1134.8 4.39999M1295.4 1.2C1292.5 1.2 1289.6 2.4 1287.5 4.3M1037.6 6.10001C1035.5 3.00001 1031.9 1.2 1028.2 1.2C1025.3 1.2 1022.4 2.39999 1020.3 4.39999M1190.3 6C1188.2 2.9 1184.6 1.10001 1180.9 1.10001C1178 1.10001 1175.1 2.3 1173 4.3M1113.9 6.10001C1111.8 3.00001 1108.2 1.2 1104.5 1.2C1101.6 1.2 1098.7 2.39999 1096.6 4.39999M1266.7 6C1264.6 2.9 1261 1.10001 1257.3 1.10001C1254.4 1.10001 1251.5 2.3 1249.4 4.3M1009 24H1295.4M1009 1H1295.4M1085.4 14.6C1086.6 14.6 1087.5 13.7 1087.5 12.5C1087.5 11.3 1086.6 10.4 1085.4 10.4C1084.2 10.4 1083.3 11.3 1083.3 12.5C1083.3 13.7 1084.3 14.6 1085.4 14.6ZM1238.2 14.6C1239.4 14.6 1240.3 13.7 1240.3 12.5C1240.3 11.3 1239.4 10.4 1238.2 10.4C1237 10.4 1236.1 11.3 1236.1 12.5C1236.1 13.7 1237 14.6 1238.2 14.6ZM1161.8 14.6C1163 14.6 1163.9 13.7 1163.9 12.5C1163.9 11.3 1163 10.4 1161.8 10.4C1160.6 10.4 1159.7 11.3 1159.7 12.5C1159.7 13.7 1160.6 14.6 1161.8 14.6ZM1047.3 14.6C1048.5 14.6 1049.4 13.7 1049.4 12.5C1049.4 11.3 1048.5 10.4 1047.3 10.4C1046.1 10.4 1045.2 11.3 1045.2 12.5C1045.2 13.7 1046.1 14.6 1047.3 14.6ZM1200 14.6C1201.2 14.6 1202.1 13.7 1202.1 12.5C1202.1 11.3 1201.2 10.4 1200 10.4C1198.8 10.4 1197.9 11.3 1197.9 12.5C1197.9 13.7 1198.8 14.6 1200 14.6ZM1123.6 14.6C1124.8 14.6 1125.7 13.7 1125.7 12.5C1125.7 11.3 1124.8 10.4 1123.6 10.4C1122.4 10.4 1121.5 11.3 1121.5 12.5C1121.5 13.7 1122.5 14.6 1123.6 14.6ZM1276.3 14.6C1277.5 14.6 1278.4 13.7 1278.4 12.5C1278.4 11.3 1277.5 10.4 1276.3 10.4C1275.1 10.4 1274.2 11.3 1274.2 12.5C1274.2 13.7 1275.2 14.6 1276.3 14.6ZM1066.4 14.6C1067.6 14.6 1068.5 13.7 1068.5 12.5C1068.5 11.3 1067.6 10.4 1066.4 10.4C1065.2 10.4 1064.3 11.3 1064.3 12.5C1064.3 13.7 1065.2 14.6 1066.4 14.6ZM1219.1 14.6C1220.3 14.6 1221.2 13.7 1221.2 12.5C1221.2 11.3 1220.3 10.4 1219.1 10.4C1217.9 10.4 1217 11.3 1217 12.5C1217 13.7 1217.9 14.6 1219.1 14.6ZM1142.7 14.6C1143.9 14.6 1144.8 13.7 1144.8 12.5C1144.8 11.3 1143.9 10.4 1142.7 10.4C1141.5 10.4 1140.6 11.3 1140.6 12.5C1140.6 13.7 1141.6 14.6 1142.7 14.6ZM1028.2 14.6C1029.4 14.6 1030.3 13.7 1030.3 12.5C1030.3 11.3 1029.4 10.4 1028.2 10.4C1027 10.4 1026.1 11.3 1026.1 12.5C1026.1 13.7 1027 14.6 1028.2 14.6ZM1180.9 14.6C1182.1 14.6 1183 13.7 1183 12.5C1183 11.3 1182.1 10.4 1180.9 10.4C1179.7 10.4 1178.8 11.3 1178.8 12.5C1178.8 13.7 1179.8 14.6 1180.9 14.6ZM1104.5 14.6C1105.7 14.6 1106.6 13.7 1106.6 12.5C1106.6 11.3 1105.7 10.4 1104.5 10.4C1103.3 10.4 1102.4 11.3 1102.4 12.5C1102.4 13.7 1103.4 14.6 1104.5 14.6ZM1257.3 14.6C1258.5 14.6 1259.4 13.7 1259.4 12.5C1259.4 11.3 1258.5 10.4 1257.3 10.4C1256.1 10.4 1255.2 11.3 1255.2 12.5C1255.2 13.7 1256.1 14.6 1257.3 14.6Z" stroke="#151C26" stroke-opacity="0.17" stroke-width="1.57" stroke-miterlimit="22.926"/>
<path d="M1369.9 11.1L1360.1 20.9C1358 22.8 1355.2 24 1352.3 24C1348.7 24 1345.1 22.1 1343 19.1M1512.9 20.9L1522.7 11.1M1446.3 11.1L1436.5 20.9C1434.4 22.8 1431.6 24 1428.7 24C1425.1 24 1421.5 22.1 1419.4 19.1M1322 20.9L1331.8 11.1M1474.7 20.9L1484.5 11.1M1408.1 11.1L1398.3 20.9C1396.2 22.8 1393.4 24 1390.5 24C1386.9 24 1383.3 22.1 1381.2 19.1M1551.1 20.9L1560.9 11.1M1350.8 11.1L1341 20.9C1338.9 22.8 1336.1 24 1333.2 24C1329.6 24 1326 22.1 1323.9 19.1M1493.8 20.9L1503.6 11.1M1427.2 11.1L1417.4 20.9C1415.3 22.8 1412.5 24 1409.6 24C1406 24 1402.4 22.1 1400.3 19.1M1570.1 20.9L1579.9 11.1M1312.7 11.1L1302.9 20.9C1300.8 22.8 1298 24 1295.1 24M1455.6 20.9L1465.4 11.1M1389 11.1L1379.2 20.9C1377.1 22.8 1374.3 24 1371.4 24C1367.8 24 1364.2 22.1 1362.1 19.1M1531.9 20.9L1541.7 11.1M1357.5 17.6L1367.1 8C1368.2 6.9 1369.8 6.3 1371.4 6.3C1373.8 6.3 1376.1 7.69999 1377.1 9.89999M1510.2 17.5L1519.8 7.89999C1520.9 6.79999 1522.5 6.2 1524.1 6.2C1526.5 6.2 1528.8 7.6 1529.8 9.8M1319.3 17.6L1328.9 8C1330 6.9 1331.6 6.3 1333.2 6.3C1335.6 6.3 1337.9 7.69999 1338.9 9.89999M1472.1 17.5L1481.7 7.89999C1482.8 6.79999 1484.4 6.2 1486 6.2C1488.4 6.2 1490.7 7.6 1491.7 9.8M1548.4 17.5L1558 7.89999C1559.1 6.79999 1560.7 6.2 1562.3 6.2C1564.7 6.2 1567 7.6 1568 9.8M1338.4 17.6L1348 7.89999M1491.1 17.5L1500.7 7.8M1424.4 7.89999L1414.8 17.6C1413.4 19 1411.5 19.8 1409.6 19.8C1407 19.8 1404.5 18.3 1403.3 16M1567.5 17.5L1577.1 7.8M1300.2 17.6L1309.9 7.89999M1452.9 17.6L1462.6 7.89999C1463.7 6.79999 1465.3 6.2 1466.9 6.2C1469.3 6.2 1471.6 7.6 1472.6 9.8M1529.3 17.5L1538.9 7.89999C1540 6.79999 1541.6 6.2 1543.2 6.2C1545.6 6.2 1547.9 7.6 1548.9 9.8M1356.8 17L1366.4 7.39999C1367.8 6.09999 1369.6 5.3 1371.5 5.3C1374.1 5.3 1376.6 6.80001 1377.8 9.10001M1509.5 17L1519.1 7.39999C1520.5 6.09999 1522.3 5.3 1524.2 5.3C1526.8 5.3 1529.3 6.80001 1530.5 9.10001M1433.1 17L1442.7 7.39999C1444.1 6.09999 1445.9 5.3 1447.8 5.3C1450.4 5.3 1452.9 6.80001 1454.1 9.10001M1318.6 17L1328.2 7.39999C1329.6 6.09999 1331.4 5.3 1333.3 5.3C1335.9 5.3 1338.4 6.80001 1339.6 9.10001M1471.3 17L1480.9 7.39999C1482.3 6.09999 1484.1 5.3 1486 5.3C1488.6 5.3 1491.1 6.80001 1492.3 9.10001M1394.9 17L1404.5 7.39999C1405.9 6.09999 1407.7 5.3 1409.6 5.3C1412.2 5.3 1414.7 6.80001 1415.9 9.10001M1547.7 17L1557.3 7.39999C1558.7 6.09999 1560.5 5.3 1562.4 5.3C1565 5.3 1567.5 6.80001 1568.7 9.10001M1337.7 17L1347.3 7.39999C1348.7 6.09999 1350.5 5.3 1352.4 5.3C1355 5.3 1357.5 6.80001 1358.7 9.10001M1490.4 17L1500 7.39999C1501.4 6.09999 1503.2 5.3 1505.1 5.3C1507.7 5.3 1510.2 6.80001 1511.4 9.10001M1414 17L1423.6 7.39999C1425 6.09999 1426.8 5.3 1428.7 5.3C1431.3 5.3 1433.8 6.80001 1435 9.10001M1566.8 17L1576.4 7.39999M1299.5 17L1309.1 7.39999C1310.5 6.09999 1312.3 5.3 1314.2 5.3C1316.8 5.3 1319.3 6.80001 1320.5 9.10001M1452.2 17L1461.9 7.39999M1375.9 17L1385.5 7.39999C1386.9 6.09999 1388.7 5.3 1390.6 5.3C1393.2 5.3 1395.7 6.80001 1396.9 9.10001M1528.6 17L1538.2 7.39999C1539.6 6.09999 1541.4 5.3 1543.3 5.3C1545.9 5.3 1548.4 6.80001 1549.6 9.10001M1353.7 14.1L1363.6 4.3M1506.5 14.1L1516.4 4.3M1430.1 14.1L1440 4.3M1315.6 14.1L1325.5 4.3M1468.3 14.1L1478.2 4.3M1391.9 14.1L1401.8 4.3M1544.6 14.1L1554.5 4.3M1334.7 14.1L1344.5 4.3M1487.5 14L1497.3 4.2M1411.1 14.1L1420.9 4.3M1563.8 14L1573.6 4.2M1296.6 14.1L1306.4 4.3M1449.3 14L1459.1 4.2M1372.9 14.1L1382.7 4.3M1525.6 14L1535.4 4.2M1295.1 14.6C1296.3 14.6 1297.2 13.7 1297.2 12.5C1297.2 11.3 1296.3 10.4 1295.1 10.4M1581.4 10.4C1580.2 10.4 1579.3 11.3 1579.3 12.5C1579.3 13.7 1580.2 14.6 1581.4 14.6M1300.8 9.89999C1299.8 7.69999 1297.5 6.3 1295.1 6.3M1453.5 9.89999C1452.5 7.69999 1450.2 6.3 1447.8 6.3C1446.2 6.3 1444.6 6.9 1443.5 8L1433.9 17.6C1432.5 19 1430.6 19.8 1428.7 19.8C1426.1 19.8 1423.6 18.3 1422.4 16M1415.3 9.89999C1414.3 7.69999 1412 6.3 1409.6 6.3C1408 6.3 1406.4 6.9 1405.3 8L1395.7 17.6C1394.3 19 1392.4 19.8 1390.5 19.8C1387.9 19.8 1385.4 18.3 1384.2 16M1358 9.89999C1357 7.69999 1354.7 6.3 1352.3 6.3C1350.7 6.3 1349.1 6.9 1348 8M1510.8 9.8C1509.8 7.6 1507.5 6.2 1505.1 6.2C1503.5 6.2 1501.9 6.79999 1500.8 7.89999M1434.4 9.89999C1433.4 7.69999 1431.1 6.3 1428.7 6.3C1427.1 6.3 1425.5 6.9 1424.4 8M1581.4 6.2C1579.8 6.2 1578.2 6.79999 1577.1 7.89999M1319.9 9.89999C1318.9 7.69999 1316.6 6.3 1314.2 6.3C1312.6 6.3 1311 6.9 1309.9 8M1396.2 9.89999C1395.2 7.69999 1392.9 6.3 1390.5 6.3C1388.9 6.3 1387.3 6.9 1386.2 8L1376.6 17.6C1375.2 19 1373.3 19.8 1371.4 19.8C1368.8 19.8 1366.3 18.3 1365.1 16M1295.1 18.8C1296.8 18.8 1298.4 18.1 1299.6 16.9M1365.7 15.3C1366.7 17.4 1369 18.8 1371.4 18.8C1373.1 18.8 1374.7 18.1 1375.9 16.9M1518.5 15.3C1519.5 17.4 1521.8 18.8 1524.2 18.8C1525.9 18.8 1527.5 18.1 1528.7 16.9M1442.1 15.3C1443.1 17.4 1445.4 18.8 1447.8 18.8C1449.5 18.8 1451.1 18.1 1452.3 16.9M1327.6 15.3C1328.6 17.4 1330.9 18.8 1333.3 18.8C1335 18.8 1336.6 18.1 1337.8 16.9M1480.3 15.3C1481.3 17.4 1483.6 18.8 1486 18.8C1487.7 18.8 1489.3 18.1 1490.5 16.9M1403.9 15.3C1404.9 17.4 1407.2 18.8 1409.6 18.8C1411.3 18.8 1412.9 18.1 1414.1 16.9M1556.6 15.3C1557.6 17.4 1559.9 18.8 1562.3 18.8C1564 18.8 1565.6 18.1 1566.8 16.9M1346.7 15.3C1347.7 17.4 1350 18.8 1352.4 18.8C1354.1 18.8 1355.7 18.1 1356.9 16.9M1499.4 15.3C1500.4 17.4 1502.7 18.8 1505.1 18.8C1506.8 18.8 1508.4 18.1 1509.6 16.9M1423 15.3C1424 17.4 1426.3 18.8 1428.7 18.8C1430.4 18.8 1432 18.1 1433.2 16.9M1575.7 15.3C1576.7 17.4 1579 18.8 1581.4 18.8M1308.5 15.3C1309.5 17.4 1311.8 18.8 1314.2 18.8C1315.9 18.8 1317.5 18.1 1318.7 16.9M1461.2 15.3C1462.2 17.4 1464.5 18.8 1466.9 18.8C1468.6 18.8 1470.2 18.1 1471.4 16.9M1384.8 15.3C1385.8 17.4 1388.1 18.8 1390.5 18.8C1392.2 18.8 1393.8 18.1 1395 16.9M1537.6 15.3C1538.6 17.4 1540.9 18.8 1543.3 18.8C1545 18.8 1546.6 18.1 1547.8 16.9M1301.4 9.10001C1300.2 6.80001 1297.7 5.3 1295.1 5.3M1581.4 5.39999C1579.5 5.39999 1577.7 6.1 1576.3 7.5M1473.2 9.10001C1472 6.80001 1469.5 5.3 1466.9 5.3C1465 5.3 1463.2 6.09999 1461.8 7.39999M1295.1 19.7C1297 19.7 1298.9 18.9 1300.3 17.5M1517.9 16C1519.1 18.3 1521.6 19.8 1524.2 19.8C1526.1 19.8 1528 19 1529.4 17.6M1441.5 16C1442.7 18.3 1445.2 19.8 1447.8 19.8C1449.7 19.8 1451.6 19 1453 17.6M1327 16C1328.2 18.3 1330.7 19.8 1333.3 19.8C1335.2 19.8 1337.1 19 1338.5 17.6M1479.7 16C1480.9 18.3 1483.4 19.8 1486 19.8C1487.9 19.8 1489.8 19 1491.2 17.6M1556 16C1557.2 18.3 1559.7 19.8 1562.3 19.8C1564.2 19.8 1566.1 19 1567.5 17.6M1346.1 16C1347.3 18.3 1349.8 19.8 1352.4 19.8C1354.3 19.8 1356.2 19 1357.6 17.6M1498.8 16C1500 18.3 1502.5 19.8 1505.1 19.8C1507 19.8 1508.9 19 1510.3 17.6M1575.1 16C1576.3 18.3 1578.8 19.8 1581.4 19.8M1307.9 16C1309.1 18.3 1311.6 19.8 1314.2 19.8C1316.1 19.8 1318 19 1319.4 17.6M1460.6 16C1461.8 18.3 1464.3 19.8 1466.9 19.8C1468.8 19.8 1470.7 19 1472.1 17.6M1537 16C1538.2 18.3 1540.7 19.8 1543.3 19.8C1545.2 19.8 1547.1 19 1548.5 17.6M1514.8 19C1516.9 22 1520.5 23.9 1524.1 23.9C1527 23.9 1529.8 22.7 1531.9 20.8M1438.4 19.1C1440.5 22.1 1444.1 24 1447.7 24C1450.6 24 1453.4 22.8 1455.5 20.9M1476.7 19C1478.8 22 1482.4 23.9 1486 23.9C1488.9 23.9 1491.7 22.7 1493.8 20.8M1553 19C1555.1 22 1558.7 23.9 1562.3 23.9C1565.2 23.9 1568 22.7 1570.1 20.8M1495.7 19C1497.8 22 1501.4 23.9 1505 23.9C1507.9 23.9 1510.7 22.7 1512.8 20.8M1572.1 19C1574.2 22 1577.8 23.9 1581.4 23.9M1304.8 19.1C1306.9 22.1 1310.5 24 1314.1 24C1317 24 1319.8 22.8 1321.9 20.9M1457.6 19C1459.7 22 1463.3 23.9 1466.9 23.9C1469.8 23.9 1472.6 22.7 1474.7 20.8M1533.9 19C1536 22 1539.6 23.9 1543.2 23.9C1546.1 23.9 1548.9 22.7 1551 20.8M1304.5 6.10001C1302.4 3.00001 1298.8 1.2 1295.1 1.2M1380.8 6.10001C1378.7 3.00001 1375.1 1.2 1371.4 1.2C1368.5 1.2 1365.6 2.39999 1363.5 4.39999M1533.6 6C1531.5 2.9 1527.9 1.10001 1524.2 1.10001C1521.3 1.10001 1518.4 2.3 1516.3 4.3M1457.2 6.10001C1455.1 3.00001 1451.5 1.2 1447.8 1.2C1444.9 1.2 1442 2.39999 1439.9 4.39999M1342.7 6.10001C1340.6 3.00001 1337 1.2 1333.3 1.2C1330.4 1.2 1327.5 2.39999 1325.4 4.39999M1495.4 6C1493.3 2.9 1489.7 1.10001 1486 1.10001C1483.1 1.10001 1480.2 2.3 1478.1 4.3M1419 6.10001C1416.9 3.00001 1413.3 1.2 1409.6 1.2C1406.7 1.2 1403.8 2.39999 1401.7 4.39999M1571.7 6C1569.6 2.9 1566 1.10001 1562.3 1.10001C1559.4 1.10001 1556.5 2.3 1554.4 4.3M1361.8 6.10001C1359.7 3.00001 1356.1 1.2 1352.4 1.2C1349.5 1.2 1346.6 2.39999 1344.5 4.39999M1514.5 6C1512.4 2.9 1508.8 1.10001 1505.1 1.10001C1502.2 1.10001 1499.3 2.3 1497.2 4.3M1438.1 6.10001C1436 3.00001 1432.4 1.2 1428.7 1.2C1425.8 1.2 1422.9 2.39999 1420.8 4.39999M1581.4 1.2C1578.5 1.2 1575.6 2.4 1573.5 4.3M1323.6 6.10001C1321.5 3.00001 1317.9 1.2 1314.2 1.2C1311.3 1.2 1308.4 2.39999 1306.3 4.39999M1476.3 6C1474.2 2.9 1470.6 1.10001 1466.9 1.10001C1464 1.10001 1461.1 2.3 1459 4.3M1399.9 6.10001C1397.8 3.00001 1394.2 1.2 1390.5 1.2C1387.6 1.2 1384.7 2.39999 1382.6 4.39999M1552.7 6C1550.6 2.9 1547 1.10001 1543.3 1.10001C1540.4 1.10001 1537.5 2.3 1535.4 4.3M1295 24H1581.4M1295 1H1581.4M1371.4 14.6C1372.6 14.6 1373.5 13.7 1373.5 12.5C1373.5 11.3 1372.6 10.4 1371.4 10.4C1370.2 10.4 1369.3 11.3 1369.3 12.5C1369.3 13.7 1370.3 14.6 1371.4 14.6ZM1524.2 14.6C1525.4 14.6 1526.3 13.7 1526.3 12.5C1526.3 11.3 1525.4 10.4 1524.2 10.4C1523 10.4 1522.1 11.3 1522.1 12.5C1522.1 13.7 1523 14.6 1524.2 14.6ZM1447.8 14.6C1449 14.6 1449.9 13.7 1449.9 12.5C1449.9 11.3 1449 10.4 1447.8 10.4C1446.6 10.4 1445.7 11.3 1445.7 12.5C1445.7 13.7 1446.6 14.6 1447.8 14.6ZM1333.3 14.6C1334.5 14.6 1335.4 13.7 1335.4 12.5C1335.4 11.3 1334.5 10.4 1333.3 10.4C1332.1 10.4 1331.2 11.3 1331.2 12.5C1331.2 13.7 1332.1 14.6 1333.3 14.6ZM1486 14.6C1487.2 14.6 1488.1 13.7 1488.1 12.5C1488.1 11.3 1487.2 10.4 1486 10.4C1484.8 10.4 1483.9 11.3 1483.9 12.5C1483.9 13.7 1484.8 14.6 1486 14.6ZM1409.6 14.6C1410.8 14.6 1411.7 13.7 1411.7 12.5C1411.7 11.3 1410.8 10.4 1409.6 10.4C1408.4 10.4 1407.5 11.3 1407.5 12.5C1407.5 13.7 1408.5 14.6 1409.6 14.6ZM1562.3 14.6C1563.5 14.6 1564.4 13.7 1564.4 12.5C1564.4 11.3 1563.5 10.4 1562.3 10.4C1561.1 10.4 1560.2 11.3 1560.2 12.5C1560.2 13.7 1561.2 14.6 1562.3 14.6ZM1352.4 14.6C1353.6 14.6 1354.5 13.7 1354.5 12.5C1354.5 11.3 1353.6 10.4 1352.4 10.4C1351.2 10.4 1350.3 11.3 1350.3 12.5C1350.3 13.7 1351.2 14.6 1352.4 14.6ZM1505.1 14.6C1506.3 14.6 1507.2 13.7 1507.2 12.5C1507.2 11.3 1506.3 10.4 1505.1 10.4C1503.9 10.4 1503 11.3 1503 12.5C1503 13.7 1503.9 14.6 1505.1 14.6ZM1428.7 14.6C1429.9 14.6 1430.8 13.7 1430.8 12.5C1430.8 11.3 1429.9 10.4 1428.7 10.4C1427.5 10.4 1426.6 11.3 1426.6 12.5C1426.6 13.7 1427.6 14.6 1428.7 14.6ZM1314.2 14.6C1315.4 14.6 1316.3 13.7 1316.3 12.5C1316.3 11.3 1315.4 10.4 1314.2 10.4C1313 10.4 1312.1 11.3 1312.1 12.5C1312.1 13.7 1313 14.6 1314.2 14.6ZM1466.9 14.6C1468.1 14.6 1469 13.7 1469 12.5C1469 11.3 1468.1 10.4 1466.9 10.4C1465.7 10.4 1464.8 11.3 1464.8 12.5C1464.8 13.7 1465.8 14.6 1466.9 14.6ZM1390.5 14.6C1391.7 14.6 1392.6 13.7 1392.6 12.5C1392.6 11.3 1391.7 10.4 1390.5 10.4C1389.3 10.4 1388.4 11.3 1388.4 12.5C1388.4 13.7 1389.4 14.6 1390.5 14.6ZM1543.3 14.6C1544.5 14.6 1545.4 13.7 1545.4 12.5C1545.4 11.3 1544.5 10.4 1543.3 10.4C1542.1 10.4 1541.2 11.3 1541.2 12.5C1541.2 13.7 1542.1 14.6 1543.3 14.6Z" stroke="#151C26" stroke-opacity="0.17" stroke-width="1.57" stroke-miterlimit="22.926"/>
<path d="M1654.9 11.1L1645.1 20.9C1643 22.8 1640.2 24 1637.3 24C1633.7 24 1630.1 22.1 1628 19.1M1797.9 20.9L1807.7 11.1M1731.3 11.1L1721.5 20.9C1719.4 22.8 1716.6 24 1713.7 24C1710.1 24 1706.5 22.1 1704.4 19.1M1607 20.9L1616.8 11.1M1759.7 20.9L1769.5 11.1M1693.1 11.1L1683.3 20.9C1681.2 22.8 1678.4 24 1675.5 24C1671.9 24 1668.3 22.1 1666.2 19.1M1836.1 20.9L1845.9 11.1M1635.8 11.1L1626 20.9C1623.9 22.8 1621.1 24 1618.2 24C1614.6 24 1611 22.1 1608.9 19.1M1778.8 20.9L1788.6 11.1M1712.2 11.1L1702.4 20.9C1700.3 22.8 1697.5 24 1694.6 24C1691 24 1687.4 22.1 1685.3 19.1M1855.1 20.9L1864.9 11.1M1597.7 11.1L1587.9 20.9C1585.8 22.8 1583 24 1580.1 24M1740.6 20.9L1750.4 11.1M1674 11.1L1664.2 20.9C1662.1 22.8 1659.3 24 1656.4 24C1652.8 24 1649.2 22.1 1647.1 19.1M1816.9 20.9L1826.7 11.1M1642.5 17.6L1652.1 8C1653.2 6.9 1654.8 6.3 1656.4 6.3C1658.8 6.3 1661.1 7.69999 1662.1 9.89999M1795.2 17.5L1804.8 7.89999C1805.9 6.79999 1807.5 6.2 1809.1 6.2C1811.5 6.2 1813.8 7.6 1814.8 9.8M1604.3 17.6L1613.9 8C1615 6.9 1616.6 6.3 1618.2 6.3C1620.6 6.3 1622.9 7.69999 1623.9 9.89999M1757.1 17.5L1766.7 7.89999C1767.8 6.79999 1769.4 6.2 1771 6.2C1773.4 6.2 1775.7 7.6 1776.7 9.8M1833.4 17.5L1843 7.89999C1844.1 6.79999 1845.7 6.2 1847.3 6.2C1849.7 6.2 1852 7.6 1853 9.8M1623.4 17.6L1633 7.89999M1776.1 17.5L1785.7 7.8M1709.4 7.89999L1699.8 17.6C1698.4 19 1696.5 19.8 1694.6 19.8C1692 19.8 1689.5 18.3 1688.3 16M1852.5 17.5L1862.1 7.8M1585.2 17.6L1594.9 7.89999M1737.9 17.6L1747.6 7.89999C1748.7 6.79999 1750.3 6.2 1751.9 6.2C1754.3 6.2 1756.6 7.6 1757.6 9.8M1814.3 17.5L1823.9 7.89999C1825 6.79999 1826.6 6.2 1828.2 6.2C1830.6 6.2 1832.9 7.6 1833.9 9.8M1641.8 17L1651.4 7.39999C1652.8 6.09999 1654.6 5.3 1656.5 5.3C1659.1 5.3 1661.6 6.80001 1662.8 9.10001M1794.5 17L1804.1 7.39999C1805.5 6.09999 1807.3 5.3 1809.2 5.3C1811.8 5.3 1814.3 6.80001 1815.5 9.10001M1718.1 17L1727.7 7.39999C1729.1 6.09999 1730.9 5.3 1732.8 5.3C1735.4 5.3 1737.9 6.80001 1739.1 9.10001M1603.6 17L1613.2 7.39999C1614.6 6.09999 1616.4 5.3 1618.3 5.3C1620.9 5.3 1623.4 6.80001 1624.6 9.10001M1756.3 17L1765.9 7.39999C1767.3 6.09999 1769.1 5.3 1771 5.3C1773.6 5.3 1776.1 6.80001 1777.3 9.10001M1679.9 17L1689.5 7.39999C1690.9 6.09999 1692.7 5.3 1694.6 5.3C1697.2 5.3 1699.7 6.80001 1700.9 9.10001M1832.7 17L1842.3 7.39999C1843.7 6.09999 1845.5 5.3 1847.4 5.3C1850 5.3 1852.5 6.80001 1853.7 9.10001M1622.7 17L1632.3 7.39999C1633.7 6.09999 1635.5 5.3 1637.4 5.3C1640 5.3 1642.5 6.80001 1643.7 9.10001M1775.4 17L1785 7.39999C1786.4 6.09999 1788.2 5.3 1790.1 5.3C1792.7 5.3 1795.2 6.80001 1796.4 9.10001M1699 17L1708.6 7.39999C1710 6.09999 1711.8 5.3 1713.7 5.3C1716.3 5.3 1718.8 6.80001 1720 9.10001M1851.8 17L1861.4 7.39999M1584.5 17L1594.1 7.39999C1595.5 6.09999 1597.3 5.3 1599.2 5.3C1601.8 5.3 1604.3 6.80001 1605.5 9.10001M1737.2 17L1746.9 7.39999M1660.9 17L1670.5 7.39999C1671.9 6.09999 1673.7 5.3 1675.6 5.3C1678.2 5.3 1680.7 6.80001 1681.9 9.10001M1813.6 17L1823.2 7.39999C1824.6 6.09999 1826.4 5.3 1828.3 5.3C1830.9 5.3 1833.4 6.80001 1834.6 9.10001M1638.7 14.1L1648.6 4.3M1791.5 14.1L1801.4 4.3M1715.1 14.1L1725 4.3M1600.6 14.1L1610.5 4.3M1753.3 14.1L1763.2 4.3M1676.9 14.1L1686.8 4.3M1829.6 14.1L1839.5 4.3M1619.7 14.1L1629.5 4.3M1772.5 14L1782.3 4.2M1696.1 14.1L1705.9 4.3M1848.8 14L1858.6 4.2M1581.6 14.1L1591.4 4.3M1734.3 14L1744.1 4.2M1657.9 14.1L1667.7 4.3M1810.6 14L1820.4 4.2M1580.1 14.6C1581.3 14.6 1582.2 13.7 1582.2 12.5C1582.2 11.3 1581.3 10.4 1580.1 10.4M1866.4 10.4C1865.2 10.4 1864.3 11.3 1864.3 12.5C1864.3 13.7 1865.2 14.6 1866.4 14.6M1585.8 9.89999C1584.8 7.69999 1582.5 6.3 1580.1 6.3M1738.5 9.89999C1737.5 7.69999 1735.2 6.3 1732.8 6.3C1731.2 6.3 1729.6 6.9 1728.5 8L1718.9 17.6C1717.5 19 1715.6 19.8 1713.7 19.8C1711.1 19.8 1708.6 18.3 1707.4 16M1700.3 9.89999C1699.3 7.69999 1697 6.3 1694.6 6.3C1693 6.3 1691.4 6.9 1690.3 8L1680.7 17.6C1679.3 19 1677.4 19.8 1675.5 19.8C1672.9 19.8 1670.4 18.3 1669.2 16M1643 9.89999C1642 7.69999 1639.7 6.3 1637.3 6.3C1635.7 6.3 1634.1 6.9 1633 8M1795.8 9.8C1794.8 7.6 1792.5 6.2 1790.1 6.2C1788.5 6.2 1786.9 6.79999 1785.8 7.89999M1719.4 9.89999C1718.4 7.69999 1716.1 6.3 1713.7 6.3C1712.1 6.3 1710.5 6.9 1709.4 8M1866.4 6.2C1864.8 6.2 1863.2 6.79999 1862.1 7.89999M1604.9 9.89999C1603.9 7.69999 1601.6 6.3 1599.2 6.3C1597.6 6.3 1596 6.9 1594.9 8M1681.2 9.89999C1680.2 7.69999 1677.9 6.3 1675.5 6.3C1673.9 6.3 1672.3 6.9 1671.2 8L1661.6 17.6C1660.2 19 1658.3 19.8 1656.4 19.8C1653.8 19.8 1651.3 18.3 1650.1 16M1580.1 18.8C1581.8 18.8 1583.4 18.1 1584.6 16.9M1650.7 15.3C1651.7 17.4 1654 18.8 1656.4 18.8C1658.1 18.8 1659.7 18.1 1660.9 16.9M1803.5 15.3C1804.5 17.4 1806.8 18.8 1809.2 18.8C1810.9 18.8 1812.5 18.1 1813.7 16.9M1727.1 15.3C1728.1 17.4 1730.4 18.8 1732.8 18.8C1734.5 18.8 1736.1 18.1 1737.3 16.9M1612.6 15.3C1613.6 17.4 1615.9 18.8 1618.3 18.8C1620 18.8 1621.6 18.1 1622.8 16.9M1765.3 15.3C1766.3 17.4 1768.6 18.8 1771 18.8C1772.7 18.8 1774.3 18.1 1775.5 16.9M1688.9 15.3C1689.9 17.4 1692.2 18.8 1694.6 18.8C1696.3 18.8 1697.9 18.1 1699.1 16.9M1841.6 15.3C1842.6 17.4 1844.9 18.8 1847.3 18.8C1849 18.8 1850.6 18.1 1851.8 16.9M1631.7 15.3C1632.7 17.4 1635 18.8 1637.4 18.8C1639.1 18.8 1640.7 18.1 1641.9 16.9M1784.4 15.3C1785.4 17.4 1787.7 18.8 1790.1 18.8C1791.8 18.8 1793.4 18.1 1794.6 16.9M1708 15.3C1709 17.4 1711.3 18.8 1713.7 18.8C1715.4 18.8 1717 18.1 1718.2 16.9M1860.7 15.3C1861.7 17.4 1864 18.8 1866.4 18.8M1593.5 15.3C1594.5 17.4 1596.8 18.8 1599.2 18.8C1600.9 18.8 1602.5 18.1 1603.7 16.9M1746.2 15.3C1747.2 17.4 1749.5 18.8 1751.9 18.8C1753.6 18.8 1755.2 18.1 1756.4 16.9M1669.8 15.3C1670.8 17.4 1673.1 18.8 1675.5 18.8C1677.2 18.8 1678.8 18.1 1680 16.9M1822.6 15.3C1823.6 17.4 1825.9 18.8 1828.3 18.8C1830 18.8 1831.6 18.1 1832.8 16.9M1586.4 9.10001C1585.2 6.80001 1582.7 5.3 1580.1 5.3M1866.4 5.39999C1864.5 5.39999 1862.7 6.1 1861.3 7.5M1758.2 9.10001C1757 6.80001 1754.5 5.3 1751.9 5.3C1750 5.3 1748.2 6.09999 1746.8 7.39999M1580.1 19.7C1582 19.7 1583.9 18.9 1585.3 17.5M1802.9 16C1804.1 18.3 1806.6 19.8 1809.2 19.8C1811.1 19.8 1813 19 1814.4 17.6M1726.5 16C1727.7 18.3 1730.2 19.8 1732.8 19.8C1734.7 19.8 1736.6 19 1738 17.6M1612 16C1613.2 18.3 1615.7 19.8 1618.3 19.8C1620.2 19.8 1622.1 19 1623.5 17.6M1764.7 16C1765.9 18.3 1768.4 19.8 1771 19.8C1772.9 19.8 1774.8 19 1776.2 17.6M1841 16C1842.2 18.3 1844.7 19.8 1847.3 19.8C1849.2 19.8 1851.1 19 1852.5 17.6M1631.1 16C1632.3 18.3 1634.8 19.8 1637.4 19.8C1639.3 19.8 1641.2 19 1642.6 17.6M1783.8 16C1785 18.3 1787.5 19.8 1790.1 19.8C1792 19.8 1793.9 19 1795.3 17.6M1860.1 16C1861.3 18.3 1863.8 19.8 1866.4 19.8M1592.9 16C1594.1 18.3 1596.6 19.8 1599.2 19.8C1601.1 19.8 1603 19 1604.4 17.6M1745.6 16C1746.8 18.3 1749.3 19.8 1751.9 19.8C1753.8 19.8 1755.7 19 1757.1 17.6M1822 16C1823.2 18.3 1825.7 19.8 1828.3 19.8C1830.2 19.8 1832.1 19 1833.5 17.6M1799.8 19C1801.9 22 1805.5 23.9 1809.1 23.9C1812 23.9 1814.8 22.7 1816.9 20.8M1723.4 19.1C1725.5 22.1 1729.1 24 1732.7 24C1735.6 24 1738.4 22.8 1740.5 20.9M1761.7 19C1763.8 22 1767.4 23.9 1771 23.9C1773.9 23.9 1776.7 22.7 1778.8 20.8M1838 19C1840.1 22 1843.7 23.9 1847.3 23.9C1850.2 23.9 1853 22.7 1855.1 20.8M1780.7 19C1782.8 22 1786.4 23.9 1790 23.9C1792.9 23.9 1795.7 22.7 1797.8 20.8M1857.1 19C1859.2 22 1862.8 23.9 1866.4 23.9M1589.8 19.1C1591.9 22.1 1595.5 24 1599.1 24C1602 24 1604.8 22.8 1606.9 20.9M1742.6 19C1744.7 22 1748.3 23.9 1751.9 23.9C1754.8 23.9 1757.6 22.7 1759.7 20.8M1818.9 19C1821 22 1824.6 23.9 1828.2 23.9C1831.1 23.9 1833.9 22.7 1836 20.8M1589.5 6.10001C1587.4 3.00001 1583.8 1.2 1580.1 1.2M1665.8 6.10001C1663.7 3.00001 1660.1 1.2 1656.4 1.2C1653.5 1.2 1650.6 2.39999 1648.5 4.39999M1818.6 6C1816.5 2.9 1812.9 1.10001 1809.2 1.10001C1806.3 1.10001 1803.4 2.3 1801.3 4.3M1742.2 6.10001C1740.1 3.00001 1736.5 1.2 1732.8 1.2C1729.9 1.2 1727 2.39999 1724.9 4.39999M1627.7 6.10001C1625.6 3.00001 1622 1.2 1618.3 1.2C1615.4 1.2 1612.5 2.39999 1610.4 4.39999M1780.4 6C1778.3 2.9 1774.7 1.10001 1771 1.10001C1768.1 1.10001 1765.2 2.3 1763.1 4.3M1704 6.10001C1701.9 3.00001 1698.3 1.2 1694.6 1.2C1691.7 1.2 1688.8 2.39999 1686.7 4.39999M1856.7 6C1854.6 2.9 1851 1.10001 1847.3 1.10001C1844.4 1.10001 1841.5 2.3 1839.4 4.3M1646.8 6.10001C1644.7 3.00001 1641.1 1.2 1637.4 1.2C1634.5 1.2 1631.6 2.39999 1629.5 4.39999M1799.5 6C1797.4 2.9 1793.8 1.10001 1790.1 1.10001C1787.2 1.10001 1784.3 2.3 1782.2 4.3M1723.1 6.10001C1721 3.00001 1717.4 1.2 1713.7 1.2C1710.8 1.2 1707.9 2.39999 1705.8 4.39999M1866.4 1.2C1863.5 1.2 1860.6 2.4 1858.5 4.3M1608.6 6.10001C1606.5 3.00001 1602.9 1.2 1599.2 1.2C1596.3 1.2 1593.4 2.39999 1591.3 4.39999M1761.3 6C1759.2 2.9 1755.6 1.10001 1751.9 1.10001C1749 1.10001 1746.1 2.3 1744 4.3M1684.9 6.10001C1682.8 3.00001 1679.2 1.2 1675.5 1.2C1672.6 1.2 1669.7 2.39999 1667.6 4.39999M1837.7 6C1835.6 2.9 1832 1.10001 1828.3 1.10001C1825.4 1.10001 1822.5 2.3 1820.4 4.3M1580 24H1866.4M1580 1H1866.4M1656.4 14.6C1657.6 14.6 1658.5 13.7 1658.5 12.5C1658.5 11.3 1657.6 10.4 1656.4 10.4C1655.2 10.4 1654.3 11.3 1654.3 12.5C1654.3 13.7 1655.3 14.6 1656.4 14.6ZM1809.2 14.6C1810.4 14.6 1811.3 13.7 1811.3 12.5C1811.3 11.3 1810.4 10.4 1809.2 10.4C1808 10.4 1807.1 11.3 1807.1 12.5C1807.1 13.7 1808 14.6 1809.2 14.6ZM1732.8 14.6C1734 14.6 1734.9 13.7 1734.9 12.5C1734.9 11.3 1734 10.4 1732.8 10.4C1731.6 10.4 1730.7 11.3 1730.7 12.5C1730.7 13.7 1731.6 14.6 1732.8 14.6ZM1618.3 14.6C1619.5 14.6 1620.4 13.7 1620.4 12.5C1620.4 11.3 1619.5 10.4 1618.3 10.4C1617.1 10.4 1616.2 11.3 1616.2 12.5C1616.2 13.7 1617.1 14.6 1618.3 14.6ZM1771 14.6C1772.2 14.6 1773.1 13.7 1773.1 12.5C1773.1 11.3 1772.2 10.4 1771 10.4C1769.8 10.4 1768.9 11.3 1768.9 12.5C1768.9 13.7 1769.8 14.6 1771 14.6ZM1694.6 14.6C1695.8 14.6 1696.7 13.7 1696.7 12.5C1696.7 11.3 1695.8 10.4 1694.6 10.4C1693.4 10.4 1692.5 11.3 1692.5 12.5C1692.5 13.7 1693.5 14.6 1694.6 14.6ZM1847.3 14.6C1848.5 14.6 1849.4 13.7 1849.4 12.5C1849.4 11.3 1848.5 10.4 1847.3 10.4C1846.1 10.4 1845.2 11.3 1845.2 12.5C1845.2 13.7 1846.2 14.6 1847.3 14.6ZM1637.4 14.6C1638.6 14.6 1639.5 13.7 1639.5 12.5C1639.5 11.3 1638.6 10.4 1637.4 10.4C1636.2 10.4 1635.3 11.3 1635.3 12.5C1635.3 13.7 1636.2 14.6 1637.4 14.6ZM1790.1 14.6C1791.3 14.6 1792.2 13.7 1792.2 12.5C1792.2 11.3 1791.3 10.4 1790.1 10.4C1788.9 10.4 1788 11.3 1788 12.5C1788 13.7 1788.9 14.6 1790.1 14.6ZM1713.7 14.6C1714.9 14.6 1715.8 13.7 1715.8 12.5C1715.8 11.3 1714.9 10.4 1713.7 10.4C1712.5 10.4 1711.6 11.3 1711.6 12.5C1711.6 13.7 1712.6 14.6 1713.7 14.6ZM1599.2 14.6C1600.4 14.6 1601.3 13.7 1601.3 12.5C1601.3 11.3 1600.4 10.4 1599.2 10.4C1598 10.4 1597.1 11.3 1597.1 12.5C1597.1 13.7 1598 14.6 1599.2 14.6ZM1751.9 14.6C1753.1 14.6 1754 13.7 1754 12.5C1754 11.3 1753.1 10.4 1751.9 10.4C1750.7 10.4 1749.8 11.3 1749.8 12.5C1749.8 13.7 1750.8 14.6 1751.9 14.6ZM1675.5 14.6C1676.7 14.6 1677.6 13.7 1677.6 12.5C1677.6 11.3 1676.7 10.4 1675.5 10.4C1674.3 10.4 1673.4 11.3 1673.4 12.5C1673.4 13.7 1674.4 14.6 1675.5 14.6ZM1828.3 14.6C1829.5 14.6 1830.4 13.7 1830.4 12.5C1830.4 11.3 1829.5 10.4 1828.3 10.4C1827.1 10.4 1826.2 11.3 1826.2 12.5C1826.2 13.7 1827.1 14.6 1828.3 14.6Z" stroke="#151C26" stroke-opacity="0.17" stroke-width="1.57" stroke-miterlimit="22.926"/>
<path d="M1940.9 11.1L1931.1 20.9C1929 22.8 1926.2 24 1923.3 24C1919.7 24 1916.1 22.1 1914 19.1M2083.9 20.9L2093.7 11.1M2017.3 11.1L2007.5 20.9C2005.4 22.8 2002.6 24 1999.7 24C1996.1 24 1992.5 22.1 1990.4 19.1M1893 20.9L1902.8 11.1M2045.7 20.9L2055.5 11.1M1979.1 11.1L1969.3 20.9C1967.2 22.8 1964.4 24 1961.5 24C1957.9 24 1954.3 22.1 1952.2 19.1M2122.1 20.9L2131.9 11.1M1921.8 11.1L1912 20.9C1909.9 22.8 1907.1 24 1904.2 24C1900.6 24 1897 22.1 1894.9 19.1M2064.8 20.9L2074.6 11.1M1998.2 11.1L1988.4 20.9C1986.3 22.8 1983.5 24 1980.6 24C1977 24 1973.4 22.1 1971.3 19.1M2141.1 20.9L2150.9 11.1M1883.7 11.1L1873.9 20.9C1871.8 22.8 1869 24 1866.1 24M2026.6 20.9L2036.4 11.1M1960 11.1L1950.2 20.9C1948.1 22.8 1945.3 24 1942.4 24C1938.8 24 1935.2 22.1 1933.1 19.1M2102.9 20.9L2112.7 11.1M1928.5 17.6L1938.1 8C1939.2 6.9 1940.8 6.3 1942.4 6.3C1944.8 6.3 1947.1 7.69999 1948.1 9.89999M2081.2 17.5L2090.8 7.89999C2091.9 6.79999 2093.5 6.2 2095.1 6.2C2097.5 6.2 2099.8 7.6 2100.8 9.8M1890.3 17.6L1899.9 8C1901 6.9 1902.6 6.3 1904.2 6.3C1906.6 6.3 1908.9 7.69999 1909.9 9.89999M2043.1 17.5L2052.7 7.89999C2053.8 6.79999 2055.4 6.2 2057 6.2C2059.4 6.2 2061.7 7.6 2062.7 9.8M2119.4 17.5L2129 7.89999C2130.1 6.79999 2131.7 6.2 2133.3 6.2C2135.7 6.2 2138 7.6 2139 9.8M1909.4 17.6L1919 7.89999M2062.1 17.5L2071.7 7.8M1995.4 7.89999L1985.8 17.6C1984.4 19 1982.5 19.8 1980.6 19.8C1978 19.8 1975.5 18.3 1974.3 16M2138.5 17.5L2148.1 7.8M1871.2 17.6L1880.9 7.89999M2023.9 17.6L2033.6 7.89999C2034.7 6.79999 2036.3 6.2 2037.9 6.2C2040.3 6.2 2042.6 7.6 2043.6 9.8M2100.3 17.5L2109.9 7.89999C2111 6.79999 2112.6 6.2 2114.2 6.2C2116.6 6.2 2118.9 7.6 2119.9 9.8M1927.8 17L1937.4 7.39999C1938.8 6.09999 1940.6 5.3 1942.5 5.3C1945.1 5.3 1947.6 6.80001 1948.8 9.10001M2080.5 17L2090.1 7.39999C2091.5 6.09999 2093.3 5.3 2095.2 5.3C2097.8 5.3 2100.3 6.80001 2101.5 9.10001M2004.1 17L2013.7 7.39999C2015.1 6.09999 2016.9 5.3 2018.8 5.3C2021.4 5.3 2023.9 6.80001 2025.1 9.10001M1889.6 17L1899.2 7.39999C1900.6 6.09999 1902.4 5.3 1904.3 5.3C1906.9 5.3 1909.4 6.80001 1910.6 9.10001M2042.3 17L2051.9 7.39999C2053.3 6.09999 2055.1 5.3 2057 5.3C2059.6 5.3 2062.1 6.80001 2063.3 9.10001M1965.9 17L1975.5 7.39999C1976.9 6.09999 1978.7 5.3 1980.6 5.3C1983.2 5.3 1985.7 6.80001 1986.9 9.10001M2118.7 17L2128.3 7.39999C2129.7 6.09999 2131.5 5.3 2133.4 5.3C2136 5.3 2138.5 6.80001 2139.7 9.10001M1908.7 17L1918.3 7.39999C1919.7 6.09999 1921.5 5.3 1923.4 5.3C1926 5.3 1928.5 6.80001 1929.7 9.10001M2061.4 17L2071 7.39999C2072.4 6.09999 2074.2 5.3 2076.1 5.3C2078.7 5.3 2081.2 6.80001 2082.4 9.10001M1985 17L1994.6 7.39999C1996 6.09999 1997.8 5.3 1999.7 5.3C2002.3 5.3 2004.8 6.80001 2006 9.10001M2137.8 17L2147.4 7.39999M1870.5 17L1880.1 7.39999C1881.5 6.09999 1883.3 5.3 1885.2 5.3C1887.8 5.3 1890.3 6.80001 1891.5 9.10001M2023.2 17L2032.9 7.39999M1946.9 17L1956.5 7.39999C1957.9 6.09999 1959.7 5.3 1961.6 5.3C1964.2 5.3 1966.7 6.80001 1967.9 9.10001M2099.6 17L2109.2 7.39999C2110.6 6.09999 2112.4 5.3 2114.3 5.3C2116.9 5.3 2119.4 6.80001 2120.6 9.10001M1924.7 14.1L1934.6 4.3M2077.5 14.1L2087.4 4.3M2001.1 14.1L2011 4.3M1886.6 14.1L1896.5 4.3M2039.3 14.1L2049.2 4.3M1962.9 14.1L1972.8 4.3M2115.6 14.1L2125.5 4.3M1905.7 14.1L1915.5 4.3M2058.5 14L2068.3 4.2M1982.1 14.1L1991.9 4.3M2134.8 14L2144.6 4.2M1867.6 14.1L1877.4 4.3M2020.3 14L2030.1 4.2M1943.9 14.1L1953.7 4.3M2096.6 14L2106.4 4.2M1866.1 14.6C1867.3 14.6 1868.2 13.7 1868.2 12.5C1868.2 11.3 1867.3 10.4 1866.1 10.4M2152.4 10.4C2151.2 10.4 2150.3 11.3 2150.3 12.5C2150.3 13.7 2151.2 14.6 2152.4 14.6M1871.8 9.89999C1870.8 7.69999 1868.5 6.3 1866.1 6.3M2024.5 9.89999C2023.5 7.69999 2021.2 6.3 2018.8 6.3C2017.2 6.3 2015.6 6.9 2014.5 8L2004.9 17.6C2003.5 19 2001.6 19.8 1999.7 19.8C1997.1 19.8 1994.6 18.3 1993.4 16M1986.3 9.89999C1985.3 7.69999 1983 6.3 1980.6 6.3C1979 6.3 1977.4 6.9 1976.3 8L1966.7 17.6C1965.3 19 1963.4 19.8 1961.5 19.8C1958.9 19.8 1956.4 18.3 1955.2 16M1929 9.89999C1928 7.69999 1925.7 6.3 1923.3 6.3C1921.7 6.3 1920.1 6.9 1919 8M2081.8 9.8C2080.8 7.6 2078.5 6.2 2076.1 6.2C2074.5 6.2 2072.9 6.79999 2071.8 7.89999M2005.4 9.89999C2004.4 7.69999 2002.1 6.3 1999.7 6.3C1998.1 6.3 1996.5 6.9 1995.4 8M2152.4 6.2C2150.8 6.2 2149.2 6.79999 2148.1 7.89999M1890.9 9.89999C1889.9 7.69999 1887.6 6.3 1885.2 6.3C1883.6 6.3 1882 6.9 1880.9 8M1967.2 9.89999C1966.2 7.69999 1963.9 6.3 1961.5 6.3C1959.9 6.3 1958.3 6.9 1957.2 8L1947.6 17.6C1946.2 19 1944.3 19.8 1942.4 19.8C1939.8 19.8 1937.3 18.3 1936.1 16M1866.1 18.8C1867.8 18.8 1869.4 18.1 1870.6 16.9M1936.7 15.3C1937.7 17.4 1940 18.8 1942.4 18.8C1944.1 18.8 1945.7 18.1 1946.9 16.9M2089.5 15.3C2090.5 17.4 2092.8 18.8 2095.2 18.8C2096.9 18.8 2098.5 18.1 2099.7 16.9M2013.1 15.3C2014.1 17.4 2016.4 18.8 2018.8 18.8C2020.5 18.8 2022.1 18.1 2023.3 16.9M1898.6 15.3C1899.6 17.4 1901.9 18.8 1904.3 18.8C1906 18.8 1907.6 18.1 1908.8 16.9M2051.3 15.3C2052.3 17.4 2054.6 18.8 2057 18.8C2058.7 18.8 2060.3 18.1 2061.5 16.9M1974.9 15.3C1975.9 17.4 1978.2 18.8 1980.6 18.8C1982.3 18.8 1983.9 18.1 1985.1 16.9M2127.6 15.3C2128.6 17.4 2130.9 18.8 2133.3 18.8C2135 18.8 2136.6 18.1 2137.8 16.9M1917.7 15.3C1918.7 17.4 1921 18.8 1923.4 18.8C1925.1 18.8 1926.7 18.1 1927.9 16.9M2070.4 15.3C2071.4 17.4 2073.7 18.8 2076.1 18.8C2077.8 18.8 2079.4 18.1 2080.6 16.9M1994 15.3C1995 17.4 1997.3 18.8 1999.7 18.8C2001.4 18.8 2003 18.1 2004.2 16.9M2146.7 15.3C2147.7 17.4 2150 18.8 2152.4 18.8M1879.5 15.3C1880.5 17.4 1882.8 18.8 1885.2 18.8C1886.9 18.8 1888.5 18.1 1889.7 16.9M2032.2 15.3C2033.2 17.4 2035.5 18.8 2037.9 18.8C2039.6 18.8 2041.2 18.1 2042.4 16.9M1955.8 15.3C1956.8 17.4 1959.1 18.8 1961.5 18.8C1963.2 18.8 1964.8 18.1 1966 16.9M2108.6 15.3C2109.6 17.4 2111.9 18.8 2114.3 18.8C2116 18.8 2117.6 18.1 2118.8 16.9M1872.4 9.10001C1871.2 6.80001 1868.7 5.3 1866.1 5.3M2152.4 5.39999C2150.5 5.39999 2148.7 6.1 2147.3 7.5M2044.2 9.10001C2043 6.80001 2040.5 5.3 2037.9 5.3C2036 5.3 2034.2 6.09999 2032.8 7.39999M1866.1 19.7C1868 19.7 1869.9 18.9 1871.3 17.5M2088.9 16C2090.1 18.3 2092.6 19.8 2095.2 19.8C2097.1 19.8 2099 19 2100.4 17.6M2012.5 16C2013.7 18.3 2016.2 19.8 2018.8 19.8C2020.7 19.8 2022.6 19 2024 17.6M1898 16C1899.2 18.3 1901.7 19.8 1904.3 19.8C1906.2 19.8 1908.1 19 1909.5 17.6M2050.7 16C2051.9 18.3 2054.4 19.8 2057 19.8C2058.9 19.8 2060.8 19 2062.2 17.6M2127 16C2128.2 18.3 2130.7 19.8 2133.3 19.8C2135.2 19.8 2137.1 19 2138.5 17.6M1917.1 16C1918.3 18.3 1920.8 19.8 1923.4 19.8C1925.3 19.8 1927.2 19 1928.6 17.6M2069.8 16C2071 18.3 2073.5 19.8 2076.1 19.8C2078 19.8 2079.9 19 2081.3 17.6M2146.1 16C2147.3 18.3 2149.8 19.8 2152.4 19.8M1878.9 16C1880.1 18.3 1882.6 19.8 1885.2 19.8C1887.1 19.8 1889 19 1890.4 17.6M2031.6 16C2032.8 18.3 2035.3 19.8 2037.9 19.8C2039.8 19.8 2041.7 19 2043.1 17.6M2108 16C2109.2 18.3 2111.7 19.8 2114.3 19.8C2116.2 19.8 2118.1 19 2119.5 17.6M2085.8 19C2087.9 22 2091.5 23.9 2095.1 23.9C2098 23.9 2100.8 22.7 2102.9 20.8M2009.4 19.1C2011.5 22.1 2015.1 24 2018.7 24C2021.6 24 2024.4 22.8 2026.5 20.9M2047.7 19C2049.8 22 2053.4 23.9 2057 23.9C2059.9 23.9 2062.7 22.7 2064.8 20.8M2124 19C2126.1 22 2129.7 23.9 2133.3 23.9C2136.2 23.9 2139 22.7 2141.1 20.8M2066.7 19C2068.8 22 2072.4 23.9 2076 23.9C2078.9 23.9 2081.7 22.7 2083.8 20.8M2143.1 19C2145.2 22 2148.8 23.9 2152.4 23.9M1875.8 19.1C1877.9 22.1 1881.5 24 1885.1 24C1888 24 1890.8 22.8 1892.9 20.9M2028.6 19C2030.7 22 2034.3 23.9 2037.9 23.9C2040.8 23.9 2043.6 22.7 2045.7 20.8M2104.9 19C2107 22 2110.6 23.9 2114.2 23.9C2117.1 23.9 2119.9 22.7 2122 20.8M1875.5 6.10001C1873.4 3.00001 1869.8 1.2 1866.1 1.2M1951.8 6.10001C1949.7 3.00001 1946.1 1.2 1942.4 1.2C1939.5 1.2 1936.6 2.39999 1934.5 4.39999M2104.6 6C2102.5 2.9 2098.9 1.10001 2095.2 1.10001C2092.3 1.10001 2089.4 2.3 2087.3 4.3M2028.2 6.10001C2026.1 3.00001 2022.5 1.2 2018.8 1.2C2015.9 1.2 2013 2.39999 2010.9 4.39999M1913.7 6.10001C1911.6 3.00001 1908 1.2 1904.3 1.2C1901.4 1.2 1898.5 2.39999 1896.4 4.39999M2066.4 6C2064.3 2.9 2060.7 1.10001 2057 1.10001C2054.1 1.10001 2051.2 2.3 2049.1 4.3M1990 6.10001C1987.9 3.00001 1984.3 1.2 1980.6 1.2C1977.7 1.2 1974.8 2.39999 1972.7 4.39999M2142.7 6C2140.6 2.9 2137 1.10001 2133.3 1.10001C2130.4 1.10001 2127.5 2.3 2125.4 4.3M1932.8 6.10001C1930.7 3.00001 1927.1 1.2 1923.4 1.2C1920.5 1.2 1917.6 2.39999 1915.5 4.39999M2085.5 6C2083.4 2.9 2079.8 1.10001 2076.1 1.10001C2073.2 1.10001 2070.3 2.3 2068.2 4.3M2009.1 6.10001C2007 3.00001 2003.4 1.2 1999.7 1.2C1996.8 1.2 1993.9 2.39999 1991.8 4.39999M2152.4 1.2C2149.5 1.2 2146.6 2.4 2144.5 4.3M1894.6 6.10001C1892.5 3.00001 1888.9 1.2 1885.2 1.2C1882.3 1.2 1879.4 2.39999 1877.3 4.39999M2047.3 6C2045.2 2.9 2041.6 1.10001 2037.9 1.10001C2035 1.10001 2032.1 2.3 2030 4.3M1970.9 6.10001C1968.8 3.00001 1965.2 1.2 1961.5 1.2C1958.6 1.2 1955.7 2.39999 1953.6 4.39999M2123.7 6C2121.6 2.9 2118 1.10001 2114.3 1.10001C2111.4 1.10001 2108.5 2.3 2106.4 4.3M1866 24H2152.4M1866 1H2152.4M1942.4 14.6C1943.6 14.6 1944.5 13.7 1944.5 12.5C1944.5 11.3 1943.6 10.4 1942.4 10.4C1941.2 10.4 1940.3 11.3 1940.3 12.5C1940.3 13.7 1941.3 14.6 1942.4 14.6ZM2095.2 14.6C2096.4 14.6 2097.3 13.7 2097.3 12.5C2097.3 11.3 2096.4 10.4 2095.2 10.4C2094 10.4 2093.1 11.3 2093.1 12.5C2093.1 13.7 2094 14.6 2095.2 14.6ZM2018.8 14.6C2020 14.6 2020.9 13.7 2020.9 12.5C2020.9 11.3 2020 10.4 2018.8 10.4C2017.6 10.4 2016.7 11.3 2016.7 12.5C2016.7 13.7 2017.6 14.6 2018.8 14.6ZM1904.3 14.6C1905.5 14.6 1906.4 13.7 1906.4 12.5C1906.4 11.3 1905.5 10.4 1904.3 10.4C1903.1 10.4 1902.2 11.3 1902.2 12.5C1902.2 13.7 1903.1 14.6 1904.3 14.6ZM2057 14.6C2058.2 14.6 2059.1 13.7 2059.1 12.5C2059.1 11.3 2058.2 10.4 2057 10.4C2055.8 10.4 2054.9 11.3 2054.9 12.5C2054.9 13.7 2055.8 14.6 2057 14.6ZM1980.6 14.6C1981.8 14.6 1982.7 13.7 1982.7 12.5C1982.7 11.3 1981.8 10.4 1980.6 10.4C1979.4 10.4 1978.5 11.3 1978.5 12.5C1978.5 13.7 1979.5 14.6 1980.6 14.6ZM2133.3 14.6C2134.5 14.6 2135.4 13.7 2135.4 12.5C2135.4 11.3 2134.5 10.4 2133.3 10.4C2132.1 10.4 2131.2 11.3 2131.2 12.5C2131.2 13.7 2132.2 14.6 2133.3 14.6ZM1923.4 14.6C1924.6 14.6 1925.5 13.7 1925.5 12.5C1925.5 11.3 1924.6 10.4 1923.4 10.4C1922.2 10.4 1921.3 11.3 1921.3 12.5C1921.3 13.7 1922.2 14.6 1923.4 14.6ZM2076.1 14.6C2077.3 14.6 2078.2 13.7 2078.2 12.5C2078.2 11.3 2077.3 10.4 2076.1 10.4C2074.9 10.4 2074 11.3 2074 12.5C2074 13.7 2074.9 14.6 2076.1 14.6ZM1999.7 14.6C2000.9 14.6 2001.8 13.7 2001.8 12.5C2001.8 11.3 2000.9 10.4 1999.7 10.4C1998.5 10.4 1997.6 11.3 1997.6 12.5C1997.6 13.7 1998.6 14.6 1999.7 14.6ZM1885.2 14.6C1886.4 14.6 1887.3 13.7 1887.3 12.5C1887.3 11.3 1886.4 10.4 1885.2 10.4C1884 10.4 1883.1 11.3 1883.1 12.5C1883.1 13.7 1884 14.6 1885.2 14.6ZM2037.9 14.6C2039.1 14.6 2040 13.7 2040 12.5C2040 11.3 2039.1 10.4 2037.9 10.4C2036.7 10.4 2035.8 11.3 2035.8 12.5C2035.8 13.7 2036.8 14.6 2037.9 14.6ZM1961.5 14.6C1962.7 14.6 1963.6 13.7 1963.6 12.5C1963.6 11.3 1962.7 10.4 1961.5 10.4C1960.3 10.4 1959.4 11.3 1959.4 12.5C1959.4 13.7 1960.4 14.6 1961.5 14.6ZM2114.3 14.6C2115.5 14.6 2116.4 13.7 2116.4 12.5C2116.4 11.3 2115.5 10.4 2114.3 10.4C2113.1 10.4 2112.2 11.3 2112.2 12.5C2112.2 13.7 2113.1 14.6 2114.3 14.6Z" stroke="#151C26" stroke-opacity="0.17" stroke-width="1.57" stroke-miterlimit="22.926"/>
</svg>
