<svg width="38" height="38" viewBox="0 0 38 38" fill="none" xmlns="http://www.w3.org/2000/svg">
<g filter="url(#filter0_d_2762_26922)">
<path d="M5.5 8C5.5 7.17157 6.17157 6.5 7 6.5L31 6.5C31.8285 6.5 32.5 7.17157 32.5 8V13.0503C32.5 13.8101 31.9319 14.4499 31.1774 14.5397L19.1773 15.9683L19.3547 17.4578L19.1773 15.9683C19.0595 15.9823 18.9405 15.9823 18.8227 15.9683L18.6454 17.4578L18.8227 15.9683L6.82268 14.5397C6.06817 14.4499 5.5 13.8101 5.5 13.0503L5.5 8Z" stroke="#189387" stroke-width="3"/>
<mask id="mask0_2762_26922" style="mask-type:alpha" maskUnits="userSpaceOnUse" x="13" y="0" width="12" height="11">
<rect x="14.5" y="1.5" width="9.00002" height="7.80001" rx="1.5" stroke="#189387" stroke-width="3"/>
</mask>
<g mask="url(#mask0_2762_26922)">
<rect x="10.5938" y="-4.32031" width="14.4" height="9.72001" fill="#189387"/>
</g>
<mask id="mask1_2762_26922" style="mask-type:alpha" maskUnits="userSpaceOnUse" x="4" y="4" width="30" height="26">
<rect x="6.10156" y="6.29688" width="25.8" height="22.2" rx="1.5" stroke="#189387" stroke-width="3"/>
</mask>
<g mask="url(#mask1_2762_26922)">
<rect x="1" y="14.3984" width="40.8001" height="15.6" fill="#189387"/>
</g>
<mask id="path-6-inside-1_2762_26922" fill="white">
<rect x="15.25" y="12.5" width="7.50001" height="8.75001" rx="1"/>
</mask>
<rect x="15.25" y="12.5" width="7.50001" height="8.75001" rx="1" fill="white" stroke="#189387" stroke-width="6" mask="url(#path-6-inside-1_2762_26922)"/>
</g>
<defs>
<filter id="filter0_d_2762_26922" x="0" y="0" width="38" height="37.9969" filterUnits="userSpaceOnUse" color-interpolation-filters="sRGB">
<feFlood flood-opacity="0" result="BackgroundImageFix"/>
<feColorMatrix in="SourceAlpha" type="matrix" values="0 0 0 0 0 0 0 0 0 0 0 0 0 0 0 0 0 0 127 0" result="hardAlpha"/>
<feOffset dy="4"/>
<feGaussianBlur stdDeviation="2"/>
<feComposite in2="hardAlpha" operator="out"/>
<feColorMatrix type="matrix" values="0 0 0 0 0 0 0 0 0 0 0 0 0 0 0 0 0 0 0.25 0"/>
<feBlend mode="normal" in2="BackgroundImageFix" result="effect1_dropShadow_2762_26922"/>
<feBlend mode="normal" in="SourceGraphic" in2="effect1_dropShadow_2762_26922" result="shape"/>
</filter>
</defs>
</svg>
