<svg width="443" height="359" viewBox="0 0 443 359" fill="none" xmlns="http://www.w3.org/2000/svg">
<circle cx="268" cy="175" r="150" transform="rotate(-180 268 175)" stroke="#42CFEE" stroke-width="50"/>
<rect x="261" y="350" width="261" height="350" transform="rotate(-180 261 350)" fill="white"/>
<path d="M114.073 196.904C113.686 199.809 115.623 202.133 118.915 202.521M113.686 195.548C115.816 194.773 117.947 195.354 119.496 196.904C121.433 199.034 121.821 202.133 123.37 204.651M116.978 194.386C124.532 193.805 124.532 200.971 129.375 204.07M91.9922 201.165C90.249 198.841 91.6048 195.742 95.866 195.935C100.708 194.192 109.812 193.03 114.073 193.805C123.177 189.737 134.023 193.998 135.767 202.521M135.767 202.521C136.929 205.426 141.19 208.138 144.483 207.944M135.767 202.521C137.704 200.584 140.803 199.809 143.127 201.165C146.807 203.102 149.712 208.332 152.812 209.3C149.131 212.399 141.384 212.012 137.122 208.525C138.672 216.467 129.956 220.534 121.046 215.692C116.978 213.174 111.555 211.043 106.325 209.687C102.258 208.719 98.1903 208.913 95.6723 208.525C93.9291 208.332 93.5417 207.363 93.348 206.395C95.285 205.62 102.064 205.426 106.906 205.62C102.452 204.264 96.4471 203.683 92.767 203.877C92.1859 203.877 91.4111 203.683 91.2174 203.102C90.6363 202.327 91.0237 200.778 92.5733 200.971C93.5417 201.165 94.3165 201.359 94.8976 200.971C95.6723 200.584 96.0597 199.615 95.6723 198.647C95.285 197.872 94.5102 197.679 93.9291 197.872C93.348 198.066 92.767 198.647 92.5733 199.422M113.105 211.818C124.339 218.985 131.505 240.484 130.343 253.849M170.825 215.111C168.888 210.268 167.92 198.066 169.856 190.318C167.726 189.931 165.208 189.156 164.239 188.381C162.69 190.899 160.947 197.097 161.721 202.715C157.266 185.67 159.591 162.039 168.113 153.71C162.109 154.873 152.037 153.904 147.969 151.773C149.519 155.454 150.1 168.044 149.325 176.953M160.172 224.602C169.082 220.922 176.442 208.913 176.442 200.196M198.136 213.949C195.23 218.21 194.068 226.732 195.811 231.187M182.446 196.129C182.446 194.192 181.672 192.836 179.928 192.061C177.604 191.093 173.537 193.417 170.825 192.061C170.244 197.872 175.474 201.94 181.672 200.003C179.928 209.494 187.482 216.66 197.167 214.336C202.009 212.786 207.239 212.786 208.982 213.174C213.631 213.561 215.955 210.462 215.762 207.169C213.825 207.557 212.469 207.363 209.951 206.976C214.793 206.782 216.149 204.845 215.955 202.715M140.222 232.156C130.343 241.259 127.825 259.079 134.023 267.601M137.122 266.633C132.28 255.98 138.866 240.872 149.906 236.611M138.091 284.259C124.145 283.484 124.726 264.696 142.352 266.633M190.194 245.908C182.446 261.21 190.775 278.254 206.658 284.259M99.1588 284.259H211.307C217.892 284.453 217.892 274.768 210.532 273.218M210.338 259.273C208.789 258.885 206.852 260.241 207.239 262.178C207.82 266.052 213.631 266.633 215.568 261.984C217.505 256.948 212.081 252.106 206.464 253.849C199.879 255.98 198.717 266.052 205.302 270.7C208.401 272.831 212.662 273.8 215.374 273.025C223.509 270.7 227.189 258.885 218.861 248.813C207.433 230.606 172.956 219.953 149.325 226.151" stroke="#292526" stroke-width="1.62" stroke-miterlimit="22.926"/>
<path d="M117.175 198.841C118.03 198.841 118.724 198.148 118.724 197.292C118.724 196.436 118.03 195.742 117.175 195.742C116.319 195.742 115.625 196.436 115.625 197.292C115.625 198.148 116.319 198.841 117.175 198.841Z" fill="#292526"/>
<path d="M117.175 198.841C118.03 198.841 118.724 198.148 118.724 197.292C118.724 196.436 118.03 195.742 117.175 195.742C116.319 195.742 115.625 196.436 115.625 197.292C115.625 198.148 116.319 198.841 117.175 198.841Z" stroke="#292526" stroke-width="1.62" stroke-miterlimit="22.926"/>
<path d="M199.891 196.13C201.247 199.616 199.31 202.909 195.824 202.715M191.756 203.877C192.143 199.616 196.017 195.355 199.31 195.549M188.463 200.003C189.238 196.904 193.305 193.999 196.211 194.386M108.275 165.914C107.5 168.044 106.144 169.594 103.82 170.95C98.7837 173.855 92.7792 172.887 86 174.242C89.0991 169.594 91.4234 162.233 96.2657 158.941C99.5585 156.616 103.239 155.648 107.694 155.842M120.09 160.297C131.518 154.873 146.045 162.427 149.337 175.405M118.54 149.837C133.842 148.869 149.337 162.233 149.337 176.567M118.54 165.72C117.572 166.882 115.248 166.688 114.473 164.945C112.73 161.652 117.184 157.972 121.058 160.684C125.32 163.589 123.576 170.175 118.153 171.724C112.342 173.274 105.757 167.463 108.662 160.878C109.437 158.941 111.374 157.391 112.923 156.81C111.374 157.004 108.856 156.616 107.306 155.261C101.689 150.612 104.982 142.477 110.793 141.121C116.216 139.959 120.865 144.995 118.347 149.644C116.022 153.905 110.599 152.743 110.599 148.869C110.599 146.932 112.536 145.77 113.892 146.351M270.782 142.477C269.62 142.864 268.264 142.09 268.264 140.54C268.264 137.635 272.526 136.86 274.269 139.959C276.012 143.445 272.526 147.126 268.458 146.351M158.247 154.098C157.86 156.229 157.472 159.909 157.085 161.459M156.31 154.098C156.117 156.035 155.729 159.715 155.342 161.265M148.563 104.901C149.144 94.8286 158.247 85.3377 170.256 80.8828C159.797 89.0178 164.252 96.7655 161.54 104.707M188.657 104.32C193.499 96.1844 209.382 91.5358 221.585 93.6664C202.215 96.3781 205.508 110.711 198.341 115.166M150.887 109.549C151.081 105.869 147.594 103.351 144.495 103.932C141.783 104.32 139.072 107.031 139.265 112.261M187.882 110.324C191.756 104.901 186.72 100.058 182.265 101.802M155.729 110.324C156.117 104.32 161.54 103.157 164.445 105.675M192.143 114.198C201.053 111.486 203.184 122.527 194.855 124.464M173.549 106.45C174.324 104.513 176.842 101.802 178.779 101.414M170.45 112.261C171.612 110.324 174.711 108 176.648 107.419M166.382 119.621C167.932 116.91 171.999 114.198 174.324 113.81M157.472 153.711C156.698 146.932 161.54 138.409 167.351 136.666M161.54 129.887C163.09 126.4 168.319 122.139 171.999 121.364M169.481 128.531C165.608 129.693 160.572 133.567 158.247 140.54M179.553 92.8917C172.774 113.617 155.729 128.725 157.279 154.098M192.531 128.918C188.851 127.95 183.234 128.725 179.553 130.468M135.004 116.522C133.455 120.009 133.067 125.626 134.229 129.5M186.526 133.761C181.297 131.63 173.549 133.567 169.481 137.635M138.878 123.495C135.973 128.337 136.36 136.279 139.459 141.121M181.684 138.603C176.454 136.472 168.126 138.216 164.639 142.477M142.558 128.918C139.459 133.567 139.846 142.283 143.333 146.544M176.842 143.252C171.612 140.54 163.671 142.671 160.765 147.9M160.765 147.9C160.378 148.288 159.022 150.999 157.86 153.905M160.765 147.9C170.256 132.018 192.918 120.59 214.418 123.495C205.508 124.27 204.733 127.175 201.053 129.887C198.341 131.824 196.017 130.855 194.855 129.887M146.432 134.729C142.752 139.378 143.527 147.707 147.982 151.387M171.806 147.707C166.963 144.801 159.99 147.125 159.022 151.387M149.918 140.346C146.238 144.607 147.013 150.999 150.887 152.936M175.292 149.256C175.292 150.612 174.517 151.968 172.193 152.743C171.031 153.13 169.481 153.517 167.932 153.905M152.049 137.054C153.405 137.247 154.373 138.409 154.761 141.121C155.342 144.801 154.18 150.418 156.504 154.098M181.684 145.382C181.684 148.675 177.616 150.418 174.13 148.675M171.418 132.211C172.387 132.986 172.774 133.954 172.774 135.117M178.972 104.513C182.652 103.545 183.427 98.8961 181.297 98.1214C183.04 95.6034 182.459 90.9548 181.684 83.7881C179.941 91.1484 172.387 95.4097 173.936 98.5088M173.936 98.8961C171.806 97.1529 167.544 100.833 168.9 105.482M179.941 104.32C182.071 105.094 181.103 109.743 177.229 110.905M168.513 104.707C165.995 102.77 162.121 106.838 163.671 112.067M178.004 110.518C180.522 111.486 179.36 116.522 174.905 117.878M163.283 110.905C160.378 110.13 157.279 115.36 159.603 119.428M175.68 117.297C177.423 118.846 176.454 123.689 172.387 124.851M154.761 125.432C152.436 125.045 150.306 127.756 150.887 130.855M158.828 118.072C155.729 117.684 153.405 122.139 155.148 126.013M173.162 124.464C175.68 126.4 174.324 131.243 170.062 132.792M149.337 130.274C152.63 130.855 153.599 135.117 151.274 138.409M187.107 140.54C187.688 143.833 183.815 146.351 180.134 144.801M145.657 124.076C148.95 124.076 150.693 128.337 148.563 131.63M192.531 135.698C193.112 138.99 189.238 141.508 185.558 139.959M141.783 117.878C145.076 117.878 146.819 122.139 144.689 125.432M197.373 130.855C197.954 134.148 194.08 136.666 190.4 135.117M137.91 112.067C141.202 112.067 142.946 116.328 140.815 119.621M149.144 152.161C134.617 140.153 126.869 115.166 133.648 94.0538C132.874 102.964 135.585 104.32 137.522 108.387C138.878 111.292 137.522 113.617 136.554 114.392M171.999 213.562C170.256 216.661 170.062 221.503 170.256 223.828M174.711 208.332C173.162 213.175 173.549 219.179 175.292 222.665M176.261 202.328C175.292 207.945 176.454 215.499 179.553 220.147M178.585 200.391C177.423 205.814 179.941 214.143 183.427 217.242M102.27 284.066C110.018 284.26 121.058 281.742 125.707 278.643M96.8468 260.823C81.9325 263.728 83.0946 284.066 98.9774 284.26C108.856 283.872 114.86 273.994 110.793 264.503C109.243 261.21 110.018 256.949 112.536 255.787M127.256 232.544C107.112 237.773 92.3918 256.562 96.4594 274.575M125.126 263.922C126.094 266.053 129.387 268.571 131.711 268.958M130.743 257.336C118.54 257.724 116.991 273.994 128.419 276.899M153.986 269.152C164.252 273.219 174.711 273.219 181.684 268.571C182.459 267.989 183.427 267.602 184.008 267.796C184.783 267.989 185.17 268.571 184.783 269.539C184.396 270.12 183.815 270.12 183.427 270.507C182.652 271.089 182.846 271.863 183.234 272.251C183.621 272.638 184.977 272.832 185.558 271.67C186.526 269.539 187.882 268.183 189.044 267.408M144.495 276.706C154.567 279.611 168.319 278.836 177.035 273.025C179.166 271.67 181.49 272.444 180.716 274.575C180.134 275.35 179.36 275.543 178.972 275.931C178.004 276.706 178.198 277.674 178.585 278.255C179.166 278.836 180.716 279.03 181.49 277.674C183.621 273.025 188.076 271.67 190.594 276.899C192.337 279.805 194.468 281.742 198.535 284.26M161.346 238.742C165.801 246.296 164.058 256.755 157.472 259.854C153.018 262.179 152.049 267.796 155.342 271.476C159.022 275.737 150.306 279.611 140.428 275.737M299.643 240.679C301.192 245.327 301.773 254.625 300.805 259.273M296.35 236.03C298.093 241.454 298.093 252.881 296.156 258.692M282.404 283.872C284.728 279.417 289.958 270.507 292.863 266.44M290.926 262.953C291.701 267.215 297.318 270.507 302.548 269.539M293.638 275.737C301.773 273.413 308.359 263.728 306.809 256.174M248.508 254.625C253.931 245.521 262.066 249.782 269.62 244.553C277.174 239.129 279.499 230.219 277.949 222.859M240.373 244.359C243.278 249.589 242.891 257.917 239.404 261.017M239.017 273.994C242.116 276.318 242.31 282.129 239.598 284.26M230.882 237.386C226.039 246.683 226.233 257.724 230.688 262.953C234.175 267.021 239.792 267.796 245.602 263.922M223.328 264.116C223.715 266.053 224.296 267.796 225.265 268.958C229.139 274.188 235.337 276.125 241.922 272.444M225.458 244.94C223.909 248.427 223.134 252.3 222.94 255.981M249.476 273.219C253.156 275.543 254.125 280.773 251.219 283.872M250.638 261.404C253.156 267.021 250.251 274.769 244.828 276.899M277.949 264.503C283.76 268.764 285.89 278.449 282.21 283.872M274.075 265.665C278.724 270.701 279.886 279.611 276.399 283.679M268.652 266.246C271.945 269.152 273.688 275.543 272.332 279.03M263.809 266.053C268.845 271.476 269.62 279.998 265.165 283.291M253.156 249.782C260.904 258.886 277.562 256.368 282.017 246.49M277.368 219.373C280.08 232.35 272.719 242.228 263.035 238.936C256.255 236.224 254.9 226.346 258.386 219.179M274.656 209.688C278.53 220.922 282.404 243.584 282.598 255.012M277.755 196.517C282.404 196.13 288.215 197.873 289.958 199.616M273.881 198.26C277.755 198.26 282.598 200.585 284.535 203.103M289.958 181.215C286.665 183.54 282.985 190.706 282.598 195.355M272.332 199.035C275.625 201.553 278.724 206.008 279.111 209.688M269.233 201.553C271.945 202.909 273.881 206.976 273.3 209.494M269.233 201.553C264.003 200.972 258.967 201.94 256.062 204.071C253.931 205.621 252.963 208.139 254.512 210.657M269.233 201.553C273.881 197.098 284.341 193.805 291.12 194.967M278.917 93.6664C276.981 97.5403 275.044 102.77 275.044 104.126M247.346 82.8197C247.346 87.0809 246.765 93.8601 246.183 96.3781M241.341 95.7971C253.35 96.5718 272.719 102.189 280.08 107.031M245.796 135.891C246.377 139.184 245.021 143.639 243.084 144.607M243.084 144.607C228.557 149.062 214.805 167.076 215.774 180.441C213.449 198.067 231.075 206.395 251.026 196.711M243.084 144.607C244.44 147.707 247.152 149.837 250.445 150.612M260.517 173.855C259.936 160.684 268.264 151.58 277.174 153.13M231.269 154.098C242.891 153.711 252.769 167.657 254.319 175.211M248.895 185.864C246.765 189.544 244.828 196.323 244.828 199.229M242.891 167.851C245.99 171.531 247.152 180.053 245.215 184.895M236.111 167.076C232.044 172.693 232.625 181.409 237.274 184.702M226.427 175.792C226.621 180.247 231.657 184.895 236.305 184.895M242.891 112.455C244.247 114.779 246.958 115.36 249.476 114.198M253.156 114.973C254.9 118.265 260.129 118.653 262.454 114.779M242.116 110.13C244.44 108.581 246.958 109.162 248.895 110.324C249.67 110.711 250.251 111.292 251.026 112.067M253.544 112.648C255.868 111.099 257.999 111.68 259.936 112.842C261.679 113.81 262.841 115.941 265.553 116.716M253.544 109.356C257.224 107.419 262.841 108.968 264.778 112.648M242.116 104.126C247.152 103.545 251.607 107.225 251.026 111.486C250.057 115.941 249.089 120.202 248.314 123.689C249.089 123.882 250.057 124.076 251.413 124.27C252.575 125.432 254.512 125.238 254.9 123.882M253.544 138.99C254.9 138.99 256.449 138.603 258.192 138.022M240.954 100.446C242.503 104.126 243.665 110.905 242.31 116.522C239.985 126.4 242.891 134.536 248.508 137.441M265.94 126.207C265.94 128.725 264.197 132.986 262.454 135.117C262.26 138.99 263.422 143.639 266.134 146.157M267.49 105.288C271.751 108.581 272.332 117.103 268.264 122.333C272.913 124.27 270.589 132.018 263.422 133.761M273.494 91.3421C278.336 93.2791 282.21 95.216 284.728 96.9592C282.21 100.058 279.499 107.031 279.305 110.711M279.305 110.711C281.823 117.878 277.368 126.013 270.395 126.788M279.305 110.711C270.782 105.288 251.607 100.446 240.76 100.833C241.922 94.4412 241.535 84.9503 239.985 81.4638C245.409 82.4323 251.607 83.9818 257.805 85.9188M292.089 216.661C293.251 225.958 292.089 238.548 285.697 248.814M292.476 205.039C294.219 214.918 289.377 228.67 282.791 232.35M256.643 264.309C264.197 269.152 264.003 279.998 257.418 283.291M246.183 257.917C259.355 270.895 283.372 268.571 293.251 252.3M291.895 230.607C295.962 234.868 300.224 241.647 302.742 246.102C313.201 265.471 308.165 285.228 286.665 284.26C280.08 283.872 271.751 283.485 263.035 283.485C255.093 283.485 246.958 284.066 239.792 284.26M219.648 271.089C221.778 279.224 228.557 284.647 240.179 284.26M235.918 232.156C235.337 232.737 234.562 233.512 233.981 234.093C228.17 240.098 224.103 246.49 221.585 252.881M239.404 221.116C233.4 232.156 234.756 248.039 242.31 255.012M238.629 216.08C239.017 226.927 247.152 239.904 254.706 241.841M252.188 160.684C253.737 160.878 256.449 160.49 257.611 159.715M262.647 224.99C264.778 226.152 269.039 225.377 271.17 223.44M262.841 185.089L251.413 130.662C250.251 131.243 248.314 131.63 247.346 131.243L256.449 186.445M266.327 201.359L265.94 199.422M261.291 217.242L263.616 230.801C265.553 232.35 270.395 231.575 272.138 229.445L268.845 213.949M258.386 198.648L258.967 202.521M260.71 174.823C270.589 163.396 290.345 166.107 296.35 180.247M215.774 180.634C222.94 164.751 245.021 162.621 254.512 176.179M253.156 187.801C250.057 190.513 249.864 194.967 251.026 196.904C251.994 198.454 255.868 199.035 259.161 198.454C262.26 197.873 266.521 198.454 266.134 200.585M262.841 194.774C266.521 194.386 268.652 195.936 268.845 197.679C268.845 198.454 268.652 200.197 266.521 200.972M262.454 191.675C265.165 191.287 267.683 191.675 269.039 192.643C270.589 193.805 270.782 196.13 269.039 197.873M260.904 188.963C266.715 186.639 271.557 189.544 270.201 194.386M228.17 194.774C230.688 189.157 239.017 184.121 244.828 184.895M222.94 190.319C229.913 183.927 245.409 182.765 253.737 187.995C260.129 183.54 267.683 184.314 269.039 189.35M237.467 206.976C235.143 218.211 245.021 225.958 257.224 222.472M234.175 200.778C234.562 207.364 242.503 211.431 250.638 209.688C251.026 209.494 252.769 209.301 253.737 208.72M255.868 151.387C260.323 151.193 263.809 149.45 265.94 146.157C287.634 149.45 303.323 183.152 295.962 200.391C294.994 202.715 293.638 204.265 291.701 205.814C287.053 209.688 277.949 210.85 272.719 209.494C271.557 212.593 266.521 216.08 262.26 217.242C261.873 217.242 260.517 217.629 260.323 217.629M178.004 191.868C179.747 187.026 187.107 186.445 189.625 190.513M176.067 197.292C177.81 198.26 181.297 197.679 182.265 196.13C184.008 192.062 188.076 190.125 192.531 190.319C196.405 190.513 200.278 193.612 204.152 195.355C206.089 196.323 211.125 197.873 214.031 198.454C217.904 199.229 216.936 204.071 213.062 203.49C211.125 203.296 210.544 201.359 211.125 200.197M146.432 218.211C147.594 222.472 147.013 230.026 144.882 232.931M144.108 215.111C145.076 218.404 144.689 224.796 143.333 227.895M141.783 212.206C143.527 216.661 141.977 225.571 138.684 230.219M139.653 210.269C140.815 213.756 140.04 221.116 137.91 224.99M137.91 208.913C139.846 214.53 135.973 224.021 132.292 226.927M137.522 208.72C145.464 214.143 151.274 225.377 149.337 230.994M155.148 225.183C156.891 206.783 147.982 181.796 136.941 173.468C138.103 172.305 139.459 169.594 139.846 167.851C144.689 170.756 151.274 178.504 153.599 183.927M124.545 183.733C124.545 186.639 122.608 190.9 120.671 192.449M118.928 192.449C118.347 191.094 118.153 188.963 118.928 187.22C120.284 183.927 122.995 183.152 124.932 178.697C129.387 183.152 130.162 190.125 127.063 193.224M149.531 161.459C154.567 160.684 161.153 161.846 162.508 163.783M152.63 155.842C153.405 155.842 153.986 156.423 153.986 157.197C153.986 157.972 153.405 158.553 152.63 158.553C151.855 158.553 151.274 157.972 151.274 157.197C151.274 156.423 152.049 155.842 152.63 155.842ZM160.959 156.81C161.734 156.81 162.315 157.391 162.315 158.166C162.315 158.941 161.734 159.522 160.959 159.522C160.184 159.522 159.603 158.941 159.603 158.166C159.409 157.391 160.184 156.81 160.959 156.81ZM265.94 218.598C266.909 218.598 267.49 219.373 267.49 220.147C267.49 221.116 266.715 221.697 265.746 221.697C264.778 221.697 264.197 220.922 264.197 220.147C264.197 219.373 264.972 218.598 265.94 218.598ZM272.138 96.9592C267.102 98.7024 257.224 96.3781 252.963 92.5043C258.58 87.2746 263.809 73.1351 263.228 65C271.363 70.8108 275.818 86.8872 272.138 96.9592Z" stroke="#292526" stroke-width="1.62" stroke-miterlimit="22.926"/>
<path fill-rule="evenodd" clip-rule="evenodd" d="M196.221 196.914C196.996 196.914 197.771 197.495 197.771 198.464C197.771 199.238 197.19 200.013 196.221 200.013C195.253 200.013 194.672 199.432 194.672 198.464C194.866 197.689 195.447 196.914 196.221 196.914Z" fill="#292526"/>
<path d="M196.221 196.914C196.996 196.914 197.771 197.495 197.771 198.464C197.771 199.238 197.19 200.013 196.221 200.013C195.253 200.013 194.672 199.432 194.672 198.464C194.866 197.689 195.447 196.914 196.221 196.914Z" stroke="#292526" stroke-width="1.62" stroke-miterlimit="22.926"/>
<path d="M255.092 127.941C253.155 128.135 252.38 127.167 251.218 127.36C250.443 127.554 250.056 127.748 249.475 128.522C249.088 127.748 248.7 127.36 248.119 127.36C246.957 126.973 245.988 127.748 245.02 127.554M269.425 129.685C267.295 133.171 267.101 138.013 269.038 138.788M171.998 104.117C171.611 107.41 169.867 113.027 169.286 114.577M166.768 110.703C166.768 114.383 165.8 120.387 164.638 122.905M162.313 116.126C162.701 120.968 162.12 128.522 160.958 131.234M158.052 123.293C159.408 127.554 159.602 135.302 158.633 138.594M154.953 130.653C156.696 132.977 157.859 140.725 157.277 145.567M263.808 211.229C258.966 212.197 255.867 215.878 257.804 218.589C258.578 219.751 260.322 220.526 261.871 220.333M262.452 208.324C257.997 209.292 254.705 212.391 255.867 214.909C256.06 215.297 256.448 215.878 257.223 216.459M261.096 205.418C256.254 206.387 253.349 209.873 254.898 212.391C254.898 212.391 255.479 213.36 255.673 213.36M282.984 174.621C281.434 181.207 280.659 191.666 281.434 195.54M264.196 171.522C270.394 177.139 275.042 190.504 273.299 198.445M271.362 168.423C276.398 175.59 279.304 189.923 276.979 196.896M186.719 188.18C186.525 184.693 189.624 180.819 192.723 180.432C191.367 184.887 195.241 185.855 194.079 190.504M219.453 217.04C220.615 226.143 228.75 230.598 236.11 229.436M218.484 203.094C220.615 212.197 229.912 217.427 237.466 212.585M216.547 189.148C219.065 199.995 220.615 228.274 220.227 250.355M292.281 219.751C293.443 225.95 300.029 232.341 305.452 232.535M297.317 195.346C302.934 211.423 308.164 244.35 307.776 261.395M280.659 209.679C281.047 211.81 281.628 215.103 281.822 216.652M287.245 208.13C287.439 210.261 285.889 215.684 284.146 219.17M277.56 219.945C279.304 225.175 285.308 227.499 289.376 224.4M275.623 237.571C276.204 242.607 272.137 249.386 267.876 250.936M183.038 261.589C183.232 263.139 183.62 264.688 184.588 266.238M183.813 250.355C183.426 252.485 183.038 254.229 182.845 255.972M178.777 261.976C179.165 264.107 179.552 265.657 180.52 267.593M179.552 249.58C178.971 251.711 178.584 253.841 178.39 255.778M174.516 262.17C174.903 264.688 175.484 266.625 176.453 268.756M175.484 248.612C174.71 250.742 174.322 253.067 174.129 255.391M169.674 261.783C170.061 264.882 170.642 267.206 171.804 269.337M171.03 248.224C170.449 250.355 169.867 252.485 169.674 254.81M159.989 260.427C159.989 263.526 160.764 266.431 161.732 268.756M165.025 261.202C165.219 264.107 165.994 266.819 166.962 269.143M166.575 247.449C165.994 249.386 165.413 251.711 165.219 254.035" stroke="#292526" stroke-width="1.62" stroke-miterlimit="22.926"/>
<path fill-rule="evenodd" clip-rule="evenodd" d="M260.136 113.232C258.199 116.718 254.712 115.362 254.906 112.263C256.456 111.682 258.974 112.263 260.136 113.232Z" fill="#292526"/>
<path d="M260.136 113.232C258.199 116.718 254.712 115.362 254.906 112.263C256.456 111.682 258.974 112.263 260.136 113.232Z" stroke="#292526" stroke-width="1.62" stroke-miterlimit="22.926"/>
<path fill-rule="evenodd" clip-rule="evenodd" d="M247.921 110.134C246.953 113.427 243.079 112.652 243.273 109.553C244.822 109.166 246.759 109.359 247.921 110.134Z" fill="#292526"/>
<path d="M247.921 110.134C246.953 113.427 243.079 112.652 243.273 109.553C244.822 109.166 246.759 109.359 247.921 110.134Z" stroke="#292526" stroke-width="1.62" stroke-miterlimit="22.926"/>
<path fill-rule="evenodd" clip-rule="evenodd" d="M46.2801 3.00024L40.9601 8.31851L36.9889 4.18989L36.7573 3.94908H36.4232L15.785 3.94908H15L15 4.73408L15 25.0034L15 25.3286L15.23 25.5586L19.3816 29.7088L15.23 33.859L15 34.0889L15 34.4142L15 55.0455L15 55.8305H15.785L36.0611 55.8305H36.3862L36.6161 55.6006L40.768 51.45L46.5371 57.2172L40.8713 62.8811L36.9889 58.8447L36.7573 58.6039H36.4232L15.785 58.6039H15L15 59.3889L15 79.6582L15 79.9857L15.2328 80.2161L19.4021 84.3432L15.23 88.5138L15 88.7437L15 89.069L15 109.7L15 110.485H15.785H36.0611H36.3862L36.6161 110.255L40.8585 106.014L46.5371 111.691L40.8713 117.355L36.9889 113.319L36.7573 113.078H36.4231H15.785H15L15 113.863L15 134.132L15 134.46L15.2328 134.69L19.4021 138.817L15.23 142.988L15 143.218L15 143.543L15 164.174L15 164.959H15.785H36.0611H36.3862L36.6161 164.729L40.768 160.579L46.5371 166.346L40.9601 171.921L36.9889 167.792L36.7573 167.552H36.4231H15.785H15L15 168.337L15 188.606L15 188.933L15.2328 189.164L19.4021 193.291L15.23 197.461L15 197.691L15 198.017L15 218.648L15 219.433H15.785H36.0611H36.3862L36.6161 219.203L40.768 215.053L46.5371 220.82L40.9601 226.395L36.9889 222.266L36.7573 222.025H36.4231H15.785H15L15 222.81L15 243.08L15 243.407L15.2328 243.638L19.4021 247.765L15.23 251.935L15 252.165L15 252.49L15 272.941L15 273.726H15.785H36.0611H36.3862L36.6161 273.496L40.6775 269.436L46.5371 275.293L40.8713 280.957L36.9889 276.921L36.7573 276.68H36.4231H15.785H15L15 277.465L15 297.735L15 298.062L15.2328 298.292L19.402 302.419L15.23 306.59L15 306.82L15 307.145L15 327.777V328.562H15.785H36.0611H36.3862L36.6161 328.332L40.8585 324.091L46.5371 329.767L40.96 335.342L36.9889 331.214L36.7573 330.973H36.4231H15.785H15V331.758V352.027V352.353L15.23 352.583L20.6611 358.012L21.7711 356.902L16.57 351.702L16.57 332.543H36.089L39.8495 336.453L34.1602 342.14L32.9953 340.976L32.757 340.737L32.4202 340.746L25.3598 340.927L24.5949 340.947V341.712V348.227V348.552L24.8249 348.782L34.2388 358.193L35.3488 357.082L35.2706 357.004L40.9381 351.339L44.9092 355.467L45.1408 355.708H45.475H66.1131H66.8981V354.923V334.654V334.326L66.6654 334.096L62.0412 329.519L66.4871 325.074L66.7171 324.844V324.519V304.25V303.465H65.9321H45.656H45.3309L45.101 303.694L40.768 308.026L35.2705 302.53L40.938 296.865L44.9092 300.993L45.1408 301.234H45.475H66.1131H66.8981V300.449V280.18V279.852L66.6654 279.622L62.0412 275.045L66.4871 270.6L66.7171 270.37V270.045V249.776V248.991H65.9321H45.656H45.3309L45.101 249.221L40.8586 253.462L35.2705 247.876L40.9381 242.21L44.9092 246.339L45.1408 246.579H45.475H66.1131H66.8981V245.794L66.8981 225.525V225.198L66.6654 224.967L62.1322 220.48L66.4871 216.127L66.7171 215.897V215.571V195.302V194.517H65.9321H45.656H45.3309L45.101 194.747L40.8586 198.988L35.2705 193.402L40.9381 187.736L44.9092 191.865L45.1408 192.106H45.475H66.1131H66.8981V191.321V171.051V170.724L66.6654 170.493L62.0413 165.916L66.4871 161.472L66.7171 161.242V160.917V140.647V139.862H65.9321H45.656H45.3309L45.101 140.092L40.768 144.424L35.2705 138.928L40.9381 133.262L44.9092 137.391L45.1408 137.632H45.475H66.1131H66.8981V136.847V116.577V116.25L66.6654 116.019L62.0413 111.442L66.4871 106.998L66.7171 106.768V106.443L66.7171 86.1734V85.3884H65.9321H45.656H45.3309L45.101 85.6182L40.768 89.9498L35.2705 84.4541L40.9381 78.7884L44.9092 82.917L45.1408 83.1579H45.475H66.1131H66.8981V82.3728V62.1035V61.776L66.6654 61.5456L62.1322 57.0584L66.4871 52.705L66.7171 52.4751V52.1498V31.6995V30.9145H65.9321H45.656H45.3309L45.101 31.1443L40.8585 35.3854L35.2705 29.7993L40.9381 24.1336L44.9092 28.2622L45.1408 28.5031H45.475H66.1131H66.8981V27.718V7.44873V7.12122L66.6654 6.89082L62.735 3.00024H60.5033L65.3281 7.77623V26.933H45.8091L42.0486 23.0235L47.5569 17.517L48.9028 18.8625L49.1411 19.1007L49.4779 19.092L56.5383 18.9111L57.3032 18.8914V18.1263L57.3032 11.6112V11.2859L57.0732 11.056L49.0148 3.00024H46.2801ZM49.7745 17.5139L48.6672 16.407L54.4363 10.6399L55.7332 11.9364V17.3612L49.7745 17.5139ZM47.6474 3.85332L53.3259 9.52994L34.1602 28.6893L28.4817 23.0127L47.6474 3.85332ZM33.1404 16.1356L27.3713 21.9027L26.165 20.6967V15.2719L32.1237 15.1192L33.1404 16.1356ZM39.8495 9.42868L34.2507 15.0256L32.9953 13.7706L32.7571 13.5324L32.4202 13.5411L25.3598 13.722L24.595 13.7417V14.5068V21.0219V21.3472L24.825 21.5771L39.7482 36.4954L34.0697 42.172L16.57 24.6782L16.57 5.51909L36.089 5.51909L39.8495 9.42868ZM27.2593 37.5839L32.9593 43.282L31.7532 44.4877H25.9839V38.743L27.2593 37.5839ZM20.492 30.8188L26.1477 36.4726L24.671 37.8147L24.4139 38.0483V38.3956V45.2727V46.0577H25.1989H32.0783H32.4034L32.6333 45.8279L45.9811 32.4845H65.1471V51.8246L61.0164 55.9539L55.4009 50.3953L57.2542 48.5426L57.4843 48.3126V47.9874V41.4722V40.6872H56.6993H49.6388H49.3137L49.0838 40.9171L35.736 54.2605L16.57 54.2604L16.57 34.7394L20.492 30.8188ZM55.9143 47.6621L54.2851 49.2908L48.5786 43.6421L49.9639 42.2572H55.9143V47.6621ZM41.8784 50.3401L47.4682 44.7521L65.3281 62.431V81.5879H45.8091L42.0486 77.6783L47.6474 72.0813L48.9028 73.3363L49.1411 73.5745L49.4779 73.5659L56.5383 73.3849L57.3032 73.3653V72.6002V66.085V65.7598L57.0732 65.5298L41.8784 50.3401ZM49.7745 71.9877L48.7578 70.9714L54.5268 65.2042L55.7332 66.4102V71.835L49.7745 71.9877ZM47.6474 58.3271L53.4165 64.0943L34.1602 83.3441L28.3912 77.577L47.6474 58.3271ZM33.0499 70.6999L27.2808 76.467L26.1649 75.3515V69.9267L32.1237 69.774L33.0499 70.6999ZM39.7608 63.9912L34.1602 69.5899L32.9953 68.4254L32.7571 68.1873L32.4202 68.1959L25.3598 68.3768L24.5949 68.3965V69.1616V75.6767V76.002L24.825 76.2319L39.6577 91.0597L34.0661 96.6495L16.57 79.3307L16.57 60.1739L36.089 60.1739L39.7608 63.9912ZM27.2261 92.0879L32.9557 97.7595L31.7532 98.9616H25.9839V93.2168L27.2261 92.0879ZM20.5179 85.4477L26.1087 90.9819L24.6709 92.2885L24.4139 92.5221V92.8695V99.7466V100.532H25.1989H32.0783H32.4034L32.6333 100.302L45.9811 86.9584H65.1471L65.1471 106.117L60.9254 110.338L55.4918 104.959L57.2542 103.197L57.4842 102.967V102.642V96.127V95.3421H56.6992H49.6388H49.3137L49.0838 95.5719L35.736 108.915H16.57L16.57 89.3942L20.5179 85.4477ZM55.9142 102.317L54.376 103.855L48.6695 98.206L49.9639 96.912H55.9142V102.317ZM41.9689 104.904L47.5592 99.3159L65.3281 116.905V136.062H45.8091L42.0486 132.152L47.6474 126.555L48.9028 127.81L49.1411 128.048L49.4779 128.04L56.5383 127.859L57.3032 127.839V127.074V120.559V120.234L57.0732 120.004L41.9689 104.904ZM49.7745 126.462L48.7577 125.445L54.5268 119.678L55.7332 120.884V126.309L49.7745 126.462ZM47.6474 112.801L53.4164 118.568L34.1602 137.818L28.3912 132.051L47.6474 112.801ZM33.0499 125.174L27.2808 130.941L26.1649 129.825V124.401L32.1237 124.248L33.0499 125.174ZM39.7608 118.465L34.1602 124.064L32.9953 122.899L32.7571 122.661L32.4202 122.67L25.3598 122.851L24.5949 122.87V123.635V130.151V130.476L24.825 130.706L39.6577 145.534L34.0661 151.123L16.57 133.805L16.57 114.648H36.089L39.7608 118.465ZM27.2261 146.562L32.9557 152.233L31.7532 153.435H25.9839V147.691L27.2261 146.562ZM20.5179 139.921L26.1088 145.456L24.6709 146.762L24.4139 146.996V147.343V154.22V155.005H25.1989H32.0783H32.4034L32.6333 154.776L45.9811 141.432H65.1471V160.591L60.9254 164.812L55.4919 159.433L57.2542 157.671L57.4842 157.441V157.116V150.601V149.816H56.6992H49.6388H49.3137L49.0838 150.046L35.736 163.389H16.57L16.57 143.868L20.5179 139.921ZM55.9142 156.791L54.376 158.328L48.6695 152.68L49.9639 151.386H55.9142V156.791ZM41.8784 159.469L47.5592 153.79L65.3281 171.379V190.536H45.8091L42.0486 186.626L47.5569 181.119L48.9028 182.465L49.1411 182.703L49.4779 182.694L56.5383 182.514L57.3032 182.494V181.729V175.214V174.888L57.0732 174.658L41.8784 159.469ZM49.7745 181.116L48.6672 180.01L54.4363 174.242L55.7332 175.539V180.964L49.7745 181.116ZM47.6474 167.456L53.3259 173.132L34.1602 192.292L28.4817 186.615L47.6474 167.456ZM33.1404 179.738L27.3713 185.505L26.1649 184.299V178.874L32.1237 178.722L33.1404 179.738ZM39.8495 173.031L34.2507 178.628L32.9953 177.373L32.7571 177.135L32.4202 177.144L25.3598 177.325L24.5949 177.344V178.109V184.624V184.95L24.825 185.18L39.7482 200.098L34.157 205.687L16.57 188.278L16.57 169.122H36.089L39.8495 173.031ZM27.3214 201.13L33.0467 206.797L31.7532 208.09H25.9839V202.345L27.3214 201.13ZM20.5179 194.395L26.2041 200.024L24.6709 201.417L24.4139 201.651V201.998V208.875V209.66H25.1989H32.0783H32.4034L32.6333 209.43L45.9811 196.087H65.1471V215.246L61.0164 219.375L55.4918 213.907L57.2542 212.145L57.4842 211.915V211.59V205.075V204.29H56.6992H49.6388H49.3137L49.0838 204.52L35.736 217.863H16.57L16.57 198.342L20.5179 194.395ZM55.9142 211.265L54.376 212.802L48.6695 207.154L49.9639 205.86H55.9142V211.265ZM41.8784 213.943L47.5592 208.264L65.3281 225.853L65.3281 245.009H45.8091L42.0486 241.1L47.5569 235.593L48.9028 236.939L49.1411 237.177L49.4779 237.168L56.5383 236.987L57.3032 236.968V236.203V229.688V229.362L57.0732 229.132L41.8784 213.943ZM49.7745 235.59L48.6672 234.483L54.4363 228.716L55.7332 230.013V235.437L49.7745 235.59ZM47.6474 221.93L53.3259 227.606L34.1602 246.766L28.4817 241.089L47.6474 221.93ZM33.1404 234.212L27.3713 239.979L26.1649 238.773V233.348L32.1236 233.195L33.1404 234.212ZM39.8495 227.505L34.2507 233.102L32.9953 231.847L32.757 231.609L32.4202 231.617L25.3598 231.798L24.5949 231.818V232.583V239.098V239.423L24.825 239.653L39.7482 254.572L34.157 260.161L16.57 242.752L16.57 223.595H36.089L39.8495 227.505ZM27.3214 255.604L33.0467 261.271L31.7532 262.564H25.9839V256.819L27.3214 255.604ZM20.5179 248.869L26.204 254.498L24.6709 255.891L24.4139 256.125V256.472V263.349V264.134H25.1989H32.0783H32.4034L32.6333 263.904L45.9811 250.561H65.1471V269.72L60.9254 273.94L55.3099 268.382L57.2542 266.438L57.4842 266.208V265.883V259.368V258.583H56.6992H49.6388H49.3137L49.0838 258.812L35.736 272.156H16.57L16.57 252.816L20.5179 248.869ZM55.9142 265.557L54.1941 267.277L48.4876 261.628L49.9639 260.153H55.9142V265.557ZM41.7878 268.326L47.3772 262.738L65.3281 280.507V299.664H45.8091L42.0486 295.755L47.6474 290.158L48.9028 291.413L49.1411 291.651L49.4779 291.642L56.5383 291.461L57.3032 291.442V290.676V284.161V283.836L57.0732 283.606L41.7878 268.326ZM49.7745 290.064L48.7578 289.048L54.5268 283.281L55.7332 284.487V289.911L49.7745 290.064ZM47.6474 276.403L53.4164 282.171L34.1602 301.42L28.3912 295.653L47.6474 276.403ZM33.0499 288.776L27.2808 294.543L26.1649 293.428V288.003L32.1236 287.85L33.0499 288.776ZM39.7608 282.068L34.1602 287.666L32.9953 286.502L32.757 286.264L32.4202 286.272L25.3598 286.453L24.5949 286.473V287.238V293.753V294.078L24.825 294.308L39.6577 309.136L34.0661 314.726L16.57 297.407L16.57 278.25H36.089L39.7608 282.068ZM27.2261 310.164L32.9557 315.836L31.7532 317.038H25.9839V311.293L27.2261 310.164ZM20.5179 303.524L26.1088 309.058L24.6709 310.365L24.4139 310.598V310.946V317.823V318.608H25.1989H32.0783H32.4034L32.6333 318.378L45.9811 305.035H65.1471V324.194L60.9254 328.414L55.4919 323.035L57.2542 321.274L57.4842 321.044V320.719L57.4842 314.203V313.418H56.6992H49.6388H49.3137L49.0838 313.648L35.736 326.992H16.57L16.57 307.471L20.5179 303.524ZM55.9142 320.393L54.376 321.931L48.6695 316.282L49.9639 314.988H55.9142L55.9142 320.393ZM41.9689 322.981L47.5592 317.392L65.3281 334.981V354.138H45.8091L42.0486 350.228L47.6474 344.632L48.9028 345.886L49.1411 346.125L49.4779 346.116L56.5383 345.935L57.3032 345.915V345.15V338.635V338.31L57.0732 338.08L41.9689 322.981ZM49.7745 344.538L48.7578 343.522L54.5268 337.754L55.7332 338.96L55.7332 344.385L49.7745 344.538ZM47.6474 330.877L53.4165 336.644L34.1602 355.894L28.3912 350.127L47.6474 330.877ZM33.0499 343.25L27.2808 349.017L26.1649 347.902V342.477L32.1237 342.324L33.0499 343.25Z" fill="#42CFEE"/>
</svg>
