<svg width="122" height="56" viewBox="0 0 122 56" fill="none" xmlns="http://www.w3.org/2000/svg">
<path fill-rule="evenodd" clip-rule="evenodd" d="M57.8531 10.4414V11.6883H64.9922V10.4414C66.7138 10.1738 67.8162 8.60488 67.874 7.11583C67.9235 5.84628 67.2127 4.63384 65.4794 4.33589L65.6218 3.84527L63.4082 3.84665L63.2444 4.50517L62.4001 4.50585C62.5584 4.29942 62.6513 4.04207 62.6513 3.7627C62.6513 3.32713 62.4228 2.94317 62.0788 2.72436V2.36723H62.7249V1.05502H62.0788V0.408203H60.7666V1.05502H60.1197V2.36723H60.7666V2.72436C60.4225 2.94249 60.1934 3.32645 60.1934 3.7627C60.1934 4.04207 60.2876 4.29942 60.4452 4.50585L59.6009 4.50517L59.4371 3.84665L57.2235 3.84527L57.3666 4.33589C55.6306 4.63178 54.9198 5.8449 54.9714 7.1172C55.0319 8.60488 56.1343 10.1717 57.8531 10.4414Z" fill="black"/>
<path fill-rule="evenodd" clip-rule="evenodd" d="M119.915 33.2958C112.835 33.099 105.729 31.4442 99.7993 27.4043C98.3116 25.1804 95.5124 23.9253 93.1144 23.0018C92.2866 20.7655 89.9574 19.6315 87.8731 18.8209C87.1472 17.3071 86.2753 16.8942 85.0202 16.5963C84.597 16.4745 83.2422 16.3011 82.574 16.1077C80.8978 15.6219 79.0798 14.9001 77.3073 15.9226C73.7367 17.7083 78.4509 21.2176 73.2096 22.1754C73.4553 21.3153 73.9005 20.3829 74.2673 19.5654C72.8291 19.3831 70.6361 19.0535 69.9356 18.6179C69.948 18.0936 70.0657 17.2727 70.2164 16.8997C70.2274 16.8674 70.4854 17.5589 70.4958 17.5266C70.6045 17.0546 70.8543 16.288 71.2417 15.9446C72.0144 16.1304 74.8769 17.0105 75.2347 15.0687C74.7042 15.0687 73.9067 15.0997 73.478 14.7102C74.1592 14.3895 75.5829 14.2388 76.0756 14.9779C76.1685 15.0942 76.2139 15.1176 76.2731 15.0487C77.2612 13.0395 74.9278 12.2117 73.9198 12.1952C73.8138 11.9192 73.5998 11.7369 73.3177 11.5552V10.7164C74.2514 10.6222 74.7462 9.74209 74.7558 8.89504C74.7641 8.07413 74.3175 7.28419 73.3755 7.27318L73.4264 7.04955H72.2601L72.1782 7.353H71.7708C71.8169 7.28178 71.848 7.20192 71.8622 7.11829C71.8764 7.03465 71.8733 6.949 71.8533 6.86657C71.8333 6.78414 71.7967 6.70666 71.7457 6.63886C71.6947 6.57106 71.6304 6.51436 71.5568 6.47223V6.21901H71.9305V5.59972H71.5575V5.22607H70.9355V5.59972H70.5618V6.21901H70.9355V6.47223C70.8621 6.51462 70.7981 6.57147 70.7474 6.63934C70.6966 6.70721 70.6602 6.78467 70.6404 6.86704C70.6205 6.9494 70.6175 7.03495 70.6317 7.11849C70.6459 7.20202 70.6769 7.28181 70.7228 7.353H70.3141L70.2336 7.04955H69.0673L69.1168 7.27318C68.1693 7.28488 67.7234 8.08376 67.7379 8.91018C67.7523 9.7531 68.2457 10.6236 69.1746 10.7171V11.5608L69.1705 11.5614H69.1877C68.1542 11.6963 67.3009 11.589 66.6438 11.4968C66.6548 12.0108 67.2348 12.7835 67.9918 13.034C67.5163 13.3312 66.7835 13.6526 66.2419 13.8143C66.1951 13.8384 66.8977 13.9657 66.8509 13.9891C66.449 14.3902 65.4623 14.7212 64.949 14.9091C64.9022 14.9325 65.6749 15.0019 65.6398 15.037C65.4224 15.1389 64.2877 15.8641 64.2877 15.8641H58.5661C58.5661 15.8641 57.4328 15.1389 57.2154 15.037C57.1803 15.0019 57.9523 14.9325 57.9056 14.9091C57.3915 14.7219 56.4055 14.3902 56.0036 13.9891C55.9575 13.9657 56.6594 13.8384 56.6119 13.8143C56.0704 13.6526 55.3382 13.3305 54.8621 13.034C55.6183 12.7835 56.1991 12.0108 56.2101 11.4968C55.5522 11.589 54.7004 11.6963 53.6662 11.5614H53.6717L53.6668 11.5608L53.6675 10.7171C54.5916 10.6242 55.0857 9.75998 55.1043 8.9205C55.1229 8.08996 54.677 7.28488 53.7253 7.27318L53.7749 7.04955H52.6085L52.5273 7.353H52.1193C52.1653 7.28179 52.1964 7.20197 52.2105 7.11839C52.2247 7.0348 52.2217 6.9492 52.2018 6.86681C52.1818 6.78441 52.1453 6.70693 52.0945 6.6391C52.0436 6.57126 51.9795 6.51449 51.906 6.47223V6.21901H52.2803V5.59972H51.906V5.22607H51.2846V5.59972H50.9103V6.21901H51.2846V6.47223C51.2111 6.51443 51.1469 6.57116 51.096 6.63897C51.045 6.70678 51.0085 6.78424 50.9884 6.86665C50.9684 6.94905 50.9654 7.03466 50.9795 7.11828C50.9936 7.20189 51.0246 7.28175 51.0706 7.353H50.6633L50.5821 7.04955H49.4157L49.4653 7.27318C48.5233 7.28488 48.0767 8.07413 48.0863 8.89504C48.0953 9.74209 48.5893 10.6229 49.5238 10.7164V11.5601L49.519 11.5608H49.5279C49.2499 11.741 49.0387 11.9213 48.9341 12.1952C47.926 12.2124 45.594 13.0402 46.5815 15.0487C46.6399 15.1182 46.6867 15.0948 46.7796 14.9779C47.2723 14.2395 48.696 14.3902 49.3772 14.7102C48.9485 15.0997 48.151 15.0687 47.6212 15.0687C47.9783 17.0112 50.8415 16.1304 51.6135 15.9446C52.0009 16.288 52.25 17.0546 52.3594 17.5266C52.3698 17.5589 52.6278 16.8674 52.6381 16.8997C52.7895 17.2727 52.9079 18.0936 52.9196 18.6179C52.2191 19.0542 50.0261 19.3831 48.588 19.5654C48.9554 20.3829 49.3999 21.3153 49.6449 22.1754C44.405 21.2176 49.1185 17.7083 45.5479 15.9226C43.7754 14.9001 41.9574 15.6212 40.2805 16.1077C39.613 16.3011 38.2582 16.4745 37.8343 16.5963C36.5792 16.8942 35.7067 17.3071 34.9807 18.8209C32.8965 19.6315 30.5686 20.7655 29.7401 23.0018C27.3428 23.9253 24.5436 25.1804 23.0545 27.4043C17.1258 31.4435 10.0184 33.0984 2.93992 33.2958C1.91258 33.3241 1.24375 33.3812 0.960938 34.5C0.960938 36.4776 3.14635 36.8499 4.59756 36.885C4.60238 36.885 4.67876 37.291 4.74413 37.41C5.65242 39.0615 7.98922 39.0635 9.31244 38.939C10.7623 41.0287 13.728 40.7507 15.5955 40.1404C16.7715 41.5613 20.3696 41.8682 22.3148 41.443C24.9351 42.2639 26.1999 41.9556 27.0276 41.7726C26.8756 43.0008 25.3218 43.9153 24.3131 43.8417V52.6584C25.9666 52.7045 26.9224 53.6719 27.0269 55.2092H95.8283C95.9328 53.6719 96.8886 52.7045 98.5415 52.6584V43.8417C97.5334 43.9153 95.9796 43.0008 95.8269 41.7726C96.6547 41.9556 97.9208 42.2639 100.54 41.443C102.486 41.8682 106.083 41.562 107.26 40.1404C109.127 40.7507 112.093 41.0287 113.543 38.939C114.867 39.0642 117.203 39.0621 118.112 37.41C118.178 37.291 118.254 36.885 118.258 36.885C119.71 36.8499 121.895 36.4776 121.895 34.5C121.611 33.3812 120.942 33.3241 119.915 33.2958ZM28.1066 41.2434C31.9042 40.214 34.8713 38.0176 37.6127 36.0001C38.3572 36.64 39.2332 36.5733 40.0871 35.8749C40.3713 36.6393 40.7945 37.5407 42.0682 37.1616C42.287 37.6027 43.0577 38.7601 44.3293 38.5103C45.3697 39.5596 45.9002 39.2603 46.3716 39.1082C46.7562 39.4537 47.4932 39.7365 48.3045 39.3271C48.8137 39.8886 49.3848 39.8858 50.0805 39.647C50.2607 39.914 50.8105 39.9938 51.0521 39.8218C51.9062 40.3296 52.7776 40.8076 53.6648 41.2551L28.1066 41.2434ZM69.423 41.2551C70.3102 40.8076 71.1816 40.3296 72.0357 39.8218C72.2766 39.9938 72.8257 39.914 73.006 39.647C73.7023 39.8858 74.2735 39.8892 74.7826 39.3271C75.5932 39.7365 76.3295 39.4537 76.7155 39.1082C77.1862 39.2603 77.7167 39.5596 78.7571 38.5103C80.0287 38.7601 80.8001 37.6027 81.0189 37.1616C82.2919 37.5407 82.7151 36.6393 83 35.8749C83.8532 36.5733 84.7299 36.6393 85.4744 36.0001C88.2158 38.0183 91.1836 40.214 94.9798 41.2434L69.423 41.2551Z" fill="black"/>
<path fill-rule="evenodd" clip-rule="evenodd" d="M97.7536 44.4927V52.0281C96.5832 52.1217 95.3047 53.2151 95.1918 54.4014H27.6016C27.4873 53.2144 26.2095 52.1217 25.0391 52.0281V44.4927C26.2604 44.2016 27.4261 43.1633 27.7 41.9041H55.0197C56.3574 42.5763 59.4084 43.6635 61.4789 44.2058C63.6691 43.6127 65.8077 42.8429 67.8735 41.9041H95.0927C95.3673 43.1633 96.5322 44.2016 97.7536 44.4927Z" fill="white"/>
<path fill-rule="evenodd" clip-rule="evenodd" d="M71.853 34.3481L71.8462 24.0362C71.8448 22.7756 72.2157 21.5536 72.8006 20.4203C69.9731 20.081 67.4492 18.7578 65.2755 16.9495H57.6905C55.5196 18.7578 52.9949 20.081 50.1661 20.4203C50.7517 21.5529 51.1219 22.7756 51.1212 24.0362L51.1143 34.3481C51.1129 36.0319 50.8535 36.3677 49.8984 37.7763L49.9335 37.8114C53.3968 40.4929 57.2838 41.8753 61.4833 42.7265C65.5369 42.0102 69.764 40.3436 73.0324 37.8114L73.0675 37.7763C72.1131 36.367 71.8537 36.0319 71.853 34.3481ZM61.482 41.6083C57.7793 40.7612 54.6223 39.619 51.4019 37.5671C52.1609 36.6753 52.2263 35.3707 52.2167 34.3296L52.2208 24.136C52.2208 23.1328 51.9552 22.0579 51.6221 21.1194C53.4036 21.0217 56.9818 19.053 57.9472 18.0435H65.0202C65.9863 19.0523 69.5644 21.0217 71.3445 21.1194C71.0115 22.0579 70.7466 23.1328 70.7466 24.136L70.7507 34.3296C70.7397 35.3707 70.8071 36.6753 71.5654 37.5671C68.4029 39.5818 65.0897 40.7991 61.482 41.6083Z" fill="white"/>
<path fill-rule="evenodd" clip-rule="evenodd" d="M94.4008 43.0408H63.8862C62.5058 43.4564 61.3842 43.7247 61.3842 43.7247C61.3842 43.7247 60.3947 43.4812 58.8706 43.0408H28.3849C28.1991 43.7929 27.0252 45.0342 26.2188 45.1835V51.2051C27.1979 51.415 28.1193 52.2957 28.3849 53.255H94.4001C94.665 52.2957 95.587 51.415 96.5648 51.2051V45.1835C95.7591 45.0342 94.6361 43.9326 94.4008 43.0408ZM94.1895 43.5878H63.5222C62.3448 43.9587 61.4682 44.2092 61.4682 44.2092C61.4682 44.2092 60.3142 43.9422 59.0309 43.5472L28.6292 43.5878C28.4709 44.2594 27.4697 45.3672 26.7816 45.5V50.8734C27.6163 51.0606 28.4014 51.8471 28.6292 52.7024H94.1895C94.4152 51.8471 95.2017 51.0606 96.0364 50.8734V45.5C95.3483 45.3672 94.3897 44.3833 94.1895 43.5878Z" fill="black"/>
<path fill-rule="evenodd" clip-rule="evenodd" d="M73.4401 36.5313C74.069 34.575 73.9211 32.638 73.8826 30.5517C73.3224 30.8297 73.4566 30.8043 72.8759 30.637L72.8518 34.3748C72.8435 35.6561 73.0747 35.8907 73.4401 36.5313ZM77.5433 29.2581C76.8042 28.8143 76.2331 28.1014 75.6668 27.4663C75.2945 27.7814 75.1383 27.8103 74.6546 27.8956C74.8025 28.0973 76.476 30.5194 77.5433 29.2581ZM76.1038 29.9716L75.8457 30.1278C76.229 31.7931 77.3767 33.13 78.3243 32.8204C77.8206 32.1447 77.3258 30.8827 77.0217 30.0535C76.7224 30.4072 76.3226 30.09 76.1038 29.9716ZM81.7483 24.9815C81.7441 25.4274 81.5453 25.5052 81.173 25.6517C81.482 26.0226 84.0252 28.3071 84.842 27.0568C83.7603 26.3804 82.7508 25.7735 81.7483 24.9815ZM86.9778 26.2951C86.5602 25.9517 84.2722 24.8749 83.1919 24.1916C83.013 24.6272 82.9084 24.6567 82.4928 24.8907C83.9096 25.8045 85.8246 27.575 86.9778 26.2951ZM82.9593 27.5454C82.1997 27.3341 80.9514 26.2607 80.5042 25.7109C80.37 25.9476 80.0954 26.4341 79.6454 26.3894C80.509 27.2502 82.2389 28.8012 82.9593 27.5454ZM79.0213 26.5084C78.8589 26.8841 78.0738 27.0507 78.0697 27.0548C78.3449 27.3286 80.4966 29.7164 81.2466 28.4303C80.5324 27.8743 79.6826 27.1986 79.0213 26.5084ZM77.4111 27.0947C77.2983 27.5963 76.7354 27.6204 76.454 27.6328C76.7279 28.0388 79.0598 30.3377 79.6619 29.1418C78.8266 28.5025 78.0621 27.8199 77.4111 27.0947ZM73.7952 27.8241C73.6403 28.1489 72.8944 28.1784 72.8717 28.1385C73.041 28.5466 74.5246 30.7065 75.5285 29.607C75.3523 29.5196 73.811 27.7904 73.7952 27.8241ZM73.3396 27.4539L72.8759 26.8339L72.8772 27.6287C73.0224 27.6273 73.2213 27.577 73.3396 27.4539ZM75.0324 27.2392C75.0214 27.2158 74.7812 26.7389 74.2115 26.2807C73.9349 26.741 73.6782 26.6564 73.3059 26.6089C73.8674 27.436 74.3677 27.6163 75.0324 27.2392ZM76.8187 26.9708C76.7822 26.6811 76.0556 26.2538 75.7143 25.8341C75.6971 26.2366 75.3406 26.2538 74.9092 26.2807C75.1872 26.5614 76.0109 27.6176 76.8187 26.9708ZM78.2417 26.3694C78.0373 25.9634 77.4972 25.6868 77.1813 25.3669C77.1249 25.8203 76.8228 25.8403 76.3267 25.8829C76.699 26.1926 77.7249 27.0699 78.2417 26.3694ZM79.6626 25.6008C79.3103 25.499 78.6518 24.9072 78.402 24.7166C78.3938 24.7104 78.3697 24.9581 78.1873 25.0841C78.0153 25.2024 77.6616 25.1893 77.557 25.1866C77.813 25.3586 78.9312 26.7169 79.6626 25.6008ZM81.1303 24.9485C81.1303 24.4716 80.3721 24.1352 80.0982 23.928C79.995 24.4944 79.5202 24.5535 78.9855 24.5198C79.3963 24.9327 80.7739 25.66 81.1303 24.9485ZM82.6676 23.8881C82.2445 23.5684 81.8325 23.2343 81.4324 22.8863C81.1517 23.467 80.5007 23.2014 80.3032 23.4801C80.5929 23.65 82.1597 25.1928 82.6676 23.8881ZM87.0824 25.3091C87.1347 25.1735 87.2125 25.1274 87.315 25.0228C87.401 24.9182 87.6013 24.7765 87.6432 24.7173C86.7129 24.5425 84.6624 22.9441 84.0534 22.3633C83.7107 22.6007 83.2029 22.7996 82.0331 22.4803C83.5697 23.6549 85.2803 24.859 87.0824 25.3091ZM90.2732 24.3079C90.483 23.5627 89.2534 23.6803 87.4485 22.2876C86.7053 21.669 85.892 20.9086 84.8544 21.4873C84.6796 21.6036 84.6906 21.8988 84.6906 22.1321C85.9526 23.4244 88.405 25.113 90.2732 24.3079ZM88.535 25.0689C90.7259 27.0947 93.5774 29.3744 96.7482 29.3744C97.1095 29.1996 96.9925 28.8968 96.9347 28.6058C94.6529 27.8103 92.2281 26.3529 90.3571 24.848C88.9589 25.0964 88.535 25.0435 88.535 25.0689Z" fill="white"/>
<path fill-rule="evenodd" clip-rule="evenodd" d="M87.9675 25.2415L87.4906 25.6722L87.4439 25.7073C87.4562 25.719 87.4679 25.7417 87.4906 25.7534C87.6881 25.9867 87.7349 26.266 87.7349 26.6507C89.6004 28.2395 91.333 29.527 93.921 30.0258C94.0661 30.0121 94.2987 29.7933 94.3256 29.6006C91.6316 28.4907 89.7001 27.089 87.9675 25.2415ZM93.4833 30.4917C92.7753 30.5096 92.3597 30.1745 91.7362 29.8917C92.4993 32.3186 94.5045 33.6473 93.4833 30.4917ZM90.8087 29.5056C89.8866 29.1217 88.6756 28.2526 88.6329 28.1803C89.1999 29.3377 91.1796 33.6852 92.4808 32.3028C91.8071 31.5493 91.2876 30.383 90.8087 29.5056ZM87.3358 27.0092C86.9904 27.3711 86.6704 27.2954 86.1798 27.3409C86.8665 28.6448 88.2537 32.4789 90.2238 31.9794C90.0655 32.042 87.6489 27.7448 87.3358 27.0092ZM85.5619 27.3388C85.2034 27.6003 84.8064 28.0001 84.3281 27.9402C84.9736 28.9028 86.7537 33.1767 88.4175 32.0172C88.4299 32.0055 86.7688 30.6087 85.5619 27.3388Z" fill="white"/>
<path fill-rule="evenodd" clip-rule="evenodd" d="M83.6187 27.9434C83.459 28.2785 83.1817 28.4147 82.7812 28.4787C83.746 31.1465 87.4679 35.9942 90.0414 36.2618C90.2038 36.2618 90.852 36.1806 90.6875 36.0293C89.1923 35.0391 85.4759 31.7733 83.6187 27.9434Z" fill="white"/>
<path fill-rule="evenodd" clip-rule="evenodd" d="M82.1517 28.5318L81.8682 28.4795C81.7003 28.8201 81.5696 29.1201 81.1719 29.2502C83.3573 34.4756 86.4104 36.3128 87.135 35.3254C84.8491 33.5288 83.1515 31.2766 82.1517 28.5318Z" fill="white"/>
<path fill-rule="evenodd" clip-rule="evenodd" d="M80.5481 29.3094C80.4257 29.3094 80.3197 29.2598 80.1945 29.2234C80.158 29.2123 80.1043 29.6458 79.6096 29.8585C79.9963 31.0145 83.1051 37.0567 84.835 35.5697C82.9957 33.9582 81.3223 31.6324 80.5481 29.3094ZM81.5424 34.3999C81.4337 34.9587 81.2239 35.7755 81.1433 36.4195C81.9016 36.5276 82.2264 35.9544 82.3558 35.3089L81.5424 34.3999ZM81.0725 33.8536C80.2674 32.7258 79.4141 31.3585 79.0281 30.0181C78.6586 30.1131 78.0682 29.9176 77.7434 29.7484C78.1329 31.5416 79.2538 34.2554 81.0725 33.8536ZM79.7754 34.2355C79.5469 35.4507 79.3921 36.6184 78.9449 37.7324C80.6541 37.7579 80.5722 35.6702 80.9108 34.4364C80.692 34.4839 80.2165 34.5052 79.7754 34.2355ZM79.2228 33.983C79.2352 33.93 78.9648 33.791 78.779 33.5921C78.627 33.4297 78.5932 33.2942 78.5815 33.3038C78.4687 33.3994 78.0049 33.3478 77.8962 33.3582C78.0882 33.8006 77.3505 38.2994 76.9638 38.5891C78.5526 39.3839 78.8733 35.622 79.2228 33.983ZM77.4393 33.3513C76.9231 33.0893 76.4591 32.7353 76.07 32.3067C76.0362 34.3669 76.0218 36.9253 75.1094 38.7804C76.992 40.0692 77.3292 34.3456 77.4393 33.3513Z" fill="white"/>
<path fill-rule="evenodd" clip-rule="evenodd" d="M75.3578 30.2591C75.2408 30.4016 74.5176 30.63 74.3779 30.4938C74.4839 32.6214 74.5995 35.1041 73.941 37.1402C74.2018 37.3349 74.4694 37.5117 74.7571 37.6645C74.3043 38.0863 73.8446 38.4957 73.3471 38.8639C73.2907 38.9203 73.2825 38.943 73.2425 39.0269C75.8147 39.8912 75.7988 31.5438 75.3578 30.2591ZM73.7882 30.116C73.5075 29.8036 73.0196 29.1313 72.8785 28.8313L72.8799 29.9626C73.0045 30.213 73.2893 30.2048 73.7882 30.116ZM83.6336 17.2251C82.15 16.8184 80.7511 16.2095 79.1781 16.301C78.1928 16.3774 76.7457 17.1824 76.6769 18.344C76.9149 21.3255 76.6459 22.4409 73.0224 23.0623C72.8359 24.0642 72.8689 25.0096 72.8703 26.0266C73.0265 26.0796 73.2302 26.1353 73.4627 26.0727C73.9933 25.9296 73.3327 25.4796 73.1386 24.808C73.2783 24.7502 73.4331 24.6566 73.5488 24.7564C73.632 24.788 73.8488 25.1534 74.1901 25.5622C74.5073 25.9441 75.4452 25.8002 75.0639 25.3743C74.8004 25.0805 74.3167 24.5272 74.3476 24.3607C74.6112 24.1144 74.8493 24.2321 75.0234 24.4653C75.3433 24.8658 75.9867 25.6654 76.597 25.2594C76.9266 25.1128 75.9385 24.0339 75.8312 23.8784C75.7803 23.8047 76.0287 23.5687 76.0975 23.6293C76.6473 24.1116 77.175 24.9897 77.9306 24.541C78.1508 24.1811 77.8941 23.8619 77.0622 23.1799C77.0746 23.1682 77.4503 22.8751 77.4613 22.8641C77.7916 23.1201 78.9572 24.3814 79.5015 23.8096C80.0376 23.2474 78.2003 22.5572 78.0111 22.2159C78.0462 22.1691 78.296 21.9035 78.3551 21.8691C78.5554 21.9895 80.5337 23.482 81.1261 22.1719C80.9981 22.1017 80.4057 21.8836 79.2972 21.17C79.121 21.0571 79.3212 20.7853 79.4492 20.6691C83.2916 22.9756 84.2192 21.7232 84.0148 21.3565C83.273 21.1728 82.3455 21.0454 80.0665 19.9355C80.0087 19.703 80.1483 19.4814 80.2061 19.3066C80.5433 19.4869 86.0805 22.0742 85.9607 19.994C84.2219 19.7167 82.5484 19.361 81.0215 18.3281C80.8468 18.154 81.0683 17.7577 81.2431 17.6992C82.801 18.6343 84.9836 19.5908 86.8326 18.9922C86.5181 17.5705 84.8164 17.5492 83.6336 17.2251ZM88.0553 19.7312C87.5179 19.5007 87.125 19.811 86.6103 19.811C86.7851 20.0443 86.6103 20.4674 86.4947 20.7C88.9622 22.551 88.8976 22.5173 90.2696 23.1084C90.858 23.3657 91.5179 23.215 91.9589 23.0396C91.4518 20.9966 89.7432 20.5748 88.0553 19.7312ZM98.8771 27.7737C97.3784 25.6943 95.1999 24.7227 92.9285 23.7339C92.3518 23.9706 91.5695 24.0112 90.9743 23.9747C91.0458 24.166 90.9956 24.4123 90.8476 24.5851C91.1656 24.808 99.4668 30.2564 98.8771 27.7737Z" fill="white"/>
<path fill-rule="evenodd" clip-rule="evenodd" d="M118.702 36.0447C120.274 36.1782 121.236 34.9568 120.766 34.5398C120.565 34.0712 119.822 34.0609 119.537 34.0478C111.736 33.6873 104.526 31.6532 99.5198 28.3008C99.1365 29.4451 98.2592 29.0811 97.5739 28.7845C97.7018 29.0873 97.5862 29.3254 97.375 29.7031C102.809 33.5613 111.441 36.0378 118.702 36.0447Z" fill="white"/>
<path fill-rule="evenodd" clip-rule="evenodd" d="M117.144 36.788C109.321 36.5513 103.193 34.2751 96.634 30.0852C96.3649 29.9572 95.7498 30.0164 94.9874 29.7591C94.9715 29.7542 94.5731 30.3777 94.291 30.4651C94.2724 30.4712 94.3908 31.0554 94.4802 31.2564C98.229 35.1786 116.433 40.8375 117.144 36.788Z" fill="white"/>
<path fill-rule="evenodd" clip-rule="evenodd" d="M112.123 38.7694C105.417 37.9388 99.5842 35.6185 94.2989 32.2468C94.2734 32.5916 94.175 33.7201 92.796 32.6163C92.5256 33.1297 92.0109 32.9934 91.9531 32.981C92.9977 34.8664 110.325 42.558 112.123 38.7694Z" fill="white"/>
<path fill-rule="evenodd" clip-rule="evenodd" d="M105.828 39.9329C100.086 38.5553 95.096 36.5612 90.3921 32.4883C89.629 32.6266 88.9526 32.0796 88.0078 32.7993C90.8173 36.4477 101.848 43.1918 105.828 39.9329Z" fill="white"/>
<path fill-rule="evenodd" clip-rule="evenodd" d="M99.6408 40.8623C95.5177 39.6589 94.156 38.4512 91.2212 36.645C89.8987 37.4741 88.5562 36.5995 87.5901 35.8653C87.5082 35.9245 86.9116 35.9789 86.8538 36.142C90.7684 39.1531 95.3698 41.8057 99.6408 40.8623ZM71.2635 6.68567C71.3515 6.68603 71.4357 6.72118 71.4979 6.78345C71.56 6.84572 71.595 6.93005 71.5952 7.01802C71.5948 7.10617 71.5596 7.1906 71.4972 7.25287C71.4348 7.31514 71.3503 7.35019 71.2621 7.35037H71.2594C71.1712 7.35055 71.0866 7.31571 71.0242 7.25351C70.9617 7.19131 70.9265 7.10685 70.9263 7.0187C70.9261 6.93056 70.961 6.84595 71.0232 6.7835C71.0854 6.72104 71.1698 6.68585 71.258 6.68567H71.2635ZM51.6127 6.68567C51.6971 6.69127 51.7762 6.72882 51.834 6.79067C51.8918 6.85252 51.9238 6.93404 51.9236 7.01866C51.9234 7.10329 51.8911 7.18468 51.833 7.24629C51.775 7.3079 51.6957 7.34511 51.6113 7.35037H51.6092C51.5248 7.34511 51.4455 7.3079 51.3874 7.24629C51.3294 7.18468 51.2971 7.10329 51.2969 7.01866C51.2967 6.93404 51.3287 6.85252 51.3865 6.79067C51.4443 6.72882 51.5234 6.69127 51.6078 6.68567H51.6127ZM60.6523 1.94464V1.50081H61.2151V0.937256H61.659V1.50081H62.2225V1.94464H61.659V2.50819H61.2151V1.94464H60.6523ZM61.4374 3.05317C61.8344 3.05317 62.1585 3.37658 62.1585 3.77361C62.1581 3.96476 62.0821 4.14797 61.9469 4.28313C61.8117 4.41829 61.6285 4.49438 61.4374 4.49475C61.2529 4.48487 61.0792 4.40462 60.9521 4.27053C60.825 4.13644 60.7542 3.95872 60.7542 3.77396C60.7542 3.5892 60.825 3.41148 60.9521 3.27739C61.0792 3.1433 61.2529 3.06305 61.4374 3.05317ZM58.5047 11.0888V10.5879H64.3687V11.0888H58.5047ZM61.0823 9.96722L59.766 5.0645C60.0109 5.0645 60.2545 5.07619 60.4995 5.07619L61.436 8.69286L62.3746 5.07619C62.6189 5.07619 62.8638 5.0645 63.1081 5.0645L61.7918 9.96722H61.0823Z" fill="white"/>
<path fill-rule="evenodd" clip-rule="evenodd" d="M61.4355 6.62629L61.1383 5.08494H61.7328L61.4355 6.62629ZM63.9843 4.43262L62.456 9.96496H63.14L64.7653 4.43262H63.9843ZM65.3082 4.93356C64.8093 6.61734 64.3111 8.2908 63.8205 9.97666C65.8958 9.94569 67.1282 8.48761 67.175 7.13204C67.208 6.15631 66.6293 5.23288 65.3082 4.93356ZM58.8868 4.43262L60.4137 9.96496H59.7311L58.1051 4.43262H58.8868ZM57.5622 4.93356C58.0611 6.61734 58.56 8.2908 59.0519 9.97666C56.9759 9.94569 55.7435 8.48761 55.6968 7.13136C55.6624 6.15563 56.2417 5.23288 57.5622 4.93356ZM71.3621 5.56248V5.81708H71.616V6.02007H71.3621V6.27467H71.155V6.02007H70.9011V5.81708H71.155V5.56248H71.3621ZM71.4027 7.75959L71.2589 8.54403L71.1151 7.75959H71.4027Z" fill="white"/>
<path fill-rule="evenodd" clip-rule="evenodd" d="M71.2495 9.65553C71.3891 9.0211 71.5598 8.39424 71.7077 7.76188H72.0814L71.4538 10.334H71.0451L70.4175 7.76188H70.7912C70.9391 8.39424 71.1139 9.02042 71.2495 9.65553ZM72.7481 10.74V11.1439H69.7515L69.7473 10.74C69.7473 10.74 71.7497 10.7386 72.7481 10.74ZM69.951 10.3264L69.2416 7.70408C68.5308 7.70408 68.197 8.28001 68.2122 8.89587C68.2335 9.68718 68.8315 10.5439 69.951 10.3264ZM69.9462 7.43572H69.5684L70.3425 10.3333H70.6646L69.9462 7.43572ZM72.5479 10.3264L73.2587 7.70408C73.9681 7.70408 74.3033 8.28001 74.2867 8.89587C74.2654 9.68718 73.6675 10.5439 72.5479 10.3264ZM72.5548 7.43572H72.9319L72.1578 10.3333H71.8357L72.5548 7.43572ZM51.7018 5.56201V5.81661H51.9564V6.0196H51.7018V6.2742H51.4961V6.0196H51.2422V5.81661H51.4961V5.56201H51.7018ZM51.7424 7.75912L51.5986 8.54356L51.4548 7.75912H51.7424Z" fill="white"/>
<path fill-rule="evenodd" clip-rule="evenodd" d="M51.6084 9.65488C51.7487 9.02045 51.9187 8.39358 52.0673 7.76122H52.4403L51.8127 10.3333H51.404L50.7764 7.76122H51.1501C51.298 8.39358 51.4728 9.01976 51.6084 9.65488ZM53.107 10.7393L53.1084 11.1432H50.1097L50.1104 10.7393H53.107ZM50.3106 10.3258L49.5998 7.70342C48.8766 7.70342 48.5442 8.3 48.5731 8.92755C48.6089 9.70992 49.2069 10.5405 50.3106 10.3258ZM50.3037 7.43506H49.9273L50.7008 10.3327H51.0228L50.3037 7.43506ZM52.9061 10.3258L53.6176 7.70342C54.3284 7.70342 54.6615 8.27936 54.645 8.89521C54.625 9.68653 54.0263 10.5432 52.9061 10.3258ZM52.913 7.43506H53.2901L52.5167 10.3327H52.1939L52.913 7.43506ZM53.2935 18.1908L53.5068 18.3435L53.2557 18.4626L53.2935 18.1908ZM57.8687 15.8657H57.0423C56.9284 16.0034 56.8079 16.1355 56.681 16.2613C56.5758 16.1451 56.5173 15.9586 56.529 15.7136C56.9955 15.4342 57.4538 15.5657 57.8687 15.8657ZM56.9315 15.1329C56.3129 15.6482 55.0186 14.8721 54.8727 14.5246C55.3337 14.5576 55.4376 14.3608 55.6448 14.3236C56.0693 14.2493 56.7705 14.7874 56.9315 15.1329ZM55.0502 17.2398L55.2945 17.3093C55.2498 17.3093 55.0908 17.4353 55.0386 17.4607C55.066 17.3902 55.0701 17.3128 55.0502 17.2398ZM54.6408 16.4079C55.4218 16.5476 55.6991 16.1189 55.5794 15.6366C55.8278 15.7817 55.9868 15.9572 56.3542 16.5531L55.8189 16.9488C55.5477 16.9102 54.9271 16.6742 54.6408 16.4079ZM52.9949 16.7864C53.2853 16.699 53.6231 16.465 53.6197 16.0639C54.3676 16.3825 54.6346 17.5323 54.1777 18.0545C53.6761 18.3422 53.0554 17.2708 52.9949 16.7864ZM52.2572 14.5507C52.7334 14.4434 52.8924 13.939 52.9598 13.6892C53.2873 13.8957 53.8371 14.4778 53.6273 14.8982C53.1876 15.1315 52.6171 14.7916 52.2572 14.5507ZM53.4036 15.3358C53.9259 15.3358 54.1853 14.9884 54.0449 14.4812C54.8734 14.7744 55.203 15.4714 55.1025 15.8781C54.7915 16.2785 53.6389 15.8058 53.4036 15.3358ZM55.5051 13.9438C54.914 14.3704 54.1378 14.3305 53.1745 13.2915C54.0387 13.1346 54.8762 13.3637 55.5051 13.9438ZM55.353 12.057C54.9312 12.6839 54.3298 12.9557 53.5591 12.8601C52.496 12.7073 51.1576 12.6 50.1503 12.7988L50.0216 12.4947C50.4406 11.1384 54.1612 12.4162 55.353 12.057ZM48.7376 15.3875C49.2895 15.3875 50.0422 15.2058 50.3216 14.8645C50.3044 14.6381 49.8193 14.2576 49.6225 14.1592C48.7651 13.917 47.83 13.7209 47.0414 14.2934C46.7703 13.1126 48.5862 12.8036 49.6349 12.8036C49.9817 13.8447 50.9498 14.4984 51.5801 15.3544C51.4391 15.3813 49.1993 15.9565 48.7376 15.3875ZM51.6957 14.4799C51.031 14.0078 50.8418 13.8365 50.3533 13.1752C50.4351 13.1635 50.5308 13.1635 50.612 13.1518C50.817 13.4381 51.0104 13.5839 51.276 13.7229L51.7769 13.1291C52.004 13.1456 52.2393 13.1387 52.4644 13.1759C52.4423 14.0092 52.218 14.1055 51.6957 14.4799ZM51.9655 15.3489C52.2662 15.2464 52.2799 15.2932 52.3687 14.989L52.8139 15.3531C52.9997 15.5388 53.2846 16.0694 53.0506 16.4809C52.3708 16.4416 52.1403 15.876 51.9655 15.3489ZM49.4278 36.5734C48.7988 34.6172 48.9475 32.6519 48.9853 30.5649C49.5468 30.7562 49.4126 30.6654 49.9934 30.5856L49.9879 34.3832C49.9865 35.4856 49.8633 35.6204 49.4278 36.5734ZM45.3253 29.2713C46.0643 28.8275 46.6348 28.1146 47.2011 27.4795C47.574 27.7939 47.7295 27.8228 48.2139 27.9082C48.066 28.1105 46.3919 30.5326 45.3253 29.2713ZM46.7641 29.9849L47.0215 30.1411C46.6382 31.8063 45.4911 33.1439 44.5429 32.8336C45.0466 32.1579 45.5414 30.8959 45.8455 30.0667C46.1455 30.4204 46.546 30.1032 46.7641 29.9849ZM41.1203 24.9947C41.1244 25.4406 41.3226 25.5177 41.6955 25.6643C41.3866 26.0352 38.8427 28.3197 38.0266 27.0694C39.1069 26.3937 40.117 25.7861 41.1203 24.9947ZM35.8907 26.3083C36.3091 25.9643 38.5956 24.8881 39.676 24.2048C39.8542 24.6404 39.9602 24.67 40.3751 24.9032C38.959 25.8184 37.044 27.5889 35.8907 26.3083ZM39.9092 27.5593C40.6689 27.3481 41.9164 26.2746 42.3637 25.7248C42.4986 25.9615 42.7731 26.448 43.2225 26.4033C42.3589 27.2634 40.629 28.8144 39.9092 27.5593ZM43.8466 26.5216C44.0096 26.8973 44.7934 27.0646 44.7975 27.068C44.5237 27.3419 42.3713 29.7296 41.6212 28.4442C42.3355 27.8882 43.186 27.2118 43.8466 26.5216ZM45.4574 27.1079C45.5703 27.6095 46.1331 27.6336 46.4146 27.646C46.1407 28.052 43.808 30.3509 43.2059 29.1543C44.0406 28.5158 44.8065 27.8332 45.4574 27.1079ZM49.0727 27.838C49.2275 28.1628 49.9741 28.1924 49.9961 28.1518C49.8262 28.5598 48.3433 30.7198 47.3394 29.6209C47.5162 29.5335 49.0569 27.8043 49.0727 27.838ZM49.5282 27.4671L49.9927 26.8471L49.992 27.6426C49.8461 27.6412 49.6466 27.5903 49.5282 27.4671ZM47.8348 27.2524C47.8472 27.2283 48.0873 26.7522 48.6571 26.2939C48.9337 26.7535 49.1904 26.6696 49.5626 26.6221C49.0011 27.4485 48.5002 27.6295 47.8348 27.2524ZM46.0485 26.9847C46.085 26.695 46.8123 26.2677 47.1529 25.8473C47.1715 26.2505 47.5272 26.267 47.958 26.2939C47.6814 26.5746 46.857 27.6309 46.0485 26.9847ZM44.6262 26.3833C44.8299 25.9774 45.3714 25.7007 45.6865 25.3815C45.7423 25.8349 46.0457 25.8549 46.5419 25.8968C46.1689 26.2065 45.1429 27.0838 44.6262 26.3833ZM43.2052 25.614C43.5582 25.5122 44.2168 24.9204 44.4665 24.7298C44.4741 24.7236 44.4975 24.9713 44.6812 25.098C44.8533 25.2163 45.2063 25.2032 45.3122 25.2005C45.0549 25.3718 43.9367 26.7308 43.2052 25.614ZM41.7382 24.9624C41.7382 24.4855 42.4965 24.1491 42.7704 23.9419C42.8729 24.5083 43.3477 24.5681 43.883 24.5337C43.4709 24.9466 42.0933 25.6732 41.7382 24.9624ZM40.2003 23.902C40.6231 23.5823 41.0348 23.2481 41.4348 22.9002C41.7155 23.4809 42.3671 23.216 42.5646 23.494C42.2749 23.6633 40.7081 25.2067 40.2003 23.902ZM35.7861 25.323C35.7325 25.1874 35.6554 25.1413 35.5535 25.0367C35.4668 24.9321 35.2666 24.7904 35.2253 24.7305C36.1549 24.5557 38.2055 22.958 38.8138 22.3765C39.1571 22.6132 39.665 22.8121 40.8354 22.4935C39.2989 23.6681 37.5883 24.8723 35.7861 25.323ZM32.5954 24.3211C32.3855 23.5759 33.6159 23.6929 35.4201 22.3008C36.1639 21.6822 36.9759 20.9219 38.0135 21.4999C38.1883 21.6162 38.178 21.9114 38.178 22.1446C36.916 23.4376 34.4629 25.1262 32.5954 24.3211ZM34.3322 25.0821C32.1419 27.1079 29.2897 29.3876 26.119 29.3876C25.7577 29.2135 25.874 28.91 25.9325 28.6197C28.2136 27.8242 30.6384 26.3668 32.5094 24.8613C33.909 25.1097 34.3322 25.0567 34.3322 25.0821Z" fill="white"/>
<path fill-rule="evenodd" clip-rule="evenodd" d="M34.9043 25.27L35.3818 25.7008L35.4279 25.7359C35.4169 25.7476 35.4045 25.7703 35.3818 25.7827C35.1836 26.0152 35.1375 26.2953 35.1375 26.6793C33.2714 28.2681 31.5394 29.5555 28.9515 30.0551C28.8056 30.0413 28.5737 29.8218 28.5469 29.6291C31.2408 28.5199 33.1723 27.1176 34.9043 25.27ZM29.3891 30.5202C30.0979 30.5381 30.5128 30.2037 31.1362 29.9202C30.3724 32.3478 28.368 33.6766 29.3891 30.5202ZM32.0624 29.5342C32.9844 29.1502 34.1955 28.2818 34.2395 28.2089C33.6719 29.367 31.6922 33.7137 30.3917 32.332C31.0653 31.5785 31.5842 30.4115 32.0624 29.5342ZM35.5352 27.0378C35.8814 27.3997 36.2013 27.3247 36.6913 27.3694C36.0038 28.6741 34.6173 32.5075 32.6473 32.0079C32.8062 32.0705 35.2222 27.7733 35.5352 27.0378ZM37.3099 27.3674C37.669 27.6288 38.0661 28.0286 38.5436 27.9688C37.8989 28.9314 36.1181 33.2045 34.4542 32.0465C34.4418 32.0348 36.1029 30.6372 37.3099 27.3674Z" fill="white"/>
<path fill-rule="evenodd" clip-rule="evenodd" d="M39.2599 27.9722C39.4189 28.3073 39.6962 28.4435 40.096 28.5075C39.1313 31.1753 35.4107 36.023 32.8365 36.2906C32.6741 36.2906 32.0266 36.2094 32.1904 36.0581C33.6856 35.0679 37.4028 31.8028 39.2599 27.9722Z" fill="white"/>
<path fill-rule="evenodd" clip-rule="evenodd" d="M40.7006 28.5533L40.9855 28.501C41.1527 28.8416 41.2834 29.1416 41.6818 29.2717C39.4957 34.4971 36.4433 36.335 35.7188 35.3469C38.0039 33.5517 39.7015 31.2981 40.7006 28.5533Z" fill="white"/>
<path fill-rule="evenodd" clip-rule="evenodd" d="M42.311 29.3306C42.4335 29.3306 42.5395 29.2817 42.6654 29.2446C42.7018 29.2342 42.7541 29.6671 43.2503 29.8797C42.8629 31.035 39.7533 37.0779 38.0234 35.5909C39.8641 33.9801 41.5362 31.6536 42.311 29.3306ZM41.316 34.4212C41.4254 34.9799 41.6353 35.7967 41.7158 36.4414C40.9582 36.5488 40.6334 35.9756 40.5034 35.3301L41.316 34.4212ZM41.7874 33.8748C42.5918 32.747 43.4457 31.3797 43.831 30.0393C44.2012 30.1343 44.7902 29.9389 45.1157 29.7696C44.7256 31.5628 43.6053 34.2767 41.7874 33.8748ZM43.0844 34.2567C43.3122 35.4719 43.467 36.6396 43.915 37.7536C42.205 37.7791 42.2869 35.6914 41.9484 34.4576C42.3389 34.5322 42.7432 34.4607 43.0844 34.2567ZM43.6363 34.0049C43.6246 33.9519 43.8943 33.8122 44.0801 33.6133C44.2315 33.4509 44.2666 33.3154 44.2776 33.325C44.3911 33.4207 44.8549 33.369 44.9643 33.3794C44.771 33.8218 45.5093 38.3206 45.8967 38.6103C44.3065 39.4044 43.9858 35.6439 43.6363 34.0049ZM45.4199 33.3725C45.9362 33.1105 46.4005 32.7565 46.7899 32.328C46.8229 34.3881 46.838 36.9465 47.7511 38.8016C45.8664 40.0904 45.5306 34.3668 45.4199 33.3725Z" fill="white"/>
<path fill-rule="evenodd" clip-rule="evenodd" d="M47.5103 30.2742C47.6266 30.4167 48.3511 30.6451 48.4908 30.5089C48.3842 32.6365 48.2692 35.1192 48.9271 37.1553C48.6694 37.3511 48.3968 37.5264 48.1117 37.6796C48.5637 38.1014 49.0234 38.5108 49.5209 38.8796C49.578 38.9354 49.5863 38.9581 49.6255 39.042C47.0534 39.9056 47.0692 31.5589 47.5103 30.2742ZM49.0798 30.1311C49.3613 29.8187 49.8484 29.1464 49.9895 28.8471L49.9888 29.9784C49.8636 30.2274 49.5794 30.2206 49.0798 30.1311ZM39.2351 17.2395C40.718 16.8328 42.1176 16.2239 43.6892 16.3154C44.6746 16.3925 46.1217 17.1968 46.1905 18.3584C45.9531 21.3399 46.2228 22.4553 49.845 23.0767C50.0322 24.0786 49.9984 25.0247 49.9971 26.041C49.8422 26.0947 49.6379 26.1504 49.4053 26.0871C48.8741 25.944 49.5347 25.494 49.728 24.8231C49.5883 24.7653 49.4342 24.6717 49.3186 24.7708C49.2346 24.8024 49.0186 25.1678 48.678 25.5766C48.3601 25.9585 47.4215 25.8153 47.8041 25.3887C48.0676 25.0949 48.5514 24.5417 48.5204 24.3751C48.2569 24.1288 48.0188 24.2465 47.8447 24.4797C47.5247 24.8802 46.8813 25.6798 46.2717 25.2738C45.9414 25.1272 46.9295 24.0483 47.0368 23.8928C47.0878 23.8191 46.8394 23.5831 46.7706 23.6437C46.2214 24.126 45.693 25.0041 44.9381 24.5554C44.7166 24.1955 44.9739 23.8769 45.8051 23.1944C45.7934 23.1827 45.4184 22.8902 45.406 22.8785C45.0758 23.1345 43.9108 24.3958 43.3665 23.824C42.8312 23.2611 44.6677 22.5709 44.8576 22.2303C44.8225 22.1842 44.5714 21.9179 44.5136 21.8835C44.3126 22.0039 42.3344 23.4971 41.7419 22.1863C41.8699 22.1161 42.4617 21.898 43.5702 21.1844C43.7463 21.0709 43.5468 20.7998 43.4188 20.6835C39.5764 22.9893 38.6489 21.7376 38.8532 21.3709C39.5957 21.1872 40.5219 21.0599 42.8016 19.9499C42.8594 19.7174 42.7197 19.4958 42.6612 19.321C42.324 19.5006 36.7869 22.0879 36.9073 20.0084C38.6447 19.7311 40.3196 19.3761 41.8458 18.3432C42.0206 18.1684 41.799 17.7721 41.6249 17.7136C40.0671 18.6494 37.8844 19.6052 36.0341 19.0066C36.3499 17.5856 38.0523 17.5636 39.2351 17.2395ZM34.8134 19.7456C35.3508 19.5151 35.7423 19.8254 36.2577 19.8254C36.0829 20.0587 36.2577 20.4819 36.374 20.7144C33.9058 22.5654 33.9712 22.5317 32.5984 23.1228C32.0094 23.3808 31.3495 23.2294 30.9091 23.0547C31.4169 21.011 33.1241 20.5899 34.8134 19.7456ZM23.9909 27.7881C25.4903 25.7087 27.6674 24.7371 29.9403 23.7483C30.5169 23.985 31.2979 24.0256 31.8945 23.9891C31.8229 24.1804 31.8718 24.4267 32.0204 24.5988C31.7032 24.8224 23.4012 30.2708 23.9909 27.7881Z" fill="white"/>
<path fill-rule="evenodd" clip-rule="evenodd" d="M4.16023 36.0735C2.58791 36.207 1.62663 34.9856 2.09592 34.5686C2.29753 34.1007 3.04137 34.0897 3.32625 34.0766C11.1259 33.7161 18.3365 31.682 23.3425 28.3296C23.7257 29.4739 24.6038 29.1099 25.2898 28.8133C25.1611 29.1161 25.276 29.3542 25.4873 29.7319C20.054 33.5894 11.4218 36.0659 4.16023 36.0735Z" fill="white"/>
<path fill-rule="evenodd" clip-rule="evenodd" d="M5.71875 36.8024C13.5418 36.5657 19.6707 34.2895 26.229 30.0996C26.4981 29.9716 27.1132 30.0308 27.8757 29.7735C27.8908 29.768 28.2892 30.3921 28.5713 30.4802C28.5892 30.4857 28.4722 31.0699 28.3821 31.2708C24.6326 35.1937 6.42956 40.8519 5.71875 36.8024Z" fill="white"/>
<path fill-rule="evenodd" clip-rule="evenodd" d="M10.7422 38.7979C17.4484 37.9674 23.2808 35.6478 28.5661 32.2754C28.5923 32.6201 28.69 33.7486 30.0696 32.6456C30.3393 33.1589 30.8541 33.022 30.9119 33.0096C29.868 34.8943 12.5402 42.5866 10.7422 38.7979Z" fill="white"/>
<path fill-rule="evenodd" clip-rule="evenodd" d="M17.0469 39.9614C22.787 38.5838 27.7771 36.5897 32.4824 32.5175C33.2448 32.6551 33.9212 32.1087 34.8667 32.8278C32.0571 36.4761 21.0262 43.2209 17.0469 39.9614Z" fill="white"/>
<path fill-rule="evenodd" clip-rule="evenodd" d="M23.2188 40.8855C27.3425 39.682 28.7036 38.4744 31.6384 36.6681C32.9616 37.498 34.3048 36.6227 35.2709 35.8885C35.3521 35.9477 35.9486 36.002 36.0071 36.1651C32.0918 39.1769 27.4898 41.8289 23.2188 40.8855ZM69.5769 18.196L69.3636 18.3488L69.6134 18.4678L69.5769 18.196ZM65.0024 15.8709H65.8288C65.9334 15.9989 66.049 16.1269 66.1887 16.2666C66.2933 16.1503 66.3525 15.9638 66.3408 15.7188C65.8749 15.4395 65.4166 15.5709 65.0024 15.8709ZM65.9389 15.1381C66.5568 15.6535 67.8511 14.8773 67.9963 14.5298C67.5353 14.5628 67.4335 14.366 67.225 14.3289C66.8018 14.2545 66.1006 14.7926 65.9389 15.1381ZM67.8209 17.245L67.5766 17.3145C67.622 17.3145 67.781 17.4405 67.8319 17.4659C67.8046 17.3954 67.8008 17.3179 67.8209 17.245ZM68.2289 16.4131C67.4479 16.5528 67.1713 16.1241 67.291 15.6418C67.0426 15.787 66.8837 15.9624 66.5155 16.5583L67.0516 16.954C67.322 16.9154 67.9427 16.6794 68.2289 16.4131ZM69.8769 16.7916C69.5852 16.7042 69.2466 16.4702 69.2507 16.0691C68.5035 16.3877 68.2358 17.5375 68.6927 18.0598C69.1943 18.3474 69.8136 17.276 69.8769 16.7916ZM70.6118 14.5559C70.1363 14.4486 69.9774 13.9442 69.9099 13.6944C69.5817 13.9009 69.0326 14.483 69.2418 14.9034C69.6836 15.1367 70.2533 14.7968 70.6118 14.5559ZM69.4668 15.3411C68.9438 15.3411 68.6844 14.9936 68.8241 14.4864C67.9963 14.7796 67.6667 15.4766 67.7665 15.8833C68.0789 16.2838 69.2315 15.811 69.4668 15.3411ZM67.3653 13.949C67.9564 14.3757 68.7333 14.3357 69.6959 13.2967C68.831 13.1398 67.9943 13.369 67.3653 13.949ZM67.5167 12.0622C67.9399 12.6891 68.5406 12.9609 69.3106 12.8653C70.3737 12.7125 71.7121 12.6052 72.7188 12.804L72.8488 12.4999C72.4291 11.1436 68.7092 12.4214 67.5167 12.0622ZM74.1328 15.3927C73.5803 15.3927 72.8282 15.211 72.5481 14.8697C72.5653 14.6433 73.0504 14.2628 73.2472 14.1644C74.1046 13.9222 75.0397 13.7261 75.829 14.2986C76.0994 13.1178 74.2849 12.8088 73.2349 12.8088C72.8881 13.8499 71.9206 14.5036 71.2903 15.3596C71.432 15.3865 73.6711 15.9617 74.1328 15.3927ZM71.174 14.4851C71.8394 14.013 72.0286 13.8417 72.5179 13.1804C72.436 13.1687 72.3389 13.1687 72.2584 13.157C72.09 13.402 71.8607 13.5988 71.593 13.7281L71.0928 13.1343C70.8657 13.1508 70.6304 13.1439 70.4061 13.1811C70.4281 14.0144 70.6524 14.1107 71.174 14.4851ZM70.9049 15.3541C70.6036 15.2516 70.5905 15.2984 70.5017 14.9943L70.0558 15.3583C69.8714 15.544 69.5865 16.0746 69.8191 16.4861C70.499 16.4468 70.7288 15.8812 70.9049 15.3541Z" fill="white"/>
<path fill-rule="evenodd" clip-rule="evenodd" d="M91.8657 45.6355H90.6415L90.014 47.7156H89.7092L89.0816 45.6355H87.8589L88.7685 48.2888L87.7818 50.9889H89.0046L89.7085 48.8627H90.0133L90.7172 50.9889H91.9414L90.9533 48.2888L91.8657 45.6355ZM84.6516 50.9924L84.5374 49.7304H83.199L83.0834 50.9924H81.937L82.4572 45.6383H85.2798L85.8001 50.9924H84.6516ZM83.466 46.786L83.2981 48.5826H84.4376L84.2697 46.786H83.466ZM80.0097 49.3857H77.5607V50.9924H76.4143V45.6383H80.0097V49.3857ZM78.8619 46.786H77.5607V48.2386H78.8619V46.786ZM74.3115 46.786H73.0874V50.9924H71.941V46.786H70.7168V45.6383H74.3122L74.3115 46.786ZM68.7578 47.3062H67.6101V46.786H66.5242V49.8446H67.6101V49.3244H68.7578V50.9924H65.3779V45.6383H68.7578V47.3062ZM62.9991 47.3062H61.852V46.786H60.7662V49.8446H61.852V49.3244H62.9991V50.9924H59.6184V45.6383H62.9991V47.3062ZM57.3704 50.9924H53.7758V45.6383H57.3704V50.9924ZM56.2233 46.786H54.9228V49.8446H56.2233V46.786ZM51.8966 46.786H50.0311V50.9924H48.884V45.6383H51.8966V46.786ZM46.5053 47.3062H45.3582V46.786H44.2717V49.8446H45.3582V49.3244H46.5053V50.9924H43.1246V45.6383H46.5053V47.3062ZM40.6261 50.9924H37.0315V45.6383H40.6261V50.9924ZM39.4784 46.786H38.1785V49.8446H39.4784V46.786ZM34.7353 49.3857H32.2877V50.9924H31.1406V45.6383H34.7353V49.3857ZM33.5882 46.786H32.2877V48.2386H33.5882V46.786Z" fill="black"/>
<path fill-rule="evenodd" clip-rule="evenodd" d="M61.4791 41.615C57.7765 40.7673 54.6188 39.6251 51.3984 37.5731C52.1574 36.6814 52.2228 35.3767 52.2138 34.3356L52.2173 24.1421C52.2173 23.1388 51.9524 22.064 51.6186 21.1254C53.4001 21.0277 56.9783 19.0591 57.9437 18.0503H65.0167C65.9814 19.0591 69.5595 21.0284 71.341 21.1254C71.008 22.064 70.7431 23.1388 70.7431 24.1421L70.7472 34.3356C70.7362 35.3767 70.8036 36.6814 71.5619 37.5731C68.4001 39.5886 65.0869 40.8052 61.4791 41.615Z" fill="#86111D"/>
<path fill-rule="evenodd" clip-rule="evenodd" d="M57.1953 21.9817V37.38H59.3986V30.2506H65.5874V21.9817H57.1953ZM65.5874 34.2292V33.1427H62.3458V37.38H65.5874V36.2805H63.4853V34.2292H65.5874ZM61.6047 32.4099H65.5874V30.9903H60.137V37.38H61.6047V32.4099ZM63.4412 28.0219H59.3986V24.1127H63.4412V28.0219Z" fill="white"/>
</svg>
