<svg width="13" height="13" viewBox="0 0 13 13" fill="none" xmlns="http://www.w3.org/2000/svg">
<path d="M3.8144 11.0808C3.2255 11.054 2.90302 10.9557 2.68723 10.8716C2.68723 10.8716 2.68723 10.8716 2.68722 10.8716L3.8144 11.0808ZM3.8144 11.0808C4.44619 11.1099 4.63608 11.1157 6.23439 11.1157C7.83271 11.1157 8.02312 11.1099 8.6551 11.0808H3.8144ZM10.9467 9.70764L10.9467 9.70772C10.8355 9.99346 10.7021 10.1987 10.4878 10.4128C10.2735 10.6269 10.068 10.7604 9.7823 10.8716L10.9467 9.70764ZM10.9467 9.70764C11.0303 9.49198 11.1291 9.16955 11.1559 8.5806L10.9467 9.70764ZM1.31358 8.5806C1.34035 9.16944 1.43867 9.49201 1.52279 9.7077L1.31358 8.58057C1.31358 8.58058 1.31358 8.58059 1.31358 8.5806ZM2.68721 1.44787L2.70537 1.49445L3.8144 1.23865C3.22549 1.26542 2.90291 1.36375 2.68721 1.44787ZM3.76942 0.26197L3.76946 0.261968C4.40671 0.232532 4.60994 0.225781 6.23487 0.225781C7.85978 0.225781 8.06289 0.23301 8.69985 0.26197L8.69988 0.261971C9.33168 0.290288 9.76133 0.39084 10.1366 0.536576C10.5236 0.687018 10.8517 0.887769 11.1789 1.21554C11.5063 1.54336 11.7071 1.87092 11.858 2.25841C12.0037 2.63288 12.1038 3.0627 12.1326 3.69506C12.1616 4.33197 12.1683 4.53507 12.1683 6.15994C12.1683 7.7848 12.1616 7.98742 12.1326 8.62481L12.1326 8.62485C12.1043 9.2571 12.0037 9.68672 11.858 10.0615C11.7071 10.449 11.5068 10.7771 11.179 11.1043C10.8512 11.4316 10.5236 11.6324 10.1361 11.7833C9.76136 11.929 9.33176 12.0291 8.69937 12.0579L8.69933 12.0579C8.06242 12.0873 7.85933 12.0941 6.23439 12.0941C4.60949 12.0941 4.40671 12.0869 3.76942 12.0579C3.13709 12.0291 2.70791 11.929 2.33267 11.7833C1.94496 11.6324 1.61758 11.4314 1.28979 11.1043C0.962065 10.7772 0.761262 10.449 0.610815 10.0615L0.610805 10.0615C0.465079 9.68676 0.364987 9.25718 0.33619 8.62481L0.336188 8.62477C0.306751 7.98788 0.3 7.78481 0.3 6.15994C0.3 4.53506 0.306751 4.33199 0.336188 3.6951L0.33619 3.69506C0.364987 3.06274 0.465079 2.63311 0.610805 2.25839L0.610818 2.25835C0.761259 1.87065 0.96201 1.54285 1.2898 1.21559C1.61766 0.888263 1.94499 0.687001 2.33265 0.536588L2.3327 0.53657C2.70719 0.390856 3.13707 0.290766 3.76942 0.26197ZM6.23439 4.11506C5.10511 4.11506 4.18992 5.03072 4.18992 6.15994C4.18992 7.28915 5.10511 8.20481 6.23439 8.20481C7.36366 8.20481 8.27935 7.28916 8.27935 6.15994C8.27935 5.03071 7.36366 4.11506 6.23439 4.11506ZM6.23439 9.18273C4.56483 9.18273 3.21148 7.82943 3.21148 6.15994C3.21148 4.49045 4.56483 3.13714 6.23439 3.13714C7.90396 3.13714 9.25731 4.49045 9.25731 6.15994C9.25731 7.82943 7.90396 9.18273 6.23439 9.18273ZM8.87328 3.33655C8.79992 3.22666 8.76078 3.09748 8.76083 2.96535L9.42898 2.2975H9.42923C9.42923 2.2975 9.42924 2.2975 9.42925 2.2975C9.56138 2.29755 9.69054 2.33679 9.80037 2.41024C9.91022 2.4837 9.99581 2.58807 10.0463 2.71017C10.0969 2.83227 10.11 2.96661 10.0842 3.0962C10.0584 3.22578 9.99469 3.3448 9.90121 3.4382C9.80773 3.5316 9.68866 3.59518 9.55904 3.62091C9.42943 3.64663 9.29509 3.63335 9.17303 3.58273C9.05097 3.53212 8.94665 3.44644 8.87328 3.33655ZM8.95671 2.49318C9.08198 2.36797 9.25183 2.29758 9.42896 2.2975L8.76083 2.96533C8.76099 2.78821 8.83144 2.6184 8.95671 2.49318ZM11.1559 3.73937C11.1292 3.15048 11.0308 2.82791 10.9467 2.61222L11.1559 8.58057C11.185 7.94811 11.1908 7.75822 11.1908 6.15998C11.1908 4.56173 11.185 4.37185 11.1559 3.73937Z" fill="white" stroke="white" stroke-width="0.1"/>
</svg>
