<svg width="14" height="13" viewBox="0 0 14 13" fill="none" xmlns="http://www.w3.org/2000/svg">
<path fill-rule="evenodd" clip-rule="evenodd" d="M12.993 8.0078V11.1119C12.993 11.6642 12.5453 12.1119 11.993 12.1119H11.3513C10.799 12.1119 10.3513 11.6642 10.3513 11.1119V8.29168C10.3513 7.29205 9.93842 6.61035 9.02986 6.61035C8.33443 6.61035 7.94731 7.07063 7.76822 7.51348C7.70013 7.67378 7.71112 7.89521 7.71112 8.1177V11.1119C7.71112 11.6642 7.2634 12.1119 6.71112 12.1119H6.09879C5.54454 12.1119 5.09596 11.6633 5.09827 11.109C5.10406 9.72074 5.1127 7.2224 5.10703 5.78495C5.10477 5.21095 5.57662 4.73066 6.15062 4.73066H7.56065C7.64375 4.73066 7.71112 4.79803 7.71112 4.88113V4.88113C7.71112 5.05403 8.20975 5.23151 8.35328 5.13511C8.75385 4.86606 9.32423 4.66016 10.0363 4.66016C11.692 4.66016 12.993 5.7209 12.993 8.0078Z" stroke="white" stroke-linejoin="round"/>
<path fill-rule="evenodd" clip-rule="evenodd" d="M1.34375 11.1037C1.34375 11.6559 1.79147 12.1037 2.34375 12.1037H2.67292C3.22521 12.1037 3.67292 11.6559 3.67292 11.1037V5.72266C3.67292 5.17037 3.22521 4.72266 2.67292 4.72266H2.34375C1.79147 4.72266 1.34375 5.17037 1.34375 5.72266V11.1037Z" stroke="white" stroke-linejoin="round"/>
<path fill-rule="evenodd" clip-rule="evenodd" d="M3.63625 2.58687C3.63625 3.2527 3.17546 3.78058 2.43739 3.78058H2.42243C1.71079 3.78058 1.25 3.25518 1.25 2.58825C1.25 1.90837 1.72451 1.39453 2.4511 1.39453C3.17546 1.39453 3.62129 1.90726 3.63625 2.58687Z" stroke="white" stroke-linejoin="round"/>
</svg>
