<svg width="18" height="14" viewBox="0 0 18 14" fill="none" xmlns="http://www.w3.org/2000/svg">
<path d="M15.3947 0.00390625H2.60526C1.18421 0.00390625 0 1.1784 0 2.5878V11.42C0 12.8294 1.18421 14.0039 2.60526 14.0039H15.3947C16.8158 14.0039 18 12.8294 18 11.42V2.54082C18 1.13142 16.8632 0.00390625 15.3947 0.00390625ZM15.3947 1.22537C15.4895 1.22537 15.5842 1.22537 15.7263 1.27235L10.3263 7.33276C9.99473 7.7086 9.52105 7.89652 9 7.89652C8.47895 7.89652 8.00527 7.66162 7.67369 7.33276L2.27368 1.27235C2.36842 1.27235 2.46316 1.22537 2.60526 1.22537H15.3947ZM16.7684 11.42C16.7684 12.1717 16.1526 12.7824 15.3947 12.7824H2.60526C1.84737 12.7824 1.23157 12.1717 1.23157 11.42V2.54082C1.23157 2.3529 1.27894 2.16498 1.32631 2.02404L6.72632 8.13142C7.29474 8.78914 8.09998 9.118 8.95261 9.118C9.80525 9.118 10.6105 8.74216 11.1789 8.13142L16.5789 2.02404C16.6263 2.16498 16.6737 2.3529 16.6737 2.54082V11.42H16.7684Z" fill="white"/>
</svg>
