<svg width="13" height="19" viewBox="0 0 13 19" fill="none" xmlns="http://www.w3.org/2000/svg">
<path d="M10.2149 0.00390625H2.74646C1.25277 0.00390625 0 1.20849 0 2.75036V15.7599C0 17.2536 1.20459 18.5063 2.74646 18.5063H10.2149C11.7086 18.5063 12.9613 17.2536 12.9613 15.7599V2.75036C12.9613 1.25667 11.7086 0.00390625 10.2149 0.00390625ZM2.74646 1.30486H10.2149C11.034 1.30486 11.7086 1.97943 11.7086 2.79854V13.2543H1.30096V2.79854C1.25277 1.93124 1.92734 1.30486 2.74646 1.30486ZM10.2149 17.2536H2.74646C1.92734 17.2536 1.25279 16.579 1.25279 15.7599V14.4107H11.6604V15.7599C11.6604 16.6272 11.034 17.2536 10.2149 17.2536Z" fill="white"/>
<path d="M6.30832 3.09257C6.59742 3.09257 6.79015 2.85166 6.79015 2.61074C6.79015 2.32164 6.54923 2.12891 6.30832 2.12891C6.01922 2.12891 5.82648 2.36982 5.82648 2.61074C5.7783 2.89984 6.01922 3.09257 6.30832 3.09257Z" fill="white"/>
<path d="M6.30996 15.2305C6.02086 15.2305 5.82812 15.4714 5.82812 15.7123C5.82812 16.0014 6.06904 16.1941 6.30996 16.1941C6.59906 16.1941 6.79179 15.9532 6.79179 15.7123C6.79179 15.4714 6.55088 15.2305 6.30996 15.2305Z" fill="white"/>
</svg>
