<svg width="27" height="284" viewBox="0 0 27 284" fill="none" xmlns="http://www.w3.org/2000/svg">
<path d="M9.21767 254.616C9.21733 254.606 9.21739 254.596 9.21783 254.586L9.21771 254.586M9.21771 254.586C9.21771 254.586 9.21771 254.585 9.21772 254.585C9.22108 254.509 9.24734 254.436 9.29128 254.376C9.30996 254.35 9.33183 254.327 9.35649 254.306L11.1411 252.733L8.7545 254.176L9.184 255.342L9.21771 254.586ZM9.10614 257.341L9.10619 257.341C9.11405 257.363 9.12357 257.383 9.13457 257.402C9.17046 257.48 9.23249 257.546 9.31307 257.586L9.31424 257.587C9.36674 257.612 9.42377 257.626 9.4815 257.626C9.56998 257.626 9.65768 257.594 9.72814 257.536L9.72815 257.536L9.72912 257.535L11.1843 256.294L13.2581 257.877L13.2581 257.877C13.4503 258.023 13.6812 258.1 13.916 258.1C14.0384 258.1 14.16 258.079 14.2795 258.038L14.2795 258.038L14.2806 258.038C14.6271 257.915 14.8867 257.628 14.9758 257.27L14.9758 257.27L17.0783 248.809L17.0784 248.809C17.1437 248.544 17.0585 248.267 16.8555 248.085C16.6524 247.904 16.3673 247.851 16.113 247.948C16.113 247.948 16.113 247.948 16.113 247.948L5.36931 252.054C5.07838 252.165 4.89424 252.44 4.90014 252.752C4.90546 253.064 5.10031 253.332 5.39457 253.431L7.99173 254.314L9.10614 257.341Z" fill="#151C26" stroke="#151C26" stroke-width="0.2"/>
<path d="M6 4.04L6 1.9L20.28 1.9L20.28 9.94L18.44 9.94L18.44 4.04L13.78 4.04L13.78 9.56L11.94 9.56L11.94 4.04L6 4.04ZM11.4 21.7264C10.5067 21.7264 9.71333 21.6064 9.02 21.3664C8.32667 21.1264 7.74 20.7864 7.26 20.3464C6.78 19.9064 6.41333 19.3731 6.16 18.7464C5.92 18.1197 5.8 17.4131 5.8 16.6264C5.8 15.9064 5.92 15.2397 6.16 14.6264C6.41333 14.0131 6.78 13.4797 7.26 13.0264C7.74 12.5864 8.32667 12.2397 9.02 11.9864C9.71333 11.7331 10.5133 11.6064 11.42 11.6064C12.6067 11.6064 13.6133 11.8064 14.44 12.2064C15.2667 12.6197 15.8933 13.2064 16.32 13.9664C16.76 14.7397 16.98 15.6464 16.98 16.6864C16.98 17.6731 16.76 18.5397 16.32 19.2864C15.8933 20.0464 15.2667 20.6397 14.44 21.0664C13.6133 21.5064 12.6 21.7264 11.4 21.7264ZM11.4 13.7864C10.6 13.7864 9.90667 13.8864 9.32 14.0864C8.74667 14.2864 8.30667 14.5997 8 15.0264C7.69333 15.4531 7.54 15.9997 7.54 16.6664C7.54 17.3331 7.69333 17.8797 8 18.3064C8.30667 18.7331 8.74667 19.0464 9.32 19.2464C9.90667 19.4464 10.6 19.5464 11.4 19.5464C12.2267 19.5464 12.92 19.4397 13.48 19.2264C14.04 19.0264 14.4667 18.7131 14.76 18.2864C15.0667 17.8731 15.22 17.3264 15.22 16.6464C15.22 15.6464 14.8867 14.9197 14.22 14.4664C13.5533 14.0131 12.6133 13.7864 11.4 13.7864ZM6 26.5339L6 24.4139L21.2 24.4139L21.2 26.5339L6 26.5339ZM6 31.9831L6 29.8631L21.2 29.8631L21.2 31.9831L6 31.9831ZM11.4 44.8123C10.5067 44.8123 9.71333 44.6923 9.02 44.4523C8.32666 44.2123 7.74 43.8723 7.26 43.4323C6.78 42.9923 6.41333 42.459 6.16 41.8323C5.92 41.2057 5.8 40.499 5.8 39.7123C5.8 38.9923 5.92 38.3257 6.16 37.7123C6.41333 37.099 6.78 36.5657 7.26 36.1123C7.74 35.6723 8.32667 35.3257 9.02 35.0723C9.71333 34.819 10.5133 34.6923 11.42 34.6923C12.6067 34.6923 13.6133 34.8923 14.44 35.2923C15.2667 35.7057 15.8933 36.2923 16.32 37.0523C16.76 37.8257 16.98 38.7323 16.98 39.7723C16.98 40.759 16.76 41.6257 16.32 42.3723C15.8933 43.1323 15.2667 43.7257 14.44 44.1523C13.6133 44.5923 12.6 44.8123 11.4 44.8123ZM11.4 36.8723C10.6 36.8723 9.90667 36.9723 9.32 37.1723C8.74667 37.3723 8.30667 37.6857 8 38.1123C7.69333 38.539 7.54 39.0857 7.54 39.7523C7.54 40.419 7.69333 40.9657 8 41.3923C8.30666 41.819 8.74666 42.1323 9.32 42.3323C9.90666 42.5323 10.6 42.6323 11.4 42.6323C12.2267 42.6323 12.92 42.5257 13.48 42.3123C14.04 42.1123 14.4667 41.799 14.76 41.3723C15.0667 40.959 15.22 40.4123 15.22 39.7323C15.22 38.7323 14.8867 38.0057 14.22 37.5523C13.5533 37.099 12.6133 36.8723 11.4 36.8723ZM11.4 54.3892C11.6667 54.3226 11.96 54.2426 12.28 54.1492C12.6 54.0692 12.92 53.9892 13.24 53.9092C13.5733 53.8292 13.88 53.7559 14.16 53.6892C14.44 53.6226 14.66 53.5692 14.82 53.5292L14.82 53.4492C14.66 53.4226 14.44 53.3759 14.16 53.3092C13.88 53.2559 13.5733 53.1892 13.24 53.1092C12.92 53.0292 12.5933 52.9492 12.26 52.8692C11.94 52.7892 11.6467 52.7026 11.38 52.6092L6.02 51.0092L6.02 48.6492L16.8 45.6692L16.8 47.8292L11.34 49.2292C10.9667 49.3359 10.5733 49.4292 10.16 49.5092C9.74666 49.6026 9.34666 49.6826 8.96 49.7492C8.58666 49.8292 8.27333 49.8826 8.02 49.9092L8.02 49.9892C8.19333 50.0159 8.40666 50.0559 8.66 50.1092C8.92666 50.1626 9.2 50.2159 9.48 50.2692C9.77333 50.3359 10.0533 50.3959 10.32 50.4492C10.5867 50.5159 10.8067 50.5826 10.98 50.6492L16.8 52.3692L16.8 54.6892L10.98 56.3692C10.7133 56.4492 10.3933 56.5359 10.02 56.6292C9.66 56.7226 9.3 56.8026 8.94 56.8692C8.59333 56.9492 8.29333 57.0026 8.04 57.0292L8.04 57.1092C8.26666 57.1359 8.56 57.1826 8.92 57.2492C9.29333 57.3159 9.69333 57.3959 10.12 57.4892C10.5467 57.5959 10.9533 57.6959 11.34 57.7892L16.8 59.2292L16.8 61.3692L6.02 58.3492L6.02 55.9292L11.4 54.3892ZM11.04 79.7573C10.0533 79.7573 9.16 79.5507 8.36 79.1373C7.57333 78.7373 6.94666 78.1173 6.48 77.2773C6.02666 76.4373 5.8 75.3773 5.8 74.0973C5.8 72.284 6.28 70.904 7.24 69.9573C8.21333 69.024 9.49333 68.5573 11.08 68.5573L20.28 68.5573L20.28 70.7173L11.18 70.7173C10.0067 70.7173 9.12 71.004 8.52 71.5773C7.93333 72.1507 7.64 73.024 7.64 74.1973C7.64 74.9973 7.78666 75.6507 8.08 76.1573C8.37333 76.664 8.78 77.0307 9.3 77.2573C9.83333 77.4973 10.4667 77.6173 11.2 77.6173L20.28 77.6173L20.28 79.7573L11.04 79.7573ZM9.04 90.363C8.33333 90.363 7.74 90.1896 7.26 89.843C6.78 89.4963 6.41333 88.9963 6.16 88.343C5.92 87.6896 5.8 86.903 5.8 85.983C5.8 85.223 5.86 84.5696 5.98 84.023C6.08666 83.4896 6.24666 82.9963 6.46 82.543L8.32 82.543C8.09333 83.023 7.88666 83.5763 7.7 84.203C7.52666 84.8296 7.44 85.443 7.44 86.043C7.44 86.843 7.56666 87.4163 7.82 87.763C8.07333 88.123 8.41333 88.303 8.84 88.303C9.08 88.303 9.29333 88.2363 9.48 88.103C9.68 87.9696 9.88 87.7163 10.08 87.343C10.2933 86.983 10.5333 86.4496 10.8 85.743C11.08 85.063 11.3533 84.483 11.62 84.003C11.9 83.523 12.2267 83.1563 12.6 82.903C12.9867 82.6496 13.48 82.523 14.08 82.523C15.0133 82.523 15.7267 82.8963 16.22 83.643C16.7267 84.403 16.98 85.403 16.98 86.643C16.98 87.2963 16.9133 87.9096 16.78 88.483C16.66 89.0696 16.4733 89.6363 16.22 90.183L14.6 89.483C14.7467 89.1763 14.8667 88.8563 14.96 88.523C15.0667 88.203 15.1533 87.8763 15.22 87.543C15.2867 87.223 15.32 86.8896 15.32 86.543C15.32 85.903 15.22 85.4163 15.02 85.083C14.82 84.7496 14.54 84.583 14.18 84.583C13.9267 84.583 13.7067 84.6563 13.52 84.803C13.3333 84.963 13.1467 85.2363 12.96 85.623C12.7733 86.0096 12.5467 86.5363 12.28 87.203C12.0267 87.8696 11.7667 88.4363 11.5 88.903C11.2333 89.383 10.9067 89.743 10.52 89.983C10.1333 90.2363 9.64 90.363 9.04 90.363Z" fill="#151C26"/>
<path d="M11 107L11 156" stroke="#151C26"/>
<path d="M5.97349 198.275L5.97349 198.275C5.99816 197.733 6.08932 197.437 6.16599 197.238L6.16605 197.238C6.2685 196.975 6.39135 196.786 6.58868 196.588C6.78601 196.39 6.97496 196.267 7.23861 196.165C7.43727 196.088 7.73418 195.997 8.27583 195.973C8.85678 195.946 9.03187 195.941 10.5002 195.941C11.9686 195.941 12.1438 195.947 12.7252 195.973L12.7252 195.973C13.2671 195.998 13.5633 196.089 13.7624 196.165L13.7625 196.165C14.0257 196.267 14.2148 196.391 14.4124 196.588C14.61 196.785 14.7326 196.975 14.835 197.238M5.97349 198.275L14.7885 197.256M5.97349 198.275C5.94721 198.856 5.94145 199.031 5.94145 200.5C5.94145 201.969 5.94677 202.144 5.97349 202.725C5.99812 203.267 6.08857 203.564 6.16604 203.762C6.26807 204.025 6.39113 204.214 6.58873 204.412C6.78633 204.609 6.97543 204.732 7.23857 204.834M5.97349 198.275L8.27586 205.027C7.73413 205.002 7.4373 204.912 7.23857 204.834M14.835 197.238L14.7885 197.256M14.835 197.238C14.835 197.238 14.835 197.238 14.835 197.238L14.7885 197.256M14.835 197.238C14.9125 197.437 15.003 197.733 15.0276 198.275M14.7885 197.256C14.864 197.45 14.9533 197.741 14.9777 198.277M15.0276 198.275L14.9777 198.277M15.0276 198.275C15.0543 198.856 15.0597 199.031 15.0597 200.5C15.0597 201.969 15.0543 202.144 15.0276 202.725M15.0276 198.275C15.0276 198.275 15.0276 198.275 15.0276 198.275L14.9777 198.277M14.9777 198.277L15.0276 202.725M15.0276 202.725L14.9777 202.723L15.0276 202.725L15.0276 202.725ZM15.6651 196.916C15.7988 197.259 15.8907 197.654 15.9172 198.235C15.9438 198.82 15.95 199.007 15.95 200.5C15.95 201.993 15.9438 202.18 15.9172 202.765L15.9172 202.765C15.8912 203.346 15.7988 203.74 15.6651 204.084C15.5266 204.44 15.3427 204.741 15.0419 205.041C14.741 205.342 14.4404 205.526 14.0848 205.665C13.7408 205.798 13.3464 205.89 12.7656 205.917L12.7655 205.917C12.1803 205.944 11.9937 205.95 10.5002 205.95C9.0068 205.95 8.8205 205.943 8.23486 205.917C7.65409 205.89 7.26008 205.798 6.91566 205.665C6.55979 205.526 6.25938 205.342 5.95852 205.041C5.65774 204.741 5.47348 204.44 5.33539 204.084L5.33538 204.084C5.20163 203.74 5.10971 203.346 5.08326 202.765L5.08326 202.765C5.0562 202.18 5.05 201.993 5.05 200.5C5.05 199.007 5.0562 198.82 5.08326 198.235L5.08326 198.235C5.10971 197.654 5.20163 197.26 5.33538 196.916L5.3354 196.916C5.47348 196.56 5.65769 196.259 5.95853 195.959C6.25944 195.658 6.5598 195.473 6.91562 195.335L6.91566 195.335C7.25939 195.202 7.65406 195.11 8.23486 195.083L8.2349 195.083C8.8205 195.056 9.00721 195.05 10.5007 195.05C11.9941 195.05 12.1807 195.057 12.766 195.083L12.7661 195.083C13.3464 195.109 13.7408 195.202 14.0852 195.335C14.4405 195.473 14.7415 195.658 15.0419 195.958C15.3423 196.259 15.5266 196.56 15.6651 196.916ZM15.6651 196.916L15.7117 196.897M15.6651 196.916C15.6651 196.916 15.6651 196.916 15.6651 196.916L15.7117 196.897M15.7117 196.897C15.8476 197.247 15.9405 197.647 15.9671 198.232C15.9938 198.819 16 199.006 16 200.5C16 201.994 15.9938 202.181 15.9671 202.768L14.1033 195.289C14.4646 195.429 14.7716 195.617 15.0772 195.923C15.3829 196.229 15.5709 196.536 15.7117 196.897ZM12.7679 205.967C12.1814 205.994 11.9939 206 10.5002 206C9.00654 206 8.81935 205.993 8.23259 205.967C7.64706 205.94 7.24761 205.847 6.89753 205.711C6.53566 205.57 6.22928 205.382 5.9232 205.077L12.7679 205.967ZM12.7679 205.967C13.3534 205.94 13.7533 205.847 14.1029 205.711L12.7679 205.967ZM12.8263 197.564C12.8263 197.685 12.862 197.802 12.929 197.903C12.996 198.003 13.0912 198.081 13.2027 198.128C13.3141 198.174 13.4368 198.186 13.5551 198.162C13.6734 198.139 13.7822 198.081 13.8675 197.996C13.9529 197.91 14.011 197.802 14.0346 197.683C14.0582 197.565 14.0461 197.442 14 197.331C13.9539 197.219 13.8757 197.124 13.7754 197.057C13.6752 196.99 13.5572 196.954 13.4366 196.954C13.4366 196.954 13.4366 196.954 13.4366 196.954H13.4363L12.8263 197.564ZM12.8263 197.564C12.8264 197.402 12.8908 197.247 13.0051 197.133C13.1195 197.018 13.2746 196.954 13.4363 196.954L12.8263 197.564ZM7.23857 204.834L7.25672 204.788L7.23858 204.834C7.23858 204.834 7.23857 204.834 7.23857 204.834ZM10.5002 198.617C9.46007 198.617 8.61711 199.46 8.61711 200.5C8.61711 201.54 9.46007 202.383 10.5002 202.383C11.5404 202.383 12.3838 201.54 12.3838 200.5C12.3838 199.46 11.5404 198.617 10.5002 198.617ZM10.5002 203.274C8.96797 203.274 7.72592 202.032 7.72592 200.5C7.72592 198.968 8.96797 197.726 10.5002 197.726C12.0325 197.726 13.2745 198.968 13.2745 200.5C13.2745 202.032 12.0325 203.274 10.5002 203.274ZM13.7444 204.788L13.7625 204.834L12.723 204.977L12.7252 205.027C13.267 205.002 13.5639 204.912 13.7625 204.834L13.7444 204.788Z" fill="#151C26" stroke="#151C26" stroke-width="0.1"/>
<path d="M12.0937 170.286L12.0939 170.286C12.8751 170.286 13.5 169.645 13.5 168.873C13.5 168.179 12.982 167.545 12.2324 167.512C12.0621 167.505 11.8751 167.5 11.6793 167.5C10.9076 167.5 10.2141 167.767 9.71794 168.315C9.22654 168.857 8.97793 169.621 8.97793 170.528V171.2C8.97793 171.332 8.87094 171.439 8.73896 171.439C8.0547 171.439 7.5 171.993 7.5 172.678V173.112C7.5 173.797 8.0547 174.351 8.73896 174.351C8.87094 174.351 8.97793 174.458 8.97793 174.59V177.116C8.97793 177.88 9.59746 178.5 10.3617 178.5C11.1259 178.5 11.7454 177.88 11.7455 177.116L11.7455 174.631C11.7455 174.477 11.8706 174.351 12.0249 174.351C12.6748 174.351 13.2215 173.864 13.296 173.219L13.3343 172.886C13.4233 172.115 12.8204 171.439 12.0442 171.439C11.8792 171.439 11.7454 171.305 11.7454 171.14V170.718C11.7454 170.456 11.7844 170.369 11.8024 170.345C11.8025 170.345 11.8026 170.345 11.8027 170.345C11.8052 170.341 11.8123 170.332 11.8431 170.32C11.8814 170.305 11.9574 170.286 12.0937 170.286Z" stroke="#151C26"/>
<path fill-rule="evenodd" clip-rule="evenodd" d="M15.7914 229.78V232.552C15.7914 233.104 15.3437 233.552 14.7914 233.552H14.3634C13.8111 233.552 13.3634 233.104 13.3634 232.552V230.041C13.3634 229.122 12.984 228.496 12.1489 228.496C11.5097 228.496 11.1539 228.919 10.9893 229.326C10.9268 229.473 10.9369 229.676 10.9369 229.881V232.552C10.9369 233.104 10.4891 233.552 9.93686 233.552H9.53629C8.98204 233.552 8.53347 233.102 8.53575 232.548C8.54094 231.286 8.54823 229.129 8.54378 227.825C8.54182 227.251 9.01412 226.768 9.58812 226.768H10.7986C10.8749 226.768 10.9369 226.83 10.9369 226.906V226.906C10.9369 227.065 11.3951 227.228 11.5271 227.14C11.8952 226.892 12.4195 226.703 13.0739 226.703C14.5957 226.703 15.7914 227.678 15.7914 229.78Z" stroke="#151C26" stroke-linejoin="round"/>
<path fill-rule="evenodd" clip-rule="evenodd" d="M5.08594 232.549C5.08594 233.102 5.53365 233.549 6.08594 233.549H6.22667C6.77895 233.549 7.22667 233.102 7.22667 232.549V227.766C7.22667 227.213 6.77895 226.766 6.22667 226.766H6.08594C5.53365 226.766 5.08594 227.213 5.08594 227.766V232.549Z" stroke="#151C26" stroke-linejoin="round"/>
<path fill-rule="evenodd" clip-rule="evenodd" d="M7.19319 224.799C7.19319 225.411 6.76968 225.896 6.09132 225.896H6.07757C5.42351 225.896 5 225.413 5 224.8C5 224.175 5.43612 223.703 6.10393 223.703C6.76968 223.703 7.17944 224.174 7.19319 224.799Z" stroke="#151C26" stroke-linejoin="round"/>
<path d="M6 284L6.86235 280.79C6.37423 279.911 6.11743 278.926 6.11743 277.927C6.11743 274.658 8.78301 272 12.0584 272C15.3344 272 18 274.659 18 277.927C18 281.195 15.3344 283.853 12.0584 283.853C11.0751 283.853 10.1038 283.606 9.23434 283.135L6 284ZM9.39492 281.933L9.59866 282.054C10.3464 282.499 11.1967 282.734 12.0584 282.734C14.7154 282.734 16.8766 280.578 16.8766 277.927C16.8766 275.277 14.7154 273.121 12.0584 273.121C9.402 273.121 7.24012 275.277 7.24012 277.927C7.24012 278.802 7.48347 279.664 7.94471 280.419L8.06992 280.624L7.58887 282.416L9.39492 281.933Z" fill="#151C26"/>
<path fill-rule="evenodd" clip-rule="evenodd" d="M14.2683 278.752C14.0236 278.606 13.7052 278.442 13.4173 278.56C13.1966 278.651 13.0551 278.996 12.9122 279.172C12.8386 279.263 12.7509 279.277 12.6384 279.231C11.8086 278.902 11.1727 278.349 10.715 277.588C10.6372 277.469 10.6513 277.376 10.7447 277.267C10.8833 277.104 11.0567 276.92 11.0941 276.701C11.1316 276.482 11.0284 276.226 10.9378 276.031C10.8218 275.782 10.6923 275.427 10.4419 275.286C10.212 275.156 9.90922 275.229 9.70407 275.395C9.35035 275.682 9.17986 276.133 9.18481 276.579C9.18623 276.706 9.2018 276.832 9.23151 276.954C9.30296 277.248 9.43949 277.523 9.59229 277.784C9.70831 277.981 9.83352 278.172 9.96935 278.356C10.4129 278.957 10.9654 279.48 11.6042 279.87C11.9232 280.065 12.2678 280.236 12.6236 280.354C13.0233 280.486 13.3791 280.622 13.8106 280.541C14.262 280.455 14.7077 280.176 14.8866 279.742C14.9397 279.613 14.9666 279.47 14.9369 279.335C14.8774 279.054 14.4961 278.887 14.2683 278.752Z" fill="#151C26"/>
</svg>
