<svg width="14" height="12" viewBox="0 0 14 12" fill="none" xmlns="http://www.w3.org/2000/svg">
<mask id="path-1-outside-1_2762_33502" maskUnits="userSpaceOnUse" x="-0.75" y="-0.167969" width="15" height="13" fill="black">
<rect fill="white" x="-0.75" y="-0.167969" width="15" height="13"/>
<path d="M5.10736 11.1592C4.98248 11.1592 4.86568 11.0824 4.8197 10.958L3.53861 7.47835C3.47959 7.319 3.56097 7.14089 3.7194 7.08214C3.87783 7.02277 4.05489 7.10401 4.11329 7.264L5.3944 10.7437C5.45342 10.903 5.37203 11.0811 5.2136 11.1399C5.17881 11.153 5.14277 11.1592 5.10736 11.1592Z"/>
<path d="M5.126 11.1961C5.08002 11.1961 5.03405 11.1855 4.99118 11.1649C4.88184 11.1105 4.81474 10.9967 4.81971 10.8743L4.94769 8.00204C4.95266 7.88768 5.02038 7.78519 5.12413 7.73644C5.22726 7.6877 5.34904 7.7002 5.43975 7.77019L7.14953 9.07506C7.22347 9.1313 7.26819 9.2188 7.27068 9.31254C7.27316 9.40566 7.2334 9.49565 7.16258 9.55627L5.32482 11.1236C5.26766 11.1711 5.19683 11.1961 5.126 11.1961ZM5.53418 8.61636L5.46398 10.195L6.47419 9.33379L5.53418 8.61636Z"/>
<path d="M9.95091 11.7123C9.71917 11.7123 9.49116 11.6367 9.30104 11.4917L5.06884 8.2614C4.99553 8.20578 4.95079 8.11954 4.94768 8.02643C4.94458 7.93393 4.98248 7.84457 5.05206 7.78395L7.91371 5.26169L3.98469 7.63584C3.90765 7.68208 3.81384 7.6927 3.72873 7.66333L0.714239 6.63843C0.437766 6.54469 0.255102 6.29409 0.250132 6.00037C0.24454 5.70665 0.417258 5.44918 0.690624 5.34481L12.3801 0.877121C12.6187 0.78588 12.8859 0.835246 13.0766 1.00585C13.2673 1.17646 13.3475 1.43707 13.286 1.68642L10.9984 10.8918C10.9102 11.2461 10.6536 11.5298 10.3113 11.6511C10.192 11.6917 10.0714 11.7123 9.95091 11.7123ZM5.73858 7.99767L9.67133 10.9999C9.79745 11.0961 9.95588 11.1211 10.1056 11.068C10.2553 11.0149 10.3628 10.8961 10.4013 10.7412L12.6889 1.53581C12.6976 1.50144 12.6821 1.47893 12.6678 1.46643C12.6535 1.45331 12.6293 1.44081 12.5963 1.45331L0.906836 5.921C0.895653 5.92538 0.860862 5.9385 0.861484 5.98787C0.862105 6.03724 0.897516 6.04912 0.90932 6.05286L3.78961 7.03152L10.5324 2.95754C10.6685 2.87505 10.8443 2.9113 10.9381 3.04003C11.0319 3.1694 11.0121 3.34876 10.8922 3.45375L5.73858 7.99767Z"/>
</mask>
<path d="M5.10736 11.1592C4.98248 11.1592 4.86568 11.0824 4.8197 10.958L3.53861 7.47835C3.47959 7.319 3.56097 7.14089 3.7194 7.08214C3.87783 7.02277 4.05489 7.10401 4.11329 7.264L5.3944 10.7437C5.45342 10.903 5.37203 11.0811 5.2136 11.1399C5.17881 11.153 5.14277 11.1592 5.10736 11.1592Z" fill="white"/>
<path d="M5.126 11.1961C5.08002 11.1961 5.03405 11.1855 4.99118 11.1649C4.88184 11.1105 4.81474 10.9967 4.81971 10.8743L4.94769 8.00204C4.95266 7.88768 5.02038 7.78519 5.12413 7.73644C5.22726 7.6877 5.34904 7.7002 5.43975 7.77019L7.14953 9.07506C7.22347 9.1313 7.26819 9.2188 7.27068 9.31254C7.27316 9.40566 7.2334 9.49565 7.16258 9.55627L5.32482 11.1236C5.26766 11.1711 5.19683 11.1961 5.126 11.1961ZM5.53418 8.61636L5.46398 10.195L6.47419 9.33379L5.53418 8.61636Z" fill="white"/>
<path d="M9.95091 11.7123C9.71917 11.7123 9.49116 11.6367 9.30104 11.4917L5.06884 8.2614C4.99553 8.20578 4.95079 8.11954 4.94768 8.02643C4.94458 7.93393 4.98248 7.84457 5.05206 7.78395L7.91371 5.26169L3.98469 7.63584C3.90765 7.68208 3.81384 7.6927 3.72873 7.66333L0.714239 6.63843C0.437766 6.54469 0.255102 6.29409 0.250132 6.00037C0.24454 5.70665 0.417258 5.44918 0.690624 5.34481L12.3801 0.877121C12.6187 0.78588 12.8859 0.835246 13.0766 1.00585C13.2673 1.17646 13.3475 1.43707 13.286 1.68642L10.9984 10.8918C10.9102 11.2461 10.6536 11.5298 10.3113 11.6511C10.192 11.6917 10.0714 11.7123 9.95091 11.7123ZM5.73858 7.99767L9.67133 10.9999C9.79745 11.0961 9.95588 11.1211 10.1056 11.068C10.2553 11.0149 10.3628 10.8961 10.4013 10.7412L12.6889 1.53581C12.6976 1.50144 12.6821 1.47893 12.6678 1.46643C12.6535 1.45331 12.6293 1.44081 12.5963 1.45331L0.906836 5.921C0.895653 5.92538 0.860862 5.9385 0.861484 5.98787C0.862105 6.03724 0.897516 6.04912 0.90932 6.05286L3.78961 7.03152L10.5324 2.95754C10.6685 2.87505 10.8443 2.9113 10.9381 3.04003C11.0319 3.1694 11.0121 3.34876 10.8922 3.45375L5.73858 7.99767Z" fill="white"/>
<path d="M12.4876 1.26522H12.4889V1.06522H12.4876V1.26522ZM4.8197 10.958L4.63202 11.0271L4.63211 11.0274L4.8197 10.958ZM3.53861 7.47835L3.7263 7.40926L3.72616 7.40889L3.53861 7.47835ZM3.7194 7.08214L3.78893 7.26967L3.78958 7.26942L3.7194 7.08214ZM4.11329 7.264L3.92542 7.33258L3.92561 7.3331L4.11329 7.264ZM5.3944 10.7437L5.20671 10.8128L5.20685 10.8131L5.3944 10.7437ZM5.2136 11.1399L5.14407 10.9523L5.14301 10.9527L5.2136 11.1399ZM4.99118 11.1649L4.90213 11.344L4.90448 11.3451L4.99118 11.1649ZM4.81971 10.8743L4.6199 10.8654L4.61987 10.8661L4.81971 10.8743ZM4.94769 8.00204L5.14749 8.01095L5.1475 8.01073L4.94769 8.00204ZM5.12413 7.73644L5.20918 7.91746L5.20959 7.91726L5.12413 7.73644ZM5.43975 7.77019L5.31757 7.92853L5.31841 7.92918L5.43975 7.77019ZM7.14953 9.07506L7.0282 9.23405L7.02844 9.23423L7.14953 9.07506ZM7.27068 9.31254L7.07075 9.31784L7.07075 9.31788L7.27068 9.31254ZM7.16258 9.55627L7.29236 9.70844L7.29262 9.70821L7.16258 9.55627ZM5.32482 11.1236L5.45265 11.2774L5.4546 11.2758L5.32482 11.1236ZM5.53418 8.61636L5.65552 8.45737L5.35138 8.22524L5.33438 8.60747L5.53418 8.61636ZM5.46398 10.195L5.26418 10.1861L5.24375 10.6455L5.59373 10.3472L5.46398 10.195ZM6.47419 9.33379L6.60394 9.48599L6.79257 9.32518L6.59553 9.1748L6.47419 9.33379ZM9.30104 11.4917L9.1797 11.6507L9.17976 11.6507L9.30104 11.4917ZM5.06884 8.2614L5.19019 8.10241L5.18972 8.10206L5.06884 8.2614ZM4.94768 8.02643L5.14757 8.01976L5.14757 8.01971L4.94768 8.02643ZM5.05206 7.78395L5.18344 7.93475L5.1843 7.93399L5.05206 7.78395ZM7.91371 5.26169L8.04595 5.41173L7.81027 5.09051L7.91371 5.26169ZM3.98469 7.63584L4.08762 7.80732L4.08812 7.80701L3.98469 7.63584ZM3.72873 7.66333L3.79397 7.47427L3.7931 7.47398L3.72873 7.66333ZM0.714239 6.63843L0.778618 6.44908L0.77846 6.44902L0.714239 6.63843ZM0.250132 6.00037L0.450104 5.99699L0.450096 5.99656L0.250132 6.00037ZM0.690624 5.34481L0.761957 5.53166L0.762026 5.53163L0.690624 5.34481ZM12.3801 0.877121L12.4515 1.06394L12.4516 1.06393L12.3801 0.877121ZM13.286 1.68642L13.4801 1.73465L13.4802 1.73431L13.286 1.68642ZM10.9984 10.8918L11.1925 10.9401L11.1925 10.94L10.9984 10.8918ZM10.3113 11.6511L10.3757 11.8404L10.378 11.8396L10.3113 11.6511ZM5.73858 7.99767L5.60631 7.84766L5.42355 8.0088L5.61722 8.15665L5.73858 7.99767ZM9.67133 10.9999L9.54997 11.1589L9.55 11.1589L9.67133 10.9999ZM10.4013 10.7412L10.5954 10.7894L10.5954 10.7894L10.4013 10.7412ZM12.6889 1.53581L12.495 1.48674L12.4948 1.48757L12.6889 1.53581ZM12.6678 1.46643L12.5325 1.61378L12.5361 1.61697L12.6678 1.46643ZM12.5963 1.45331L12.5254 1.26633L12.5249 1.26649L12.5963 1.45331ZM0.906836 5.921L0.835432 5.73418L0.833977 5.73475L0.906836 5.921ZM0.90932 6.05286L0.973675 5.86346L0.969868 5.86225L0.90932 6.05286ZM3.78961 7.03152L3.72526 7.22088L3.81338 7.25082L3.89303 7.2027L3.78961 7.03152ZM10.5324 2.95754L10.6359 3.12872L10.6361 3.12856L10.5324 2.95754ZM10.9381 3.04003L11.1 2.92262L11.0998 2.92225L10.9381 3.04003ZM10.8922 3.45375L10.7604 3.30327L10.7599 3.30373L10.8922 3.45375ZM5.10736 10.9592C5.06424 10.9592 5.02357 10.9327 5.00729 10.8887L4.63211 11.0274C4.70779 11.2321 4.90072 11.3592 5.10736 11.3592V10.9592ZM5.00739 10.8889L3.7263 7.40926L3.35093 7.54745L4.63202 11.0271L5.00739 10.8889ZM3.72616 7.40889C3.70519 7.35228 3.73485 7.28972 3.78893 7.26967L3.64986 6.89462C3.38709 6.99205 3.25399 7.28571 3.35106 7.54782L3.72616 7.40889ZM3.78958 7.26942C3.84371 7.24914 3.90504 7.27674 3.92542 7.33258L4.30117 7.19542C4.20475 6.93129 3.91194 6.79641 3.64922 6.89486L3.78958 7.26942ZM3.92561 7.3331L5.20671 10.8128L5.58208 10.6746L4.30098 7.1949L3.92561 7.3331ZM5.20685 10.8131C5.22781 10.8697 5.19816 10.9323 5.14407 10.9523L5.28313 11.3274C5.5459 11.23 5.67903 10.9363 5.58195 10.6742L5.20685 10.8131ZM5.14301 10.9527C5.13132 10.9571 5.11924 10.9592 5.10736 10.9592V11.3592C5.1663 11.3592 5.2263 11.3488 5.28419 11.327L5.14301 10.9527ZM5.126 10.9961C5.11097 10.9961 5.09455 10.9926 5.07789 10.9846L4.90448 11.3451C4.97355 11.3783 5.04908 11.3961 5.126 11.3961V10.9961ZM5.08023 10.9858C5.04186 10.9667 5.01775 10.9265 5.01954 10.8824L4.61987 10.8661C4.61172 11.067 4.72181 11.2543 4.90214 11.3439L5.08023 10.9858ZM5.01951 10.8832L5.14749 8.01095L4.74789 7.99314L4.61991 10.8654L5.01951 10.8832ZM5.1475 8.01073C5.14926 7.97011 5.17326 7.93433 5.20918 7.91746L5.03909 7.55542C4.86749 7.63604 4.75605 7.80525 4.74788 7.99336L5.1475 8.01073ZM5.20959 7.91726C5.2455 7.90029 5.28698 7.90492 5.31757 7.92853L5.56193 7.61185C5.41111 7.49547 5.20903 7.4751 5.03867 7.55562L5.20959 7.91726ZM5.31841 7.92918L7.0282 9.23405L7.27087 8.91607L5.56109 7.6112L5.31841 7.92918ZM7.02844 9.23423C7.05378 9.25351 7.06986 9.28423 7.07075 9.31784L7.47061 9.30724C7.46653 9.15336 7.39315 9.0091 7.27062 8.91588L7.02844 9.23423ZM7.07075 9.31788C7.07163 9.35101 7.05731 9.38311 7.03253 9.40432L7.29262 9.70821C7.4095 9.60818 7.47469 9.4603 7.47061 9.3072L7.07075 9.31788ZM7.0328 9.40409L5.19503 10.9714L5.4546 11.2758L7.29236 9.70844L7.0328 9.40409ZM5.197 10.9698C5.17569 10.9875 5.15006 10.9961 5.126 10.9961V11.3961C5.24359 11.3961 5.35962 11.3547 5.45264 11.2774L5.197 10.9698ZM5.33438 8.60747L5.26418 10.1861L5.66379 10.2038L5.73399 8.62524L5.33438 8.60747ZM5.59373 10.3472L6.60394 9.48599L6.34444 9.18158L5.33424 10.0428L5.59373 10.3472ZM6.59553 9.1748L5.65552 8.45737L5.41284 8.77534L6.35285 9.49277L6.59553 9.1748ZM9.95091 11.5123C9.7629 11.5123 9.57752 11.451 9.42233 11.3327L9.17976 11.6507C9.4048 11.8224 9.67545 11.9123 9.95091 11.9123V11.5123ZM9.42239 11.3327L5.19019 8.10242L4.94749 8.42038L9.1797 11.6507L9.42239 11.3327ZM5.18972 8.10206C5.16458 8.08299 5.14868 8.05293 5.14757 8.01976L4.7478 8.03309C4.7529 8.18615 4.82647 8.32857 4.94796 8.42073L5.18972 8.10206ZM5.14757 8.01971C5.14643 7.9858 5.16038 7.95483 5.18343 7.93475L4.92069 7.63315C4.80457 7.7343 4.74272 7.88207 4.7478 8.03314L5.14757 8.01971ZM5.1843 7.93399L8.04595 5.41173L7.78147 5.11165L4.91982 7.63391L5.1843 7.93399ZM7.81027 5.09051L3.88125 7.46466L4.08812 7.80701L8.01714 5.43286L7.81027 5.09051ZM3.88175 7.46436C3.85431 7.48083 3.82197 7.48394 3.79397 7.47427L3.66348 7.85239C3.80571 7.90147 3.96099 7.88333 4.08762 7.80732L3.88175 7.46436ZM3.7931 7.47398L0.778618 6.44908L0.64986 6.82779L3.66435 7.85269L3.7931 7.47398ZM0.77846 6.44902C0.582369 6.38254 0.453651 6.20667 0.450103 5.99699L0.0501604 6.00375C0.0565528 6.38152 0.293163 6.70684 0.650018 6.82784L0.77846 6.44902ZM0.450096 5.99656C0.446096 5.78647 0.568015 5.6057 0.761957 5.53166L0.61929 5.15797C0.2665 5.29265 0.0429845 5.62683 0.050168 6.00418L0.450096 5.99656ZM0.762026 5.53163L12.4515 1.06394L12.3087 0.690301L0.619222 5.15799L0.762026 5.53163ZM12.4516 1.06393C12.6201 0.999492 12.8082 1.03413 12.9433 1.15492L13.2099 0.856787C12.9635 0.636365 12.6174 0.572268 12.3087 0.690316L12.4516 1.06393ZM12.9433 1.15492C13.0786 1.27595 13.1357 1.46067 13.0918 1.63852L13.4802 1.73431C13.5593 1.41346 13.4561 1.07698 13.2099 0.856787L12.9433 1.15492ZM13.0919 1.63818L10.8043 10.8435L11.1925 10.94L13.4801 1.73465L13.0919 1.63818ZM10.8043 10.8434C10.7322 11.1332 10.523 11.3639 10.2445 11.4625L10.378 11.8396C10.7841 11.6958 11.0882 11.359 11.1925 10.9401L10.8043 10.8434ZM10.2468 11.4617C10.1471 11.4957 10.0483 11.5123 9.95091 11.5123V11.9123C10.0946 11.9123 10.2369 11.8877 10.3757 11.8404L10.2468 11.4617ZM5.61722 8.15665L9.54997 11.1589L9.79268 10.8409L5.85994 7.8387L5.61722 8.15665ZM9.55 11.1589C9.72975 11.296 9.95896 11.3322 10.1725 11.2565L10.0387 10.8795C9.9528 10.91 9.86514 10.8962 9.79265 10.8409L9.55 11.1589ZM10.1725 11.2565C10.3858 11.1808 10.5408 11.0092 10.5954 10.7894L10.2072 10.6929C10.1848 10.7831 10.1249 10.849 10.0387 10.8795L10.1725 11.2565ZM10.5954 10.7894L12.883 1.58404L12.4948 1.48757L10.2072 10.6929L10.5954 10.7894ZM12.8828 1.58487C12.9155 1.45554 12.851 1.36095 12.7995 1.31589L12.5361 1.61697C12.5264 1.60845 12.5114 1.59245 12.5012 1.56706C12.49 1.53883 12.4892 1.5099 12.495 1.48674L12.8828 1.58487ZM12.8031 1.31913C12.7505 1.27088 12.6488 1.21949 12.5254 1.26633L12.6673 1.6403C12.6453 1.64865 12.6167 1.65132 12.5873 1.64346C12.5608 1.63634 12.5428 1.62315 12.5325 1.61374L12.8031 1.31913ZM12.5249 1.26649L0.835434 5.73418L0.978238 6.10782L12.6678 1.64013L12.5249 1.26649ZM0.833977 5.73475C0.827499 5.73728 0.78061 5.75393 0.738452 5.796C0.690038 5.84432 0.660513 5.91198 0.661499 5.99039L1.06147 5.98535C1.06162 5.99712 1.05963 6.01379 1.05202 6.0325C1.04439 6.05129 1.03319 6.06697 1.02101 6.07912C0.998892 6.1012 0.97499 6.1091 0.979695 6.10726L0.833977 5.73475ZM0.661499 5.99039C0.662493 6.06936 0.694293 6.1371 0.745525 6.18441C0.790144 6.22561 0.838168 6.24011 0.848772 6.24348L0.969868 5.86225C0.968668 5.86187 0.993084 5.86855 1.01689 5.89054C1.02993 5.90258 1.04201 5.91831 1.05045 5.93738C1.05885 5.95635 1.06132 5.97338 1.06147 5.98535L0.661499 5.99039ZM0.844978 6.24223L3.72526 7.22088L3.85395 6.84215L0.973663 5.8635L0.844978 6.24223ZM3.89303 7.2027L10.6359 3.12872L10.429 2.78636L3.68618 6.86033L3.89303 7.2027ZM10.6361 3.12856C10.6823 3.10057 10.7431 3.11205 10.7765 3.15782L11.0998 2.92225C10.9455 2.71054 10.6547 2.64952 10.4287 2.78652L10.6361 3.12856ZM10.7762 3.15745C10.8097 3.20359 10.8021 3.26674 10.7604 3.30327L11.0239 3.60422C11.222 3.43078 11.2542 3.13521 11.1 2.92262L10.7762 3.15745ZM10.7599 3.30373L5.60631 7.84766L5.87085 8.14769L11.0244 3.60376L10.7599 3.30373Z" fill="white" mask="url(#path-1-outside-1_2762_33502)"/>
</svg>
