<svg width="14" height="14" viewBox="0 0 14 14" fill="none" xmlns="http://www.w3.org/2000/svg">
<path d="M0.335938 13.9977L1.2742 10.5048C0.743114 9.54888 0.463707 8.47698 0.463707 7.38972C0.463707 3.83386 3.36393 0.941406 6.92762 0.941406C10.4921 0.941406 13.3923 3.83463 13.3923 7.38972C13.3923 10.9456 10.4921 13.838 6.92762 13.838C5.85774 13.838 4.80094 13.5685 3.85499 13.0564L0.335938 13.9977ZM4.0297 11.7487L4.25138 11.8808C5.06495 12.3645 5.99013 12.6202 6.92762 12.6202C9.81859 12.6202 12.17 10.2745 12.17 7.39049C12.17 4.50648 9.81859 2.16074 6.92762 2.16074C4.03741 2.16074 1.68522 4.50648 1.68522 7.39049C1.68522 8.34261 1.94999 9.28014 2.45184 10.1017L2.58807 10.3244L2.06467 12.2747L4.0297 11.7487Z" fill="white"/>
<path fill-rule="evenodd" clip-rule="evenodd" d="M9.33214 8.28732C9.06582 8.12838 8.71946 7.95101 8.40619 8.07924C8.16604 8.17753 8.0121 8.553 7.85662 8.74496C7.77657 8.84324 7.68114 8.8586 7.55876 8.80945C6.6559 8.45087 5.96395 7.84966 5.46596 7.02116C5.38129 6.89216 5.39668 6.7908 5.49828 6.67179C5.64914 6.49519 5.83772 6.29401 5.87851 6.05598C5.91931 5.81795 5.80692 5.53923 5.7084 5.3273C5.58217 5.05626 5.44133 4.67003 5.16886 4.51647C4.91871 4.37518 4.58928 4.45427 4.36606 4.63548C3.98122 4.94799 3.79571 5.43787 3.8011 5.92315C3.80264 6.06136 3.81958 6.1988 3.85191 6.33164C3.92965 6.65183 4.07819 6.95052 4.24445 7.23462C4.37068 7.44884 4.50692 7.65693 4.6547 7.85657C5.1373 8.51077 5.73842 9.07973 6.43346 9.50435C6.78059 9.71627 7.15544 9.90286 7.5426 10.0303C7.97747 10.1739 8.36463 10.3229 8.83414 10.2338C9.32521 10.1409 9.81011 9.83759 10.0048 9.3646C10.0626 9.22485 10.0918 9.06899 10.0595 8.92156C9.99485 8.61673 9.57998 8.43475 9.33214 8.28732Z" fill="white"/>
</svg>
